<?xml version="1.0" encoding="utf-8"?>
<!-- Generator: Adobe Illustrator 16.0.0, SVG Export Plug-In . SVG Version: 6.00 Build 0)  -->
<!DOCTYPE svg PUBLIC "-//W3C//DTD SVG 1.1//EN" "http://www.w3.org/Graphics/SVG/1.1/DTD/svg11.dtd">
<svg version="1.1" id="Layer_1" xmlns="http://www.w3.org/2000/svg" xmlns:xlink="http://www.w3.org/1999/xlink" x="0px" y="0px"
	 width="700px" height="700px" viewBox="0 0 700 700" enable-background="new 0 0 700 700" xml:space="preserve">
<g>
	<path fill-rule="evenodd" clip-rule="evenodd" fill="#FFFFFF" fill-opacity="0.2471" d="M296.6,200.5c0.1,0.1,0.2,0.2,0.2,0.3
		c0,0.1,0,0.3,0,0.4c-0.1,0.1-0.2,0.2-0.3,0.2c-0.1,0-0.3,0-0.4,0l-3.4-2.1c-0.1-0.1-0.2-0.2-0.2-0.3c0-0.1,0-0.3,0.1-0.4
		c0.1-0.1,0.2-0.2,0.3-0.2c0.1,0,0.3,0,0.4,0L296.6,200.5z M318.1,215.1c-0.1-0.1-0.2-0.2-0.2-0.3c0-0.1,0-0.3,0.1-0.4
		c0.1-0.1,0.2-0.2,0.3-0.2c0.1,0,0.3,0,0.4,0l3.4,2.1c0.1,0.1,0.2,0.2,0.2,0.3c0,0.1,0,0.3,0,0.4c-0.1,0.1-0.2,0.2-0.3,0.2
		c-0.1,0-0.3,0-0.4,0L318.1,215.1z M304.9,206.7c-0.1,0-0.3,0-0.4,0l-3.4-2.1c-0.1-0.1-0.2-0.2-0.2-0.3c0-0.1,0-0.3,0.1-0.4
		c0.1-0.1,0.2-0.2,0.3-0.2c0.1,0,0.3,0,0.4,0l3.4,2.1c0.1,0.1,0.2,0.2,0.2,0.3c0,0.1,0,0.3,0,0.4
		C305.2,206.6,305.1,206.6,304.9,206.7z M309.6,209.8c-0.1-0.1-0.2-0.2-0.2-0.3c0-0.1,0-0.3,0.1-0.4c0.1-0.1,0.2-0.2,0.3-0.2
		c0.1,0,0.3,0,0.4,0.1l3.4,2.1c0.1,0.1,0.2,0.2,0.2,0.3c0,0.1,0,0.3,0,0.4c-0.1,0.1-0.2,0.2-0.3,0.2c-0.1,0-0.3,0-0.4-0.1
		L309.6,209.8z M134.2,176.5c0.1,0,0.3,0,0.4,0c0.1,0.1,0.2,0.2,0.2,0.3c0,0.1,0,0.3-0.1,0.4c-0.1,0.1-0.2,0.2-0.3,0.2l-3.8,1.1
		c-0.1,0-0.3,0-0.4,0c-0.1-0.1-0.2-0.2-0.2-0.3c0-0.1,0-0.3,0-0.4c0.1-0.1,0.2-0.2,0.3-0.2L134.2,176.5z M140.3,175.7
		c-0.1,0-0.3,0-0.4-0.1c-0.1-0.1-0.2-0.2-0.2-0.3c0-0.1,0-0.3,0.1-0.4c0.1-0.1,0.2-0.2,0.3-0.2l3.8-1.1c0.1,0,0.3,0,0.4,0.1
		c0.1,0.1,0.2,0.2,0.2,0.3c0,0.1,0,0.3,0,0.4c-0.1,0.1-0.2,0.2-0.3,0.2L140.3,175.7z M141.7,156c0,0.1-0.1,0.2-0.2,0.3l-3.5,2
		c-0.1,0.1-0.2,0.1-0.4,0.1c-0.1,0-0.2-0.1-0.3-0.2c-0.1-0.1-0.1-0.2,0-0.4c0-0.1,0.1-0.2,0.2-0.3l3.5-2c0.1-0.1,0.2-0.1,0.4,0
		c0.1,0,0.2,0.1,0.3,0.2C141.7,155.7,141.7,155.8,141.7,156z M132.3,160.3c0.1-0.1,0.2-0.1,0.4-0.1c0.1,0,0.2,0.1,0.3,0.2
		c0.1,0.1,0.1,0.2,0.1,0.4c0,0.1-0.1,0.2-0.2,0.3l-3.5,2c-0.1,0.1-0.2,0.1-0.4,0.1c-0.1,0-0.2-0.1-0.3-0.2c-0.1-0.1-0.1-0.2-0.1-0.4
		c0-0.1,0.1-0.2,0.2-0.3L132.3,160.3z M149.9,173c-0.1,0-0.3,0-0.4,0c-0.1-0.1-0.2-0.2-0.2-0.3c0-0.1,0-0.3,0.1-0.4
		c0.1-0.1,0.2-0.2,0.3-0.2l3.8-1.1c0.1,0,0.3,0,0.4,0c0.1,0.1,0.2,0.2,0.2,0.3c0,0.1,0,0.3,0,0.4c-0.1,0.1-0.2,0.2-0.3,0.2
		L149.9,173z M149.6,150.5c0.1-0.1,0.2-0.1,0.4,0c0.1,0,0.2,0.1,0.3,0.2c0.1,0.1,0.1,0.2,0,0.4c0,0.1-0.1,0.2-0.2,0.3l-3.5,2
		c-0.1,0.1-0.2,0.1-0.4,0c-0.1,0-0.2-0.1-0.3-0.2c-0.1-0.1-0.1-0.2-0.1-0.4c0-0.1,0.1-0.2,0.2-0.3L149.6,150.5z M105.4,184.7
		c0.1,0,0.3,0,0.4,0.1c0.1,0.1,0.2,0.2,0.2,0.3c0,0.1,0,0.3-0.1,0.4c-0.1,0.1-0.2,0.2-0.3,0.2l-3.8,1.1c-0.1,0-0.3,0-0.4-0.1
		c-0.1-0.1-0.2-0.2-0.2-0.3c0-0.1,0-0.3,0-0.4c0.1-0.1,0.2-0.2,0.3-0.2L105.4,184.7z M106.9,175.6c0,0.1-0.1,0.2-0.2,0.3l-3.5,2
		c-0.1,0.1-0.2,0.1-0.4,0c-0.1,0-0.2-0.1-0.3-0.2c-0.1-0.1-0.1-0.2-0.1-0.4c0-0.1,0.1-0.2,0.2-0.3l3.5-2c0.1-0.1,0.2-0.1,0.4,0
		c0.1,0,0.2,0.1,0.3,0.2C106.9,175.3,106.9,175.4,106.9,175.6z M120.5,180.5c0.1-0.1,0.2-0.2,0.3-0.2l3.9-1.1c0.1,0,0.3,0,0.4,0.1
		c0.1,0.1,0.2,0.2,0.2,0.3c0,0.1,0,0.3-0.1,0.4c-0.1,0.1-0.2,0.2-0.3,0.2l-3.9,1.1c-0.1,0-0.3,0-0.4-0.1c-0.1-0.1-0.2-0.2-0.2-0.3
		C120.4,180.7,120.4,180.6,120.5,180.5z M115.3,182.9l-3.8,1.1c-0.1,0-0.3,0-0.4,0c-0.1-0.1-0.2-0.2-0.2-0.3c0-0.1,0-0.3,0-0.4
		c0.1-0.1,0.2-0.2,0.3-0.2l3.8-1.1c0.1,0,0.3,0,0.4,0c0.1,0.1,0.2,0.2,0.2,0.3c0,0.1,0,0.3-0.1,0.4
		C115.5,182.8,115.4,182.9,115.3,182.9z M96.4,187.8c0,0.1,0,0.3,0,0.4c-0.1,0.1-0.2,0.2-0.3,0.2l-3.8,1.1c-0.1,0-0.3,0-0.4,0
		c-0.1-0.1-0.2-0.2-0.2-0.3c0-0.1,0-0.3,0-0.4c0.1-0.1,0.2-0.2,0.3-0.2l3.8-1.1c0.1,0,0.3,0,0.4,0C96.3,187.6,96.3,187.7,96.4,187.8
		z M86.7,190.9c-0.1,0.1-0.2,0.2-0.3,0.2l-3.8,1.1c-0.1,0-0.3,0-0.4-0.1c-0.1-0.1-0.2-0.2-0.2-0.3c0-0.1,0-0.3,0.1-0.4
		c0.1-0.1,0.2-0.2,0.3-0.2l3.8-1.1c0.1,0,0.3,0,0.4,0.1c0.1,0.1,0.2,0.2,0.2,0.3C86.8,190.6,86.8,190.8,86.7,190.9z M88.8,184.8
		c0.1-0.1,0.2-0.1,0.4-0.1c0.1,0,0.2,0.1,0.3,0.2c0.1,0.1,0.1,0.2,0.1,0.4c0,0.1-0.1,0.2-0.2,0.3l-3.5,2c-0.1,0.1-0.2,0.1-0.4,0.1
		c-0.1,0-0.2-0.1-0.3-0.2c-0.1-0.1-0.1-0.2-0.1-0.4c0-0.1,0.1-0.2,0.2-0.3L88.8,184.8z M94.5,182.8c-0.1,0.1-0.2,0.1-0.4,0.1
		c-0.1,0-0.2-0.1-0.3-0.2c-0.1-0.1-0.1-0.2,0-0.4c0-0.1,0.1-0.2,0.2-0.3l3.5-2c0.1-0.1,0.2-0.1,0.4,0c0.1,0,0.2,0.1,0.3,0.2
		c0.1,0.1,0.1,0.2,0,0.4c0,0.1-0.1,0.2-0.2,0.3L94.5,182.8z M119.9,167.9c-0.1-0.1-0.1-0.2,0-0.4c0-0.1,0.1-0.2,0.2-0.3l3.5-2
		c0.1-0.1,0.2-0.1,0.4-0.1c0.1,0,0.2,0.1,0.3,0.2c0.1,0.1,0.1,0.2,0,0.4c0,0.1-0.1,0.2-0.2,0.3l-3.5,2c-0.1,0.1-0.2,0.1-0.4,0
		C120,168.1,119.9,168,119.9,167.9z M111.1,172.4c0-0.1,0.1-0.2,0.2-0.3l3.5-2c0.1-0.1,0.2-0.1,0.4,0c0.1,0,0.2,0.1,0.3,0.2
		c0.1,0.1,0.1,0.2,0.1,0.4c0,0.1-0.1,0.2-0.2,0.3l-3.5,2c-0.1,0.1-0.2,0.1-0.4,0c-0.1,0-0.2-0.1-0.3-0.2
		C111.1,172.7,111.1,172.6,111.1,172.4z M158.4,145.6c0.1-0.1,0.2-0.1,0.4,0c0.1,0,0.2,0.1,0.3,0.2c0.1,0.1,0.1,0.2,0.1,0.4
		c0,0.1-0.1,0.2-0.2,0.3l-3.5,2c-0.1,0.1-0.2,0.1-0.4,0c-0.1,0-0.2-0.1-0.3-0.2c-0.1-0.1-0.1-0.2,0-0.4c0-0.1,0.1-0.2,0.2-0.3
		L158.4,145.6z M73,195c-0.1,0-0.3,0-0.4,0c-0.1-0.1-0.2-0.2-0.2-0.3c0-0.1,0-0.3,0.1-0.4c0.1-0.1,0.2-0.2,0.3-0.2l3.8-1.1
		c0.1,0,0.3,0,0.4,0c0.1,0.1,0.2,0.2,0.2,0.3c0,0.1,0,0.3,0,0.4c-0.1,0.1-0.2,0.2-0.3,0.2L73,195z M80.4,189.7
		c0.1,0,0.2,0.1,0.3,0.2c0.1,0.1,0.1,0.2,0,0.4c0,0.1-0.1,0.2-0.2,0.3l-3.5,2c-0.1,0.1-0.2,0.1-0.4,0c-0.1,0-0.2-0.1-0.3-0.2
		c-0.1-0.1-0.1-0.2,0-0.4c0-0.1,0.1-0.2,0.2-0.3l3.5-2C80.2,189.7,80.3,189.6,80.4,189.7z M284.1,193.9c-0.1-0.1-0.2-0.2-0.2-0.3
		c0-0.1,0-0.3,0.1-0.4c0.1-0.1,0.2-0.2,0.3-0.2c0.1,0,0.3,0,0.4,0.1l3.4,2.1c0.1,0.1,0.2,0.2,0.2,0.3c0,0.1,0,0.3,0,0.4
		c-0.1,0.1-0.2,0.2-0.3,0.2c-0.1,0-0.3,0-0.4-0.1L284.1,193.9z M279.4,190.8c-0.1,0-0.3,0-0.4,0l-3.4-2.1c-0.1-0.1-0.2-0.2-0.2-0.3
		c0-0.1,0-0.3,0.1-0.4c0.1-0.1,0.2-0.2,0.3-0.2c0.1,0,0.3,0,0.4,0l3.4,2.1c0.1,0.1,0.2,0.2,0.2,0.3c0,0.1,0,0.3,0,0.4
		C279.7,190.7,279.6,190.7,279.4,190.8z M266.9,183c0-0.1,0-0.3,0.1-0.4c0.1-0.1,0.2-0.2,0.3-0.2c0.1,0,0.3,0,0.4,0.1l3.4,2.1
		c0.1,0.1,0.2,0.2,0.2,0.3c0,0.1,0,0.3,0,0.4c-0.1,0.1-0.2,0.2-0.3,0.2c-0.1,0-0.3,0-0.4-0.1l-3.4-2.1
		C267,183.3,266.9,183.2,266.9,183z M258.6,177.9c-0.1-0.1-0.2-0.2-0.2-0.3c0-0.1,0-0.3,0.1-0.4c0.1-0.1,0.2-0.2,0.3-0.2
		c0.1,0,0.3,0,0.4,0.1l3.4,2.2c0.1,0.1,0.2,0.2,0.2,0.3c0,0.1,0,0.3-0.1,0.4c-0.1,0.1-0.2,0.2-0.3,0.2c-0.1,0-0.3,0-0.4-0.1
		L258.6,177.9z M249.9,172.2c0-0.1,0-0.3,0.1-0.4c0.1-0.1,0.2-0.2,0.3-0.2c0.1,0,0.3,0,0.4,0.1l3.4,2.2c0.1,0.1,0.2,0.2,0.2,0.3
		c0,0.1,0,0.3-0.1,0.4c-0.1,0.1-0.2,0.2-0.3,0.2c-0.1,0-0.3,0-0.4-0.1l-3.4-2.2C250,172.4,249.9,172.3,249.9,172.2z M260.5,116
		c0.1,0,0.2,0.1,0.3,0.1c0.1,0.1,0.1,0.2,0.2,0.4c0,0.1-0.1,0.3-0.2,0.4c-0.1,0.1-0.2,0.1-0.3,0.1l-4-0.1c-0.1,0-0.3-0.1-0.4-0.1
		c-0.1-0.1-0.1-0.2-0.1-0.4c0-0.1,0.1-0.3,0.1-0.4c0.1-0.1,0.2-0.1,0.4-0.1L260.5,116z M250.8,115.9c0.1,0.1,0.1,0.2,0.1,0.4
		c0,0.1-0.1,0.3-0.2,0.4c-0.1,0.1-0.2,0.1-0.4,0.1l-4-0.2c-0.1,0-0.3-0.1-0.3-0.2c-0.1-0.1-0.1-0.2-0.1-0.4c0-0.1,0.1-0.3,0.2-0.4
		c0.1-0.1,0.2-0.1,0.4-0.1l4,0.2C250.6,115.7,250.7,115.8,250.8,115.9z M280.5,116.8c0.1,0,0.3,0.1,0.4,0.2c0.1,0.1,0.1,0.2,0.1,0.4
		c0,0.1-0.1,0.3-0.2,0.3c-0.1,0.1-0.2,0.1-0.4,0.1l-4-0.2c-0.1,0-0.3-0.1-0.3-0.2c-0.1-0.1-0.1-0.2-0.1-0.3c0-0.1,0.1-0.3,0.2-0.4
		c0.1-0.1,0.2-0.1,0.4-0.1L280.5,116.8z M270.8,116.6c0.1,0.1,0.1,0.2,0.1,0.3c0,0.1-0.1,0.3-0.2,0.4c-0.1,0.1-0.2,0.1-0.4,0.1
		l-4-0.2c-0.1,0-0.3-0.1-0.3-0.2c-0.1-0.1-0.1-0.2-0.1-0.4c0-0.1,0.1-0.3,0.2-0.3c0.1-0.1,0.2-0.1,0.4-0.1l4,0.2
		C270.6,116.4,270.7,116.5,270.8,116.6z M296.1,117.5c0.1-0.1,0.2-0.1,0.4-0.1l4,0.1c0.1,0,0.2,0.1,0.3,0.1c0.1,0.1,0.1,0.2,0.2,0.4
		c0,0.1-0.1,0.3-0.2,0.4c-0.1,0.1-0.2,0.1-0.3,0.1l-4-0.1c-0.1,0-0.3-0.1-0.4-0.1c-0.1-0.1-0.1-0.2-0.1-0.4
		C296,117.8,296,117.6,296.1,117.5z M290.5,117.2c0.1,0,0.3,0.1,0.4,0.2c0.1,0.1,0.1,0.2,0.1,0.4c0,0.1-0.1,0.3-0.2,0.4
		c-0.1,0.1-0.2,0.1-0.4,0.1l-4-0.2c-0.1,0-0.3-0.1-0.3-0.2c-0.1-0.1-0.1-0.2-0.1-0.4c0-0.1,0.1-0.3,0.2-0.4c0.1-0.1,0.2-0.1,0.4-0.1
		L290.5,117.2z M316.1,118.2c0.1-0.1,0.2-0.1,0.4-0.1l4,0.2c0.1,0,0.3,0.1,0.4,0.2c0.1,0.1,0.1,0.2,0.1,0.4c0,0.1-0.1,0.3-0.2,0.3
		c-0.1,0.1-0.2,0.1-0.4,0.1l-4-0.2c-0.1,0-0.3-0.1-0.3-0.2c-0.1-0.1-0.1-0.2-0.1-0.3C316,118.4,316,118.3,316.1,118.2z M306.4,118.7
		c-0.1,0-0.3-0.1-0.3-0.2c-0.1-0.1-0.1-0.2-0.1-0.4c0-0.1,0.1-0.3,0.2-0.3c0.1-0.1,0.2-0.1,0.4-0.1l4,0.2c0.1,0,0.3,0.1,0.4,0.2
		c0.1,0.1,0.1,0.2,0.1,0.3c0,0.1-0.1,0.3-0.2,0.4c-0.1,0.1-0.2,0.1-0.4,0.1L306.4,118.7z M211,154.5c0.1,0,0.3,0,0.4,0
		c0.1,0.1,0.2,0.2,0.2,0.3c0,0.1,0,0.3,0,0.4c-0.1,0.1-0.2,0.2-0.3,0.2l-3.8,1.1c-0.1,0-0.3,0-0.4,0c-0.1-0.1-0.2-0.2-0.2-0.3
		c0-0.1,0-0.3,0-0.4c0.1-0.1,0.2-0.2,0.3-0.2L211,154.5z M219.5,152c0.1,0,0.1,0,0.2,0c0.1,0,0.1,0,0.2,0.1l0.3,0.2
		c0.1,0.1,0.2,0.2,0.2,0.3c0,0.1,0,0.3-0.1,0.4c-0.1,0.1-0.2,0.2-0.3,0.2c-0.1,0-0.3,0-0.4-0.1l-0.1-0.1l-2.4,0.7
		c-0.1,0-0.3,0-0.4,0c-0.1-0.1-0.2-0.2-0.2-0.3c0-0.1,0-0.3,0-0.4c0.1-0.1,0.2-0.2,0.3-0.2L219.5,152z M237.3,163.8
		c-0.1,0.1-0.2,0.2-0.3,0.2c-0.1,0-0.3,0-0.4-0.1l-3.4-2.2c-0.1-0.1-0.2-0.2-0.2-0.3c0-0.1,0-0.3,0.1-0.4c0.1-0.1,0.2-0.2,0.3-0.2
		c0.1,0,0.3,0,0.4,0.1l3.4,2.2c0.1,0.1,0.2,0.2,0.2,0.3C237.4,163.5,237.4,163.7,237.3,163.8z M241.4,166.8c0-0.1,0-0.3,0.1-0.4
		c0.1-0.1,0.2-0.2,0.3-0.2c0.1,0,0.3,0,0.4,0.1l3.4,2.2c0.1,0.1,0.2,0.2,0.2,0.3c0,0.1,0,0.3-0.1,0.4c-0.1,0.1-0.2,0.2-0.3,0.2
		c-0.1,0-0.3,0-0.4-0.1l-3.4-2.2C241.5,167,241.4,166.9,241.4,166.8z M224.7,156.3c-0.1-0.1-0.2-0.2-0.2-0.3c0-0.1,0-0.3,0.1-0.4
		c0.1-0.1,0.2-0.2,0.3-0.2c0.1,0,0.3,0,0.4,0.1l3.4,2.2c0.1,0.1,0.2,0.2,0.2,0.3c0,0.1,0,0.3-0.1,0.4c-0.1,0.1-0.2,0.2-0.3,0.2
		c-0.1,0-0.3,0-0.4-0.1L224.7,156.3z M169.1,167.5c-0.1,0-0.3,0-0.4,0c-0.1-0.1-0.2-0.2-0.2-0.3c0-0.1,0-0.3,0-0.4
		c0.1-0.1,0.2-0.2,0.3-0.2l3.8-1.1c0.1,0,0.3,0,0.4,0c0.1,0.1,0.2,0.2,0.2,0.3c0,0.1,0,0.3-0.1,0.4c-0.1,0.1-0.2,0.2-0.3,0.2
		L169.1,167.5z M163.6,168.9c-0.1,0.1-0.2,0.2-0.3,0.2l-3.8,1.1c-0.1,0-0.3,0-0.4-0.1c-0.1-0.1-0.2-0.2-0.2-0.3c0-0.1,0-0.3,0-0.4
		c0.1-0.1,0.2-0.2,0.3-0.2l3.8-1.1c0.1,0,0.3,0,0.4,0.1c0.1,0.1,0.2,0.2,0.2,0.3C163.7,168.6,163.6,168.8,163.6,168.9z M182.8,163.5
		c-0.1,0.1-0.2,0.2-0.3,0.2l-3.8,1.1c-0.1,0-0.3,0-0.4-0.1c-0.1-0.1-0.2-0.2-0.2-0.3c0-0.1,0-0.3,0-0.4c0.1-0.1,0.2-0.2,0.3-0.2
		l3.8-1.1c0.1,0,0.3,0,0.4,0.1c0.1,0.1,0.2,0.2,0.2,0.3C182.9,163.2,182.8,163.4,182.8,163.5z M197.3,159c0-0.1,0-0.3,0.1-0.4
		c0.1-0.1,0.2-0.2,0.3-0.2l3.8-1.1c0.1,0,0.3,0,0.4,0.1c0.1,0.1,0.2,0.2,0.2,0.3c0,0.1,0,0.3,0,0.4c-0.1,0.1-0.2,0.2-0.3,0.2
		l-3.8,1.1c-0.1,0-0.3,0-0.4-0.1C197.4,159.2,197.3,159.1,197.3,159z M192.4,160.3c0,0.1,0,0.3,0,0.4c-0.1,0.1-0.2,0.2-0.3,0.2
		l-3.8,1.1c-0.1,0-0.3,0-0.4,0c-0.1-0.1-0.2-0.2-0.2-0.3c0-0.1,0-0.3,0.1-0.4c0.1-0.1,0.2-0.2,0.3-0.2l3.8-1.1c0.1,0,0.3,0,0.4,0
		C192.3,160.1,192.4,160.2,192.4,160.3z M193.1,126.1c0.1-0.1,0.2-0.1,0.4-0.1c0.1,0,0.2,0.1,0.3,0.2c0.1,0.1,0.1,0.2,0,0.4
		c0,0.1-0.1,0.2-0.2,0.3l-3.5,2c-0.1,0.1-0.2,0.1-0.4,0.1c-0.1,0-0.2-0.1-0.3-0.2c-0.1-0.1-0.1-0.2-0.1-0.4c0-0.1,0.1-0.2,0.2-0.3
		L193.1,126.1z M167.7,140.9c0.1,0.1,0.1,0.2,0,0.4c0,0.1-0.1,0.2-0.2,0.3l-3.5,2c-0.1,0.1-0.2,0.1-0.4,0c-0.1,0-0.2-0.1-0.3-0.2
		c-0.1-0.1-0.1-0.2,0-0.4c0-0.1,0.1-0.2,0.2-0.3l3.5-2c0.1-0.1,0.2-0.1,0.4-0.1C167.6,140.7,167.7,140.8,167.7,140.9z M180.7,133.2
		c0-0.1,0.1-0.2,0.2-0.3l3.5-1.9c0.1-0.1,0.2-0.1,0.4-0.1c0.1,0,0.2,0.1,0.3,0.2c0.1,0.1,0.1,0.2,0,0.4c0,0.1-0.1,0.2-0.2,0.3
		l-3.5,1.9c-0.1,0.1-0.2,0.1-0.4,0.1c-0.1,0-0.2-0.1-0.3-0.2C180.7,133.5,180.7,133.4,180.7,133.2z M175.8,135.8
		c0.1-0.1,0.2-0.1,0.4-0.1c0.1,0,0.2,0.1,0.3,0.2c0.1,0.1,0.1,0.2,0.1,0.4c0,0.1-0.1,0.2-0.2,0.3l-3.5,2c-0.1,0.1-0.2,0.1-0.4,0.1
		c-0.1,0-0.2-0.1-0.3-0.2c-0.1-0.1-0.1-0.2-0.1-0.4c0-0.1,0.1-0.2,0.2-0.3L175.8,135.8z M220.5,114.5c0.1,0,0.2,0.1,0.3,0.1
		c0.1,0.1,0.1,0.2,0.2,0.4c0,0.1-0.1,0.3-0.2,0.4c-0.1,0.1-0.2,0.1-0.3,0.1l-4-0.1c-0.1,0-0.3-0.1-0.4-0.1c-0.1-0.1-0.1-0.2-0.1-0.4
		c0-0.1,0.1-0.3,0.1-0.4c0.1-0.1,0.2-0.1,0.4-0.1L220.5,114.5z M202.6,121.4c0.1,0.1,0.1,0.2,0,0.4c0,0.1-0.1,0.2-0.2,0.3l-3.5,2
		c-0.1,0.1-0.2,0.1-0.4,0.1c-0.1,0-0.2-0.1-0.3-0.2c-0.1-0.1-0.1-0.2-0.1-0.4c0-0.1,0.1-0.2,0.2-0.3l3.5-2c0.1-0.1,0.2-0.1,0.4,0
		C202.4,121.2,202.5,121.2,202.6,121.4z M211,116.3c0.1,0,0.2,0.1,0.3,0.3c0.1,0.1,0.1,0.2,0,0.4c0,0.1-0.1,0.2-0.2,0.3l-3.5,1.9
		c-0.1,0.1-0.3,0.1-0.4,0c-0.1,0-0.2-0.1-0.3-0.3c-0.1-0.1-0.1-0.2,0-0.4c0-0.1,0.1-0.2,0.2-0.3l3.5-1.9
		C210.7,116.3,210.9,116.3,211,116.3z M240.5,115.3c0.1,0,0.3,0.1,0.4,0.2c0.1,0.1,0.1,0.2,0.1,0.4c0,0.1-0.1,0.3-0.2,0.3
		c-0.1,0.1-0.2,0.1-0.4,0.1l-4-0.2c-0.1,0-0.3-0.1-0.3-0.2c-0.1-0.1-0.1-0.2-0.1-0.3c0-0.1,0.1-0.3,0.2-0.4c0.1-0.1,0.2-0.1,0.4-0.1
		L240.5,115.3z M230.8,115.1c0.1,0.1,0.1,0.2,0.1,0.3c0,0.1-0.1,0.3-0.2,0.4c-0.1,0.1-0.2,0.1-0.4,0.1l-4-0.2
		c-0.1,0-0.3-0.1-0.3-0.2c-0.1-0.1-0.1-0.2-0.1-0.4c0-0.1,0.1-0.3,0.2-0.3c0.1-0.1,0.2-0.1,0.4-0.1l4,0.2
		C230.6,114.9,230.7,115,230.8,115.1z M534.4,349.8c-0.1,0-0.3,0-0.4,0l-3.4-2.1c-0.1-0.1-0.2-0.2-0.2-0.3c0-0.1,0-0.3,0-0.4
		c0.1-0.1,0.2-0.2,0.3-0.2c0.1,0,0.3,0,0.4,0l3.4,2.1c0.1,0.1,0.2,0.2,0.2,0.3c0,0.1,0,0.3-0.1,0.4
		C534.7,349.7,534.6,349.7,534.4,349.8z M539.3,352c0.1,0,0.3,0,0.4,0l3.4,2.1c0.1,0.1,0.2,0.2,0.2,0.3c0,0.1,0,0.3-0.1,0.4
		c-0.1,0.1-0.2,0.2-0.3,0.2c-0.1,0-0.3,0-0.4,0l-3.4-2.1c-0.1-0.1-0.2-0.2-0.2-0.3c0-0.1,0-0.3,0-0.4
		C539,352.1,539.1,352.1,539.3,352z M522.1,342.3c-0.1-0.1-0.2-0.2-0.2-0.3c0-0.1,0-0.3,0-0.4c0.1-0.1,0.2-0.2,0.3-0.2
		c0.1,0,0.3,0,0.4,0.1l3.4,2.1c0.1,0.1,0.2,0.2,0.2,0.3c0,0.1,0,0.3-0.1,0.4c-0.1,0.1-0.2,0.2-0.3,0.2c-0.1,0-0.3,0-0.4-0.1
		L522.1,342.3z M513.8,336.1c0.1,0,0.3,0,0.4,0l3.4,2.1c0.1,0.1,0.2,0.2,0.2,0.3c0,0.1,0,0.3-0.1,0.4c-0.1,0.1-0.2,0.2-0.3,0.2
		c-0.1,0-0.3,0-0.4,0l-3.4-2.1c-0.1-0.1-0.2-0.2-0.2-0.3c0-0.1,0-0.3,0-0.4C513.5,336.2,513.6,336.2,513.8,336.1z M505.1,331.7
		c-0.1-0.1-0.2-0.2-0.2-0.3c0-0.1,0-0.3,0-0.4c0.1-0.1,0.2-0.2,0.3-0.2c0.1,0,0.3,0,0.4,0l3.4,2.1c0.1,0.1,0.2,0.2,0.2,0.3
		c0,0.1,0,0.3-0.1,0.4c-0.1,0.1-0.2,0.2-0.3,0.2c-0.1,0-0.3,0-0.4,0L505.1,331.7z M496.4,326.1c0-0.1,0-0.3,0-0.4
		c0.1-0.1,0.2-0.2,0.3-0.2c0.1,0,0.3,0,0.4,0.1l3.4,2.1c0.1,0.1,0.2,0.2,0.2,0.3c0,0.1,0,0.3-0.1,0.4c-0.1,0.1-0.2,0.2-0.3,0.2
		c-0.1,0-0.3,0-0.4-0.1l-3.4-2.1C496.5,326.4,496.4,326.3,496.4,326.1z M487.9,320.8c0-0.1,0-0.3,0-0.4c0.1-0.1,0.2-0.2,0.3-0.2
		c0.1,0,0.3,0,0.4,0l3.4,2.1c0.1,0.1,0.2,0.2,0.2,0.3c0,0.1,0,0.3-0.1,0.4c-0.1,0.1-0.2,0.2-0.3,0.2c-0.1,0-0.3,0-0.4,0l-3.4-2.1
		C488,321.1,487.9,321,487.9,320.8z M458.1,301.2c0.1,0.1,0.2,0.2,0.2,0.3c0,0.1,0,0.3-0.1,0.4c-0.1,0.1-0.2,0.2-0.3,0.2
		c-0.1,0-0.3,0-0.4-0.1l-3.4-2.1c-0.1-0.1-0.2-0.2-0.2-0.3c0-0.1,0-0.3,0-0.4c0.1-0.1,0.2-0.2,0.3-0.2c0.1,0,0.3,0,0.4,0.1
		L458.1,301.2z M479.8,314.9c0.1,0,0.3,0,0.4,0.1l3.4,2.1c0.1,0.1,0.2,0.2,0.2,0.3c0,0.1,0,0.3-0.1,0.4c-0.1,0.1-0.2,0.2-0.3,0.2
		c-0.1,0-0.3,0-0.4-0.1l-3.4-2.1c-0.1-0.1-0.2-0.2-0.2-0.3c0-0.1,0-0.3,0-0.4C479.5,315,479.6,315,479.8,314.9z M475.1,311.8
		c0.1,0.1,0.2,0.2,0.2,0.3c0,0.1,0,0.3-0.1,0.4c-0.1,0.1-0.2,0.2-0.3,0.2c-0.1,0-0.3,0-0.4,0l-3.4-2.1c-0.1-0.1-0.2-0.2-0.2-0.3
		c0-0.1,0-0.3,0-0.4c0.1-0.1,0.2-0.2,0.3-0.2c0.1,0,0.3,0,0.4,0L475.1,311.8z M466.4,307.4c-0.1,0-0.3,0-0.4,0l-3.4-2.1
		c-0.1-0.1-0.2-0.2-0.2-0.3c0-0.1,0-0.3,0-0.4c0.1-0.1,0.2-0.2,0.3-0.2c0.1,0,0.3,0,0.4,0l3.4,2.1c0.1,0.1,0.2,0.2,0.2,0.3
		c0,0.1,0,0.3-0.1,0.4C466.7,307.3,466.6,307.3,466.4,307.4z M377.6,252.2c-0.1-0.1-0.2-0.2-0.2-0.3c0-0.1,0-0.3,0-0.4
		c0.1-0.1,0.2-0.2,0.3-0.2c0.1,0,0.3,0,0.4,0l3.4,2.1c0.1,0.1,0.2,0.2,0.2,0.3c0,0.1,0,0.3-0.1,0.4c-0.1,0.1-0.2,0.2-0.3,0.2
		c-0.1,0-0.3,0-0.4,0L377.6,252.2z M394.6,262.8c-0.1-0.1-0.2-0.2-0.2-0.3c0-0.1,0-0.3,0-0.4c0.1-0.1,0.2-0.2,0.3-0.2
		c0.1,0,0.3,0,0.4,0.1l3.4,2.1c0.1,0.1,0.2,0.2,0.2,0.3c0,0.1,0,0.3-0.1,0.4c-0.1,0.1-0.2,0.2-0.3,0.2c-0.1,0-0.3,0-0.4-0.1
		L394.6,262.8z M386.1,257.5c-0.1-0.1-0.2-0.2-0.2-0.3c0-0.1,0-0.3,0-0.4c0.1-0.1,0.2-0.2,0.3-0.2c0.1,0,0.3,0,0.4,0l3.4,2.1
		c0.1,0.1,0.2,0.2,0.2,0.3c0,0.1,0,0.3-0.1,0.4c-0.1,0.1-0.2,0.2-0.3,0.2c-0.1,0-0.3,0-0.4,0L386.1,257.5z M352.3,235.4
		c0.1,0,0.3,0,0.4,0.1l3.4,2.1c0.1,0.1,0.2,0.2,0.2,0.3c0,0.1,0,0.3-0.1,0.4c-0.1,0.1-0.2,0.2-0.3,0.2c-0.1,0-0.3,0-0.4-0.1
		l-3.4-2.1c-0.1-0.1-0.2-0.2-0.2-0.3c0-0.1,0-0.3,0-0.4C352,235.5,352.1,235.5,352.3,235.4z M343.6,231c-0.1-0.1-0.2-0.2-0.2-0.3
		c0-0.1,0-0.3,0.1-0.4c0.1-0.1,0.2-0.2,0.3-0.2c0.1,0,0.3,0,0.4,0l3.4,2.1c0.1,0.1,0.2,0.2,0.2,0.3c0,0.1,0,0.3,0,0.4
		c-0.1,0.1-0.2,0.2-0.3,0.2c-0.1,0-0.3,0-0.4,0L343.6,231z M339.3,227.3c0,0.1,0,0.3,0,0.4c-0.1,0.1-0.2,0.2-0.3,0.2
		c-0.1,0-0.3,0-0.4,0l-3.4-2.1c-0.1-0.1-0.2-0.2-0.2-0.3c0-0.1,0-0.3,0.1-0.4c0.1-0.1,0.2-0.2,0.3-0.2c0.1,0,0.3,0,0.4,0l3.4,2.1
		C339.2,227,339.3,227.1,339.3,227.3z M326.4,220.1c0-0.1,0-0.3,0.1-0.4c0.1-0.1,0.2-0.2,0.3-0.2c0.1,0,0.3,0,0.4,0.1l3.4,2.1
		c0.1,0.1,0.2,0.2,0.2,0.3c0,0.1,0,0.3,0,0.4c-0.1,0.1-0.2,0.2-0.3,0.2c-0.1,0-0.3,0-0.4-0.1l-3.4-2.1
		C326.5,220.4,326.4,220.3,326.4,220.1z M364.6,242.9c0.1,0.1,0.2,0.2,0.2,0.3c0,0.1,0,0.3-0.1,0.4c-0.1,0.1-0.2,0.2-0.3,0.2
		c-0.1,0-0.3,0-0.4,0l-3.4-2.1c-0.1-0.1-0.2-0.2-0.2-0.3c0-0.1,0-0.3,0-0.4c0.1-0.1,0.2-0.2,0.3-0.2c0.1,0,0.3,0,0.4,0L364.6,242.9z
		 M369.1,246.9c-0.1-0.1-0.2-0.2-0.2-0.3c0-0.1,0-0.3,0-0.4c0.1-0.1,0.2-0.2,0.3-0.2c0.1,0,0.3,0,0.4,0.1l3.4,2.1
		c0.1,0.1,0.2,0.2,0.2,0.3c0,0.1,0,0.3-0.1,0.4c-0.1,0.1-0.2,0.2-0.3,0.2c-0.1,0-0.3,0-0.4-0.1L369.1,246.9z M445.4,294.3
		c0-0.1,0-0.3,0-0.4c0.1-0.1,0.2-0.2,0.3-0.2c0.1,0,0.3,0,0.4,0l3.4,2.1c0.1,0.1,0.2,0.2,0.2,0.3c0,0.1,0,0.3-0.1,0.4
		c-0.1,0.1-0.2,0.2-0.3,0.2c-0.1,0-0.3,0-0.4,0l-3.4-2.1C445.5,294.6,445.4,294.5,445.4,294.3z M437.1,289.3
		c-0.1-0.1-0.2-0.2-0.2-0.3c0-0.1,0-0.3,0-0.4c0.1-0.1,0.2-0.2,0.3-0.2c0.1,0,0.3,0,0.4,0.1l3.4,2.1c0.1,0.1,0.2,0.2,0.2,0.3
		c0,0.1,0,0.3-0.1,0.4c-0.1,0.1-0.2,0.2-0.3,0.2c-0.1,0-0.3,0-0.4-0.1L437.1,289.3z M428.8,283.1c0.1,0,0.3,0,0.4,0l3.4,2.1
		c0.1,0.1,0.2,0.2,0.2,0.3c0,0.1,0,0.3-0.1,0.4c-0.1,0.1-0.2,0.2-0.3,0.2c-0.1,0-0.3,0-0.4,0l-3.4-2.1c-0.1-0.1-0.2-0.2-0.2-0.3
		c0-0.1,0-0.3,0-0.4C428.5,283.2,428.6,283.2,428.8,283.1z M415.7,275.4c-0.1,0.1-0.2,0.2-0.3,0.2c-0.1,0-0.3,0-0.4-0.1l-3.4-2.1
		c-0.1-0.1-0.2-0.2-0.2-0.3c0-0.1,0-0.3,0-0.4c0.1-0.1,0.2-0.2,0.3-0.2c0.1,0,0.3,0,0.4,0.1l3.4,2.1c0.1,0.1,0.2,0.2,0.2,0.3
		C415.8,275.1,415.8,275.2,415.7,275.4z M420.3,277.8c0.1,0,0.3,0,0.4,0l3.4,2.1c0.1,0.1,0.2,0.2,0.2,0.3c0,0.1,0,0.3-0.1,0.4
		c-0.1,0.1-0.2,0.2-0.3,0.2c-0.1,0-0.3,0-0.4,0l-3.4-2.1c-0.1-0.1-0.2-0.2-0.2-0.3c0-0.1,0-0.3,0-0.4
		C420,277.9,420.1,277.9,420.3,277.8z M406.9,270.3c-0.1,0-0.3,0-0.4,0l-3.4-2.1c-0.1-0.1-0.2-0.2-0.2-0.3c0-0.1,0-0.3,0-0.4
		c0.1-0.1,0.2-0.2,0.3-0.2c0.1,0,0.3,0,0.4,0l3.4,2.1c0.1,0.1,0.2,0.2,0.2,0.3c0,0.1,0,0.3-0.1,0.4
		C407.2,270.2,407.1,270.2,406.9,270.3z M416.1,122c0.1-0.1,0.2-0.1,0.4-0.1l4,0.1c0.1,0,0.2,0.1,0.3,0.1c0.1,0.1,0.1,0.2,0.2,0.4
		c0,0.1-0.1,0.3-0.2,0.4c-0.1,0.1-0.2,0.1-0.3,0.1l-4-0.1c-0.1,0-0.3-0.1-0.4-0.1c-0.1-0.1-0.1-0.2-0.1-0.4
		C416,122.3,416,122.1,416.1,122z M406.4,122.5c-0.1,0-0.3-0.1-0.3-0.2c-0.1-0.1-0.1-0.2-0.1-0.4c0-0.1,0.1-0.3,0.2-0.4
		c0.1-0.1,0.2-0.1,0.3-0.1l4,0.2c0.1,0,0.3,0.1,0.4,0.2c0.1,0.1,0.1,0.2,0.1,0.4c0,0.1-0.1,0.3-0.2,0.4c-0.1,0.1-0.2,0.1-0.4,0.1
		L406.4,122.5z M440.5,122.8c0.1,0,0.3,0.1,0.4,0.2c0.1,0.1,0.1,0.2,0.1,0.4c0,0.1-0.1,0.3-0.2,0.3c-0.1,0.1-0.2,0.1-0.4,0.1l-4-0.2
		c-0.1,0-0.3-0.1-0.3-0.2c-0.1-0.1-0.1-0.2-0.1-0.3c0-0.1,0.1-0.3,0.2-0.4c0.1-0.1,0.2-0.1,0.3-0.1L440.5,122.8z M426.4,123.2
		c-0.1,0-0.3-0.1-0.3-0.2c-0.1-0.1-0.1-0.2-0.1-0.4c0-0.1,0.1-0.3,0.2-0.3c0.1-0.1,0.2-0.1,0.3-0.1l4,0.2c0.1,0,0.3,0.1,0.4,0.2
		c0.1,0.1,0.1,0.2,0.1,0.3c0,0.1-0.1,0.3-0.2,0.4c-0.1,0.1-0.2,0.1-0.4,0.1L426.4,123.2z M470.8,124.8c-0.1,0.1-0.2,0.1-0.3,0.1
		l-4-0.1c-0.1,0-0.3-0.1-0.4-0.1c-0.1-0.1-0.1-0.2-0.1-0.4c0-0.1,0.1-0.3,0.1-0.3c0.1-0.1,0.2-0.1,0.4-0.2l4,0.1
		c0.1,0,0.2,0.1,0.3,0.1c0.1,0.1,0.1,0.2,0.2,0.4C470.9,124.5,470.9,124.7,470.8,124.8z M480.8,125.2c-0.1,0.1-0.2,0.1-0.4,0.1
		l-4-0.2c-0.1,0-0.3-0.1-0.3-0.2c-0.1-0.1-0.1-0.2-0.1-0.3c0-0.1,0.1-0.3,0.2-0.4c0.1-0.1,0.2-0.1,0.3-0.1l4,0.2
		c0.1,0,0.3,0.1,0.4,0.2c0.1,0.1,0.1,0.2,0.1,0.4C480.9,125,480.9,125.1,480.8,125.2z M450.5,123.2c0.1,0,0.3,0.1,0.4,0.2
		c0.1,0.1,0.1,0.2,0.1,0.4c0,0.1-0.1,0.3-0.2,0.4c-0.1,0.1-0.2,0.1-0.4,0.1l-4-0.2c-0.1,0-0.3-0.1-0.3-0.2c-0.1-0.1-0.1-0.2-0.1-0.4
		c0-0.1,0.1-0.3,0.2-0.4c0.1-0.1,0.2-0.1,0.3-0.1L450.5,123.2z M456.1,123.5c0.1-0.1,0.2-0.1,0.3-0.1l4,0.2c0.1,0,0.3,0.1,0.4,0.2
		c0.1,0.1,0.1,0.2,0.1,0.4c0,0.1-0.1,0.3-0.2,0.4c-0.1,0.1-0.2,0.1-0.4,0.1l-4-0.2c-0.1,0-0.3-0.1-0.3-0.2c-0.1-0.1-0.1-0.2-0.1-0.4
		C456,123.7,456,123.6,456.1,123.5z M336.1,119c0.1-0.1,0.2-0.1,0.4-0.1l4,0.1c0.1,0,0.2,0.1,0.3,0.1c0.1,0.1,0.1,0.2,0.2,0.4
		c0,0.1-0.1,0.3-0.2,0.4c-0.1,0.1-0.2,0.1-0.3,0.1l-4-0.1c-0.1,0-0.3-0.1-0.4-0.1c-0.1-0.1-0.1-0.2-0.1-0.4
		C336,119.3,336,119.1,336.1,119z M326.4,119.5c-0.1,0-0.3-0.1-0.3-0.2c-0.1-0.1-0.1-0.2-0.1-0.4c0-0.1,0.1-0.3,0.2-0.4
		c0.1-0.1,0.2-0.1,0.4-0.1l4,0.2c0.1,0,0.3,0.1,0.4,0.2c0.1,0.1,0.1,0.2,0.1,0.4c0,0.1-0.1,0.3-0.2,0.4c-0.1,0.1-0.2,0.1-0.4,0.1
		L326.4,119.5z M356.1,119.7c0.1-0.1,0.2-0.1,0.3-0.1l4,0.2c0.1,0,0.3,0.1,0.4,0.2c0.1,0.1,0.1,0.2,0.1,0.4c0,0.1-0.1,0.3-0.2,0.3
		c-0.1,0.1-0.2,0.1-0.4,0.1l-4-0.2c-0.1,0-0.3-0.1-0.3-0.2c-0.1-0.1-0.1-0.2-0.1-0.3C356,119.9,356,119.8,356.1,119.7z M346.4,120.2
		c-0.1,0-0.3-0.1-0.3-0.2c-0.1-0.1-0.1-0.2-0.1-0.4c0-0.1,0.1-0.3,0.2-0.3c0.1-0.1,0.2-0.1,0.4-0.1l4,0.2c0.1,0,0.3,0.1,0.4,0.2
		c0.1,0.1,0.1,0.2,0.1,0.3c0,0.1-0.1,0.3-0.2,0.4c-0.1,0.1-0.2,0.1-0.4,0.1L346.4,120.2z M376.1,120.5c0.1-0.1,0.2-0.1,0.4-0.1
		l4,0.1c0.1,0,0.2,0.1,0.3,0.1c0.1,0.1,0.1,0.2,0.2,0.4c0,0.1-0.1,0.3-0.2,0.4c-0.1,0.1-0.2,0.1-0.3,0.1l-4-0.1
		c-0.1,0-0.3-0.1-0.4-0.1c-0.1-0.1-0.1-0.2-0.1-0.4C376,120.8,376,120.6,376.1,120.5z M366.4,121c-0.1,0-0.3-0.1-0.3-0.2
		c-0.1-0.1-0.1-0.2-0.1-0.4c0-0.1,0.1-0.3,0.2-0.4c0.1-0.1,0.2-0.1,0.3-0.1l4,0.2c0.1,0,0.3,0.1,0.4,0.2c0.1,0.1,0.1,0.2,0.1,0.4
		c0,0.1-0.1,0.3-0.2,0.4c-0.1,0.1-0.2,0.1-0.4,0.1L366.4,121z M396.1,121.2c0.1-0.1,0.2-0.1,0.3-0.1l4,0.2c0.1,0,0.3,0.1,0.4,0.2
		c0.1,0.1,0.1,0.2,0.1,0.4c0,0.1-0.1,0.3-0.2,0.3c-0.1,0.1-0.2,0.1-0.4,0.1l-4-0.2c-0.1,0-0.3-0.1-0.3-0.2c-0.1-0.1-0.1-0.2-0.1-0.3
		C396,121.4,396,121.3,396.1,121.2z M386.4,121.7c-0.1,0-0.3-0.1-0.3-0.2c-0.1-0.1-0.1-0.2-0.1-0.4c0-0.1,0.1-0.3,0.2-0.3
		c0.1-0.1,0.2-0.1,0.3-0.1l4,0.2c0.1,0,0.3,0.1,0.4,0.2c0.1,0.1,0.1,0.2,0.1,0.3c0,0.1-0.1,0.3-0.2,0.4c-0.1,0.1-0.2,0.1-0.4,0.1
		L386.4,121.7z M516.5,125.6l4,0.2c0.1,0,0.3,0.1,0.4,0.2c0.1,0.1,0.1,0.2,0.1,0.4c0,0.1-0.1,0.3-0.2,0.3c-0.1,0.1-0.2,0.1-0.4,0.1
		l-4-0.2c-0.1,0-0.3-0.1-0.3-0.2c-0.1-0.1-0.1-0.2-0.1-0.3c0-0.1,0.1-0.3,0.2-0.4C516.2,125.6,516.3,125.6,516.5,125.6z
		 M490.5,124.7c0.1,0,0.3,0.1,0.4,0.2c0.1,0.1,0.1,0.2,0.1,0.4c0,0.1-0.1,0.3-0.2,0.4c-0.1,0.1-0.2,0.1-0.4,0.1l-4-0.2
		c-0.1,0-0.3-0.1-0.3-0.2c-0.1-0.1-0.1-0.2-0.1-0.4c0-0.1,0.1-0.3,0.2-0.4c0.1-0.1,0.2-0.1,0.3-0.1L490.5,124.7z M500.5,125.1
		c0.1,0,0.3,0.1,0.4,0.2c0.1,0.1,0.1,0.2,0.1,0.4c0,0.1-0.1,0.3-0.2,0.4c-0.1,0.1-0.2,0.1-0.4,0.1l-4-0.2c-0.1,0-0.3-0.1-0.3-0.2
		c-0.1-0.1-0.1-0.2-0.1-0.4c0-0.1,0.1-0.3,0.2-0.4c0.1-0.1,0.2-0.1,0.3-0.1L500.5,125.1z M506,125.8c0-0.1,0.1-0.3,0.1-0.3
		c0.1-0.1,0.2-0.1,0.4-0.2l4,0.1c0.1,0,0.2,0.1,0.3,0.1c0.1,0.1,0.1,0.2,0.2,0.4c0,0.1-0.1,0.3-0.2,0.4c-0.1,0.1-0.2,0.1-0.3,0.1
		l-4-0.1c-0.1,0-0.3-0.1-0.4-0.1C506,126.1,506,125.9,506,125.8z M530.5,126.2c0.1,0,0.3,0.1,0.4,0.2c0.1,0.1,0.1,0.2,0.1,0.4
		c0,0.1-0.1,0.3-0.2,0.4c-0.1,0.1-0.2,0.1-0.4,0.1l-4-0.2c-0.1,0-0.3-0.1-0.3-0.2c-0.1-0.1-0.1-0.2-0.1-0.4c0-0.1,0.1-0.3,0.2-0.4
		c0.1-0.1,0.2-0.1,0.3-0.1L530.5,126.2z M546.1,127c0.1-0.1,0.2-0.1,0.4-0.2l4,0.1c0.1,0,0.2,0.1,0.3,0.1c0.1,0.1,0.1,0.2,0.2,0.4
		c0,0.1-0.1,0.3-0.2,0.4c-0.1,0.1-0.2,0.1-0.3,0.1l-4-0.1c-0.1,0-0.3-0.1-0.4-0.1c-0.1-0.1-0.1-0.2-0.1-0.4
		C546,127.2,546,127,546.1,127z M540.5,126.6c0.1,0,0.3,0.1,0.4,0.2c0.1,0.1,0.1,0.2,0.1,0.4c0,0.1-0.1,0.3-0.2,0.4
		c-0.1,0.1-0.2,0.1-0.4,0.1l-4-0.2c-0.1,0-0.3-0.1-0.3-0.2c-0.1-0.1-0.1-0.2-0.1-0.4c0-0.1,0.1-0.3,0.2-0.4c0.1-0.1,0.2-0.1,0.3-0.1
		L540.5,126.6z"/>
</g>
<g>
	<path fill-rule="evenodd" clip-rule="evenodd" fill="#FFFFFF" fill-opacity="0.2471" d="M481.4,552.3c-0.1-0.1-0.1-0.2-0.1-0.4
		c0-0.1,0.1-0.3,0.2-0.3c0.1-0.1,0.2-0.1,0.4-0.1c0.1,0,0.3,0.1,0.3,0.2l2.6,3c0.1,0.1,0.1,0.2,0.1,0.3c0,0.1-0.1,0.3-0.2,0.4
		c-0.1,0.1-0.2,0.1-0.3,0.1c-0.1,0-0.3-0.1-0.3-0.2L481.4,552.3z M435.9,499.1c-0.1-0.1-0.1-0.2-0.1-0.4c0-0.1,0.1-0.3,0.2-0.3
		c0.1-0.1,0.2-0.1,0.4-0.1c0.1,0,0.3,0.1,0.3,0.2l2.6,3c0.1,0.1,0.1,0.2,0.1,0.4c0,0.1-0.1,0.3-0.2,0.3c-0.1,0.1-0.2,0.1-0.3,0.1
		c-0.1,0-0.3-0.1-0.3-0.2L435.9,499.1z M475.3,543.8c0.1,0,0.3,0.1,0.3,0.2l2.6,3c0.1,0.1,0.1,0.2,0.1,0.3c0,0.1-0.1,0.3-0.2,0.3
		c-0.1,0.1-0.2,0.1-0.3,0.1c-0.1,0-0.3-0.1-0.3-0.2l-2.6-3c-0.1-0.1-0.1-0.2-0.1-0.3c0-0.1,0.1-0.3,0.2-0.4
		C475.1,543.9,475.2,543.8,475.3,543.8z M468.3,536.7c0-0.1,0.1-0.3,0.2-0.3c0.1-0.1,0.2-0.1,0.4-0.1c0.1,0,0.3,0.1,0.3,0.2l2.6,3
		c0.1,0.1,0.1,0.2,0.1,0.4c0,0.1-0.1,0.3-0.2,0.3c-0.1,0.1-0.2,0.1-0.3,0.1c-0.1,0-0.3-0.1-0.3-0.2l-2.6-3
		C468.3,537,468.3,536.9,468.3,536.7z M461.9,529.5c-0.1-0.1-0.1-0.2-0.1-0.3c0-0.1,0.1-0.3,0.2-0.3c0.1-0.1,0.2-0.1,0.4-0.1
		c0.1,0,0.3,0.1,0.3,0.2l2.6,3c0.1,0.1,0.1,0.2,0.1,0.3c0,0.1-0.1,0.3-0.2,0.4c-0.1,0.1-0.2,0.1-0.3,0.1c-0.1,0-0.3-0.1-0.3-0.2
		L461.9,529.5z M458.7,524.9c-0.1,0.1-0.2,0.1-0.3,0.1c-0.1,0-0.3-0.1-0.3-0.2l-2.6-3c-0.1-0.1-0.1-0.2-0.1-0.3
		c0-0.1,0.1-0.3,0.2-0.4c0.1-0.1,0.2-0.1,0.4-0.1c0.1,0,0.3,0.1,0.3,0.2l2.6,3c0.1,0.1,0.1,0.2,0.1,0.4
		C458.9,524.7,458.8,524.8,458.7,524.9z M448.8,513.9c0-0.1,0.1-0.3,0.2-0.3c0.1-0.1,0.2-0.1,0.4-0.1c0.1,0,0.3,0.1,0.3,0.2l2.6,3
		c0.1,0.1,0.1,0.2,0.1,0.3c0,0.1-0.1,0.3-0.2,0.4c-0.1,0.1-0.2,0.1-0.3,0.1c-0.1,0-0.3-0.1-0.3-0.2l-2.6-3
		C448.8,514.2,448.8,514.1,448.8,513.9z M445.9,509.4c0,0.1-0.1,0.3-0.2,0.3c-0.1,0.1-0.2,0.1-0.3,0.1c-0.1,0-0.3-0.1-0.3-0.2
		l-2.6-3c-0.1-0.1-0.1-0.2-0.1-0.3c0-0.1,0.1-0.3,0.2-0.4c0.1-0.1,0.2-0.1,0.4-0.1c0.1,0,0.3,0.1,0.3,0.2l2.6,3
		C445.9,509.1,445.9,509.2,445.9,509.4z M396.9,453.5c-0.1-0.1-0.1-0.2-0.1-0.4c0-0.1,0.1-0.3,0.2-0.3c0.1-0.1,0.2-0.1,0.4-0.1
		c0.1,0,0.3,0.1,0.3,0.2l2.6,3c0.1,0.1,0.1,0.2,0.1,0.3c0,0.1-0.1,0.3-0.2,0.4c-0.1,0.1-0.2,0.1-0.3,0.1c-0.1,0-0.3-0.1-0.3-0.2
		L396.9,453.5z M354.8,402.9c0.1,0.1,0.1,0.2,0.1,0.3c0,0.1-0.1,0.3-0.2,0.4c-0.1,0.1-0.2,0.1-0.3,0.1c-0.1,0-0.3-0.1-0.3-0.2
		l-2.6-3c-0.1-0.1-0.1-0.2-0.1-0.4c0-0.1,0.1-0.3,0.2-0.3c0.1-0.1,0.2-0.1,0.4-0.1c0.1,0,0.3,0.1,0.3,0.2L354.8,402.9z M357.9,408.1
		c-0.1-0.1-0.1-0.2-0.1-0.3c0-0.1,0.1-0.3,0.2-0.4c0.1-0.1,0.2-0.1,0.4-0.1c0.1,0,0.3,0.1,0.3,0.2l2.6,3c0.1,0.1,0.1,0.2,0.1,0.4
		c0,0.1-0.1,0.3-0.2,0.3c-0.1,0.1-0.2,0.1-0.3,0.1c-0.1,0-0.3-0.1-0.3-0.2L357.9,408.1z M390.8,445.1c0.1,0,0.3,0.1,0.3,0.2l2.6,3
		c0.1,0.1,0.1,0.2,0.1,0.3c0,0.1-0.1,0.3-0.2,0.3c-0.1,0.1-0.2,0.1-0.3,0.1c-0.1,0-0.3-0.1-0.3-0.2l-2.6-3c-0.1-0.1-0.1-0.2-0.1-0.3
		c0-0.1,0.1-0.3,0.2-0.4C390.6,445.1,390.7,445.1,390.8,445.1z M383.9,438.3c-0.1-0.1-0.1-0.2-0.1-0.4c0-0.1,0.1-0.3,0.2-0.3
		c0.1-0.1,0.2-0.1,0.4-0.1c0.1,0,0.3,0.1,0.3,0.2l2.6,3c0.1,0.1,0.1,0.2,0.1,0.4c0,0.1-0.1,0.3-0.2,0.3c-0.1,0.1-0.2,0.1-0.3,0.1
		c-0.1,0-0.3-0.1-0.3-0.2L383.9,438.3z M371.3,422.4c0.1,0,0.3,0.1,0.3,0.2l2.6,3c0.1,0.1,0.1,0.2,0.1,0.3c0,0.1-0.1,0.3-0.2,0.4
		c-0.1,0.1-0.2,0.1-0.3,0.1c-0.1,0-0.3-0.1-0.3-0.2l-2.6-3c-0.1-0.1-0.1-0.2-0.1-0.3c0-0.1,0.1-0.3,0.2-0.3
		C371.1,422.4,371.2,422.4,371.3,422.4z M377.5,430.1c0.1-0.1,0.2-0.1,0.4-0.1c0.1,0,0.3,0.1,0.3,0.2l2.6,3c0.1,0.1,0.1,0.2,0.1,0.4
		c0,0.1-0.1,0.3-0.2,0.3c-0.1,0.1-0.2,0.1-0.3,0.1c-0.1,0-0.3-0.1-0.3-0.2l-2.6-3c-0.1-0.1-0.1-0.2-0.1-0.4
		C377.3,430.3,377.4,430.2,377.5,430.1z M365.2,415l2.6,3c0.1,0.1,0.1,0.2,0.1,0.4c0,0.1-0.1,0.3-0.2,0.3c-0.1,0.1-0.2,0.1-0.3,0.1
		c-0.1,0-0.3-0.1-0.3-0.2l-2.6-3c-0.1-0.1-0.1-0.2-0.1-0.3c0-0.1,0.1-0.3,0.2-0.4c0.1-0.1,0.2-0.1,0.4-0.1
		C365,414.8,365.1,414.9,365.2,415z M429.3,491.1c0-0.1,0.1-0.3,0.2-0.3c0.1-0.1,0.2-0.1,0.4-0.1c0.1,0,0.3,0.1,0.3,0.2l2.6,3
		c0.1,0.1,0.1,0.2,0.1,0.3c0,0.1-0.1,0.3-0.2,0.4c-0.1,0.1-0.2,0.1-0.3,0.1c-0.1,0-0.3-0.1-0.3-0.2l-2.6-3
		C429.3,491.4,429.3,491.3,429.3,491.1z M422.8,483.5c0-0.1,0.1-0.3,0.2-0.4c0.1-0.1,0.2-0.1,0.4-0.1c0.1,0,0.3,0.1,0.3,0.2l2.6,3
		c0.1,0.1,0.1,0.2,0.1,0.4c0,0.1-0.1,0.3-0.2,0.3c-0.1,0.1-0.2,0.1-0.3,0.1c-0.1,0-0.3-0.1-0.3-0.2l-2.6-3
		C422.8,483.8,422.8,483.7,422.8,483.5z M416.4,476.3c-0.1-0.1-0.1-0.2-0.1-0.4c0-0.1,0.1-0.3,0.2-0.3c0.1-0.1,0.2-0.1,0.4-0.1
		c0.1,0,0.3,0.1,0.3,0.2l2.6,3c0.1,0.1,0.1,0.2,0.1,0.3c0,0.1-0.1,0.3-0.2,0.4c-0.1,0.1-0.2,0.1-0.3,0.1c-0.1,0-0.3-0.1-0.3-0.2
		L416.4,476.3z M409.8,468.3c0-0.1,0.1-0.3,0.2-0.4c0.1-0.1,0.2-0.1,0.4-0.1c0.1,0,0.3,0.1,0.3,0.2l2.6,3c0.1,0.1,0.1,0.2,0.1,0.3
		c0,0.1-0.1,0.3-0.2,0.3c-0.1,0.1-0.2,0.1-0.3,0.1c-0.1,0-0.3-0.1-0.3-0.2l-2.6-3C409.8,468.6,409.8,468.5,409.8,468.3z
		 M406.4,464.3c-0.1,0-0.3-0.1-0.3-0.2l-2.6-3c-0.1-0.1-0.1-0.2-0.1-0.4c0-0.1,0.1-0.3,0.2-0.3c0.1-0.1,0.2-0.1,0.4-0.1
		c0.1,0,0.3,0.1,0.3,0.2l2.6,3c0.1,0.1,0.1,0.2,0.1,0.4c0,0.1-0.1,0.3-0.2,0.3C406.6,464.2,406.5,464.3,406.4,464.3z M514.3,589.5
		c0.1,0,0.3,0.1,0.3,0.2l2.6,3c0.1,0.1,0.1,0.2,0.1,0.3c0,0.1-0.1,0.3-0.2,0.4c-0.1,0.1-0.2,0.1-0.3,0.1c-0.1,0-0.3-0.1-0.3-0.2
		l-2.6-3c-0.1-0.1-0.1-0.2-0.1-0.4c0-0.1,0.1-0.3,0.2-0.3C514.1,589.5,514.2,589.4,514.3,589.5z M507.8,581.8c0.1,0,0.3,0.1,0.3,0.2
		l2.6,3c0.1,0.1,0.1,0.2,0.1,0.3c0,0.1-0.1,0.3-0.2,0.3c-0.1,0.1-0.2,0.1-0.3,0.1c-0.1,0-0.3-0.1-0.3-0.2l-2.6-3
		c-0.1-0.1-0.1-0.2-0.1-0.3c0-0.1,0.1-0.3,0.2-0.4C507.6,581.9,507.7,581.8,507.8,581.8z M501.3,574.3c0.1,0,0.3,0.1,0.3,0.2l2.6,3
		c0.1,0.1,0.1,0.2,0.1,0.4c0,0.1-0.1,0.3-0.2,0.3c-0.1,0.1-0.2,0.1-0.3,0.1c-0.1,0-0.3-0.1-0.3-0.2l-2.6-3c-0.1-0.1-0.1-0.2-0.1-0.4
		c0-0.1,0.1-0.3,0.2-0.3C501.1,574.3,501.2,574.2,501.3,574.3z M494.4,567.5c-0.1-0.1-0.1-0.2-0.1-0.3c0-0.1,0.1-0.3,0.2-0.3
		c0.1-0.1,0.2-0.1,0.4-0.1c0.1,0,0.3,0.1,0.3,0.2l2.6,3c0.1,0.1,0.1,0.2,0.1,0.3c0,0.1-0.1,0.3-0.2,0.4c-0.1,0.1-0.2,0.1-0.3,0.1
		c-0.1,0-0.3-0.1-0.3-0.2L494.4,567.5z M491.3,562.2c0.1,0.1,0.1,0.2,0.1,0.4c0,0.1-0.1,0.3-0.2,0.3c-0.1,0.1-0.2,0.1-0.3,0.1
		c-0.1,0-0.3-0.1-0.3-0.2l-2.6-3c-0.1-0.1-0.1-0.2-0.1-0.3c0-0.1,0.1-0.3,0.2-0.4c0.1-0.1,0.2-0.1,0.4-0.1c0.1,0,0.3,0.1,0.3,0.2
		L491.3,562.2z M605.7,401c-0.1,0-0.3,0-0.4,0l-3.6-1.8c-0.1-0.1-0.2-0.2-0.3-0.3c0-0.1,0-0.3,0-0.4c0.1-0.1,0.2-0.2,0.3-0.3
		c0.1,0,0.3,0,0.4,0l3.6,1.8c0.1,0.1,0.2,0.2,0.3,0.3c0,0.1,0,0.3,0,0.4C605.9,400.8,605.8,400.9,605.7,401z M610.5,403.3
		c0-0.1,0-0.3,0-0.4c0.1-0.1,0.2-0.2,0.3-0.3c0.1,0,0.3,0,0.4,0l3.6,1.8c0.1,0.1,0.2,0.2,0.3,0.3c0,0.1,0,0.3,0,0.4
		c-0.1,0.1-0.2,0.2-0.3,0.3c-0.1,0-0.3,0-0.4,0l-3.6-1.8C610.6,403.6,610.5,403.5,610.5,403.3z M619.7,408.2
		c-0.1-0.1-0.2-0.2-0.3-0.3c0-0.1,0-0.3,0-0.4c0.1-0.1,0.2-0.2,0.3-0.3c0.1,0,0.3,0,0.4,0l3.6,1.8c0.1,0.1,0.2,0.2,0.3,0.3
		c0,0.1,0,0.3,0,0.4c-0.1,0.1-0.2,0.2-0.3,0.3c-0.1,0-0.3,0-0.4,0L619.7,408.2z M633,413.8c0,0.1,0,0.3,0,0.4
		c-0.1,0.1-0.2,0.2-0.3,0.3c-0.1,0-0.3,0-0.4,0l-3.6-1.8c-0.1-0.1-0.2-0.2-0.3-0.3c0-0.1,0-0.3,0-0.4c0.1-0.1,0.2-0.2,0.3-0.3
		c0.1,0,0.3,0,0.4,0l3.6,1.8C632.9,413.6,633,413.7,633,413.8z M319.7,361.9l2.6,3c0.1,0.1,0.1,0.2,0.1,0.3c0,0.1-0.1,0.3-0.2,0.4
		c-0.1,0.1-0.2,0.1-0.4,0.1c-0.1,0-0.3-0.1-0.4-0.2l-2.6-3c-0.1-0.1-0.1-0.2-0.1-0.4c0-0.1,0.1-0.3,0.2-0.3c0.1-0.1,0.2-0.1,0.4-0.1
		C319.5,361.7,319.6,361.8,319.7,361.9z M309.2,350.5c-0.1,0.1-0.2,0.1-0.4,0.1c-0.1,0-0.3-0.1-0.4-0.2l-2.6-3
		c-0.1-0.1-0.1-0.2-0.1-0.3c0-0.1,0.1-0.3,0.2-0.4c0.1-0.1,0.2-0.1,0.4-0.1c0.1,0,0.3,0.1,0.3,0.2l2.6,3c0.1,0.1,0.1,0.2,0.1,0.4
		C309.4,350.3,309.3,350.4,309.2,350.5z M315.8,357.4c0.1,0.1,0.1,0.2,0.1,0.3c0,0.1-0.1,0.3-0.2,0.4c-0.1,0.1-0.2,0.1-0.4,0.1
		c-0.1,0-0.3-0.1-0.4-0.2l-2.6-3c-0.1-0.1-0.1-0.2-0.1-0.4c0-0.1,0.1-0.3,0.2-0.3c0.1-0.1,0.2-0.1,0.4-0.1c0.1,0,0.3,0.1,0.3,0.2
		L315.8,357.4z M279.9,317.3c-0.1-0.1-0.1-0.2-0.1-0.4c0-0.1,0.1-0.3,0.2-0.4c0.1-0.1,0.2-0.1,0.4-0.1c0.1,0,0.3,0.1,0.3,0.2l2.6,3
		c0.1,0.1,0.1,0.2,0.1,0.4c0,0.1-0.1,0.3-0.2,0.4c-0.1,0.1-0.2,0.1-0.4,0.1c-0.1,0-0.3-0.1-0.4-0.2L279.9,317.3z M266.9,302.1
		c-0.1-0.1-0.1-0.2-0.1-0.4c0-0.1,0.1-0.3,0.2-0.4c0.1-0.1,0.2-0.1,0.4-0.1c0.1,0,0.3,0.1,0.3,0.2l2.6,3c0.1,0.1,0.1,0.2,0.1,0.4
		c0,0.1-0.1,0.3-0.2,0.3c-0.1,0.1-0.2,0.1-0.4,0.1c-0.1,0-0.3-0.1-0.4-0.2L266.9,302.1z M273.5,309c0.1-0.1,0.2-0.1,0.4-0.1
		c0.1,0,0.3,0.1,0.3,0.2l2.6,3c0.1,0.1,0.1,0.2,0.1,0.3c0,0.1-0.1,0.3-0.2,0.4c-0.1,0.1-0.2,0.1-0.4,0.1c-0.1,0-0.3-0.1-0.4-0.2
		l-2.6-3c-0.1-0.1-0.1-0.2-0.1-0.4C273.3,309.2,273.4,309.1,273.5,309z M299.4,339.9c-0.1-0.1-0.1-0.2-0.1-0.3
		c0-0.1,0.1-0.3,0.2-0.4c0.1-0.1,0.2-0.1,0.4-0.1c0.1,0,0.3,0.1,0.3,0.2l2.6,3c0.1,0.1,0.1,0.2,0.1,0.4c0,0.1-0.1,0.3-0.2,0.4
		c-0.1,0.1-0.2,0.1-0.4,0.1c-0.1,0-0.3-0.1-0.4-0.2L299.4,339.9z M292.9,332.3c-0.1-0.1-0.1-0.2-0.1-0.4c0-0.1,0.1-0.3,0.2-0.4
		c0.1-0.1,0.2-0.1,0.4-0.1c0.1,0,0.3,0.1,0.3,0.2l2.6,3c0.1,0.1,0.1,0.2,0.1,0.4c0,0.1-0.1,0.3-0.2,0.4c-0.1,0.1-0.2,0.1-0.4,0.1
		c-0.1,0-0.3-0.1-0.4-0.2L292.9,332.3z M289.9,327.5c0,0.1-0.1,0.3-0.2,0.4c-0.1,0.1-0.2,0.1-0.4,0.1c-0.1,0-0.3-0.1-0.4-0.2l-2.6-3
		c-0.1-0.1-0.1-0.2-0.1-0.4c0-0.1,0.1-0.3,0.2-0.4c0.1-0.1,0.2-0.1,0.4-0.1c0.1,0,0.3,0.1,0.3,0.2l2.6,3
		C289.9,327.3,289.9,327.4,289.9,327.5z M234.4,264.3c-0.1-0.1-0.1-0.2-0.1-0.4c0-0.1,0.1-0.3,0.2-0.4c0.1-0.1,0.2-0.1,0.4-0.1
		c0.1,0,0.3,0.1,0.3,0.2l2.6,3c0.1,0.1,0.1,0.2,0.1,0.4c0,0.1-0.1,0.3-0.2,0.4c-0.1,0.1-0.2,0.1-0.4,0.1c-0.1,0-0.3-0.1-0.4-0.2
		L234.4,264.3z M230.5,259.7l-2.6-3c-0.1-0.1-0.1-0.2-0.1-0.4c0-0.1,0.1-0.3,0.2-0.4c0.1-0.1,0.2-0.1,0.4-0.1c0.1,0,0.3,0.1,0.3,0.2
		l2.6,3c0.1,0.1,0.1,0.2,0.1,0.3c0,0.1-0.1,0.3-0.2,0.4c-0.1,0.1-0.2,0.1-0.4,0.1C230.7,259.9,230.6,259.8,230.5,259.7z
		 M224.8,251.5c0.1,0.1,0.1,0.2,0.1,0.4c0,0.1-0.1,0.3-0.2,0.3c-0.1,0.1-0.2,0.1-0.4,0.1c-0.1,0-0.3-0.1-0.4-0.2l-2.6-3
		c-0.1-0.1-0.1-0.2-0.1-0.4c0-0.1,0.1-0.3,0.2-0.4c0.1-0.1,0.2-0.1,0.4-0.1c0.1,0,0.3,0.1,0.3,0.2L224.8,251.5z M195.4,218.9
		c-0.1-0.1-0.1-0.2-0.1-0.3c0-0.1,0.1-0.3,0.2-0.4c0.1-0.1,0.2-0.1,0.4-0.1c0.1,0,0.3,0.1,0.3,0.2l2.6,3c0.1,0.1,0.1,0.2,0.1,0.4
		c0,0.1-0.1,0.3-0.2,0.4c-0.1,0.1-0.2,0.1-0.4,0.1c-0.1,0-0.3-0.1-0.4-0.2L195.4,218.9z M188.9,211.3c-0.1-0.1-0.1-0.2-0.1-0.4
		c0-0.1,0.1-0.3,0.2-0.4c0.1-0.1,0.2-0.1,0.4-0.1c0.1,0,0.3,0.1,0.3,0.2l2.6,3c0.1,0.1,0.1,0.2,0.1,0.4c0,0.1-0.1,0.3-0.2,0.4
		c-0.1,0.1-0.2,0.1-0.4,0.1c-0.1,0-0.3-0.1-0.4-0.2L188.9,211.3z M182.4,203.8c-0.1-0.1-0.1-0.2-0.1-0.4c0-0.1,0.1-0.3,0.2-0.4
		c0.1-0.1,0.2-0.1,0.4-0.1c0.1,0,0.3,0.1,0.3,0.2l2.6,3c0.1,0.1,0.1,0.2,0.1,0.4c0,0.1-0.1,0.3-0.2,0.4c-0.1,0.1-0.2,0.1-0.4,0.1
		c-0.1,0-0.3-0.1-0.4-0.2L182.4,203.8z M200.7,200.8c-0.1,0-0.3,0-0.4,0l-3.6-1.8c-0.1-0.1-0.2-0.2-0.3-0.3c0-0.1,0-0.3,0-0.4
		c0.1-0.1,0.2-0.2,0.3-0.3c0.1,0,0.3,0,0.4,0l3.6,1.8c0.1,0.1,0.2,0.2,0.3,0.3c0,0.1,0,0.3,0,0.4
		C200.9,200.6,200.8,200.7,200.7,200.8z M215.3,240.7c0.1,0,0.3,0.1,0.3,0.2l2.6,3c0.1,0.1,0.1,0.2,0.1,0.4c0,0.1-0.1,0.3-0.2,0.4
		c-0.1,0.1-0.2,0.1-0.4,0.1c-0.1,0-0.3-0.1-0.4-0.2l-2.6-3c-0.1-0.1-0.1-0.2-0.1-0.4c0-0.1,0.1-0.3,0.2-0.3
		C215.1,240.7,215.2,240.7,215.3,240.7z M208.8,233.2c0.1,0,0.3,0.1,0.3,0.2l2.6,3c0.1,0.1,0.1,0.2,0.1,0.4c0,0.1-0.1,0.3-0.2,0.4
		c-0.1,0.1-0.2,0.1-0.4,0.1c-0.1,0-0.3-0.1-0.4-0.2l-2.6-3c-0.1-0.1-0.1-0.2-0.1-0.4c0-0.1,0.1-0.3,0.2-0.3
		C208.6,233.2,208.7,233.2,208.8,233.2z M202.7,225.9l2.6,3c0.1,0.1,0.1,0.2,0.1,0.4c0,0.1-0.1,0.3-0.2,0.4
		c-0.1,0.1-0.2,0.1-0.4,0.1c-0.1,0-0.3-0.1-0.4-0.2l-2.6-3c-0.1-0.1-0.1-0.2-0.1-0.4c0-0.1,0.1-0.3,0.2-0.3c0.1-0.1,0.2-0.1,0.4-0.1
		C202.5,225.7,202.6,225.8,202.7,225.9z M205.7,203.4c-0.1-0.1-0.2-0.2-0.3-0.3c0-0.1,0-0.3,0-0.4c0.1-0.1,0.2-0.2,0.3-0.3
		c0.1,0,0.3,0,0.4,0l3.6,1.8c0.1,0.1,0.2,0.2,0.3,0.3c0,0.1,0,0.3,0,0.4c-0.1,0.1-0.2,0.2-0.3,0.3c-0.1,0-0.3,0-0.4,0L205.7,203.4z
		 M214.7,207.8c-0.1-0.1-0.2-0.2-0.3-0.3c0-0.1,0-0.3,0-0.4c0.1-0.1,0.2-0.2,0.3-0.3c0.1,0,0.3,0,0.4,0l3.6,1.8
		c0.1,0.1,0.2,0.2,0.3,0.3c0,0.1,0,0.3,0,0.4c-0.1,0.1-0.2,0.2-0.3,0.3c-0.1,0-0.3,0-0.4,0L214.7,207.8z M228,213.5
		c0,0.1,0,0.3,0,0.4c-0.1,0.1-0.2,0.2-0.3,0.3c-0.1,0-0.3,0-0.4,0l-3.6-1.8c-0.1-0.1-0.2-0.2-0.3-0.3c0-0.1,0-0.3,0-0.4
		c0.1-0.1,0.2-0.2,0.3-0.3c0.1,0,0.3,0,0.4,0l3.6,1.8C227.9,213.2,228,213.3,228,213.5z M232.5,216c0.1-0.1,0.2-0.2,0.3-0.3
		c0.1,0,0.3,0,0.4,0l3.6,1.8c0.1,0.1,0.2,0.2,0.3,0.3c0,0.1,0,0.3,0,0.4c-0.1,0.1-0.2,0.2-0.3,0.3c-0.1,0-0.3,0-0.4,0l-3.6-1.8
		c-0.1-0.1-0.2-0.2-0.3-0.3C232.4,216.2,232.4,216.1,232.5,216z M309,253.3c0,0.1,0,0.3,0,0.4c-0.1,0.1-0.2,0.2-0.3,0.3
		c-0.1,0-0.3,0-0.4,0l-3.6-1.8c-0.1-0.1-0.2-0.2-0.3-0.3c0-0.1,0-0.3,0-0.4c0.1-0.1,0.2-0.2,0.3-0.3c0.1,0,0.3,0,0.4,0l3.6,1.8
		C308.9,253,309,253.1,309,253.3z M317.8,257.5c0.1,0.1,0.2,0.2,0.3,0.3c0,0.1,0,0.3,0,0.4c-0.1,0.1-0.2,0.2-0.3,0.3
		c-0.1,0-0.3,0-0.4,0l-3.6-1.8c-0.1-0.1-0.2-0.2-0.3-0.3c0-0.1,0-0.3,0-0.4c0.1-0.1,0.2-0.2,0.3-0.3c0.1,0,0.3,0,0.4,0L317.8,257.5z
		 M260.8,293.7c0.1,0,0.3,0.1,0.3,0.2l2.6,3c0.1,0.1,0.1,0.2,0.1,0.4c0,0.1-0.1,0.3-0.2,0.4c-0.1,0.1-0.2,0.1-0.4,0.1
		c-0.1,0-0.3-0.1-0.4-0.2l-2.6-3c-0.1-0.1-0.1-0.2-0.1-0.4c0-0.1,0.1-0.3,0.2-0.3C260.6,293.7,260.7,293.7,260.8,293.7z
		 M253.9,286.9c-0.1-0.1-0.1-0.2-0.1-0.3c0-0.1,0.1-0.3,0.2-0.4c0.1-0.1,0.2-0.1,0.4-0.1c0.1,0,0.3,0.1,0.3,0.2l2.6,3
		c0.1,0.1,0.1,0.2,0.1,0.4c0,0.1-0.1,0.3-0.2,0.4c-0.1,0.1-0.2,0.1-0.4,0.1c-0.1,0-0.3-0.1-0.4-0.2L253.9,286.9z M247.4,279.3
		c-0.1-0.1-0.1-0.2-0.1-0.4c0-0.1,0.1-0.3,0.2-0.4c0.1-0.1,0.2-0.1,0.4-0.1c0.1,0,0.3,0.1,0.3,0.2l2.6,3c0.1,0.1,0.1,0.2,0.1,0.4
		c0,0.1-0.1,0.3-0.2,0.4c-0.1,0.1-0.2,0.1-0.4,0.1c-0.1,0-0.3-0.1-0.4-0.2L247.4,279.3z M243.9,275c-0.1,0-0.3-0.1-0.4-0.2l-2.6-3
		c-0.1-0.1-0.1-0.2-0.1-0.4c0-0.1,0.1-0.3,0.2-0.4c0.1-0.1,0.2-0.1,0.4-0.1c0.1,0,0.3,0.1,0.3,0.2l2.6,3c0.1,0.1,0.1,0.2,0.1,0.4
		c0,0.1-0.1,0.3-0.2,0.4C244.1,275,244,275,243.9,275z M281.7,240.6c-0.1,0-0.3,0-0.4,0l-3.6-1.8c-0.1-0.1-0.2-0.2-0.3-0.3
		c0-0.1,0-0.3,0-0.4c0.1-0.1,0.2-0.2,0.3-0.3c0.1,0,0.3,0,0.4,0l3.6,1.8c0.1,0.1,0.2,0.2,0.3,0.3c0,0.1,0,0.3,0,0.4
		C281.9,240.4,281.8,240.5,281.7,240.6z M268.8,233.4c0.1,0,0.3,0,0.4,0l3.6,1.8c0.1,0.1,0.2,0.2,0.3,0.3c0,0.1,0,0.3,0,0.4
		c-0.1,0.1-0.2,0.2-0.3,0.3c-0.1,0-0.3,0-0.4,0l-3.6-1.8c-0.1-0.1-0.2-0.2-0.3-0.3c0-0.1,0-0.3,0-0.4
		C268.6,233.6,268.7,233.5,268.8,233.4z M259.5,229.6c0-0.1,0-0.3,0-0.4c0.1-0.1,0.2-0.2,0.3-0.3c0.1,0,0.3,0,0.4,0l3.6,1.8
		c0.1,0.1,0.2,0.2,0.3,0.3c0,0.1,0,0.3,0,0.4c-0.1,0.1-0.2,0.2-0.3,0.3c-0.1,0-0.3,0-0.4,0l-3.6-1.8
		C259.6,229.9,259.5,229.8,259.5,229.6z M255,227.1c-0.1,0.1-0.2,0.2-0.3,0.3c-0.1,0-0.3,0-0.4,0l-3.6-1.8c-0.1-0.1-0.2-0.2-0.3-0.3
		c0-0.1,0-0.3,0-0.4c0.1-0.1,0.2-0.2,0.3-0.3c0.1,0,0.3,0,0.4,0l3.6,1.8c0.1,0.1,0.2,0.2,0.3,0.3C255.1,226.9,255.1,227,255,227.1z
		 M246,222.3c0,0.1,0,0.3,0,0.4c-0.1,0.1-0.2,0.2-0.3,0.3c-0.1,0-0.3,0-0.4,0l-3.6-1.8c-0.1-0.1-0.2-0.2-0.3-0.3c0-0.1,0-0.3,0-0.4
		c0.1-0.1,0.2-0.2,0.3-0.3c0.1,0,0.3,0,0.4,0l3.6,1.8C245.9,222,246,222.1,246,222.3z M295.5,247.4c0-0.1,0-0.3,0-0.4
		c0.1-0.1,0.2-0.2,0.3-0.3c0.1,0,0.3,0,0.4,0l3.6,1.8c0.1,0.1,0.2,0.2,0.3,0.3c0,0.1,0,0.3,0,0.4c-0.1,0.1-0.2,0.2-0.3,0.3
		c-0.1,0-0.3,0-0.4,0l-3.6-1.8C295.6,247.6,295.5,247.5,295.5,247.4z M286.7,243.3c-0.1-0.1-0.2-0.2-0.3-0.3c0-0.1,0-0.3,0-0.4
		c0.1-0.1,0.2-0.2,0.3-0.3c0.1,0,0.3,0,0.4,0l3.6,1.8c0.1,0.1,0.2,0.2,0.3,0.3c0,0.1,0,0.3,0,0.4c-0.1,0.1-0.2,0.2-0.3,0.3
		c-0.1,0-0.3,0-0.4,0L286.7,243.3z M187.7,194.5c-0.1-0.1-0.2-0.2-0.3-0.3c0-0.1,0-0.3,0-0.4c0.1-0.1,0.2-0.2,0.3-0.3
		c0.1,0,0.3,0,0.4,0l3.6,1.8c0.1,0.1,0.2,0.2,0.3,0.3c0,0.1,0,0.3,0,0.4c-0.1,0.1-0.2,0.2-0.3,0.3c-0.1,0-0.3,0-0.4,0L187.7,194.5z
		 M175.9,196.2c-0.1-0.1-0.1-0.2-0.1-0.4c0-0.1,0.1-0.3,0.2-0.4c0.1-0.1,0.2-0.1,0.4-0.1c0.1,0,0.3,0.1,0.3,0.2l2.6,3
		c0.1,0.1,0.1,0.2,0.1,0.3c0,0.1-0.1,0.3-0.2,0.4c-0.1,0.1-0.2,0.1-0.4,0.1c-0.1,0-0.3-0.1-0.4-0.2L175.9,196.2z M593.2,393.8
		l3.6,1.8c0.1,0.1,0.2,0.2,0.3,0.3c0,0.1,0,0.3,0,0.4c-0.1,0.1-0.2,0.2-0.3,0.3c-0.1,0-0.3,0-0.4,0l-3.6-1.8
		c-0.1-0.1-0.2-0.2-0.3-0.3c0-0.1,0-0.3,0-0.4c0.1-0.1,0.2-0.2,0.3-0.3C592.9,393.7,593.1,393.7,593.2,393.8z M583.5,389.8
		c0-0.1,0-0.3,0-0.4c0.1-0.1,0.2-0.2,0.3-0.3c0.1,0,0.3,0,0.4,0l3.6,1.8c0.1,0.1,0.2,0.2,0.3,0.3c0,0.1,0,0.3,0,0.4
		c-0.1,0.1-0.2,0.2-0.3,0.3c-0.1,0-0.3,0-0.4,0l-3.6-1.8C583.6,390.1,583.5,390,583.5,389.8z M574.8,384.7c0.1,0,0.3,0,0.4,0
		l3.6,1.8c0.1,0.1,0.2,0.2,0.3,0.3c0,0.1,0,0.3,0,0.4c-0.1,0.1-0.2,0.2-0.3,0.3c-0.1,0-0.3,0-0.4,0l-3.6-1.8
		c-0.1-0.1-0.2-0.2-0.3-0.3c0-0.1,0-0.3,0-0.4C574.6,384.9,574.7,384.8,574.8,384.7z M552,373.3c0,0.1,0,0.3,0,0.4
		c-0.1,0.1-0.2,0.2-0.3,0.3c-0.1,0-0.3,0-0.4,0l-3.6-1.8c-0.1-0.1-0.2-0.2-0.3-0.3c0-0.1,0-0.3,0-0.4c0.1-0.1,0.2-0.2,0.3-0.3
		c0.1,0,0.3,0,0.4,0l3.6,1.8C551.9,373.1,552,373.2,552,373.3z M565.8,380.2c0.1,0,0.3,0,0.4,0l3.6,1.8c0.1,0.1,0.2,0.2,0.3,0.3
		c0,0.1,0,0.3,0,0.4c-0.1,0.1-0.2,0.2-0.3,0.3c-0.1,0-0.3,0-0.4,0l-3.6-1.8c-0.1-0.1-0.2-0.2-0.3-0.3c0-0.1,0-0.3,0-0.4
		C565.6,380.4,565.7,380.3,565.8,380.2z M560.7,378.5c-0.1,0-0.3,0-0.4,0l-3.6-1.8c-0.1-0.1-0.2-0.2-0.3-0.3c0-0.1,0-0.3,0-0.4
		c0.1-0.1,0.2-0.2,0.3-0.3c0.1,0,0.3,0,0.4,0l3.6,1.8c0.1,0.1,0.2,0.2,0.3,0.3c0,0.1,0,0.3,0,0.4
		C560.9,378.3,560.8,378.4,560.7,378.5z M538.5,367.3c0-0.1,0-0.3,0-0.4c0.1-0.1,0.2-0.2,0.3-0.3c0.1,0,0.3,0,0.4,0l3.6,1.8
		c0.1,0.1,0.2,0.2,0.3,0.3c0,0.1,0,0.3,0,0.4c-0.1,0.1-0.2,0.2-0.3,0.3c-0.1,0-0.3,0-0.4,0l-3.6-1.8
		C538.6,367.6,538.5,367.5,538.5,367.3z M533.7,365c-0.1,0-0.3,0-0.4,0l-3.6-1.8c-0.1-0.1-0.2-0.2-0.3-0.3c0-0.1,0-0.3,0-0.4
		c0.1-0.1,0.2-0.2,0.3-0.3c0.1,0,0.3,0,0.4,0l3.6,1.8c0.1,0.1,0.2,0.2,0.3,0.3c0,0.1,0,0.3,0,0.4C533.9,364.8,533.8,364.9,533.7,365
		z M515.8,355c0.1,0.1,0.2,0.2,0.3,0.3c0,0.1,0,0.3,0,0.4c-0.1,0.1-0.2,0.2-0.3,0.3c-0.1,0-0.3,0-0.4,0l-3.6-1.8
		c-0.1-0.1-0.2-0.2-0.3-0.3c0-0.1,0-0.3,0-0.4c0.1-0.1,0.2-0.2,0.3-0.3c0.1,0,0.3,0,0.4,0L515.8,355z M506.8,350.5
		c0.1,0.1,0.2,0.2,0.3,0.3c0,0.1,0,0.3,0,0.4c-0.1,0.1-0.2,0.2-0.3,0.3c-0.1,0-0.3,0-0.4,0l-3.6-1.8c-0.1-0.1-0.2-0.2-0.3-0.3
		c0-0.1,0-0.3,0-0.4c0.1-0.1,0.2-0.2,0.3-0.3c0.1,0,0.3,0,0.4,0L506.8,350.5z M520.7,358.7c-0.1-0.1-0.2-0.2-0.3-0.3
		c0-0.1,0-0.3,0-0.4c0.1-0.1,0.2-0.2,0.3-0.3c0.1,0,0.3,0,0.4,0l3.6,1.8c0.1,0.1,0.2,0.2,0.3,0.3c0,0.1,0,0.3,0,0.4
		c-0.1,0.1-0.2,0.2-0.3,0.3c-0.1,0-0.3,0-0.4,0L520.7,358.7z M493.7,345.1c-0.1-0.1-0.2-0.2-0.3-0.3c0-0.1,0-0.3,0-0.4
		c0.1-0.1,0.2-0.2,0.3-0.3c0.1,0,0.3,0,0.4,0l3.6,1.8c0.1,0.1,0.2,0.2,0.3,0.3c0,0.1,0,0.3,0,0.4c-0.1,0.1-0.2,0.2-0.3,0.3
		c-0.1,0-0.3,0-0.4,0L493.7,345.1z M416.8,306.1c0.1,0.1,0.2,0.2,0.3,0.3c0,0.1,0,0.3,0,0.4c-0.1,0.1-0.2,0.2-0.3,0.3
		c-0.1,0-0.3,0-0.4,0l-3.6-1.8c-0.1-0.1-0.2-0.2-0.3-0.3c0-0.1,0-0.3,0-0.4c0.1-0.1,0.2-0.2,0.3-0.3c0.1,0,0.3,0,0.4,0L416.8,306.1z
		 M439.7,318.5c-0.1-0.1-0.2-0.2-0.3-0.3c0-0.1,0-0.3,0-0.4c0.1-0.1,0.2-0.2,0.3-0.3c0.1,0,0.3,0,0.4,0l3.6,1.8
		c0.1,0.1,0.2,0.2,0.3,0.3c0,0.1,0,0.3,0,0.4c-0.1,0.1-0.2,0.2-0.3,0.3c-0.1,0-0.3,0-0.4,0L439.7,318.5z M425.7,311.5
		c-0.1,0-0.3,0-0.4,0l-3.6-1.8c-0.1-0.1-0.2-0.2-0.3-0.3c0-0.1,0-0.3,0-0.4c0.1-0.1,0.2-0.2,0.3-0.3c0.1,0,0.3,0,0.4,0l3.6,1.8
		c0.1,0.1,0.2,0.2,0.3,0.3c0,0.1,0,0.3,0,0.4C425.9,311.3,425.8,311.4,425.7,311.5z M430.7,314c-0.1-0.1-0.2-0.2-0.3-0.3
		c0-0.1,0-0.3,0-0.4c0.1-0.1,0.2-0.2,0.3-0.3c0.1,0,0.3,0,0.4,0l3.6,1.8c0.1,0.1,0.2,0.2,0.3,0.3c0,0.1,0,0.3,0,0.4
		c-0.1,0.1-0.2,0.2-0.3,0.3c-0.1,0-0.3,0-0.4,0L430.7,314z M484.5,340.1c0.1-0.1,0.2-0.2,0.3-0.3c0.1,0,0.3,0,0.4,0l3.6,1.8
		c0.1,0.1,0.2,0.2,0.3,0.3c0,0.1,0,0.3,0,0.4c-0.1,0.1-0.2,0.2-0.3,0.3c-0.1,0-0.3,0-0.4,0l-3.6-1.8c-0.1-0.1-0.2-0.2-0.3-0.3
		C484.4,340.3,484.4,340.2,484.5,340.1z M475.7,336.4c-0.1-0.1-0.2-0.2-0.3-0.3c0-0.1,0-0.3,0-0.4c0.1-0.1,0.2-0.2,0.3-0.3
		c0.1,0,0.3,0,0.4,0l3.6,1.8c0.1,0.1,0.2,0.2,0.3,0.3c0,0.1,0,0.3,0,0.4c-0.1,0.1-0.2,0.2-0.3,0.3c-0.1,0-0.3,0-0.4,0L475.7,336.4z
		 M466.5,331.5c0-0.1,0-0.3,0-0.4c0.1-0.1,0.2-0.2,0.3-0.3c0.1,0,0.3,0,0.4,0l3.6,1.8c0.1,0.1,0.2,0.2,0.3,0.3c0,0.1,0,0.3,0,0.4
		c-0.1,0.1-0.2,0.2-0.3,0.3c-0.1,0-0.3,0-0.4,0l-3.6-1.8C466.6,331.8,466.5,331.7,466.5,331.5z M452.7,324.8c-0.1,0-0.3,0-0.4,0
		l-3.6-1.8c-0.1-0.1-0.2-0.2-0.3-0.3c0-0.1,0-0.3,0-0.4c0.1-0.1,0.2-0.2,0.3-0.3c0.1,0,0.3,0,0.4,0l3.6,1.8c0.1,0.1,0.2,0.2,0.3,0.3
		c0,0.1,0,0.3,0,0.4C452.9,324.6,452.8,324.7,452.7,324.8z M457.5,327.1c0-0.1,0-0.3,0-0.4c0.1-0.1,0.2-0.2,0.3-0.3
		c0.1,0,0.3,0,0.4,0l3.6,1.8c0.1,0.1,0.2,0.2,0.3,0.3c0,0.1,0,0.3,0,0.4c-0.1,0.1-0.2,0.2-0.3,0.3c-0.1,0-0.3,0-0.4,0l-3.6-1.8
		C457.6,327.4,457.5,327.3,457.5,327.1z M347.5,395.9l-2.6-3c-0.1-0.1-0.1-0.2-0.1-0.3c0-0.1,0.1-0.3,0.2-0.4
		c0.1-0.1,0.2-0.1,0.4-0.1c0.1,0,0.3,0.1,0.3,0.2l2.6,3c0.1,0.1,0.1,0.2,0.1,0.3c0,0.1-0.1,0.3-0.2,0.3c-0.1,0.1-0.2,0.1-0.4,0.1
		C347.7,396.1,347.6,396,347.5,395.9z M341.8,387.7c0.1,0.1,0.1,0.2,0.1,0.4c0,0.1-0.1,0.3-0.2,0.3c-0.1,0.1-0.2,0.1-0.4,0.1
		c-0.1,0-0.3-0.1-0.4-0.2l-2.6-3c-0.1-0.1-0.1-0.2-0.1-0.4c0-0.1,0.1-0.3,0.2-0.3c0.1-0.1,0.2-0.1,0.4-0.1c0.1,0,0.3,0.1,0.3,0.2
		L341.8,387.7z M335.3,380.1c0.1,0.1,0.1,0.2,0.1,0.3c0,0.1-0.1,0.3-0.2,0.4c-0.1,0.1-0.2,0.1-0.4,0.1c-0.1,0-0.3-0.1-0.4-0.2
		l-2.6-3c-0.1-0.1-0.1-0.2-0.1-0.3c0-0.1,0.1-0.3,0.2-0.3c0.1-0.1,0.2-0.1,0.4-0.1c0.1,0,0.3,0.1,0.3,0.2L335.3,380.1z M325.3,369.8
		c0-0.1,0.1-0.3,0.2-0.4c0.1-0.1,0.2-0.1,0.4-0.1c0.1,0,0.3,0.1,0.3,0.2l2.6,3c0.1,0.1,0.1,0.2,0.1,0.4c0,0.1-0.1,0.3-0.2,0.3
		c-0.1,0.1-0.2,0.1-0.4,0.1c-0.1,0-0.3-0.1-0.4-0.2l-2.6-3C325.3,370,325.3,369.9,325.3,369.8z M403.7,300.9
		c-0.1-0.1-0.2-0.2-0.3-0.3c0-0.1,0-0.3,0-0.4c0.1-0.1,0.2-0.2,0.3-0.3c0.1,0,0.3,0,0.4,0l3.6,1.8c0.1,0.1,0.2,0.2,0.3,0.3
		c0,0.1,0,0.3,0,0.4c-0.1,0.1-0.2,0.2-0.3,0.3c-0.1,0-0.3,0-0.4,0L403.7,300.9z M394.5,295.8c0.1-0.1,0.2-0.2,0.3-0.3
		c0.1,0,0.3,0,0.4,0l3.6,1.8c0.1,0.1,0.2,0.2,0.3,0.3c0,0.1,0,0.3,0,0.4c-0.1,0.1-0.2,0.2-0.3,0.3c-0.1,0-0.3,0-0.4,0l-3.6-1.8
		c-0.1-0.1-0.2-0.2-0.3-0.3C394.4,296,394.4,295.9,394.5,295.8z M385.5,291.3c0.1-0.1,0.2-0.2,0.3-0.3c0.1,0,0.3,0,0.4,0l3.6,1.8
		c0.1,0.1,0.2,0.2,0.3,0.3c0,0.1,0,0.3,0,0.4c-0.1,0.1-0.2,0.2-0.3,0.3c-0.1,0-0.3,0-0.4,0l-3.6-1.8c-0.1-0.1-0.2-0.2-0.3-0.3
		C385.4,291.5,385.4,291.4,385.5,291.3z M380.8,288.5c0.1,0.1,0.2,0.2,0.3,0.3c0,0.1,0,0.3,0,0.4c-0.1,0.1-0.2,0.2-0.3,0.3
		c-0.1,0-0.3,0-0.4,0l-3.6-1.8c-0.1-0.1-0.2-0.2-0.3-0.3c0-0.1,0-0.3,0-0.4c0.1-0.1,0.2-0.2,0.3-0.3c0.1,0,0.3,0,0.4,0L380.8,288.5z
		 M367.7,283c-0.1-0.1-0.2-0.2-0.3-0.3c0-0.1,0-0.3,0-0.4c0.1-0.1,0.2-0.2,0.3-0.3c0.1,0,0.3,0,0.4,0l3.6,1.8
		c0.1,0.1,0.2,0.2,0.3,0.3c0,0.1,0,0.3,0,0.4c-0.1,0.1-0.2,0.2-0.3,0.3c-0.1,0-0.3,0-0.4,0L367.7,283z M349.7,274.3
		c-0.1-0.1-0.2-0.2-0.3-0.3c0-0.1,0-0.3,0-0.4c0.1-0.1,0.2-0.2,0.3-0.3c0.1,0,0.3,0,0.4,0l3.6,1.8c0.1,0.1,0.2,0.2,0.3,0.3
		c0,0.1,0,0.3,0,0.4c-0.1,0.1-0.2,0.2-0.3,0.3c-0.1,0-0.3,0-0.4,0L349.7,274.3z M358.5,278.4c0-0.1,0-0.3,0-0.4
		c0.1-0.1,0.2-0.2,0.3-0.3c0.1,0,0.3,0,0.4,0l3.6,1.8c0.1,0.1,0.2,0.2,0.3,0.3c0,0.1,0,0.3,0,0.4c-0.1,0.1-0.2,0.2-0.3,0.3
		c-0.1,0-0.3,0-0.4,0l-3.6-1.8C358.6,278.6,358.5,278.5,358.5,278.4z M326.8,261.9c0.1,0.1,0.2,0.2,0.3,0.3c0,0.1,0,0.3,0,0.4
		c-0.1,0.1-0.2,0.2-0.3,0.3c-0.1,0-0.3,0-0.4,0l-3.6-1.8c-0.1-0.1-0.2-0.2-0.3-0.3c0-0.1,0-0.3,0-0.4c0.1-0.1,0.2-0.2,0.3-0.3
		c0.1,0,0.3,0,0.4,0L326.8,261.9z M331.7,265.4c-0.1-0.1-0.2-0.2-0.3-0.3c0-0.1,0-0.3,0-0.4c0.1-0.1,0.2-0.2,0.3-0.3
		c0.1,0,0.3,0,0.4,0l3.6,1.8c0.1,0.1,0.2,0.2,0.3,0.3c0,0.1,0,0.3,0,0.4c-0.1,0.1-0.2,0.2-0.3,0.3c-0.1,0-0.3,0-0.4,0L331.7,265.4z
		 M344.8,270.6c0.1,0.1,0.2,0.2,0.3,0.3c0,0.1,0,0.3,0,0.4c-0.1,0.1-0.2,0.2-0.3,0.3c-0.1,0-0.3,0-0.4,0l-3.6-1.8
		c-0.1-0.1-0.2-0.2-0.3-0.3c0-0.1,0-0.3,0-0.4c0.1-0.1,0.2-0.2,0.3-0.3c0.1,0,0.3,0,0.4,0L344.8,270.6z"/>
</g>
</svg>
