<?xml version="1.0" encoding="utf-8"?>
<!-- Generator: Adobe Illustrator 16.0.0, SVG Export Plug-In . SVG Version: 6.00 Build 0)  -->
<!DOCTYPE svg PUBLIC "-//W3C//DTD SVG 1.1//EN" "http://www.w3.org/Graphics/SVG/1.1/DTD/svg11.dtd">
<svg version="1.1" xmlns="http://www.w3.org/2000/svg" xmlns:xlink="http://www.w3.org/1999/xlink" x="0px" y="0px" width="700px"
	 height="700px" viewBox="0 0 700 700" enable-background="new 0 0 700 700" xml:space="preserve">
<g id="Layer_10">
</g>
<g id="Layer_2">
	<g>
		<g>
			
				<radialGradient id="SVGID_1_" cx="2.3501" cy="1.8999" r="7.975" gradientTransform="matrix(0.5394 0 0 4.005 357.7002 404.2155)" gradientUnits="userSpaceOnUse">
				<stop  offset="0" style="stop-color:#FFFCF7"/>
				<stop  offset="0.2667" style="stop-color:#83FCB3"/>
				<stop  offset="0.6196" style="stop-color:#09FA67"/>
				<stop  offset="1" style="stop-color:#09FA67"/>
			</radialGradient>
			<path fill-rule="evenodd" clip-rule="evenodd" fill="url(#SVGID_1_)" d="M360.8,353.8c0.4,0.3,0.5,0.7,0.5,1.2v99v29.6
				c0,0.5-0.2,0.9-0.5,1.2c-0.3,0.3-0.7,0.5-1.2,0.5h-0.3c-0.5,0-0.9-0.2-1.3-0.5c-0.3-0.3-0.5-0.7-0.5-1.2V454v-99
				c0-0.4,0.2-0.8,0.5-1.2c0.4-0.3,0.8-0.5,1.3-0.5h0.3C360,353.4,360.4,353.5,360.8,353.8z"/>
			
				<radialGradient id="SVGID_2_" cx="20" cy="190" r="123.6875" gradientTransform="matrix(0.5394 0 0 0.5394 357.7002 410.7998)" gradientUnits="userSpaceOnUse">
				<stop  offset="0" style="stop-color:#09FB67;stop-opacity:0.4235"/>
				<stop  offset="1" style="stop-color:#9DFDC0;stop-opacity:0"/>
			</radialGradient>
			<polygon fill-rule="evenodd" clip-rule="evenodd" fill="url(#SVGID_2_)" points="392.2,462.4 406.2,462.4 465.6,583.4 
				419.6,583.4 325.7,568.4 325.7,563.2 292.1,563.2 287.6,454.7 323,454.7 323,505.9 326.1,515.2 326.1,515.8 392.2,515.8 			"/>
		</g>
	</g>
</g>
</svg>
