<?xml version="1.0" encoding="utf-8"?>
<!-- Generator: Adobe Illustrator 16.0.0, SVG Export Plug-In . SVG Version: 6.00 Build 0)  -->
<!DOCTYPE svg PUBLIC "-//W3C//DTD SVG 1.1//EN" "http://www.w3.org/Graphics/SVG/1.1/DTD/svg11.dtd">
<svg version="1.1" id="Layer_1" xmlns="http://www.w3.org/2000/svg" xmlns:xlink="http://www.w3.org/1999/xlink" x="0px" y="0px"
	 width="700px" height="700px" viewBox="0 0 700 700" enable-background="new 0 0 700 700" xml:space="preserve">
<g>
	<g>
		<polygon fill-rule="evenodd" clip-rule="evenodd" fill-opacity="0.2471" points="255.4,552.5 255.7,564.6 193.1,564.6 
			193.5,552.5 		"/>
	</g>
	<g>
		<g>
			<path fill-rule="evenodd" clip-rule="evenodd" d="M248.1,528.4c-0.3-0.3-0.4-0.7-0.4-1.1c0-0.4,0.2-0.8,0.5-1.1s0.7-0.4,1.1-0.4
				c9.3,0.3,15.7,1.7,19.3,4.3c3.7,2.5,4.8,6,3.3,10.5h-3l-0.4,0.1c1.5-3.5,0.9-6.2-1.7-8.1c-3.3-2.2-9.2-3.4-17.6-3.7
				C248.7,528.9,248.4,528.7,248.1,528.4z"/>
		</g>
		<g>
			<path fill-rule="evenodd" clip-rule="evenodd" fill-opacity="0.2471" d="M237.2,544.7c0.2-0.4,0.5-0.6,1-0.7
				c1.1-0.3,2.2-0.5,3.3-0.7c10.8-2.3,19.6-3.1,26.3-2.3l-11.7,3.2c-3.2,0.3-6.7,0.8-10.5,1.5c-2.1,0.4-4.3,0.9-6.6,1.4
				c-0.4,0.1-0.8,0-1.2-0.2c-0.4-0.2-0.6-0.6-0.7-1C236.9,545.5,237,545.1,237.2,544.7z"/>
		</g>
		<g>
			
				<radialGradient id="SVGID_1_" cx="91.7998" cy="120.8999" r="23.1125" gradientTransform="matrix(0.4653 0 0 0.1953 221.4501 504.7947)" gradientUnits="userSpaceOnUse">
				<stop  offset="0" style="stop-color:#FFFFFF"/>
				<stop  offset="1" style="stop-color:#FAFAFA;stop-opacity:0"/>
			</radialGradient>
			<path fill-rule="evenodd" clip-rule="evenodd" fill="url(#SVGID_1_)" d="M249.7,527.2c0-0.1,0-0.2,0.1-0.2
				c0.1-0.1,0.1-0.1,0.3-0.1c12.3,0.5,19.5,3.6,21.8,9.2c0,0.1,0,0.2,0,0.3c0,0.1-0.1,0.1-0.2,0.2c-0.1,0-0.2,0-0.3,0
				c-0.1,0-0.2-0.1-0.2-0.2c-2.2-5.4-9.3-8.3-21.2-8.8c-0.1,0-0.2-0.1-0.2-0.1C249.7,527.3,249.7,527.3,249.7,527.2z"/>
		</g>
	</g>
	<g>
		<g>
			
				<linearGradient id="SVGID_2_" gradientUnits="userSpaceOnUse" x1="2.3384" y1="204.5503" x2="2.6465" y2="-189.3497" gradientTransform="matrix(0.4653 0 0 0.4653 221.4501 472.1503)">
				<stop  offset="0" style="stop-color:#464034"/>
				<stop  offset="1" style="stop-color:#181412"/>
				<stop  offset="1" style="stop-color:#484848"/>
			</linearGradient>
			<rect x="194.2" y="395.8" fill-rule="evenodd" clip-rule="evenodd" fill="url(#SVGID_2_)" width="57" height="1.6"/>
			
				<linearGradient id="SVGID_3_" gradientUnits="userSpaceOnUse" x1="2.4712" y1="204.5508" x2="2.7793" y2="-189.3492" gradientTransform="matrix(0.4653 0 0 0.4653 221.4501 472.1503)">
				<stop  offset="0" style="stop-color:#464034"/>
				<stop  offset="1" style="stop-color:#C4B6AA"/>
				<stop  offset="1" style="stop-color:#484848"/>
			</linearGradient>
			<path fill-rule="evenodd" clip-rule="evenodd" fill="url(#SVGID_3_)" d="M194.2,397.4h57v164.8h-57V397.4z M251.2,395.8h-57v-6.7
				h57h0V395.8z"/>
			
				<linearGradient id="SVGID_4_" gradientUnits="userSpaceOnUse" x1="-63" y1="-184.1768" x2="63.8" y2="-184.1768" gradientTransform="matrix(0.4653 0 0 0.4653 221.4501 472.1503)">
				<stop  offset="0" style="stop-color:#464034"/>
				<stop  offset="1" style="stop-color:#C4B6AA"/>
				<stop  offset="1" style="stop-color:#484848"/>
			</linearGradient>
			<polygon fill-rule="evenodd" clip-rule="evenodd" fill="url(#SVGID_4_)" points="251.1,389.2 194.2,389.2 198.2,383.7 
				249.4,383.7 			"/>
		</g>
	</g>
	<g>
		<g>
			
				<linearGradient id="SVGID_5_" gradientUnits="userSpaceOnUse" x1="-11.7876" y1="-170.6016" x2="32.1874" y2="-170.6016" gradientTransform="matrix(0.4653 0 0 0.4653 221.4501 472.1503)">
				<stop  offset="0" style="stop-color:#353535"/>
				<stop  offset="8.627451e-002" style="stop-color:#848484"/>
				<stop  offset="0.7882" style="stop-color:#7B7B7B"/>
				<stop  offset="1" style="stop-color:#CCCCCC"/>
			</linearGradient>
			<path fill-rule="evenodd" clip-rule="evenodd" fill="url(#SVGID_5_)" d="M232.9,394.8h-14.7c-2-1.3-2-2.7,0-4h14.7
				C234.6,392.1,234.6,393.4,232.9,394.8z"/>
		</g>
		<g>
			<g>
				<g>
					
						<linearGradient id="SVGID_6_" gradientUnits="userSpaceOnUse" x1="24.564" y1="-167.8389" x2="21.2392" y2="-171.3641" gradientTransform="matrix(0.4653 0 0 0.4653 221.4501 472.1503)">
						<stop  offset="0" style="stop-color:#EBEBEA"/>
						<stop  offset="1" style="stop-color:#626262"/>
					</linearGradient>
					<path fill-rule="evenodd" clip-rule="evenodd" fill="url(#SVGID_6_)" d="M231.7,394.1c-0.3,0-0.6-0.1-0.9-0.3
						c-0.2-0.2-0.4-0.6-0.4-0.9c0-0.3,0.1-0.6,0.4-0.9c0.2-0.2,0.5-0.4,0.9-0.4c0.4,0,0.7,0.1,0.9,0.4c0.2,0.2,0.4,0.5,0.4,0.9
						c0,0.4-0.1,0.7-0.4,0.9C232.4,394,232.1,394.1,231.7,394.1z"/>
				</g>
				<g>
					<rect x="231.5" y="391.9" fill-rule="evenodd" clip-rule="evenodd" width="0.5" height="1.8"/>
				</g>
				<g>
					<rect x="230.8" y="392.6" fill-rule="evenodd" clip-rule="evenodd" width="1.8" height="0.5"/>
				</g>
			</g>
		</g>
		<g>
			
				<linearGradient id="SVGID_7_" gradientUnits="userSpaceOnUse" x1="2" y1="-170.7261" x2="14.7" y2="-170.7261" gradientTransform="matrix(0.4653 0 0 0.4653 221.4501 472.1503)">
				<stop  offset="0" style="stop-color:#353535"/>
				<stop  offset="8.627451e-002" style="stop-color:#848484"/>
				<stop  offset="0.4392" style="stop-color:#AAAAAA"/>
				<stop  offset="0.7922" style="stop-color:#737373"/>
				<stop  offset="1" style="stop-color:#6A6A6A"/>
			</linearGradient>
			<rect x="222.9" y="390.9" fill-rule="evenodd" clip-rule="evenodd" fill="url(#SVGID_7_)" width="4.9" height="3.7"/>
		</g>
		<g>
			
				<linearGradient id="SVGID_8_" gradientUnits="userSpaceOnUse" x1="-11.7876" y1="-154.1514" x2="32.1874" y2="-154.1514" gradientTransform="matrix(0.4653 0 0 0.4653 221.4501 472.1503)">
				<stop  offset="0" style="stop-color:#353535"/>
				<stop  offset="8.627451e-002" style="stop-color:#848484"/>
				<stop  offset="0.7882" style="stop-color:#7B7B7B"/>
				<stop  offset="1" style="stop-color:#CCCCCC"/>
			</linearGradient>
			<path fill-rule="evenodd" clip-rule="evenodd" fill="url(#SVGID_8_)" d="M232.9,402.4h-14.7c-2-1.3-2-2.7,0-4h14.7
				C234.6,399.8,234.6,401.1,232.9,402.4z"/>
		</g>
		<g>
			
				<linearGradient id="SVGID_9_" gradientUnits="userSpaceOnUse" x1="2" y1="-154.2754" x2="14.7" y2="-154.2754" gradientTransform="matrix(0.4653 0 0 0.4653 221.4501 472.1503)">
				<stop  offset="0" style="stop-color:#353535"/>
				<stop  offset="8.627451e-002" style="stop-color:#848484"/>
				<stop  offset="0.4392" style="stop-color:#AAAAAA"/>
				<stop  offset="0.7922" style="stop-color:#737373"/>
				<stop  offset="1" style="stop-color:#6A6A6A"/>
			</linearGradient>
			<rect x="222.9" y="398.5" fill-rule="evenodd" clip-rule="evenodd" fill="url(#SVGID_9_)" width="4.9" height="3.7"/>
		</g>
		<g>
			<g>
				<g>
					
						<linearGradient id="SVGID_10_" gradientUnits="userSpaceOnUse" x1="-1.436" y1="-167.9395" x2="-4.7608" y2="-171.4646" gradientTransform="matrix(0.4653 0 0 0.4653 221.4501 472.1503)">
						<stop  offset="0" style="stop-color:#EBEBEA"/>
						<stop  offset="1" style="stop-color:#626262"/>
					</linearGradient>
					<path fill-rule="evenodd" clip-rule="evenodd" fill="url(#SVGID_10_)" d="M218.8,393.7c-0.2-0.2-0.4-0.5-0.4-0.9
						c0-0.3,0.1-0.6,0.4-0.9s0.5-0.4,0.9-0.4c0.4,0,0.7,0.1,0.9,0.4c0.2,0.2,0.4,0.5,0.4,0.9c0,0.4-0.1,0.7-0.4,0.9
						c-0.2,0.2-0.6,0.3-0.9,0.3C219.3,394.1,219,393.9,218.8,393.7z"/>
				</g>
				<g>
					<rect x="219.4" y="391.9" fill-rule="evenodd" clip-rule="evenodd" width="0.5" height="1.8"/>
				</g>
				<g>
					<rect x="218.8" y="392.6" fill-rule="evenodd" clip-rule="evenodd" width="1.8" height="0.5"/>
				</g>
			</g>
		</g>
		<g>
			<g>
				<g>
					
						<linearGradient id="SVGID_11_" gradientUnits="userSpaceOnUse" x1="-1.436" y1="-151.7891" x2="-4.7608" y2="-155.3143" gradientTransform="matrix(0.4653 0 0 0.4653 221.4501 472.1503)">
						<stop  offset="0" style="stop-color:#EBEBEA"/>
						<stop  offset="1" style="stop-color:#626262"/>
					</linearGradient>
					<path fill-rule="evenodd" clip-rule="evenodd" fill="url(#SVGID_11_)" d="M218.4,400.3c0-0.3,0.1-0.6,0.4-0.9s0.5-0.4,0.9-0.4
						c0.4,0,0.7,0.1,0.9,0.4c0.2,0.2,0.4,0.5,0.4,0.9c0,0.4-0.1,0.7-0.4,0.9c-0.2,0.2-0.6,0.3-0.9,0.3c-0.3,0-0.6-0.1-0.9-0.3
						C218.5,401,218.4,400.7,218.4,400.3z"/>
				</g>
				<g>
					<rect x="219.4" y="399.4" fill-rule="evenodd" clip-rule="evenodd" width="0.5" height="1.8"/>
				</g>
				<g>
					<rect x="218.8" y="400.1" fill-rule="evenodd" clip-rule="evenodd" width="1.8" height="0.5"/>
				</g>
			</g>
		</g>
		<g>
			<g>
				<g>
					
						<linearGradient id="SVGID_12_" gradientUnits="userSpaceOnUse" x1="24.564" y1="-151.8887" x2="21.2392" y2="-155.4139" gradientTransform="matrix(0.4653 0 0 0.4653 221.4501 472.1503)">
						<stop  offset="0" style="stop-color:#EBEBEA"/>
						<stop  offset="1" style="stop-color:#626262"/>
					</linearGradient>
					<path fill-rule="evenodd" clip-rule="evenodd" fill="url(#SVGID_12_)" d="M230.8,399.4c0.2-0.2,0.5-0.4,0.9-0.4
						c0.4,0,0.7,0.1,0.9,0.4c0.2,0.2,0.4,0.5,0.4,0.9c0,0.4-0.1,0.7-0.4,0.9c-0.2,0.2-0.6,0.3-0.9,0.3c-0.3,0-0.6-0.1-0.9-0.3
						c-0.2-0.2-0.4-0.6-0.4-0.9C230.5,399.9,230.6,399.6,230.8,399.4z"/>
				</g>
				<g>
					<rect x="231.5" y="399.4" fill-rule="evenodd" clip-rule="evenodd" width="0.5" height="1.8"/>
				</g>
				<g>
					<rect x="230.8" y="400" fill-rule="evenodd" clip-rule="evenodd" width="1.8" height="0.5"/>
				</g>
			</g>
		</g>
	</g>
	<g>
		<g>
			
				<radialGradient id="SVGID_13_" cx="1.3877" cy="-160.5" r="58.8622" gradientTransform="matrix(0.4653 0 0 0.6979 221.4501 509.4895)" gradientUnits="userSpaceOnUse">
				<stop  offset="0" style="stop-color:#FFFFFF"/>
				<stop  offset="1" style="stop-color:#FAFAFA;stop-opacity:0"/>
			</radialGradient>
			<path fill-rule="evenodd" clip-rule="evenodd" fill="url(#SVGID_13_)" d="M249.5,397.5C249.5,397.6,249.5,397.6,249.5,397.5
				l-54.7,0c0,0,0,0,0,0c0,0,0,0,0-0.1c0,0,0,0,0-0.1c0,0,0,0,0,0h54.7c0,0,0,0,0,0C249.5,397.4,249.5,397.5,249.5,397.5
				C249.5,397.5,249.5,397.5,249.5,397.5z"/>
			
				<radialGradient id="SVGID_14_" cx="1.2373" cy="-178.25" r="58.8627" gradientTransform="matrix(0.4653 0 0 0.7755 221.4501 527.4477)" gradientUnits="userSpaceOnUse">
				<stop  offset="0" style="stop-color:#FFFFFF"/>
				<stop  offset="1" style="stop-color:#FAFAFA;stop-opacity:0"/>
			</radialGradient>
			<path fill-rule="evenodd" clip-rule="evenodd" fill="url(#SVGID_14_)" d="M249.4,389.3C249.4,389.3,249.4,389.3,249.4,389.3
				l-54.7,0c0,0,0,0,0,0c0,0,0,0,0-0.1c0,0,0-0.1,0-0.1c0,0,0,0,0,0h54.7c0,0,0,0,0,0C249.4,389.2,249.4,389.2,249.4,389.3
				C249.4,389.2,249.4,389.3,249.4,389.3z"/>
			
				<radialGradient id="SVGID_15_" cx="-58.3501" cy="-30.1001" r="438.975" gradientTransform="matrix(0.4653 0 0 0.2196 221.4501 464.7561)" gradientUnits="userSpaceOnUse">
				<stop  offset="0" style="stop-color:#FFFFFF"/>
				<stop  offset="1" style="stop-color:#FAFAFA;stop-opacity:0"/>
			</radialGradient>
			<path fill-rule="evenodd" clip-rule="evenodd" fill="url(#SVGID_15_)" d="M194.4,397.4C194.5,397.4,194.5,397.4,194.4,397.4
				l0.1,151.1c0,0,0,0-0.1,0c0,0-0.1,0-0.1,0c0,0-0.1,0-0.1,0c0,0,0,0,0,0V397.5c0,0,0-0.1,0-0.1c0,0,0.1,0,0.1,0
				C194.3,397.4,194.4,397.4,194.4,397.4z"/>
		</g>
	</g>
	<g>
		
			<linearGradient id="SVGID_16_" gradientUnits="userSpaceOnUse" x1="-1.2373" y1="15.9492" x2="8.7377" y2="15.9492" gradientTransform="matrix(0.4653 0 0 0.4653 221.4501 472.1503)">
			<stop  offset="0" style="stop-color:#050403"/>
			<stop  offset="1" style="stop-color:#8B8178"/>
			<stop  offset="1" style="stop-color:#484848"/>
		</linearGradient>
		<path fill-rule="evenodd" clip-rule="evenodd" fill="url(#SVGID_16_)" d="M223.2,421.8L223.2,421.8c0.7,0,1.2,0.2,1.7,0.7
			c0.5,0.5,0.7,1,0.7,1.7V535c0,0.6-0.2,1.2-0.7,1.6c-0.4,0.5-1,0.7-1.6,0.7h-0.1c-0.6,0-1.2-0.2-1.6-0.7c-0.4-0.4-0.7-1-0.7-1.6
			V424.1c0-0.6,0.2-1.2,0.7-1.7C222,422,222.6,421.8,223.2,421.8z"/>
	</g>
</g>
</svg>
