<?xml version="1.0" encoding="utf-8"?>
<!-- Generator: Adobe Illustrator 16.0.0, SVG Export Plug-In . SVG Version: 6.00 Build 0)  -->
<!DOCTYPE svg PUBLIC "-//W3C//DTD SVG 1.1//EN" "http://www.w3.org/Graphics/SVG/1.1/DTD/svg11.dtd">
<svg version="1.1" xmlns="http://www.w3.org/2000/svg" xmlns:xlink="http://www.w3.org/1999/xlink" x="0px" y="0px" width="700px"
	 height="700px" viewBox="0 0 700 700" enable-background="new 0 0 700 700" xml:space="preserve">
<g id="Layer_2">
	<g>
		
			<text transform="matrix(0.5229 4.500384e-002 -2.758610e-003 1 161.8354 275.2466)" fill="#FFFFFF" font-family="'ArialMT'" font-size="2.8542">10</text>
		
			<text transform="matrix(0.8729 -0.1802 0.2311 0.9729 175.1934 274.5151)" fill="#FFFFFF" font-family="'ArialMT'" font-size="2.8935">20</text>
		
			<text transform="matrix(0.8303 -0.3151 0.3548 0.935 191.4604 270.2319)" fill="#FFFFFF" font-family="'ArialMT'" font-size="2.8971">30</text>
		
			<text transform="matrix(0.7874 -0.418 0.4423 0.8969 205.7168 264.856)" fill="#FFFFFF" font-family="'ArialMT'" font-size="2.8897">40</text>
		
			<text transform="matrix(0.7157 -0.5529 0.5603 0.8283 219.6353 258.4648)" fill="#FFFFFF" font-family="'ArialMT'" font-size="2.87">50</text>
	</g>
	<path d="M234.1,165.1c7.4-8.2,9.1-17,5.1-26.5c-0.1-0.1-0.1-0.2-0.1-0.3l-0.1-0.1c-4.8-10.7-8.9-16.7-12.3-17.9
		c-6-2.1-10.9-2.7-14.5-1.9c-1.5,0.4-2.8,1-3.9,1.9l-16.4,15c-2.8,3.8-3.9,7.9-3,12.2c0.2,0.9,0.4,1.9,0.8,2.8l8.7,21.9
		c1.3,2.9,1.3,5.1,0,6.8c-3.4,4.4-7.4,5.5-12.1,3.3l-0.4-1.6l-0.1-0.7l0-0.1c-0.1-0.2-0.3-0.3-0.5-0.4c-0.4-0.2-1-0.4-1.8-0.5
		l-1.6-4.6l-0.9-15.9c0.2-0.3,0.3-0.6,0.3-1c0-0.1,0-0.2,0-0.5l-0.5-1.4v-0.1c0-0.1-0.1-0.2-0.1-0.3c-0.6-0.9-2.5-1.3-5.8-1.2
		c-0.1,0-0.2,0-0.3,0l-3.8-10.5c1.5-1.8,2.3-3.4,2.4-4.9c0-0.6,0-1.2-0.3-1.8c-0.8-2.2-3.2-3.6-7.2-4l-4.5-1.5l-4.6-12.7
		c0.3-0.3,0.6-0.7,1-1c2.9-3.1,3.9-6,3-8.6c-0.9-2.6-3.5-4.2-7.8-4.7c-4.2-0.6-8.9,0.1-14,1.9c-5.1,1.9-9.2,4.4-12.1,7.5
		c-3,3.2-4,6-3.1,8.6c0.9,2.6,3.6,4.1,7.9,4.6c0.4,0.1,0.9,0.1,1.4,0.1l4.6,12.8l-3.1,4.6c-2.4,2.6-3.2,5-2.5,7
		c0.2,0.6,0.5,1.1,1,1.6c1,1.1,2.7,1.8,5,2.3l16.9,44c0.5,2.2,1.3,5,2.3,8.4c-1.6,1.7-2.2,3.2-1.8,4.5c0,0.1,0.1,0.2,0.1,0.4
		l2.3,6.4c-1.7,1.4-2.4,2.6-2.3,3.6c0,0,0,0.1,0.1,0.2l5.2,20.3c-1.7,1.3-2.5,2.3-2.3,3l0.6,2.2c-1.8,1.2-2.6,2.1-2.6,2.8l0.1,0.2
		c-0.7,6.5,0.9,12.5,4.9,17.9v0.2c0.2,0.4,0.7,0.7,1.5,0.8l0.5,9.3l0,0.3l2.4,5.9c0.8,1.6,4.5,1.8,11.1,0.6c2.2-0.4,4.4-0.9,6.8-1.5
		l3.9,10.9l0.6,0.2c0.2,0,0.4,0,0.8-0.1c0.7-0.2,1.4-0.4,2.2-0.6c4.4-1.1,9.1-2.6,14.3-4.4c6.4-2.3,11.9-4.6,16.5-7.1l0.2-0.4
		l-3.9-10.9c2.2-1,4.2-2.1,6.1-3.1c5.8-3.2,8.6-5.6,8.5-7.2l-2.4-6.6l-0.1-0.1l0,0v0l0,0l-0.1-0.1l-0.4-0.4l-5.5-6.3
		c0.8-0.7,1.1-1.3,1-1.8l-0.1-0.3c-0.3-6.5-2.9-12.1-7.7-17c-0.2-0.6-1.4-0.8-3.6-0.6l-1.5-2.4c-0.4-0.4-1.3-0.6-2.6-0.6l-4.7-9.3
		c1.9-12.3,5.6-22,11.2-29.1L234.1,165.1z M208,163c-4-5.5-6.3-10.6-7.1-15.5c-0.2-0.9-0.3-1.8-0.3-2.7c4.1-4.7,9.5-6.6,16.1-5.6
		c0.8,0.1,1.7,0.3,2.5,0.5c7.9,2,11.5,6.5,10.9,13.3c-2.6,3.6-5.7,7.1-9.3,10.4C216.3,166.8,212,166.6,208,163z"/>
</g>
<g id="Layer_1">
	<g>
		<g>
			<g>
				<g>
					<linearGradient id="SVGID_1_" gradientUnits="userSpaceOnUse" x1="190.2744" y1="130.1587" x2="243.6455" y2="144.4983">
						<stop  offset="0" style="stop-color:#666666"/>
						<stop  offset="0.5176" style="stop-color:#000000"/>
						<stop  offset="1" style="stop-color:#626262"/>
					</linearGradient>
					<path fill-rule="evenodd" clip-rule="evenodd" fill="url(#SVGID_1_)" d="M230.1,153.1c0.6-6.8-3-11.3-10.9-13.3
						c-0.9-0.2-1.7-0.4-2.5-0.5c-6.6-1-12,0.8-16.1,5.6c0-0.7,0-1.4,0-2.1c0.1-2.1,3.5-6,10.2-11.8c2.1-2,4.1-3.4,5.9-4.2
						c4.9-2.1,8.8,0.4,11.7,7.5C232.3,143.5,232.9,149.8,230.1,153.1z"/>
					<linearGradient id="SVGID_2_" gradientUnits="userSpaceOnUse" x1="208.2593" y1="71.7617" x2="191.4346" y2="230.2618">
						<stop  offset="0" style="stop-color:#262626"/>
						<stop  offset="0.5725" style="stop-color:#111111"/>
					</linearGradient>
					<path fill-rule="evenodd" clip-rule="evenodd" fill="url(#SVGID_2_)" d="M239.1,138.4c0,0.1,0.1,0.2,0.1,0.3
						c4,9.4,2.3,18.3-5.1,26.5l-18,22.4c-6.5,8.2-10.5,20-12,35.3l-37.3,13.6c-10.3-27.8-14.5-42.1-12.5-42.8l27.4-12.2
						c1.4-0.7,2.5-0.5,3.5,0.4c5.1,2.9,9.5,2,13.1-2.8c1.3-1.6,1.3-3.9,0-6.8l-8.7-21.9c-0.3-0.9-0.6-1.9-0.8-2.8
						c-0.8-4.3,0.2-8.4,3-12.2l16.4-15c1.1-0.9,2.4-1.5,3.9-1.9c3.6-0.9,8.5-0.3,14.5,1.9c3.4,1.2,7.5,7.2,12.3,17.9L239.1,138.4z
						 M200.6,144.9c0,0.9,0.1,1.8,0.3,2.7c0.8,4.9,3.2,10,7.1,15.5c4,3.6,8.2,3.7,12.8,0.5c3.6-3.4,6.7-6.8,9.3-10.4
						c2.8-3.3,2.2-9.6-1.8-18.8c-2.9-7.1-6.8-9.6-11.7-7.5c-1.8,0.8-3.8,2.2-5.9,4.2c-6.7,5.8-10.1,9.7-10.2,11.8
						C200.6,143.5,200.6,144.2,200.6,144.9z"/>
				</g>
			</g>
			<g>
				<g>
					<linearGradient id="SVGID_3_" gradientUnits="userSpaceOnUse" x1="145.7534" y1="164.9111" x2="180.71" y2="155.5361">
						<stop  offset="0" style="stop-color:#424147"/>
						<stop  offset="0.4784" style="stop-color:#505251"/>
						<stop  offset="1" style="stop-color:#484D51"/>
					</linearGradient>
					<path fill-rule="evenodd" clip-rule="evenodd" fill="url(#SVGID_3_)" d="M161.7,157c-3.5,1-6.5,2.1-9,3.4
						c-1.8,0.9-2.9,1.7-3.4,2.4c-0.2,0.2-0.2,0.4-0.1,0.7c0.2,0.8,1.7,1.1,4.6,1c2.7-0.1,5.8-0.7,9.4-1.6c0.2-0.1,0.4-0.1,0.6-0.1
						c3.8-1,7-2.2,9.6-3.5c2.6-1.3,3.7-2.3,3.5-3.1c0-0.3-0.2-0.5-0.6-0.6c-0.7-0.4-2-0.5-4-0.4c-2.9,0.1-6.2,0.7-10,1.8
						C162.1,156.9,161.9,157,161.7,157z M180.7,155.6c0,0.4,0,0.7-0.2,0.9c-0.5,0.9-1.9,1.9-4.1,3.1c-3.2,1.7-7.2,3.2-12.1,4.5
						l0,0.1c-0.2,0-0.4,0.1-0.6,0.1c-4.5,1.2-8.5,1.8-12,1.9c-2.6,0.1-4.3-0.1-5.2-0.6c-0.4-0.2-0.6-0.5-0.7-0.8c0,0,0-0.1,0-0.1
						c-0.2-1.1,1.3-2.4,4.4-4.1c3.1-1.6,6.9-3,11.4-4.2c0.2-0.1,0.5-0.1,0.7-0.2c4.8-1.3,9-2,12.6-2.2c3.2-0.1,5.1,0.3,5.8,1.2
						c0,0.1,0.1,0.1,0.1,0.3V155.6z"/>
					<linearGradient id="SVGID_4_" gradientUnits="userSpaceOnUse" x1="163.8364" y1="158.2178" x2="178.8392" y2="160.4238">
						<stop  offset="0" style="stop-color:#000000"/>
						<stop  offset="0.3608" style="stop-color:#576264"/>
						<stop  offset="0.8706" style="stop-color:#181E23"/>
					</linearGradient>
					<path fill-rule="evenodd" clip-rule="evenodd" fill="url(#SVGID_4_)" d="M163.3,162.9l-1.5-5.8c0.2-0.1,0.4-0.1,0.6-0.1
						c3.8-1,7.1-1.6,10-1.8c2-0.1,3.4,0,4,0.4c0.3,0.1,0.5,0.3,0.6,0.6c0.2,0.8-0.9,1.8-3.5,3.1c-2.6,1.3-5.8,2.5-9.6,3.5
						C163.7,162.7,163.5,162.8,163.3,162.9z"/>
					<linearGradient id="SVGID_5_" gradientUnits="userSpaceOnUse" x1="146.4229" y1="167.8169" x2="181.6956" y2="158.3586">
						<stop  offset="0" style="stop-color:#121212"/>
						<stop  offset="0.149" style="stop-color:#7B7B7B"/>
						<stop  offset="0.7137" style="stop-color:#000000"/>
						<stop  offset="1" style="stop-color:#000000"/>
					</linearGradient>
					<path fill-rule="evenodd" clip-rule="evenodd" fill="url(#SVGID_5_)" d="M164.8,166c-4.8,1.3-9,2-12.6,2.1
						c-3,0.1-4.8-0.2-5.5-0.9l-0.1,0l0,0c-0.5-0.9-0.8-1.7-0.8-2.4c0.1,0.3,0.3,0.6,0.7,0.8c0.9,0.5,2.6,0.7,5.2,0.6
						c3.5-0.1,7.5-0.8,12-1.9c0.2-0.1,0.4-0.1,0.6-0.1l0-0.1c4.8-1.3,8.9-2.8,12.1-4.5c2.3-1.2,3.7-2.2,4.1-3.1
						c0.2-0.2,0.2-0.5,0.2-0.9l0.5,1.4c0,0.3,0,0.4,0,0.5c0,0.3-0.1,0.6-0.3,1c-0.6,0.9-1.9,1.9-4.1,3
						C173.6,163.2,169.6,164.7,164.8,166L164.8,166z"/>
					<linearGradient id="SVGID_6_" gradientUnits="userSpaceOnUse" x1="161.3979" y1="176.2837" x2="180.1241" y2="171.2631">
						<stop  offset="0" style="stop-color:#000000"/>
						<stop  offset="0.7137" style="stop-color:#000000"/>
						<stop  offset="1" style="stop-color:#000000"/>
					</linearGradient>
					<path fill-rule="evenodd" clip-rule="evenodd" fill="url(#SVGID_6_)" d="M170.3,186.5l-5.5-20.5l0,0c4.8-1.3,8.9-2.8,12.1-4.5
						c2.2-1.1,3.5-2.1,4.1-3l1.1,20.4l0.1,1.2l-0.1,0.3c0.1,0.7-0.8,1.6-2.6,2.6c-0.2,0.1-0.3,0.2-0.5,0.3
						C176.6,184.5,173.7,185.5,170.3,186.5z"/>
					<linearGradient id="SVGID_7_" gradientUnits="userSpaceOnUse" x1="154.5898" y1="192.6924" x2="186.7999" y2="184.0584">
						<stop  offset="0" style="stop-color:#000000"/>
						<stop  offset="0.2235" style="stop-color:#3C3C3C"/>
						<stop  offset="0.7137" style="stop-color:#000000"/>
						<stop  offset="1" style="stop-color:#000000"/>
					</linearGradient>
					<path fill-rule="evenodd" clip-rule="evenodd" fill="url(#SVGID_7_)" d="M153.6,189c0.2,0.7,1.2,1,3,1.1c0.7,0.1,1.4,0.1,2.3,0
						c3.4-0.2,7.3-0.9,11.8-2c4.4-1.2,8.1-2.6,11.1-4.1c0.8-0.4,1.5-0.8,2.1-1.2c1.3-0.8,1.9-1.6,2-2.1l1.1,3.9
						c-0.2,0.9-1.6,2-4.1,3.4c-3,1.5-6.7,2.9-11.1,4c-4.5,1.2-8.4,1.9-11.7,2.1c-3.3,0.1-5.1-0.3-5.4-1.3L153.6,189z"/>
					<linearGradient id="SVGID_8_" gradientUnits="userSpaceOnUse" x1="154.0308" y1="190.4063" x2="185.4529" y2="179.2532">
						<stop  offset="0" style="stop-color:#000000"/>
						<stop  offset="0.6824" style="stop-color:#3C3C3C"/>
					</linearGradient>
					<path fill-rule="evenodd" clip-rule="evenodd" fill="url(#SVGID_8_)" d="M156.4,185.7l1,1.9c0.4,0.3,1.5,0.4,3.3,0.4
						c0.2,0,0.4,0,0.6,0c2.6-0.1,5.6-0.6,9-1.5c3.5-0.9,6.4-2,8.6-3.2c0.2-0.1,0.3-0.1,0.5-0.3c1.9-1,2.8-1.9,2.6-2.6l0.1-0.3
						l-0.1-1.2c1.5,0.1,2.6,0.3,3.2,0.6c0.2,0.1,0.4,0.2,0.5,0.4l0,0.1l0.1,0.7c-0.1,0.6-0.8,1.3-2,2.1c-0.6,0.4-1.3,0.8-2.1,1.2
						c-3,1.5-6.7,2.9-11.1,4.1c-4.5,1.2-8.4,1.9-11.8,2c-0.9,0-1.6,0-2.3,0c-1.8-0.1-2.9-0.4-3-1.1l-0.1-0.1c-0.1-0.3,0-0.6,0.2-0.9
						C154.1,187.3,155,186.5,156.4,185.7z"/>
					<linearGradient id="SVGID_9_" gradientUnits="userSpaceOnUse" x1="152.3291" y1="179.876" x2="164.156" y2="174.0047">
						<stop  offset="0" style="stop-color:#000000"/>
						<stop  offset="0.2235" style="stop-color:#7F7F7F"/>
						<stop  offset="0.7137" style="stop-color:#000000"/>
						<stop  offset="1" style="stop-color:#000000"/>
					</linearGradient>
					<path fill-rule="evenodd" clip-rule="evenodd" fill="url(#SVGID_9_)" d="M170.3,186.5c-3.4,0.9-6.5,1.4-9,1.5
						c-0.2,0-0.4,0-0.6,0c-1.8,0-2.9-0.1-3.3-0.4l-1-1.9l0.1-0.1l-9.9-18.4c0.7,0.7,2.5,1,5.5,0.9c3.7-0.2,7.9-0.9,12.6-2.1
						L170.3,186.5z"/>
					<linearGradient id="SVGID_10_" gradientUnits="userSpaceOnUse" x1="150.4253" y1="166.0815" x2="162.1789" y2="159.1126">
						<stop  offset="0" style="stop-color:#7F7F7F"/>
						<stop  offset="0.7137" style="stop-color:#000000"/>
						<stop  offset="1" style="stop-color:#000000"/>
					</linearGradient>
					<path fill-rule="evenodd" clip-rule="evenodd" fill="url(#SVGID_10_)" d="M161.7,157l1.5,5.8c-3.6,0.9-6.7,1.5-9.4,1.6
						c-2.9,0.1-4.4-0.2-4.6-1c-0.1-0.3,0-0.5,0.1-0.7c0.4-0.7,1.6-1.5,3.4-2.4C155.2,159.2,158.2,158,161.7,157z"/>
				</g>
			</g>
		</g>
	</g>
	<g>
		<g>
			<linearGradient id="SVGID_11_" gradientUnits="userSpaceOnUse" x1="134.1006" y1="131.1255" x2="158.0179" y2="122.5299">
				<stop  offset="0" style="stop-color:#202124"/>
				<stop  offset="7.058824e-002" style="stop-color:#4F5056"/>
				<stop  offset="0.1176" style="stop-color:#5C5E61"/>
				<stop  offset="0.2353" style="stop-color:#A3A299"/>
				<stop  offset="0.3647" style="stop-color:#1E1C18"/>
				<stop  offset="0.5176" style="stop-color:#AF937C"/>
				<stop  offset="0.6471" style="stop-color:#A1949B"/>
				<stop  offset="0.7451" style="stop-color:#EBE9EB"/>
				<stop  offset="0.8157" style="stop-color:#CBCBC9"/>
				<stop  offset="0.8706" style="stop-color:#757574"/>
				<stop  offset="0.9412" style="stop-color:#FFFFFF"/>
				<stop  offset="1" style="stop-color:#000000"/>
			</linearGradient>
			<path fill-rule="evenodd" clip-rule="evenodd" fill="url(#SVGID_11_)" d="M156.5,118.4c0.1,0.1,0.1,0.3,0.1,0.4l5.1,14
				c-3.9,0.2-8.1,1.1-12.6,2.7c-4.5,1.6-8.3,3.6-11.4,5.9l-5-14.1c0-0.1-0.1-0.2-0.1-0.3c-0.6-1.7,0.1-3.6,2-5.6
				c1.9-2,4.5-3.6,7.8-4.9c3.3-1.2,6.3-1.6,9.1-1.2C154.2,115.6,155.9,116.6,156.5,118.4z"/>
		</g>
		<g>
			<linearGradient id="SVGID_12_" gradientUnits="userSpaceOnUse" x1="145.4653" y1="177.9351" x2="178.9249" y2="165.9045">
				<stop  offset="0" style="stop-color:#202124"/>
				<stop  offset="7.058824e-002" style="stop-color:#4F5056"/>
				<stop  offset="0.1176" style="stop-color:#5C5E61"/>
				<stop  offset="0.2353" style="stop-color:#A3A299"/>
				<stop  offset="0.3647" style="stop-color:#1E1C18"/>
				<stop  offset="0.5176" style="stop-color:#AF937C"/>
				<stop  offset="0.6471" style="stop-color:#A1949B"/>
				<stop  offset="0.7451" style="stop-color:#EBE9EB"/>
				<stop  offset="0.8157" style="stop-color:#CBCBC9"/>
				<stop  offset="0.8706" style="stop-color:#757574"/>
				<stop  offset="0.9412" style="stop-color:#FFFFFF"/>
				<stop  offset="1" style="stop-color:#000000"/>
			</linearGradient>
			<path fill-rule="evenodd" clip-rule="evenodd" fill="url(#SVGID_12_)" d="M170.5,142.3c0.2,0.4,0.3,0.9,0.3,1.3l18.9,52.6
				c-1-0.1-2.1-0.1-3.4-0.1c-4.2,0.1-8.9,1.1-14.2,3c-5.3,1.9-9.6,4.2-12.9,6.8c-0.6,0.5-1.1,0.9-1.6,1.4l-19.8-51.8
				c-0.3-0.3-0.5-0.7-0.7-1.1c-0.7-1.8,0.4-4,3.2-6.6c2.8-2.5,6.5-4.5,11.1-6.2c4.6-1.6,8.8-2.4,12.5-2.3S169.8,140.5,170.5,142.3z"
				/>
		</g>
		<g>
			<g>
				
					<linearGradient id="SVGID_13_" gradientUnits="userSpaceOnUse" x1="176.3442" y1="118.2446" x2="184.3843" y2="118.2446" gradientTransform="matrix(0.9888 0.1493 -0.3317 0.9613 1.150370e-004 -1.447201e-004)">
					<stop  offset="0" style="stop-color:#D3D5D6"/>
					<stop  offset="0.1725" style="stop-color:#A0A4AF"/>
					<stop  offset="0.3176" style="stop-color:#BBBEC4"/>
					<stop  offset="0.9569" style="stop-color:#646D86"/>
				</linearGradient>
				<path fill-rule="evenodd" clip-rule="evenodd" fill="url(#SVGID_13_)" d="M145.6,133.4l1.8,9l-15.3,5.4l5.3-7.8
					c0.3-0.9,1.1-2,2.5-3.2c1-0.8,2.1-1.5,3.3-2.2C144,134.1,144.8,133.8,145.6,133.4z"/>
				
					<linearGradient id="SVGID_14_" gradientUnits="userSpaceOnUse" x1="3.5444" y1="205.582" x2="11.1755" y2="205.582" gradientTransform="matrix(0.7666 -0.6421 0.7577 0.6698 -1.099110e-004 0)">
					<stop  offset="0" style="stop-color:#B3BED0"/>
					<stop  offset="0.2196" style="stop-color:#A2AABF"/>
					<stop  offset="0.5255" style="stop-color:#7E8298"/>
					<stop  offset="1" style="stop-color:#D9DBDC"/>
				</linearGradient>
				<path fill-rule="evenodd" clip-rule="evenodd" fill="url(#SVGID_14_)" d="M161.4,137.4l-7.7-6.5c1.2-0.2,2.4-0.4,3.5-0.4
					c1.6,0,2.8,0.3,3.7,0.8l9.1,3.1L161.4,137.4z"/>
				
					<linearGradient id="SVGID_15_" gradientUnits="userSpaceOnUse" x1="94.9717" y1="177.5703" x2="110.9177" y2="177.5703" gradientTransform="matrix(0.9469 -0.3214 0.3105 0.9506 -2.632141e-004 1.619458e-004)">
					<stop  offset="0" style="stop-color:#646D86"/>
					<stop  offset="0.1725" style="stop-color:#646986"/>
					<stop  offset="0.3804" style="stop-color:#F9FBFE"/>
					<stop  offset="0.5255" style="stop-color:#AAB5C8"/>
					<stop  offset="1" style="stop-color:#B8C1CF"/>
				</linearGradient>
				<path fill-rule="evenodd" clip-rule="evenodd" fill="url(#SVGID_15_)" d="M145.6,133.4c0.8-0.3,1.6-0.6,2.5-1
					c1.1-0.4,2.2-0.8,3.2-1c0.8-0.2,1.6-0.3,2.4-0.5l7.7,6.5l-14,5L145.6,133.4z"/>
			</g>
		</g>
		<g>
			<g>
				<linearGradient id="SVGID_16_" gradientUnits="userSpaceOnUse" x1="130.519" y1="148.0874" x2="171.6112" y2="133.3145">
					<stop  offset="0" style="stop-color:#848484"/>
					<stop  offset="1" style="stop-color:#373737"/>
				</linearGradient>
				<path fill-rule="evenodd" clip-rule="evenodd" fill="url(#SVGID_16_)" d="M132.8,153.2c-0.4-0.5-0.8-1-1-1.6
					c-0.9-2.4,0.4-5.2,3.8-8.4c0.7-0.6,1.4-1.3,2.2-1.9c3.1-2.3,6.9-4.3,11.4-5.9c4.5-1.6,8.7-2.5,12.6-2.7c1,0,1.9,0,2.9,0
					c4.7,0.3,7.4,1.7,8.3,4.1c0.2,0.6,0.3,1.2,0.3,1.8c-1.3-1.4-3.8-2.3-7.3-2.5c-4.6-0.3-9.8,0.6-15.5,2.6
					c-5.7,2-10.2,4.6-13.5,7.9C134.3,149.1,132.9,151.2,132.8,153.2z"/>
				<linearGradient id="SVGID_17_" gradientUnits="userSpaceOnUse" x1="147.2495" y1="130.0576" x2="154.218" y2="149.485">
					<stop  offset="0" style="stop-color:#555555"/>
					<stop  offset="1" style="stop-color:#1A1A1A"/>
				</linearGradient>
				<path fill-rule="evenodd" clip-rule="evenodd" fill="url(#SVGID_17_)" d="M132.8,153.2c0.1-2,1.5-4.1,4.1-6.5
					c3.4-3.2,7.9-5.8,13.5-7.9c5.7-2,10.8-2.9,15.5-2.6c3.5,0.2,6,1,7.3,2.5c-0.1,1.5-0.9,3.1-2.4,4.9c0-0.4-0.1-0.9-0.3-1.3
					c-0.7-1.8-2.9-2.8-6.6-2.9s-7.9,0.6-12.5,2.3c-4.6,1.7-8.4,3.7-11.1,6.2c-2.8,2.5-3.9,4.7-3.2,6.6c0.1,0.4,0.4,0.8,0.7,1.1
					C135.4,155,133.8,154.3,132.8,153.2z"/>
			</g>
		</g>
		<g>
			
				<radialGradient id="SVGID_18_" cx="142.3999" cy="117.6499" r="23.4309" gradientTransform="matrix(0.9411 -0.3382 0.1718 0.478 -11.8193 109.575)" gradientUnits="userSpaceOnUse">
				<stop  offset="0.6824" style="stop-color:#060606"/>
				<stop  offset="1" style="stop-color:#6A6A6A"/>
			</radialGradient>
			<path fill-rule="evenodd" clip-rule="evenodd" fill="url(#SVGID_18_)" d="M142.4,116.5c-3.3,1.2-5.9,2.8-7.8,4.9
				c-1.9,2-2.6,3.9-2,5.6c0.1,0.1,0.1,0.3,0.1,0.3c-0.5,0-0.9-0.1-1.4-0.1c-4.3-0.5-6.9-2-7.9-4.6c-0.9-2.6,0.1-5.5,3.1-8.6
				c3-3.1,7-5.6,12.1-7.5c5.1-1.8,9.8-2.5,14-1.9c4.3,0.5,6.9,2.1,7.8,4.7c0.9,2.6-0.1,5.5-3,8.6c-0.3,0.3-0.6,0.7-1,1
				c0-0.1-0.1-0.3-0.1-0.4c-0.6-1.7-2.3-2.7-5-3C148.7,115,145.7,115.4,142.4,116.5z"/>
		</g>
		<g>
			<g>
				<linearGradient id="SVGID_19_" gradientUnits="userSpaceOnUse" x1="198.4531" y1="197.5049" x2="200.5421" y2="203.3301">
					<stop  offset="0" style="stop-color:#595959"/>
					<stop  offset="0.5255" style="stop-color:#A6A6A6"/>
					<stop  offset="1" style="stop-color:#333333"/>
				</linearGradient>
				<path fill-rule="evenodd" clip-rule="evenodd" fill="url(#SVGID_19_)" d="M198.4,197.5l0.2,0c0,0,0,0,0,0
					C198.4,197.5,198.4,197.5,198.4,197.5z M200.5,203.4C200.5,203.3,200.5,203.3,200.5,203.4c0.1-0.1,0.1-0.1,0.1-0.1L200.5,203.4z
					"/>
				<linearGradient id="SVGID_20_" gradientUnits="userSpaceOnUse" x1="192.4824" y1="201.6138" x2="193.4097" y2="204.1879">
					<stop  offset="0" style="stop-color:#595959"/>
					<stop  offset="0.5255" style="stop-color:#A6A6A6"/>
					<stop  offset="1" style="stop-color:#333333"/>
				</linearGradient>
				<path fill-rule="evenodd" clip-rule="evenodd" fill="url(#SVGID_20_)" d="M195.4,201c0.1,0.3,0.2,0.6,0.3,0.8
					c0.2,0.4,0.3,0.8,0.5,1.1c0,0.1,0.1,0.2,0.1,0.3l-0.1,0.1l-0.6,0.2l-0.5,0.2l-0.5,0.2L194,204l-0.6,0.2l-0.5,0.2l-0.5,0.2
					l-0.5,0.2l-0.6,0.2l-0.4,0.1c-0.5-0.5-0.8-1.1-0.9-1.8c0-0.3,0-0.6,0-0.8l0.2-0.1l0.6-0.2l0.5-0.2l0.5-0.2l0.5-0.2l0.5-0.2
					l0.6-0.2l0.5-0.2l0.5-0.2l1-0.3C195.4,200.8,195.4,200.9,195.4,201z M192.8,201.5l1.7,2.2L192.8,201.5z M193.4,201.4l1.6,2.3
					L193.4,201.4z M194.4,201l1.7,2.2L194.4,201z M193.9,201.2l1.7,2.2L193.9,201.2z M190.1,202.5l1.7,2.3L190.1,202.5z
					 M190.7,202.3l1.6,2.3L190.7,202.3z M190,203.4l1.3,1.6L190,203.4z M191.2,202.1l1.7,2.3L191.2,202.1z M191.8,201.9l1.6,2.3
					L191.8,201.9z M192.3,201.8l1.7,2.2L192.3,201.8z"/>
				
					<path fill-rule="evenodd" clip-rule="evenodd" fill="none" stroke="#808080" stroke-width="0.5" stroke-linecap="round" stroke-linejoin="round" stroke-miterlimit="3" d="
					M195.4,201l3-1.1 M192.8,201.5l1.7,2.2 M193.4,201.4l1.6,2.3 M194.4,201l1.7,2.2 M193.9,201.2l1.7,2.2 M198.7,200.9l-2.8,1
					 M198.6,200.4l-2.8,1 M198.2,198.9l-2.8,1 M190.1,202.5l1.7,2.3 M190.7,202.3l1.6,2.3 M190,203.4l1.3,1.6 M191.2,202.1l1.7,2.3
					 M191.8,201.9l1.6,2.3 M192.3,201.8l1.7,2.2"/>
				
					<line fill-rule="evenodd" clip-rule="evenodd" fill="none" stroke="#919191" stroke-width="0.5" stroke-linecap="round" stroke-linejoin="round" stroke-miterlimit="3" x1="198.4" y1="199.4" x2="195.5" y2="200.4"/>
				
					<line fill-rule="evenodd" clip-rule="evenodd" fill="none" stroke="#666666" stroke-width="0.5" stroke-linecap="round" stroke-linejoin="round" stroke-miterlimit="3" x1="198.9" y1="201.3" x2="196.1" y2="202.3"/>
				
					<line fill-rule="evenodd" clip-rule="evenodd" fill="none" stroke="#404040" stroke-width="0.5" stroke-linecap="round" stroke-linejoin="round" stroke-miterlimit="3" x1="199.3" y1="202.3" x2="196.5" y2="203.3"/>
				
					<line fill-rule="evenodd" clip-rule="evenodd" fill="none" stroke="#5E5E5E" stroke-width="0.5" stroke-linecap="round" stroke-linejoin="round" stroke-miterlimit="3" x1="198.1" y1="198.5" x2="195.3" y2="199.5"/>
				
					<path fill-rule="evenodd" clip-rule="evenodd" fill="none" stroke="#333333" stroke-width="0.5" stroke-linecap="round" stroke-linejoin="round" stroke-miterlimit="3" d="
					M199.6,202.6l-2.8,1 M199.9,203.1l-2.8,1"/>
				
					<path fill-rule="evenodd" clip-rule="evenodd" fill="none" stroke="#515151" stroke-width="0.5" stroke-linecap="round" stroke-linejoin="round" stroke-miterlimit="3" d="
					M196.1,202.9l3-1.1 M198.3,197.9l-2.9,1"/>
			</g>
		</g>
		<g>
			<linearGradient id="SVGID_21_" gradientUnits="userSpaceOnUse" x1="155.2031" y1="212.5776" x2="193.611" y2="198.7583">
				<stop  offset="0" style="stop-color:#090909"/>
				<stop  offset="0.7922" style="stop-color:#0F0F0F"/>
				<stop  offset="0.8353" style="stop-color:#67362D"/>
				<stop  offset="0.8824" style="stop-color:#221616"/>
				<stop  offset="0.9333" style="stop-color:#4B4D54"/>
				<stop  offset="1" style="stop-color:#090909"/>
			</linearGradient>
			<path fill-rule="evenodd" clip-rule="evenodd" fill="url(#SVGID_21_)" d="M189.6,196.3c2.1,0.3,3.4,1.1,3.9,2.2l2.4,6.9
				c-0.1,0-0.1-0.1-0.3-0.1c-1,0-2.2,0.1-3.5,0.3c-1.3,0.2-2.6,0.4-3.9,0.7c-0.1,0-0.1,0-0.2,0c-0.4,0.1-0.7,0.1-1,0.2
				c-3.4,0.7-7.2,1.8-11.2,3.3c-0.4,0.1-0.7,0.3-1.1,0.5c-3.5,1.3-6.7,2.6-9.5,4c-0.3,0.2-0.6,0.4-0.9,0.5c-0.1,0-0.1,0-0.3,0.1
				c-1.2,0.7-2.4,1.4-3.5,2c-1.1,0.7-2,1.4-2.8,2c-0.1,0.1-0.1,0.1-0.3,0.2l-2.3-6.4c0-0.1-0.1-0.3-0.1-0.4
				c-0.5-1.4,0.3-3.1,2.4-5.1c0.5-0.4,1-0.9,1.6-1.4c3.3-2.6,7.6-4.8,12.9-6.8c5.3-1.9,10-2.9,14.2-3
				C187.5,196.1,188.7,196.1,189.6,196.3z"/>
		</g>
		<g>
			<g>
				<linearGradient id="SVGID_22_" gradientUnits="userSpaceOnUse" x1="155.5747" y1="229.3164" x2="179.1459" y2="224.1987">
					<stop  offset="0" style="stop-color:#080808"/>
					<stop  offset="0.4157" style="stop-color:#2F2F2F"/>
					<stop  offset="0.9137" style="stop-color:#080808"/>
				</linearGradient>
				<path fill-rule="evenodd" clip-rule="evenodd" fill="url(#SVGID_22_)" d="M174.7,210.2l8,22.4c-7,2.5-12.9,5.1-17.5,7.7
					c-2,1.1-3.5,2-4.7,2.9l-5.2-20.3c0-0.1-0.1-0.2-0.1-0.2c-0.2-1,0.6-2.2,2.3-3.6c0.1-0.1,0.2-0.1,0.3-0.2c0.8-0.6,1.7-1.3,2.8-2
					c1.1-0.7,2.3-1.4,3.5-2c0.1,0,0.2-0.1,0.3-0.1c0.3-0.2,0.6-0.4,0.9-0.5C168,212.9,171.2,211.5,174.7,210.2z"/>
				<linearGradient id="SVGID_23_" gradientUnits="userSpaceOnUse" x1="175.835" y1="226.1577" x2="202.785" y2="212.6827">
					<stop  offset="0" style="stop-color:#090909"/>
					<stop  offset="0.6039" style="stop-color:#0F0F0F"/>
					<stop  offset="0.7216" style="stop-color:#37322F"/>
					<stop  offset="0.8" style="stop-color:#543D34"/>
					<stop  offset="0.8667" style="stop-color:#221616"/>
					<stop  offset="0.9333" style="stop-color:#4B4D54"/>
					<stop  offset="1" style="stop-color:#090909"/>
				</linearGradient>
				<path fill-rule="evenodd" clip-rule="evenodd" fill="url(#SVGID_23_)" d="M182.8,232.6l-8-22.4c0.4-0.2,0.7-0.3,1.1-0.5
					c4-1.5,7.7-2.6,11.2-3.3c0.3-0.1,0.7-0.1,1-0.2c0.1,0,0.1,0,0.2,0c1.4-0.3,2.7-0.5,3.9-0.7c1.3-0.1,2.5-0.2,3.5-0.3
					c0.1,0,0.2,0,0.3,0.1c2.4,0,3.8,0.5,4.1,1.5l9.6,18.9c-1.5,0-3.5,0.3-6.1,0.8c-5.6,1.1-12.1,2.9-19.6,5.6
					C183.5,232.4,183.1,232.5,182.8,232.6z"/>
			</g>
		</g>
		<g>
			<linearGradient id="SVGID_24_" gradientUnits="userSpaceOnUse" x1="157.7197" y1="245.2529" x2="212.5516" y2="225.5536">
				<stop  offset="0" style="stop-color:#191616"/>
				<stop  offset="0.3608" style="stop-color:#0F0F0F"/>
				<stop  offset="0.7843" style="stop-color:#462320"/>
				<stop  offset="0.8824" style="stop-color:#221616"/>
				<stop  offset="0.9333" style="stop-color:#4B4D54"/>
				<stop  offset="1" style="stop-color:#090909"/>
			</linearGradient>
			<path fill-rule="evenodd" clip-rule="evenodd" fill="url(#SVGID_24_)" d="M160.9,247.1l-0.1,0.1c-0.8,0.4-1.4,0.8-1.9,1.2
				l-0.6-2.2c-0.2-0.7,0.5-1.7,2.3-3c1.1-0.8,2.7-1.8,4.7-2.9c4.7-2.6,10.5-5.2,17.5-7.7c0.4-0.1,0.8-0.3,1.1-0.4
				c7.5-2.7,14-4.6,19.6-5.6c2.6-0.5,4.6-0.8,6.1-0.8c1.3,0,2.2,0.2,2.6,0.6l1.5,2.4c-0.7,0.1-1.5,0.2-2.4,0.3c-0.1,0-0.2,0-0.3,0
				c-0.1,0.1-0.3,0.1-0.4,0.1c-1,0.2-2.2,0.4-3.4,0.6c-6.2,1.4-13.5,3.6-22,6.6c-8.4,3-15.4,6-21.1,8.9c-1.1,0.6-2.1,1.1-3,1.6
				C161.2,247,161,247.1,160.9,247.1z"/>
		</g>
		<g>
			<g>
				<g>
					<linearGradient id="SVGID_25_" gradientUnits="userSpaceOnUse" x1="184.4292" y1="287.4854" x2="218.9425" y2="275.0793">
						<stop  offset="0" style="stop-color:#202124"/>
						<stop  offset="7.058824e-002" style="stop-color:#4F5056"/>
						<stop  offset="0.1176" style="stop-color:#5C5E61"/>
						<stop  offset="0.2353" style="stop-color:#A3A299"/>
						<stop  offset="0.3647" style="stop-color:#1E1C18"/>
						<stop  offset="0.5176" style="stop-color:#AF937C"/>
						<stop  offset="0.6471" style="stop-color:#A1949B"/>
						<stop  offset="0.7451" style="stop-color:#EBE9EB"/>
						<stop  offset="0.8157" style="stop-color:#CBCBC9"/>
						<stop  offset="0.8706" style="stop-color:#757574"/>
						<stop  offset="0.9412" style="stop-color:#FFFFFF"/>
						<stop  offset="1" style="stop-color:#000000"/>
					</linearGradient>
					<path fill-rule="evenodd" clip-rule="evenodd" fill="url(#SVGID_25_)" d="M221.9,283.4c-4.8,2.4-10.4,4.8-16.8,7.1
						c-5.1,1.9-9.9,3.3-14.3,4.4c-0.7,0.2-1.4,0.4-2.1,0.5c-0.4,0.1-0.9,0.3-1.4,0.4l-5.9-16.5c-0.1-0.2-0.1-0.3-0.2-0.5v0
						c-0.1-0.2-0.1-0.3-0.1-0.5c0.4-0.1,0.8-0.1,1.3-0.3c0.7-0.2,1.4-0.3,2.1-0.5c4.4-1.1,9.1-2.6,14.3-4.5c6.4-2.3,12-4.7,16.8-7.1
						c0.1,0.1,0.2,0.3,0.2,0.4c0.1,0.2,0.1,0.4,0.2,0.6L221.9,283.4z"/>
					<path fill-rule="evenodd" clip-rule="evenodd" fill="#5E5E5E" d="M221.9,283.4l-0.2,0.4c-4.6,2.4-10.1,4.8-16.5,7.1
						c-5.1,1.8-9.9,3.3-14.3,4.4c-0.7,0.2-1.5,0.4-2.2,0.6c-0.4,0.1-0.7,0.1-0.8,0.1l-0.6-0.2c0.5-0.1,1-0.2,1.4-0.4
						c0.7-0.1,1.4-0.3,2.1-0.5c4.4-1.1,9.1-2.6,14.3-4.4C211.5,288.2,217.1,285.8,221.9,283.4z"/>
				</g>
				<g>
					<path fill-rule="evenodd" clip-rule="evenodd" fill="none" d="M187.6,295.7c9.7-2.5,19.6-5.9,29.8-10.3
						c1.3-0.6,2.7-1.3,4.3-2.1"/>
				</g>
			</g>
		</g>
		<g>
			<g>
				<g>
					<linearGradient id="SVGID_26_" gradientUnits="userSpaceOnUse" x1="162.7266" y1="268.623" x2="223.1613" y2="246.8816">
						<stop  offset="6.666666e-002" style="stop-color:#111111"/>
						<stop  offset="0.7765" style="stop-color:#646464"/>
						<stop  offset="1" style="stop-color:#393939"/>
					</linearGradient>
					<path fill-rule="evenodd" clip-rule="evenodd" fill="url(#SVGID_26_)" d="M223.1,246.9c0.1,0.4,0,0.9-0.5,1.5
						c-0.3,0.4-0.8,0.8-1.4,1.3c-1.3,1-3.3,2.1-5.8,3.5c-0.3,0.2-0.6,0.4-0.9,0.5c-5.5,2.8-12.1,5.6-20,8.5l-2.1,0.8
						c-2.1,0.7-4.2,1.4-6.2,2c-4.6,1.4-8.7,2.6-12.5,3.4c-0.4,0.1-0.8,0.2-1.2,0.3c-2.8,0.5-4.9,0.8-6.5,0.9c-1,0-1.8,0-2.3-0.2
						c-0.5-0.2-0.8-0.4-1-0.7v0c0-1,1.1-2.2,3.3-3.6c1.2-0.8,2.6-1.6,4.4-2.4c5.6-3,12.4-5.9,20.6-8.9c0.1,0,0.2-0.1,0.4-0.1
						c8.4-3,15.6-5.1,21.9-6.4c2.7-0.6,4.8-1,6.4-1c1.5-0.1,2.5,0,3.1,0.4c0.2,0.1,0.3,0.2,0.4,0.4L223.1,246.9z"/>
					<path fill-rule="evenodd" clip-rule="evenodd" d="M229.5,254.9l0.4,0.4l0.1,0.1l0.1,0.1c0,0.2,0,0.5-0.1,0.9
						c-0.5,1.2-2.2,2.7-5.2,4.5c-0.9,0.6-2,1.2-3,1.9c-6.2,3.4-13.9,6.8-23.1,10.1c-0.2,0.1-0.3,0.1-0.4,0.1
						c-0.6,0.2-1.2,0.4-1.8,0.6c-2.4,0.8-4.7,1.6-6.9,2.3c-5.6,1.7-10.7,3-15.2,3.9c-1.2,0.2-2.4,0.4-3.4,0.5
						c-3.6,0.4-6,0.3-7.4-0.3c-0.1,0-0.2-0.1-0.3-0.1l0.1-0.1l0.1-0.8c1.2,0.7,3.8,0.9,7.6,0.4c1-0.1,2.1-0.3,3.3-0.5
						c4.5-0.8,9.5-2.1,15-3.8c2.3-0.7,4.6-1.5,6.9-2.3h0c0.6-0.2,1.2-0.4,1.8-0.6c0.1,0,0.2,0,0.4-0.1c9.1-3.3,16.7-6.6,22.8-10
						c1.2-0.6,2.2-1.3,3.1-1.9C227.9,258,229.7,256.1,229.5,254.9z"/>
					
						<linearGradient id="SVGID_27_" gradientUnits="userSpaceOnUse" x1="8.9575" y1="332.2285" x2="46.5265" y2="332.2285" gradientTransform="matrix(0.8478 -0.5304 0.5648 0.8262 1.572371e-004 1.515150e-004)">
						<stop  offset="0" style="stop-color:#3C3F4D"/>
						<stop  offset="0.3529" style="stop-color:#252930"/>
						<stop  offset="0.5725" style="stop-color:#353A41"/>
						<stop  offset="0.6941" style="stop-color:#4E555C"/>
						<stop  offset="0.851" style="stop-color:#343840"/>
						<stop  offset="1" style="stop-color:#282B33"/>
					</linearGradient>
					<path fill-rule="evenodd" clip-rule="evenodd" fill="url(#SVGID_27_)" d="M229.5,254.8L229.5,254.8c0.1,1.4-1.6,3.2-5.3,5.5
						c-0.9,0.6-1.9,1.2-3.1,1.9c-6,3.4-13.6,6.7-22.8,10c-0.2,0.1-0.3,0.1-0.4,0.1c-0.6,0.2-1.1,0.4-1.8,0.6h0l-3.8-10l2.1-0.8
						c7.9-2.8,14.6-5.6,20-8.5c0.3-0.1,0.6-0.3,0.9-0.5c2.5-1.4,4.5-2.5,5.8-3.5c0.6-0.5,1.1-0.9,1.4-1.3c0.5-0.6,0.7-1.1,0.5-1.5
						l0.6,1.4L229.5,254.8z"/>
					
						<linearGradient id="SVGID_28_" gradientUnits="userSpaceOnUse" x1="115.2241" y1="301.7822" x2="143.0041" y2="301.7822" gradientTransform="matrix(0.98 -0.1989 0.1723 0.9854 4.041493e-004 -2.405643e-004)">
						<stop  offset="0" style="stop-color:#271B25"/>
						<stop  offset="0.2431" style="stop-color:#514047"/>
						<stop  offset="0.4784" style="stop-color:#565F65"/>
						<stop  offset="1" style="stop-color:#3C3F4D"/>
					</linearGradient>
					<path fill-rule="evenodd" clip-rule="evenodd" fill="url(#SVGID_28_)" d="M163.4,279.8l-0.6-11.2c0.2,0.3,0.5,0.5,1,0.7
						c0.6,0.2,1.4,0.2,2.3,0.2c1.6,0,3.7-0.3,6.5-0.9c0.4,0,0.8-0.1,1.2-0.3c3.7-0.8,7.9-2,12.5-3.4c2-0.7,4.1-1.4,6.2-2l3.8,10
						c-2.3,0.8-4.6,1.5-6.9,2.3c-5.5,1.7-10.5,3-15,3.8c-1.2,0.2-2.3,0.4-3.3,0.5c-3.8,0.4-6.4,0.3-7.6-0.4L163.4,279.8z"/>
					<linearGradient id="SVGID_29_" gradientUnits="userSpaceOnUse" x1="165.2124" y1="285.165" x2="232.1196" y2="261.0927">
						<stop  offset="0" style="stop-color:#271B25"/>
						<stop  offset="0.4784" style="stop-color:#3A4045"/>
						<stop  offset="1" style="stop-color:#000000"/>
					</linearGradient>
					<path fill-rule="evenodd" clip-rule="evenodd" fill="url(#SVGID_29_)" d="M230.1,255.5l2.4,6.6c0.2,1.6-2.6,4-8.5,7.2
						c-6.1,3.4-13.8,6.8-23,10.1c-0.2,0.1-0.3,0.1-0.4,0.1c-3,1.1-5.9,2-8.7,2.9c-5.6,1.7-10.6,3-15.2,3.9c-6.6,1.2-10.3,1-11.1-0.6
						l-2.4-5.9c0.1,0.1,0.2,0.1,0.3,0.1c1.3,0.6,3.8,0.7,7.4,0.3c1-0.2,2.2-0.4,3.4-0.5c4.5-0.9,9.6-2.1,15.2-3.9
						c2.2-0.7,4.5-1.5,6.9-2.3c0.6-0.2,1.2-0.4,1.8-0.6c0.1,0,0.2-0.1,0.4-0.1c9.2-3.3,16.9-6.7,23.1-10.1c1.1-0.7,2.1-1.3,3-1.9
						c3-1.8,4.7-3.3,5.2-4.5C230.1,256,230.1,255.7,230.1,255.5z M229.5,254.9L229.5,254.9l0.4,0.4L229.5,254.9z"/>
				</g>
			</g>
			<g>
				<path fill-rule="evenodd" clip-rule="evenodd" d="M198,272.2c0.1,0,0.2,0,0.4-0.1c9.1-3.3,16.7-6.6,22.8-10.1
					c1.2-0.6,2.2-1.2,3.1-1.8c3.7-2.3,5.4-4.1,5.3-5.5l0.5,0.5c0.1,0.3,0.1,0.7,0,1.1c-0.5,1.2-2.2,2.7-5.2,4.5
					c-0.9,0.6-2,1.2-3.1,1.9c-6.1,3.4-13.8,6.8-23,10.1c-0.2,0.1-0.3,0.1-0.4,0.2c-0.6,0.2-1.2,0.4-1.8,0.6c-2.4,0.8-4.7,1.6-7,2.3
					c-5.6,1.7-10.6,3-15.2,3.9c-1.2,0.2-2.3,0.4-3.3,0.5c-3.6,0.4-6,0.4-7.4-0.3c-0.1-0.1-0.2-0.1-0.3-0.1l0.1-0.9
					c1.3,0.8,3.8,0.9,7.6,0.4c1-0.2,2.1-0.4,3.3-0.5c4.5-0.8,9.5-2.1,15-3.8c2.2-0.7,4.5-1.5,6.9-2.3h0
					C196.9,272.6,197.4,272.4,198,272.2z"/>
			</g>
			<g>
				<g>
					
						<path fill-rule="evenodd" clip-rule="evenodd" fill="none" stroke="#FFFFFF" stroke-linecap="round" stroke-linejoin="round" stroke-miterlimit="3" stroke-opacity="0.3647" d="
						M191.3,265l0.6,1.5 M189.9,265.4l0.7,1.5 M188.5,265.9l0.6,1.5 M187,266.4l0.6,1.6 M182.7,267.9l0.5,1.5 M185.4,267l0.5,1.6
						 M184,267.4l0.5,1.6 M194.7,263.8l0.8,1.5 M197.4,262.7l0.8,1.4 M200,261.8l0.8,1.4 M198.6,262.2l0.8,1.4 M196.1,263.1l0.8,1.5
						 M201.6,261.1l0.8,1.5 M169.4,270.4l0.1,1.6 M170.9,270.1l0.1,1.7 M165.1,270.4L165,272 M166.7,270.4l-0.1,1.6 M168,270.4
						l0,1.6 M174.2,269.9l0.3,1.6 M175.7,269.6l0.3,1.7 M179.9,268.6l0.5,1.6 M181.4,268.2l0.5,1.5 M177.1,269.4l0.4,1.6 M172.6,270
						l0.3,1.7 M223.4,249l0.9,1.4 M221.3,251.2l0.9,1.4 M219,253l1,1.4 M215,255.1l0.8,1.4 M217.7,253.6l0.9,1.4 M216.4,254.4
						l0.9,1.4 M213.4,255.9l0.9,1.4 M209.8,257.8l0.8,1.4 M211,257.3l0.8,1.4 M203.1,260.5l0.8,1.5 M204.5,260l0.8,1.5 M205.9,259.5
						l0.8,1.5 M208.4,258.5l0.9,1.5 M212.1,256.5l0.9,1.4 M222.5,250.1l0.9,1.4"/>
					
						<path fill-rule="evenodd" clip-rule="evenodd" fill="none" stroke="#FFFFFF" stroke-linecap="round" stroke-linejoin="round" stroke-miterlimit="3" stroke-opacity="0.3647" d="
						M193,264.3l1.2,3 M178.4,268.6l0.8,3.3 M164.1,269.9l-0.1,3.8 M220,252.2l1.9,2.9 M207.1,258.7l1.6,3.3"/>
				</g>
				
					<text transform="matrix(0.5229 4.500384e-002 -2.758610e-003 1 161.8354 275.2466)" fill="#FFFFFF" font-family="'ArialMT'" font-size="2.8542">10</text>
				
					<text transform="matrix(0.8729 -0.1802 0.2311 0.9729 175.1934 274.5151)" fill="#FFFFFF" font-family="'ArialMT'" font-size="2.8935">20</text>
				
					<text transform="matrix(0.8303 -0.3151 0.3548 0.935 191.4604 270.2319)" fill="#FFFFFF" font-family="'ArialMT'" font-size="2.8971">30</text>
				
					<text transform="matrix(0.7874 -0.418 0.4423 0.8969 205.7168 264.856)" fill="#FFFFFF" font-family="'ArialMT'" font-size="2.8897">40</text>
				
					<text transform="matrix(0.7157 -0.5529 0.5603 0.8283 219.6353 258.4648)" fill="#FFFFFF" font-family="'ArialMT'" font-size="2.87">50</text>
			</g>
		</g>
		<g>
			<linearGradient id="SVGID_30_" gradientUnits="userSpaceOnUse" x1="152.0137" y1="263.1338" x2="217.8451" y2="239.4651">
				<stop  offset="0" style="stop-color:#080808"/>
				<stop  offset="0.5333" style="stop-color:#373737"/>
				<stop  offset="1" style="stop-color:#080808"/>
			</linearGradient>
			<path fill-rule="evenodd" clip-rule="evenodd" fill="url(#SVGID_30_)" d="M161.3,246.9c0.9-0.5,1.9-1,3-1.6
				c5.7-2.9,12.8-5.9,21.1-8.9c8.4-3,15.8-5.2,22-6.6c1.2-0.3,2.4-0.5,3.4-0.6c0.1,0,0.2,0,0.4-0.1c0.1,0,0.1,0,0.3,0
				c0.9-0.1,1.6-0.2,2.4-0.3c2.2-0.2,3.4,0,3.6,0.6c4.8,4.9,7.4,10.5,7.7,17l0.1,0.3c0.2,1-1.5,2.5-5.1,4.6c-0.9,0.6-2,1.2-3.2,1.8
				c-5.9,3.1-13.3,6.2-22,9.4c-8.8,3.1-16.5,5.4-23,6.8c-1.3,0.3-2.5,0.5-3.5,0.6c-4.3,0.7-6.6,0.6-7-0.4v-0.2
				c-4-5.4-5.6-11.4-4.9-17.9l-0.1-0.2c-0.1-0.7,0.8-1.6,2.6-2.8c0.5-0.4,1.2-0.8,1.9-1.2l0.1-0.1C161,247.1,161.2,247,161.3,246.9z
				"/>
		</g>
	</g>
	<g>
		<g>
			<polygon fill-rule="evenodd" clip-rule="evenodd" fill-opacity="0.498" points="393.5,517.8 325.2,517.7 322.2,502.5 
				391.8,502.5 			"/>
		</g>
		<g>
			<g>
				<path fill-rule="evenodd" clip-rule="evenodd" d="M388.8,476.8c-0.3-0.4-0.5-0.8-0.5-1.3c0-0.5,0.2-0.9,0.5-1.3
					c0.4-0.4,0.8-0.5,1.3-0.5c18.2,0.6,31.2,3.2,39,7.8c8.4,4.9,11.3,12,8.7,21.3c0,2,0.7,4.2,2.3,6.8c1.7,2.8,4.3,6,7.8,9.5
					c4.3,4.3,5.3,8.9,3.2,13.8c-1.8,4.5-5.2,8.4-10.2,11.8c-2.3,1.5-4.1,2.9-5.4,4.2l-0.6-4.3c1.4-1,3-2.1,4.7-3.3
					c3.8-2.6,6.6-5.8,8.3-9.8c1.4-3.5,0.6-6.8-2.5-9.9c-3.8-3.7-6.6-7.1-8.4-10.1c-2.1-3.4-3-6.4-2.8-9c0-0.1,0-0.3,0-0.4
					c2.2-7.5-0.1-13.3-7-17.3c-7.5-4.4-19.9-6.8-37.3-7.4C389.5,477.3,389.1,477.1,388.8,476.8z"/>
			</g>
			<g>
				<path fill-rule="evenodd" clip-rule="evenodd" fill-opacity="0.2471" d="M389.2,503.1c0.4-0.3,0.8-0.5,1.3-0.4
					c18.2,0.6,31.1,3.2,39,7.8c0.2,0.1,0.5,0.3,0.9,0.5l0.5,4c-1.7-0.7-2.7-1.2-3.2-1.4c-7.5-4.4-19.9-6.8-37.3-7.3
					c-0.5,0-0.9-0.2-1.3-0.5c-0.3-0.4-0.5-0.8-0.5-1.3C388.6,503.9,388.8,503.5,389.2,503.1z"/>
			</g>
			<g>
				<g>
					
						<radialGradient id="SVGID_31_" cx="419.25" cy="477.0498" r="22.6" gradientTransform="matrix(1 0 0 0.3213 0 323.7501)" gradientUnits="userSpaceOnUse">
						<stop  offset="0" style="stop-color:#FFFFFF"/>
						<stop  offset="1" style="stop-color:#FAFAFA;stop-opacity:0"/>
					</radialGradient>
					<path fill-rule="evenodd" clip-rule="evenodd" fill="url(#SVGID_31_)" d="M434.7,489.8c-0.1,0-0.1-0.1-0.2-0.1
						c-4.7-8.7-19.6-13.5-44.9-14.4c-0.1,0-0.2,0-0.2,0c0-0.1-0.1-0.1-0.1-0.2c0-0.1,0-0.2,0.1-0.2c0.1-0.1,0.1-0.1,0.3-0.1
						c25.5,0.8,40.6,5.7,45.3,14.7c0,0.1,0,0.1,0,0.2c0,0.1-0.1,0.1-0.1,0.2C434.8,489.8,434.8,489.8,434.7,489.8z"/>
					<radialGradient id="SVGID_32_" cx="440.0996" cy="522.9502" r="17.9125" gradientUnits="userSpaceOnUse">
						<stop  offset="0" style="stop-color:#FFFFFF"/>
						<stop  offset="1" style="stop-color:#FAFAFA;stop-opacity:0"/>
					</radialGradient>
					<path fill-rule="evenodd" clip-rule="evenodd" fill="url(#SVGID_32_)" d="M448.7,534.4c2.9-4.9,2.3-9.3-1.8-13.4
						c-7.3-7.2-10.9-13.1-10.8-17.7c0-0.1,0-0.2,0.1-0.2c0-0.1,0.1-0.1,0.2-0.1c0.1,0,0.1,0,0.1,0.1c0.1,0,0.1,0.1,0.1,0.2
						c-0.1,4.5,3.5,10.2,10.5,17.3c4.3,4.3,4.9,9,1.9,14.1c0,0.1-0.1,0.1-0.2,0.1c-0.1,0-0.1,0-0.2,0c-0.1,0-0.1-0.1-0.1-0.2
						C448.6,534.5,448.6,534.5,448.7,534.4z"/>
				</g>
			</g>
		</g>
		<g>
			<g>
				<linearGradient id="SVGID_33_" gradientUnits="userSpaceOnUse" x1="359.042" y1="521.1387" x2="359.2089" y2="308.6637">
					<stop  offset="0" style="stop-color:#464034"/>
					<stop  offset="1" style="stop-color:#C4B6AA"/>
					<stop  offset="1" style="stop-color:#484848"/>
				</linearGradient>
				<path fill-rule="evenodd" clip-rule="evenodd" fill="url(#SVGID_33_)" d="M326.1,515.3V324.1h66.1v191.1H326.1z M392.2,322.3
					h-66.1v-7.7h66h0.1V322.3z"/>
				<linearGradient id="SVGID_34_" gradientUnits="userSpaceOnUse" x1="323.7002" y1="310.5" x2="392.1002" y2="310.5">
					<stop  offset="0" style="stop-color:#464034"/>
					<stop  offset="1" style="stop-color:#C4B6AA"/>
					<stop  offset="1" style="stop-color:#484848"/>
				</linearGradient>
				<polygon fill-rule="evenodd" clip-rule="evenodd" fill="url(#SVGID_34_)" points="392.1,314.6 326.1,314.6 323.3,306.4 
					385.2,306.4 				"/>
				<linearGradient id="SVGID_35_" gradientUnits="userSpaceOnUse" x1="358.9697" y1="521.1387" x2="359.1366" y2="308.6637">
					<stop  offset="0" style="stop-color:#464034"/>
					<stop  offset="1" style="stop-color:#181412"/>
					<stop  offset="1" style="stop-color:#484848"/>
				</linearGradient>
				<rect x="326.1" y="322.3" fill-rule="evenodd" clip-rule="evenodd" fill="url(#SVGID_35_)" width="66.1" height="1.9"/>
				<linearGradient id="SVGID_36_" gradientUnits="userSpaceOnUse" x1="309.2339" y1="523.6172" x2="340.1362" y2="297.8925">
					<stop  offset="0" style="stop-color:#050403"/>
					<stop  offset="1" style="stop-color:#8B8178"/>
					<stop  offset="1" style="stop-color:#484848"/>
				</linearGradient>
				<path fill-rule="evenodd" clip-rule="evenodd" fill="url(#SVGID_36_)" d="M323.3,316l2.9,8.2v191.1l-2.9-12V316z M323.3,306.4
					l2.9,8.2v7.7l-2.9-8.2V306.4z"/>
				<linearGradient id="SVGID_37_" gradientUnits="userSpaceOnUse" x1="296.9111" y1="521.9297" x2="327.8134" y2="296.205">
					<stop  offset="0" style="stop-color:#050403"/>
					<stop  offset="1" style="stop-color:#121010"/>
					<stop  offset="1" style="stop-color:#484848"/>
				</linearGradient>
				<polygon fill-rule="evenodd" clip-rule="evenodd" fill="url(#SVGID_37_)" points="326.1,324.1 323.3,316 323.3,314.1 
					326.1,322.3 				"/>
			</g>
		</g>
		<g>
			<linearGradient id="SVGID_38_" gradientUnits="userSpaceOnUse" x1="351.3379" y1="318.7754" x2="375.0629" y2="318.7754">
				<stop  offset="0" style="stop-color:#353535"/>
				<stop  offset="8.627451e-002" style="stop-color:#848484"/>
				<stop  offset="0.7882" style="stop-color:#7B7B7B"/>
				<stop  offset="1" style="stop-color:#CCCCCC"/>
			</linearGradient>
			<path fill-rule="evenodd" clip-rule="evenodd" fill="url(#SVGID_38_)" d="M371,321.1h-17.1c-2.3-1.5-2.3-3.1,0-4.6H371
				C373,318,373,319.6,371,321.1z"/>
		</g>
		<g>
			<linearGradient id="SVGID_39_" gradientUnits="userSpaceOnUse" x1="358.7754" y1="318.7251" x2="365.6254" y2="318.7251">
				<stop  offset="0" style="stop-color:#353535"/>
				<stop  offset="8.627451e-002" style="stop-color:#848484"/>
				<stop  offset="0.4392" style="stop-color:#AAAAAA"/>
				<stop  offset="0.7922" style="stop-color:#737373"/>
				<stop  offset="1" style="stop-color:#6A6A6A"/>
			</linearGradient>
			<rect x="359.3" y="316.6" fill-rule="evenodd" clip-rule="evenodd" fill="url(#SVGID_39_)" width="5.7" height="4.3"/>
		</g>
		<g>
			<linearGradient id="SVGID_40_" gradientUnits="userSpaceOnUse" x1="351.3379" y1="327.6504" x2="375.0629" y2="327.6504">
				<stop  offset="0" style="stop-color:#353535"/>
				<stop  offset="8.627451e-002" style="stop-color:#848484"/>
				<stop  offset="0.7882" style="stop-color:#7B7B7B"/>
				<stop  offset="1" style="stop-color:#CCCCCC"/>
			</linearGradient>
			<path fill-rule="evenodd" clip-rule="evenodd" fill="url(#SVGID_40_)" d="M371,330h-17.1c-2.3-1.5-2.3-3.1,0-4.6H371
				C373,326.9,373,328.4,371,330z"/>
		</g>
		<g>
			<linearGradient id="SVGID_41_" gradientUnits="userSpaceOnUse" x1="358.7754" y1="327.5752" x2="365.6254" y2="327.5752">
				<stop  offset="0" style="stop-color:#353535"/>
				<stop  offset="8.627451e-002" style="stop-color:#848484"/>
				<stop  offset="0.4392" style="stop-color:#AAAAAA"/>
				<stop  offset="0.7922" style="stop-color:#737373"/>
				<stop  offset="1" style="stop-color:#6A6A6A"/>
			</linearGradient>
			<rect x="359.3" y="325.5" fill-rule="evenodd" clip-rule="evenodd" fill="url(#SVGID_41_)" width="5.7" height="4.3"/>
		</g>
		<g>
			<g>
				<g>
					<linearGradient id="SVGID_42_" gradientUnits="userSpaceOnUse" x1="370.6729" y1="320.1299" x2="368.876" y2="318.2269">
						<stop  offset="0" style="stop-color:#EBEBEA"/>
						<stop  offset="1" style="stop-color:#626262"/>
					</linearGradient>
					<path fill-rule="evenodd" clip-rule="evenodd" fill="url(#SVGID_42_)" d="M370.4,319.8c-0.3,0.3-0.7,0.5-1.1,0.5
						c-0.4,0-0.7-0.2-1-0.5c-0.3-0.3-0.5-0.6-0.5-1c0-0.4,0.2-0.7,0.5-1c0.3-0.3,0.6-0.5,1-0.5c0.4,0,0.8,0.1,1.1,0.5
						c0.3,0.3,0.4,0.6,0.4,1C370.8,319.1,370.7,319.5,370.4,319.8z"/>
				</g>
				<g>
					<rect x="369.1" y="317.6" fill-rule="evenodd" clip-rule="evenodd" width="0.6" height="2.1"/>
				</g>
				<g>
					<rect x="368.3" y="318.5" fill-rule="evenodd" clip-rule="evenodd" width="2.1" height="0.5"/>
				</g>
			</g>
		</g>
		<g>
			<g>
				<g>
					<linearGradient id="SVGID_43_" gradientUnits="userSpaceOnUse" x1="356.3721" y1="320.1294" x2="354.5752" y2="318.2264">
						<stop  offset="0" style="stop-color:#EBEBEA"/>
						<stop  offset="1" style="stop-color:#626262"/>
					</linearGradient>
					<path fill-rule="evenodd" clip-rule="evenodd" fill="url(#SVGID_43_)" d="M355,320.2c-0.4,0-0.8-0.2-1-0.5
						c-0.3-0.3-0.5-0.6-0.5-1c0-0.4,0.2-0.7,0.5-1c0.3-0.3,0.7-0.5,1-0.5c0.4,0,0.8,0.1,1,0.5c0.3,0.3,0.4,0.6,0.4,1
						c0,0.4-0.1,0.8-0.4,1C355.8,320,355.5,320.2,355,320.2z"/>
				</g>
				<g>
					<rect x="354.8" y="317.6" fill-rule="evenodd" clip-rule="evenodd" width="0.5" height="2.1"/>
				</g>
				<g>
					<rect x="354" y="318.5" fill-rule="evenodd" clip-rule="evenodd" width="2.1" height="0.5"/>
				</g>
			</g>
		</g>
		<g>
			<g>
				<g>
					<linearGradient id="SVGID_44_" gradientUnits="userSpaceOnUse" x1="370.6729" y1="328.98" x2="368.876" y2="327.077">
						<stop  offset="0" style="stop-color:#EBEBEA"/>
						<stop  offset="1" style="stop-color:#626262"/>
					</linearGradient>
					<path fill-rule="evenodd" clip-rule="evenodd" fill="url(#SVGID_44_)" d="M369.3,326.1c0.4,0,0.8,0.1,1.1,0.4
						c0.3,0.3,0.4,0.6,0.4,1c0,0.4-0.1,0.8-0.4,1.1c-0.3,0.3-0.7,0.4-1.1,0.4c-0.4,0-0.7-0.1-1-0.4s-0.5-0.6-0.5-1.1
						c0-0.4,0.2-0.7,0.5-1C368.6,326.3,368.9,326.1,369.3,326.1z"/>
				</g>
				<g>
					<rect x="369.1" y="326.5" fill-rule="evenodd" clip-rule="evenodd" width="0.6" height="2.1"/>
				</g>
				<g>
					<rect x="368.3" y="327.3" fill-rule="evenodd" clip-rule="evenodd" width="2.1" height="0.6"/>
				</g>
			</g>
		</g>
		<g>
			<g>
				<g>
					<linearGradient id="SVGID_45_" gradientUnits="userSpaceOnUse" x1="356.3721" y1="328.9795" x2="354.5752" y2="327.0765">
						<stop  offset="0" style="stop-color:#EBEBEA"/>
						<stop  offset="1" style="stop-color:#626262"/>
					</linearGradient>
					<path fill-rule="evenodd" clip-rule="evenodd" fill="url(#SVGID_45_)" d="M354,328.6c-0.3-0.3-0.5-0.6-0.5-1.1
						c0-0.4,0.2-0.7,0.5-1c0.3-0.3,0.7-0.4,1-0.4c0.4,0,0.8,0.1,1,0.4c0.3,0.3,0.4,0.6,0.4,1c0,0.4-0.1,0.8-0.4,1.1
						c-0.3,0.3-0.6,0.4-1,0.4C354.7,329,354.3,328.9,354,328.6z"/>
				</g>
				<g>
					<rect x="354.8" y="326.5" fill-rule="evenodd" clip-rule="evenodd" width="0.5" height="2.1"/>
				</g>
				<g>
					<rect x="354" y="327.3" fill-rule="evenodd" clip-rule="evenodd" width="2.1" height="0.6"/>
				</g>
			</g>
		</g>
		<g>
			<g>
				<radialGradient id="SVGID_46_" cx="358.9004" cy="324.3999" r="31.75" gradientUnits="userSpaceOnUse">
					<stop  offset="0" style="stop-color:#FFFFFF"/>
					<stop  offset="1" style="stop-color:#FAFAFA;stop-opacity:0"/>
				</radialGradient>
				<path fill-rule="evenodd" clip-rule="evenodd" fill="url(#SVGID_46_)" d="M390.6,324.2c0.1,0,0.1,0,0.2,0.1c0,0,0,0.1,0,0.1
					c0,0.1,0,0.1,0,0.1c0,0-0.1,0.1-0.2,0.1h-63.4c-0.1,0-0.1,0-0.2-0.1c0,0,0-0.1,0-0.1c0,0,0-0.1,0-0.1c0-0.1,0.1-0.1,0.2-0.1
					H390.6z"/>
				<radialGradient id="SVGID_47_" cx="358.8252" cy="314.8501" r="31.7743" gradientUnits="userSpaceOnUse">
					<stop  offset="0" style="stop-color:#FFFFFF"/>
					<stop  offset="1" style="stop-color:#FAFAFA;stop-opacity:0"/>
				</radialGradient>
				<path fill-rule="evenodd" clip-rule="evenodd" fill="url(#SVGID_47_)" d="M390.5,314.6c0.1,0,0.1,0,0.2,0.1c0,0,0,0.1,0,0.1
					c0,0,0,0.1,0,0.1c0,0.1-0.1,0.1-0.2,0.1h-63.4c0,0-0.1,0-0.1-0.1c0,0,0-0.1,0-0.1c0-0.1,0-0.1,0-0.1c0,0,0.1-0.1,0.1-0.1H390.5z
					"/>
				<radialGradient id="SVGID_48_" cx="326.3501" cy="383.8496" r="94.7125" gradientUnits="userSpaceOnUse">
					<stop  offset="0" style="stop-color:#FFFFFF"/>
					<stop  offset="1" style="stop-color:#FAFAFA;stop-opacity:0"/>
				</radialGradient>
				<path fill-rule="evenodd" clip-rule="evenodd" fill="url(#SVGID_48_)" d="M326.4,324c0,0,0.1,0,0.1,0.1c0,0,0,0.1,0,0.1v148.5
					c0,0,0,0.1,0,0.1c0,0-0.1,0-0.1,0s-0.1,0-0.1,0s0-0.1,0-0.1V324.2c0,0,0-0.1,0-0.1S326.3,324,326.4,324z"/>
			</g>
		</g>
		<g>
			<linearGradient id="SVGID_49_" gradientUnits="userSpaceOnUse" x1="357.0127" y1="419.4004" x2="362.3877" y2="419.4004">
				<stop  offset="0" style="stop-color:#050403"/>
				<stop  offset="1" style="stop-color:#8B8178"/>
				<stop  offset="1" style="stop-color:#484848"/>
			</linearGradient>
			<path fill-rule="evenodd" clip-rule="evenodd" fill="url(#SVGID_49_)" d="M357.1,355.2c0-0.7,0.3-1.4,0.8-2
				c0.5-0.5,1.2-0.8,1.9-0.8h0.1c0.7,0,1.4,0.3,1.9,0.8c0.5,0.6,0.8,1.3,0.8,2v128.5c0,0.7-0.3,1.3-0.8,1.8
				c-0.5,0.6-1.1,0.8-1.9,0.8h-0.1c-0.7,0-1.3-0.3-1.9-0.8c-0.5-0.5-0.8-1.1-0.8-1.8V355.2z"/>
		</g>
	</g>
	<g>
		<g>
			<polygon fill-rule="evenodd" clip-rule="evenodd" fill-opacity="0.3451" points="239.5,544.7 238.4,558.5 231.1,648.8 
				149.5,648.8 156.9,558.5 157.7,548.2 158,544.7 			"/>
		</g>
		<g>
			<g>
				<g>
					<path fill-rule="evenodd" clip-rule="evenodd" fill="#706665" d="M220,485.7h-0.7l7.6-73.6h0.9L220,485.7z M147.6,485.7H147
						l28.8-73.6h0.6L147.6,485.7z"/>
					<polygon fill-rule="evenodd" clip-rule="evenodd" fill="#A6A09D" points="220.8,512.5 220.2,492.1 228,418.5 228.3,427.6 					
						"/>
					<polygon fill-rule="evenodd" clip-rule="evenodd" fill="#E2E0E0" points="228,418.5 220.2,492.1 220,485.7 227.8,412.1 					
						"/>
					<linearGradient id="SVGID_50_" gradientUnits="userSpaceOnUse" x1="185.8247" y1="427.0127" x2="185.8247" y2="486.0877">
						<stop  offset="0" style="stop-color:#B3ADAD"/>
						<stop  offset="0.9451" style="stop-color:#E1DCD9"/>
						<stop  offset="1" style="stop-color:#FFFFFF"/>
					</linearGradient>
					<path fill-rule="evenodd" clip-rule="evenodd" fill="url(#SVGID_50_)" d="M219.3,485.7h-71.6l28.8-73.6h50.5L219.3,485.7z
						 M146.5,485.7h-1.7l29.1-73.6h1.4L146.5,485.7z"/>
					<polygon fill-rule="evenodd" clip-rule="evenodd" fill="#ECE9E8" points="175.8,412.1 147,485.7 146.5,485.7 175.2,412.1 					
						"/>
					<linearGradient id="SVGID_51_" gradientUnits="userSpaceOnUse" x1="184.6753" y1="621.4004" x2="184.6753" y2="485.5004">
						<stop  offset="0" style="stop-color:#B3ADAD"/>
						<stop  offset="0.9725" style="stop-color:#E5E0DC"/>
						<stop  offset="1" style="stop-color:#F5F3F2"/>
					</linearGradient>
					<polygon fill-rule="evenodd" clip-rule="evenodd" fill="url(#SVGID_51_)" points="224.6,646 149.4,645.5 144.8,485.7 
						146.5,485.7 147,485.7 147.6,485.7 219.3,485.7 220,485.7 220.2,492.1 220.8,512.5 					"/>
					<polygon fill-rule="evenodd" clip-rule="evenodd" fill="#918B88" points="224.6,646 220.8,512.5 228.3,427.6 231.9,545 
						224.6,646 					"/>
				</g>
			</g>
			<g>
				<g>
					
						<radialGradient id="SVGID_52_" cx="205.1499" cy="473.5" r="17.325" gradientTransform="matrix(1 0 0 0.5779 0 199.8539)" gradientUnits="userSpaceOnUse">
						<stop  offset="0" style="stop-color:#241C27"/>
						<stop  offset="0.5569" style="stop-color:#26222B;stop-opacity:0.4"/>
						<stop  offset="0.7843" style="stop-color:#282830;stop-opacity:0"/>
					</radialGradient>
					<path fill-rule="evenodd" clip-rule="evenodd" fill="url(#SVGID_52_)" d="M199.1,480.8c-1.6-0.6-2.5-1.3-2.6-2v-2.1
						c0.4,0.2,0.9,0.4,1.5,0.6c2.1,0.7,4.6,1,7.6,1s5.5-0.3,7.6-1c0.6-0.1,1-0.3,1.4-0.5v2.3c-0.3,0.7-1.1,1.3-2.5,1.8
						c-1.8,0.7-4,1-6.5,1S200.9,481.5,199.1,480.8z"/>
				</g>
				<g>
					<g>
						<path fill-rule="evenodd" clip-rule="evenodd" fill="#B19F01" d="M215.9,473.8l-0.1,0.5c0,0,0,0.1,0,0.1
							c0,0.1-0.1,0.3-0.2,0.4c-0.5,0.5-1.4,0.9-2.7,1.3c-2,0.6-4.4,0.9-7.3,0.9c-2.8,0-5.3-0.3-7.3-0.9c-1.3-0.4-2.2-0.9-2.6-1.3
							c-0.1-0.1-0.2-0.3-0.3-0.3c-0.1-0.1-0.1-0.2-0.1-0.4v-0.1c0-0.9,1-1.6,3-2.2c2-0.6,4.4-0.9,7.3-0.9c2.8,0,5.3,0.3,7.3,0.9
							C214.8,472.3,215.8,473,215.9,473.8z"/>
						<path fill-rule="evenodd" clip-rule="evenodd" fill="#FFFF71" d="M195.4,474c0,0.1,0,0.2,0.1,0.4c0,0.1,0.1,0.2,0.3,0.3
							c0.5,0.5,1.3,0.9,2.6,1.3c2,0.6,4.4,0.9,7.3,0.9c2.8,0,5.3-0.3,7.3-0.9c1.3-0.4,2.2-0.9,2.7-1.3c0.1-0.1,0.2-0.3,0.2-0.4
							c0,0,0-0.1,0-0.1l0.1-0.5c0,0,0,0.1,0,0.1v0c0,0.3,0,0.5,0,0.7l-0.1,0.4c-0.1,0.2-0.1,0.4-0.3,0.6c-0.5,0.5-1.4,0.9-2.7,1.3
							c-2,0.6-4.4,0.9-7.3,0.9c-2.8,0-5.3-0.3-7.3-0.9c-1.3-0.4-2.2-0.8-2.6-1.3c-0.2-0.3-0.4-0.5-0.4-0.8V474z"/>
					</g>
				</g>
				<g>
					<g>
						<linearGradient id="SVGID_53_" gradientUnits="userSpaceOnUse" x1="205.6001" y1="474.1123" x2="205.6001" y2="464.7873">
							<stop  offset="0" style="stop-color:#464342"/>
							<stop  offset="1" style="stop-color:#A9A3A3"/>
						</linearGradient>
						<path fill-rule="evenodd" clip-rule="evenodd" fill="url(#SVGID_53_)" d="M214.6,470.1c-0.2,0.4-0.5,0.7-0.9,1
							c-0.5,0.3-1,0.6-1.6,0.8c-1.8,0.7-4,1.1-6.5,1.1s-4.7-0.4-6.5-1.1c-0.6-0.2-1.2-0.4-1.6-0.8c-0.6-0.4-1-0.9-1-1.3
							c0-0.1-0.1-0.2-0.1-0.3c0-0.1,0-0.2,0.1-0.4c0.2-0.8,1.1-1.4,2.6-2c1.8-0.7,4-1,6.5-1s4.7,0.3,6.5,1c1.4,0.5,2.3,1.2,2.6,1.9
							c0.1,0.2,0.1,0.4,0.1,0.5C214.8,469.7,214.8,469.9,214.6,470.1z M200.1,468.8L200.1,468.8c-0.1,0.5,0.5,0.8,1.5,1.1
							c1.1,0.3,2.5,0.4,4.1,0.4c1.5,0,2.8-0.1,3.9-0.4c1.1-0.3,1.7-0.7,1.7-1.1v0v-0.3c-0.1-0.4-0.7-0.7-1.7-1
							c-1.1-0.3-2.4-0.4-3.9-0.4c-1.6,0-2.9,0.1-4.1,0.4c-1,0.3-1.5,0.6-1.5,0.9c0,0-0.1,0.1-0.1,0.2L200.1,468.8z M210.9,469
							c-0.3,0.2-0.7,0.3-1.3,0.5c-1.1,0.3-2.4,0.5-3.9,0.5c-1.6,0-2.9-0.2-4.1-0.5c-0.5-0.1-0.8-0.2-1.1-0.4c0-0.1,0-0.1,0-0.2
							c0-0.3,0.5-0.6,1.5-0.9c1.1-0.2,2.3-0.4,3.8-0.4c1.4,0,2.6,0.1,3.6,0.4c1,0.3,1.5,0.6,1.5,0.9
							C210.9,468.9,210.9,469,210.9,469z"/>
						<path fill-rule="evenodd" clip-rule="evenodd" fill="#9F9B9B" d="M211.4,468.8c0,0-0.1-0.1-0.1-0.1c-0.2-0.3-0.7-0.6-1.6-0.9
							c-1.1-0.2-2.4-0.3-3.9-0.3c-1.6,0-2.9,0.1-4.1,0.3c-0.9,0.3-1.4,0.6-1.5,0.9c0,0,0,0,0,0.1l-0.1-0.1c0-0.1,0-0.1,0.1-0.2
							c0.1-0.3,0.6-0.6,1.5-0.9c1.1-0.3,2.5-0.4,4.1-0.4c1.5,0,2.8,0.1,3.9,0.4c1,0.3,1.6,0.6,1.7,1V468.8z M200.5,469
							c0.3,0.2,0.6,0.3,1.1,0.4c1.1,0.3,2.5,0.5,4.1,0.5c1.5,0,2.8-0.2,3.9-0.5c0.5-0.1,1-0.3,1.3-0.5c-0.2,0.3-0.7,0.5-1.5,0.8
							c-1,0.2-2.2,0.3-3.6,0.3c-1.4,0-2.7-0.1-3.8-0.3C201.1,469.5,200.7,469.3,200.5,469z"/>
						<path fill-rule="evenodd" clip-rule="evenodd" fill="#6D6867" d="M200.1,468.8c0-0.1,0-0.1,0-0.1c0.1-0.3,0.6-0.6,1.5-0.9
							c1.1-0.2,2.5-0.3,4.1-0.3c1.5,0,2.8,0.1,3.9,0.3c0.9,0.3,1.5,0.6,1.6,0.9c0,0.1,0,0.1,0.1,0.1v0c0,0.4-0.6,0.8-1.7,1.1
							c-1.1,0.3-2.4,0.4-3.9,0.4c-1.6,0-2.9-0.1-4.1-0.4C200.6,469.6,200,469.3,200.1,468.8L200.1,468.8z M200.5,469
							c0.1,0.2,0.6,0.5,1.4,0.7c1.1,0.2,2.3,0.3,3.8,0.3c1.4,0,2.6-0.1,3.6-0.3c0.8-0.2,1.4-0.5,1.5-0.8c0,0,0-0.1,0-0.2
							c0-0.3-0.5-0.6-1.5-0.9c-1-0.2-2.2-0.4-3.6-0.4c-1.4,0-2.7,0.1-3.8,0.4c-1,0.3-1.5,0.6-1.5,0.9
							C200.5,468.9,200.5,469,200.5,469z"/>
						<linearGradient id="SVGID_54_" gradientUnits="userSpaceOnUse" x1="196.4502" y1="472.9746" x2="214.6752" y2="472.9746">
							<stop  offset="0" style="stop-color:#241C27"/>
							<stop  offset="0.4118" style="stop-color:#332D37"/>
							<stop  offset="0.6275" style="stop-color:#828095"/>
							<stop  offset="0.9451" style="stop-color:#282830"/>
							<stop  offset="1" style="stop-color:#32292C"/>
						</linearGradient>
						<path fill-rule="evenodd" clip-rule="evenodd" fill="url(#SVGID_54_)" d="M196.5,469.8c0.1,0.4,0.4,0.9,1,1.3
							c0.4,0.3,1,0.6,1.6,0.8c1.8,0.7,4,1.1,6.5,1.1s4.7-0.4,6.5-1.1c0.6-0.2,1.2-0.4,1.6-0.8c0.4-0.3,0.7-0.6,0.9-1v3.3
							c-0.3,0.7-1.1,1.3-2.5,1.8c-1.8,0.7-4,1-6.5,1s-4.7-0.3-6.5-1c-1.6-0.6-2.5-1.3-2.6-2.1V469.8z"/>
					</g>
				</g>
				<g>
					<path fill-rule="evenodd" clip-rule="evenodd" fill="none" d="M214.1,470.7c-0.5,0.4-1.2,0.8-2.3,1.2c-1.7,0.6-3.8,0.9-6.3,0.9
						c-2.4,0-4.5-0.3-6.3-0.9c-1.1-0.4-1.8-0.8-2.3-1.2"/>
				</g>
				<g>
					
						<radialGradient id="SVGID_55_" cx="204.3999" cy="472.7002" r="4.2375" gradientTransform="matrix(1 0 0 0.3156 0 323.4998)" gradientUnits="userSpaceOnUse">
						<stop  offset="0" style="stop-color:#FFFFFF"/>
						<stop  offset="0.1922" style="stop-color:#FFFFFF"/>
						<stop  offset="0.2824" style="stop-color:#FFFFFF;stop-opacity:0.7529"/>
						<stop  offset="0.4157" style="stop-color:#FFFFFF;stop-opacity:0.6"/>
						<stop  offset="0.5882" style="stop-color:#FEFEFE;stop-opacity:0.3647"/>
						<stop  offset="0.8157" style="stop-color:#FCFCFC;stop-opacity:0.1059"/>
						<stop  offset="1" style="stop-color:#F9F9F9;stop-opacity:0"/>
					</radialGradient>
					<path fill-rule="evenodd" clip-rule="evenodd" fill="url(#SVGID_55_)" d="M201.5,471.8c0.8-0.3,1.8-0.4,2.9-0.4
						c1.2,0,2.1,0.1,3,0.4c0.8,0.3,1.3,0.6,1.3,1c0,0.4-0.4,0.7-1.3,1c-0.8,0.2-1.8,0.3-3,0.3c-1.1,0-2.1-0.1-2.9-0.3
						c-0.8-0.2-1.2-0.6-1.2-1C200.3,472.3,200.7,472,201.5,471.8z"/>
				</g>
			</g>
			<g>
				<g>
					
						<radialGradient id="SVGID_56_" cx="165.3999" cy="473.5" r="17.325" gradientTransform="matrix(1 0 0 0.5779 0 199.8539)" gradientUnits="userSpaceOnUse">
						<stop  offset="0" style="stop-color:#241C27"/>
						<stop  offset="0.5569" style="stop-color:#26222B;stop-opacity:0.4"/>
						<stop  offset="0.7843" style="stop-color:#282830;stop-opacity:0"/>
					</radialGradient>
					<path fill-rule="evenodd" clip-rule="evenodd" fill="url(#SVGID_56_)" d="M174.9,479c-0.3,0.7-1.1,1.3-2.5,1.8
						c-1.8,0.7-4,1-6.5,1c-2.6,0-4.7-0.3-6.5-1c-1.6-0.6-2.5-1.3-2.6-2v-2.1c0.4,0.2,0.9,0.4,1.5,0.6c2.1,0.7,4.6,1,7.6,1
						s5.5-0.3,7.5-1c0.6-0.1,1.1-0.3,1.5-0.5V479z"/>
				</g>
				<g>
					<g>
						<path fill-rule="evenodd" clip-rule="evenodd" fill="#264D84" d="M176.1,473.8c0,0,0,0.1,0,0.1v0c0,0.3,0,0.5,0,0.7L176,475
							c-0.1,0.2-0.1,0.4-0.3,0.6c-0.5,0.4-1.2,0.8-2.3,1.2c-0.1,0.1-0.3,0.1-0.4,0.1c-0.9,0.3-2,0.5-3.1,0.6h-0.1
							c-1.2,0.2-2.6,0.3-4,0.3h-0.1c-1.4,0-2.8-0.1-4-0.3h-0.1c-1.1-0.1-2.2-0.3-3.1-0.6c-0.1,0-0.2,0-0.3,0
							c-0.1-0.1-0.1-0.1-0.1-0.1c-1-0.4-1.8-0.8-2.3-1.2c-0.3-0.3-0.4-0.5-0.4-0.8V474c0,0.1,0.1,0.2,0.2,0.4c0,0.1,0.1,0.2,0.3,0.3
							c0.5,0.5,1.3,0.9,2.6,1.3c1,0.3,2.1,0.5,3.3,0.7c1.2,0.2,2.5,0.3,4,0.3c1.4,0,2.8-0.1,4-0.3c1.2-0.1,2.3-0.3,3.3-0.7
							c1.3-0.4,2.2-0.9,2.7-1.3c0.1-0.1,0.2-0.3,0.2-0.4c0,0,0-0.1,0-0.1L176.1,473.8z"/>
						<path fill-rule="evenodd" clip-rule="evenodd" fill="#2C5798" d="M155.5,474v-0.1c0-0.9,1.1-1.6,3.1-2.2
							c2-0.6,4.4-0.9,7.3-0.9c2.8,0,5.3,0.3,7.3,0.9c1.9,0.6,2.9,1.3,3,2.1l-0.1,0.5c0,0,0,0.1,0,0.1c0,0.1-0.1,0.3-0.2,0.4
							c-0.5,0.5-1.4,0.9-2.7,1.3c-1,0.3-2.1,0.5-3.3,0.7c-1.2,0.2-2.6,0.3-4,0.3c-1.4,0-2.8-0.1-4-0.3c-1.2-0.1-2.3-0.3-3.3-0.7
							c-1.3-0.4-2.2-0.9-2.6-1.3c-0.1-0.1-0.2-0.3-0.3-0.3C155.6,474.3,155.6,474.2,155.5,474z"/>
					</g>
				</g>
				<g>
					<g>
						<path fill-rule="evenodd" clip-rule="evenodd" fill="#6D6867" d="M160.8,469c0.1,0.2,0.6,0.5,1.4,0.7c1,0.2,2.3,0.3,3.8,0.3
							c1.4,0,2.6-0.1,3.6-0.3c0.8-0.2,1.3-0.5,1.5-0.8c0,0,0-0.1,0-0.2c0-0.3-0.5-0.6-1.5-0.9c-1-0.2-2.2-0.4-3.6-0.4
							c-1.5,0-2.7,0.1-3.8,0.4c-1,0.3-1.5,0.6-1.5,0.9C160.8,468.9,160.8,469,160.8,469z M160.4,468.8c0-0.1,0-0.1,0-0.1
							c0.1-0.3,0.6-0.6,1.5-0.9c1.1-0.2,2.5-0.3,4.1-0.3c1.5,0,2.8,0.1,3.9,0.3c0.9,0.3,1.5,0.6,1.6,0.9c0,0.1,0,0.1,0,0.1v0
							c0,0.4-0.5,0.8-1.6,1.1c-1.1,0.3-2.4,0.4-3.9,0.4c-1.6,0-2.9-0.1-4.1-0.4C160.8,469.6,160.3,469.3,160.4,468.8L160.4,468.8z"
							/>
						<linearGradient id="SVGID_57_" gradientUnits="userSpaceOnUse" x1="165.8501" y1="474.1123" x2="165.8501" y2="464.7873">
							<stop  offset="0" style="stop-color:#464342"/>
							<stop  offset="1" style="stop-color:#A9A3A3"/>
						</linearGradient>
						<path fill-rule="evenodd" clip-rule="evenodd" fill="url(#SVGID_57_)" d="M171.1,469c-0.3,0.2-0.7,0.3-1.2,0.5
							c-1.1,0.3-2.4,0.5-3.9,0.5c-1.6,0-2.9-0.2-4.1-0.5c-0.5-0.1-0.8-0.2-1.1-0.4c0-0.1,0-0.1,0-0.2c0-0.3,0.5-0.6,1.5-0.9
							c1-0.2,2.3-0.4,3.8-0.4c1.4,0,2.6,0.1,3.6,0.4c1,0.3,1.5,0.6,1.5,0.9C171.1,468.9,171.1,469,171.1,469z M171.5,468.8v-0.3
							c-0.1-0.4-0.6-0.7-1.6-1c-1.1-0.3-2.4-0.4-3.9-0.4c-1.6,0-2.9,0.1-4.1,0.4c-1,0.3-1.5,0.6-1.5,0.9c0,0-0.1,0.1-0.1,0.2
							l0.1,0.1l-0.1,0c0,0.4,0.5,0.8,1.6,1.1c1.1,0.3,2.5,0.4,4.1,0.4c1.5,0,2.8-0.1,3.9-0.4C171,469.6,171.5,469.3,171.5,468.8
							L171.5,468.8z M174.9,470.1c-0.2,0.4-0.5,0.7-0.9,1c-0.5,0.3-1,0.6-1.6,0.8c-1.8,0.7-4,1.1-6.5,1.1c-2.6,0-4.7-0.4-6.5-1.1
							c-0.7-0.2-1.2-0.4-1.6-0.8c-0.6-0.4-1-0.9-1-1.3c0-0.1-0.1-0.2-0.1-0.3c0-0.1,0-0.2,0.1-0.4c0.2-0.8,1-1.4,2.6-2
							c1.8-0.7,3.9-1,6.5-1c2.5,0,4.7,0.3,6.5,1c1.4,0.5,2.3,1.2,2.6,1.9c0.1,0.2,0.1,0.4,0.1,0.5C175,469.7,175,469.9,174.9,470.1z
							"/>
						<path fill-rule="evenodd" clip-rule="evenodd" fill="#9F9B9B" d="M160.8,469c0.3,0.2,0.6,0.3,1.1,0.4c1.1,0.3,2.5,0.5,4.1,0.5
							c1.5,0,2.8-0.2,3.9-0.5c0.5-0.1,0.9-0.3,1.2-0.5c-0.2,0.3-0.7,0.5-1.5,0.8c-1,0.2-2.2,0.3-3.6,0.3c-1.5,0-2.7-0.1-3.8-0.3
							C161.4,469.5,160.9,469.3,160.8,469z M171.5,468.8c0,0,0-0.1,0-0.1c-0.1-0.3-0.7-0.6-1.6-0.9c-1.1-0.2-2.4-0.3-3.9-0.3
							c-1.6,0-2.9,0.1-4.1,0.3c-0.9,0.3-1.4,0.6-1.5,0.9c0,0,0,0,0,0.1l-0.1-0.1c0-0.1,0-0.1,0.1-0.2c0.1-0.3,0.6-0.6,1.5-0.9
							c1.1-0.3,2.5-0.4,4.1-0.4c1.5,0,2.8,0.1,3.9,0.4c1,0.3,1.6,0.6,1.6,1V468.8z"/>
						<linearGradient id="SVGID_58_" gradientUnits="userSpaceOnUse" x1="156.7002" y1="472.9746" x2="174.9252" y2="472.9746">
							<stop  offset="0" style="stop-color:#241C27"/>
							<stop  offset="0.4118" style="stop-color:#332D37"/>
							<stop  offset="0.6275" style="stop-color:#828095"/>
							<stop  offset="0.9451" style="stop-color:#282830"/>
							<stop  offset="1" style="stop-color:#32292C"/>
						</linearGradient>
						<path fill-rule="evenodd" clip-rule="evenodd" fill="url(#SVGID_58_)" d="M156.7,469.8c0.1,0.4,0.4,0.9,1,1.3
							c0.4,0.3,0.9,0.6,1.6,0.8c1.8,0.7,3.9,1.1,6.5,1.1c2.5,0,4.7-0.4,6.5-1.1c0.6-0.2,1.2-0.4,1.6-0.8c0.4-0.3,0.7-0.6,0.9-1v3.3
							c-0.3,0.7-1.1,1.3-2.5,1.8c-1.8,0.7-4,1-6.5,1c-2.6,0-4.7-0.3-6.5-1c-1.6-0.6-2.5-1.3-2.6-2.1V469.8z"/>
					</g>
				</g>
				<g>
					<path fill-rule="evenodd" clip-rule="evenodd" fill="none" d="M174.4,470.7c-0.5,0.4-1.2,0.8-2.3,1.2c-1.7,0.6-3.8,0.9-6.3,0.9
						c-2.4,0-4.5-0.3-6.3-0.9c-1.1-0.4-1.8-0.8-2.3-1.2"/>
				</g>
				<g>
					
						<radialGradient id="SVGID_59_" cx="164.6499" cy="472.7002" r="4.2375" gradientTransform="matrix(1 0 0 0.3156 0 323.4998)" gradientUnits="userSpaceOnUse">
						<stop  offset="0" style="stop-color:#FFFFFF"/>
						<stop  offset="0.1922" style="stop-color:#FFFFFF"/>
						<stop  offset="0.2824" style="stop-color:#FFFFFF;stop-opacity:0.7529"/>
						<stop  offset="0.4157" style="stop-color:#FFFFFF;stop-opacity:0.6"/>
						<stop  offset="0.5882" style="stop-color:#FEFEFE;stop-opacity:0.3647"/>
						<stop  offset="0.8157" style="stop-color:#FCFCFC;stop-opacity:0.1059"/>
						<stop  offset="1" style="stop-color:#F9F9F9;stop-opacity:0"/>
					</radialGradient>
					<path fill-rule="evenodd" clip-rule="evenodd" fill="url(#SVGID_59_)" d="M167.6,473.7c-0.8,0.2-1.8,0.3-3,0.3
						c-1.1,0-2.1-0.1-2.9-0.3c-0.8-0.2-1.2-0.6-1.2-1c0-0.4,0.4-0.7,1.2-1c0.8-0.3,1.8-0.4,2.9-0.4c1.2,0,2.1,0.1,3,0.4
						c0.8,0.3,1.2,0.6,1.2,1C168.8,473.1,168.4,473.4,167.6,473.7z"/>
				</g>
			</g>
			<g>
				<g>
					
						<linearGradient id="SVGID_60_" gradientUnits="userSpaceOnUse" x1="278.6982" y1="568.8125" x2="281.6386" y2="568.8125" gradientTransform="matrix(0.9948 0.102 -8.936264e-002 0.9961 1.918823e-004 3.558993e-004)">
						<stop  offset="0" style="stop-color:#7A7573"/>
						<stop  offset="4.705882e-002" style="stop-color:#C7C2C0"/>
						<stop  offset="0.1725" style="stop-color:#918885"/>
						<stop  offset="0.549" style="stop-color:#C8C2C0"/>
						<stop  offset="1" style="stop-color:#766B67"/>
					</linearGradient>
					<path fill-rule="evenodd" clip-rule="evenodd" fill="url(#SVGID_60_)" d="M224.7,647v-7.6V639l6.9-95.6c0,0,0.1,0,0.1,0.1v7.3
						L224.7,647z"/>
					<linearGradient id="SVGID_61_" gradientUnits="userSpaceOnUse" x1="187.0249" y1="639.375" x2="187.0249" y2="647.0244">
						<stop  offset="0" style="stop-color:#7A7573"/>
						<stop  offset="4.705882e-002" style="stop-color:#C7C2C0"/>
						<stop  offset="0.1725" style="stop-color:#918885"/>
						<stop  offset="0.549" style="stop-color:#C8C2C0"/>
						<stop  offset="1" style="stop-color:#766B67"/>
					</linearGradient>
					<polygon fill-rule="evenodd" clip-rule="evenodd" fill="url(#SVGID_61_)" points="224.7,647 149.4,647 149.4,639.4 
						224.7,639.5 					"/>
				</g>
			</g>
			<g>
				<g>
					<path fill-rule="evenodd" clip-rule="evenodd" d="M214.1,492.7c0-0.5,0.2-0.9,0.5-1.3c0.4-0.3,0.8-0.5,1.3-0.5
						c0.5,0,0.9,0.2,1.2,0.5c0.4,0.4,0.6,0.8,0.6,1.3s-0.2,0.9-0.6,1.3c-0.3,0.3-0.7,0.5-1.2,0.5c-0.5,0-0.9-0.2-1.3-0.5
						C214.3,493.6,214.1,493.2,214.1,492.7z"/>
				</g>
				<g>
					<g>
						<linearGradient id="SVGID_62_" gradientUnits="userSpaceOnUse" x1="214.5249" y1="492.6758" x2="217.4749" y2="492.6758">
							<stop  offset="0" style="stop-color:#B3B3B3"/>
							<stop  offset="1" style="stop-color:#848484"/>
						</linearGradient>
						<path fill-rule="evenodd" clip-rule="evenodd" fill="url(#SVGID_62_)" d="M217,491.6c0.3,0.3,0.4,0.7,0.4,1.1
							c0,0.5-0.1,0.8-0.4,1c-0.3,0.3-0.7,0.5-1,0.5s-0.7-0.2-1-0.5c-0.3-0.2-0.4-0.6-0.4-1c0-0.4,0.1-0.7,0.4-1.1
							c0.3-0.3,0.7-0.4,1-0.4S216.7,491.3,217,491.6z M215.1,491.8H215c-0.1,0-0.2,0.1-0.2,0.3c0,0.3,0.1,0.5,0.5,0.4v-0.1
							C215.4,492.2,215.3,492,215.1,491.8z M215.9,493c0.2,0.3,0.4,0.5,0.8,0.6c0.1-0.1,0.1-0.1,0-0.1c0-0.3-0.1-0.6-0.3-0.8
							c0.2-0.2,0.3-0.5,0.3-0.8c-0.2,0.1-0.5,0.2-0.7,0.2c-0.2-0.2-0.3-0.3-0.5-0.5c0,0.3,0,0.6,0.1,0.8c-0.3,0.2-0.5,0.4-0.6,0.7
							C215.3,493,215.6,493,215.9,493z"/>
						<path fill-rule="evenodd" clip-rule="evenodd" fill="#FFFFFF" d="M215.1,491.8c0.2,0.1,0.3,0.3,0.1,0.5v0.1
							c-0.3,0.1-0.5,0-0.5-0.4c0-0.1,0.1-0.2,0.2-0.3H215.1z"/>
						<path fill-rule="evenodd" clip-rule="evenodd" d="M215.9,493c-0.3,0-0.6,0-0.9,0c0.2-0.3,0.4-0.5,0.6-0.7
							c-0.1-0.2-0.1-0.4-0.1-0.8c0.2,0.2,0.4,0.3,0.5,0.5c0.2,0,0.4-0.1,0.7-0.2c0,0.3-0.1,0.5-0.3,0.8c0.2,0.2,0.3,0.5,0.3,0.8
							c0.1,0,0.1,0,0,0.1C216.3,493.4,216.1,493.2,215.9,493z"/>
					</g>
				</g>
			</g>
			<g>
				<g>
					<rect x="149.9" y="489.8" fill-rule="evenodd" clip-rule="evenodd" fill="#F0F7F7" width="41.6" height="11.9"/>
				</g>
				<g>
					<g>
						<linearGradient id="SVGID_63_" gradientUnits="userSpaceOnUse" x1="156.8999" y1="491.3379" x2="156.8999" y2="499.4629">
							<stop  offset="0" style="stop-color:#FFE960"/>
							<stop  offset="1" style="stop-color:#D2A902"/>
						</linearGradient>
						<polygon fill-rule="evenodd" clip-rule="evenodd" fill="url(#SVGID_63_)" points="156.9,491.2 162,498.9 151.8,498.9 						
							"/>
						
							<polygon fill-rule="evenodd" clip-rule="evenodd" fill="none" stroke="#BD9B17" stroke-linecap="round" stroke-linejoin="round" stroke-miterlimit="3" points="
							156.9,491.2 162,498.9 151.8,498.9 						"/>
					</g>
				</g>
				<g>
					<path fill-rule="evenodd" clip-rule="evenodd" d="M157,493.8c0.1,0.1,0.1,0.2,0.1,0.3c0,0.1-0.1,0.5-0.1,1.3
						c-0.1,0.5-0.1,0.8-0.1,0.8c0,0.1,0,0.1-0.1,0.1h-0.3c0,0,0-0.1,0-0.1c0,0,0-0.4-0.1-1.2c-0.1-0.5-0.1-0.8-0.1-0.9
						c0-0.1,0-0.2,0.1-0.3c0.1-0.1,0.2-0.2,0.4-0.2C156.8,493.7,156.9,493.7,157,493.8z M157.1,497c0,0.1-0.1,0.3-0.1,0.4
						c-0.1,0.1-0.2,0.1-0.3,0.1c-0.1,0-0.2,0-0.3-0.1c0-0.1-0.1-0.2-0.1-0.4c0-0.1,0-0.3,0.1-0.3c0.1-0.1,0.2-0.1,0.3-0.1
						s0.2,0,0.3,0.1C157,496.8,157.1,496.9,157.1,497z"/>
				</g>
			</g>
			<g>
				<g>
					<path fill-rule="evenodd" clip-rule="evenodd" d="M145.8,492.7c0-0.5,0.2-0.9,0.5-1.3c0.4-0.3,0.8-0.5,1.3-0.5
						c0.5,0,0.9,0.2,1.3,0.5c0.4,0.4,0.5,0.8,0.5,1.3s-0.2,0.9-0.5,1.3c-0.4,0.3-0.8,0.5-1.3,0.5c-0.5,0-0.9-0.2-1.3-0.5
						C146,493.6,145.8,493.2,145.8,492.7z"/>
				</g>
				<g>
					<g>
						<linearGradient id="SVGID_64_" gradientUnits="userSpaceOnUse" x1="146.2251" y1="492.6758" x2="149.1751" y2="492.6758">
							<stop  offset="0" style="stop-color:#B3B3B3"/>
							<stop  offset="1" style="stop-color:#848484"/>
						</linearGradient>
						<path fill-rule="evenodd" clip-rule="evenodd" fill="url(#SVGID_64_)" d="M146.3,492.7c0-0.4,0.1-0.7,0.4-1.1
							c0.3-0.3,0.7-0.4,1.1-0.4s0.7,0.1,1,0.4c0.3,0.3,0.4,0.7,0.4,1.1c0,0.5-0.1,0.8-0.4,1c-0.3,0.3-0.7,0.5-1,0.5
							s-0.7-0.2-1.1-0.5C146.4,493.5,146.3,493.1,146.3,492.7z M146.8,491.8L146.8,491.8c-0.2,0-0.3,0.1-0.3,0.3
							c0,0.3,0.1,0.5,0.5,0.4v-0.1C147.1,492.2,147,492,146.8,491.8z M148.5,493.5c0-0.3-0.2-0.6-0.4-0.8c0.2-0.2,0.4-0.5,0.4-0.8
							c-0.3,0.1-0.5,0.2-0.7,0.2c-0.1-0.2-0.3-0.3-0.5-0.5c0,0.3,0,0.6,0.1,0.8c-0.3,0.2-0.5,0.4-0.6,0.7c0.3,0,0.6,0,0.9,0
							C147.8,493.2,148,493.4,148.5,493.5C148.5,493.5,148.5,493.5,148.5,493.5z"/>
						<path fill-rule="evenodd" clip-rule="evenodd" fill="#FFFFFF" d="M146.8,491.8c0.2,0.1,0.3,0.3,0.2,0.5v0.1
							c-0.3,0.1-0.5,0-0.5-0.4C146.5,492,146.6,491.9,146.8,491.8L146.8,491.8z"/>
						<path fill-rule="evenodd" clip-rule="evenodd" d="M148.5,493.5C148.5,493.5,148.5,493.5,148.5,493.5c-0.4-0.1-0.7-0.3-0.9-0.5
							c-0.3,0-0.6,0-0.9,0c0.2-0.3,0.4-0.5,0.6-0.7c-0.1-0.2-0.1-0.4-0.1-0.8c0.2,0.2,0.4,0.3,0.5,0.5c0.2,0,0.4-0.1,0.7-0.2
							c0,0.3-0.1,0.5-0.4,0.8C148.3,492.9,148.4,493.2,148.5,493.5z"/>
					</g>
				</g>
			</g>
			<g>
				
					<radialGradient id="SVGID_65_" cx="220.7998" cy="549.75" r="41.475" gradientTransform="matrix(-4.371139e-008 1 -3.315250e-002 -1.449142e-009 239.0254 328.9502)" gradientUnits="userSpaceOnUse">
					<stop  offset="0" style="stop-color:#FFFFFF"/>
					<stop  offset="0.2235" style="stop-color:#FFFFFF"/>
					<stop  offset="0.4706" style="stop-color:#FFFFFF;stop-opacity:0.6"/>
					<stop  offset="0.7098" style="stop-color:#FFFFFF;stop-opacity:0.251"/>
					<stop  offset="1" style="stop-color:#FFFFFF;stop-opacity:0"/>
				</radialGradient>
				<path fill-rule="evenodd" clip-rule="evenodd" fill="url(#SVGID_65_)" d="M221.9,512.7c0.3,10.2,0.5,22.6,0.5,37.1
					c0,14.6-0.1,26.9-0.5,37c-0.3,10.5-0.8,15.7-1.3,15.7c-0.4,0-0.8-5.2-1.1-15.7c-0.3-10-0.5-22.4-0.5-37
					c0-14.5,0.2-26.9,0.5-37.1c0.3-10.2,0.7-15.3,1.1-15.3C221.1,497.3,221.6,502.5,221.9,512.7z"/>
			</g>
			<g>
				
					<radialGradient id="SVGID_66_" cx="198.8501" cy="485.1504" r="19.4125" gradientTransform="matrix(-1 0 0 -9.465551e-002 397.7002 531.0726)" gradientUnits="userSpaceOnUse">
					<stop  offset="0" style="stop-color:#FFFFFF"/>
					<stop  offset="0.2235" style="stop-color:#FFFFFF"/>
					<stop  offset="0.4706" style="stop-color:#FFFFFF;stop-opacity:0.6"/>
					<stop  offset="0.7098" style="stop-color:#FFFFFF;stop-opacity:0.251"/>
					<stop  offset="1" style="stop-color:#FFFFFF;stop-opacity:0"/>
				</radialGradient>
				<path fill-rule="evenodd" clip-rule="evenodd" fill="url(#SVGID_66_)" d="M198.9,482.8c6.8,0,12.6,0.2,17.4,0.7
					c4.8,0.4,7.2,0.9,7.2,1.5c0,0.6-2.4,1.2-7.2,1.6c-4.7,0.4-10.5,0.6-17.4,0.6c-6.8,0-12.6-0.2-17.3-0.6c-4.9-0.5-7.3-1-7.3-1.6
					c0-0.6,2.4-1.1,7.3-1.5C186.3,483,192,482.8,198.9,482.8z"/>
			</g>
			<g>
				<g>
					<path fill-rule="evenodd" clip-rule="evenodd" d="M216.4,559.2c0-0.5,0.2-0.9,0.5-1.3c0.4-0.3,0.8-0.5,1.3-0.5
						c0.5,0,0.9,0.2,1.2,0.5c0.4,0.4,0.5,0.8,0.5,1.3s-0.2,0.9-0.5,1.3c-0.3,0.3-0.7,0.5-1.2,0.5c-0.5,0-0.9-0.2-1.3-0.5
						C216.5,560.1,216.4,559.7,216.4,559.2z"/>
				</g>
				<g>
					<g>
						<linearGradient id="SVGID_67_" gradientUnits="userSpaceOnUse" x1="216.7749" y1="559.1758" x2="219.7249" y2="559.1758">
							<stop  offset="0" style="stop-color:#B3B3B3"/>
							<stop  offset="1" style="stop-color:#848484"/>
						</linearGradient>
						<path fill-rule="evenodd" clip-rule="evenodd" fill="url(#SVGID_67_)" d="M217.8,558.1c0,0.3,0,0.6,0.1,0.8
							c-0.3,0.2-0.5,0.4-0.6,0.7c0.3,0,0.6,0,0.9,0c0.2,0.2,0.4,0.5,0.8,0.6c0.1-0.1,0.1-0.1,0-0.1c0-0.3-0.1-0.6-0.3-0.8
							c0.2-0.2,0.3-0.5,0.3-0.8c-0.2,0.1-0.5,0.2-0.7,0.2C218.1,558.4,218,558.3,217.8,558.1z M219.3,558.1c0.3,0.3,0.4,0.7,0.4,1.1
							c0,0.4-0.1,0.8-0.4,1c-0.3,0.3-0.7,0.5-1,0.5s-0.7-0.2-1.1-0.5c-0.2-0.3-0.4-0.6-0.4-1c0-0.4,0.1-0.7,0.4-1.1
							c0.4-0.3,0.7-0.4,1.1-0.4S219,557.8,219.3,558.1z M217.3,558.3c-0.1,0-0.2,0.1-0.2,0.3c0,0.3,0.1,0.4,0.5,0.3v-0.1
							c0.1-0.2,0.1-0.4-0.1-0.5H217.3z"/>
						<path fill-rule="evenodd" clip-rule="evenodd" d="M217.8,558.1c0.2,0.2,0.4,0.3,0.5,0.5c0.2,0,0.4-0.1,0.7-0.2
							c0,0.3-0.1,0.5-0.3,0.8c0.2,0.2,0.3,0.5,0.3,0.8c0.1,0,0.1,0,0,0.1c-0.4-0.2-0.6-0.4-0.8-0.6c-0.3,0-0.6,0-0.9,0
							c0.2-0.3,0.4-0.5,0.6-0.7C217.8,558.7,217.8,558.4,217.8,558.1z"/>
						<path fill-rule="evenodd" clip-rule="evenodd" fill="#FFFFFF" d="M217.3,558.3h0.1c0.2,0.1,0.3,0.3,0.1,0.5v0.1
							c-0.3,0.1-0.5,0-0.5-0.3C217,558.5,217.1,558.4,217.3,558.3z"/>
					</g>
				</g>
			</g>
			<g>
				<g>
					<path fill-rule="evenodd" clip-rule="evenodd" d="M148.5,559.2c0-0.5,0.2-0.9,0.5-1.3c0.4-0.3,0.8-0.5,1.3-0.5
						c0.5,0,0.9,0.2,1.2,0.5c0.4,0.4,0.6,0.8,0.6,1.3s-0.2,0.9-0.6,1.3c-0.3,0.3-0.7,0.5-1.2,0.5c-0.5,0-0.9-0.2-1.3-0.5
						C148.7,560.1,148.5,559.7,148.5,559.2z"/>
				</g>
				<g>
					<g>
						<linearGradient id="SVGID_68_" gradientUnits="userSpaceOnUse" x1="148.9248" y1="559.1758" x2="151.8748" y2="559.1758">
							<stop  offset="0" style="stop-color:#B3B3B3"/>
							<stop  offset="1" style="stop-color:#848484"/>
						</linearGradient>
						<path fill-rule="evenodd" clip-rule="evenodd" fill="url(#SVGID_68_)" d="M150.4,557.7c0.4,0,0.7,0.1,1.1,0.4
							c0.3,0.3,0.4,0.7,0.4,1.1c0,0.4-0.1,0.8-0.4,1c-0.3,0.3-0.7,0.5-1.1,0.5s-0.7-0.2-1-0.5c-0.3-0.3-0.4-0.6-0.4-1
							c0-0.4,0.1-0.7,0.4-1.1C149.7,557.8,150,557.7,150.4,557.7z M149.5,558.3h-0.1c-0.1,0-0.2,0.1-0.2,0.3c0,0.3,0.1,0.4,0.4,0.3
							v-0.1C149.8,558.7,149.7,558.5,149.5,558.3z M149.4,559.5c0.3,0,0.6,0,0.9,0c0.2,0.2,0.5,0.5,0.9,0.6c0.1-0.1,0.1-0.1,0-0.1
							c-0.1-0.3-0.2-0.6-0.4-0.8c0.2-0.2,0.4-0.5,0.4-0.8c-0.3,0.1-0.5,0.2-0.7,0.2c-0.1-0.2-0.3-0.3-0.6-0.5c0,0.3,0.1,0.6,0.1,0.8
							C149.8,559,149.6,559.2,149.4,559.5z"/>
						<path fill-rule="evenodd" clip-rule="evenodd" fill="#FFFFFF" d="M149.5,558.3c0.2,0.1,0.3,0.3,0.1,0.5v0.1
							c-0.3,0.1-0.5,0-0.4-0.3c0-0.1,0.1-0.2,0.2-0.3H149.5z"/>
						<path fill-rule="evenodd" clip-rule="evenodd" d="M149.4,559.5c0.2-0.3,0.4-0.5,0.6-0.7c-0.1-0.2-0.1-0.4-0.1-0.8
							c0.2,0.2,0.4,0.3,0.6,0.5c0.2,0,0.4-0.1,0.7-0.2c0,0.3-0.1,0.5-0.4,0.8c0.2,0.2,0.3,0.5,0.4,0.8c0.1,0,0.1,0,0,0.1
							c-0.4-0.2-0.7-0.4-0.9-0.6C150,559.5,149.7,559.5,149.4,559.5z"/>
					</g>
				</g>
			</g>
			<g>
				<g>
					<path fill-rule="evenodd" clip-rule="evenodd" d="M217.7,635.5c0-0.5,0.2-0.9,0.5-1.3c0.4-0.3,0.8-0.5,1.3-0.5
						c0.5,0,0.9,0.2,1.3,0.5c0.4,0.4,0.5,0.8,0.5,1.3c0,0.5-0.2,0.9-0.5,1.3c-0.3,0.3-0.8,0.5-1.3,0.5c-0.5,0-0.9-0.2-1.3-0.5
						C217.9,636.4,217.7,636,217.7,635.5z"/>
				</g>
				<g>
					<g>
						<linearGradient id="SVGID_69_" gradientUnits="userSpaceOnUse" x1="218.125" y1="635.5498" x2="221.075" y2="635.5498">
							<stop  offset="0" style="stop-color:#B3B3B3"/>
							<stop  offset="1" style="stop-color:#848484"/>
						</linearGradient>
						<path fill-rule="evenodd" clip-rule="evenodd" fill="url(#SVGID_69_)" d="M219.6,635c-0.2-0.1-0.4-0.3-0.5-0.5
							c0,0.3,0,0.6,0.1,0.8c-0.3,0.1-0.5,0.3-0.6,0.6c0.3,0,0.6,0,0.9,0c0.2,0.3,0.5,0.5,0.8,0.7c0.1-0.1,0.1-0.2,0-0.2
							c0-0.3-0.1-0.6-0.3-0.8c0.2-0.2,0.3-0.4,0.3-0.7C220,634.9,219.8,634.9,219.6,635z M218.5,634.5c0.4-0.3,0.7-0.4,1.1-0.4
							s0.7,0.1,1,0.4c0.3,0.3,0.4,0.7,0.4,1c0,0.5-0.1,0.8-0.4,1.1c-0.3,0.3-0.7,0.5-1,0.5s-0.7-0.1-1.1-0.5
							c-0.2-0.3-0.4-0.6-0.4-1.1C218.1,635.1,218.3,634.8,218.5,634.5z M218.9,635.3L218.9,635.3c0.1-0.3,0.1-0.5-0.1-0.5h-0.1
							c-0.1,0-0.2,0.1-0.2,0.2C218.4,635.3,218.5,635.4,218.9,635.3z"/>
						<path fill-rule="evenodd" clip-rule="evenodd" d="M219.6,635c0.2,0,0.4-0.1,0.6-0.2c0,0.3-0.1,0.5-0.3,0.7
							c0.2,0.2,0.3,0.5,0.3,0.8c0.1,0,0.1,0.1,0,0.2c-0.4-0.2-0.6-0.4-0.8-0.7c-0.2,0-0.5,0-0.9,0c0.2-0.3,0.4-0.5,0.6-0.6
							c-0.1-0.2-0.1-0.5-0.1-0.8C219.3,634.7,219.5,634.8,219.6,635z"/>
						<path fill-rule="evenodd" clip-rule="evenodd" fill="#FFFFFF" d="M218.9,635.3c-0.3,0.1-0.5,0-0.5-0.3c0-0.1,0.1-0.2,0.2-0.2
							h0.1C218.9,634.8,219,635,218.9,635.3L218.9,635.3z"/>
					</g>
				</g>
			</g>
			<g>
				<g>
					<path fill-rule="evenodd" clip-rule="evenodd" d="M150.3,635.5c0-0.5,0.2-0.9,0.5-1.3c0.4-0.3,0.8-0.5,1.3-0.5
						c0.5,0,0.9,0.2,1.2,0.5c0.4,0.4,0.6,0.8,0.6,1.3c0,0.5-0.2,0.9-0.6,1.3c-0.3,0.3-0.7,0.5-1.2,0.5c-0.5,0-0.9-0.2-1.3-0.5
						C150.5,636.4,150.3,636,150.3,635.5z"/>
				</g>
				<g>
					<g>
						<linearGradient id="SVGID_70_" gradientUnits="userSpaceOnUse" x1="150.7251" y1="635.5498" x2="153.6751" y2="635.5498">
							<stop  offset="0" style="stop-color:#B3B3B3"/>
							<stop  offset="1" style="stop-color:#848484"/>
						</linearGradient>
						<path fill-rule="evenodd" clip-rule="evenodd" fill="url(#SVGID_70_)" d="M151.5,635.3c0.1-0.2,0.1-0.4-0.2-0.5h-0.1
							c-0.1,0-0.2,0.1-0.2,0.2C151,635.3,151.1,635.4,151.5,635.3L151.5,635.3z M151.1,634.5c0.3-0.3,0.7-0.4,1.1-0.4s0.7,0.1,1,0.4
							c0.3,0.3,0.4,0.7,0.4,1c0,0.5-0.1,0.8-0.4,1.1c-0.3,0.3-0.7,0.5-1,0.5s-0.7-0.1-1.1-0.5c-0.3-0.3-0.4-0.6-0.4-1.1
							C150.8,635.1,150.9,634.8,151.1,634.5z M151.7,634.5c0,0.3,0,0.6,0.1,0.8c-0.3,0.1-0.5,0.3-0.6,0.6c0.3,0,0.6,0,0.9,0
							c0.2,0.3,0.4,0.5,0.9,0.7c0.1-0.1,0.1-0.2,0-0.2c-0.1-0.3-0.2-0.6-0.4-0.8c0.2-0.2,0.4-0.4,0.4-0.7c-0.3,0.1-0.5,0.1-0.7,0.2
							C152.1,634.8,151.9,634.7,151.7,634.5z"/>
						<path fill-rule="evenodd" clip-rule="evenodd" fill="#FFFFFF" d="M151.5,635.3L151.5,635.3c-0.3,0.2-0.5,0-0.5-0.3
							c0-0.1,0.1-0.2,0.2-0.2h0.1C151.5,634.8,151.6,635,151.5,635.3z"/>
						<path fill-rule="evenodd" clip-rule="evenodd" d="M151.7,634.5c0.2,0.2,0.4,0.4,0.5,0.5c0.2,0,0.4-0.1,0.7-0.2
							c0,0.3-0.1,0.5-0.4,0.7c0.2,0.2,0.3,0.5,0.4,0.8c0.1,0,0.1,0.1,0,0.2c-0.4-0.2-0.7-0.4-0.9-0.7c-0.3,0-0.6,0-0.9,0
							c0.2-0.3,0.4-0.5,0.6-0.6C151.8,635,151.7,634.8,151.7,634.5z"/>
					</g>
				</g>
			</g>
			<g>
				<polygon fill-rule="evenodd" clip-rule="evenodd" fill="#8C878B" points="224.3,419.6 173.1,419.6 175.2,414.1 225.4,414.1 				
					"/>
			</g>
			<g>
				<g>
					
						<radialGradient id="SVGID_71_" cx="216.8999" cy="416.5" r="10.9125" gradientTransform="matrix(1 0 0 0.3631 0 265.2623)" gradientUnits="userSpaceOnUse">
						<stop  offset="0" style="stop-color:#6A6A6A"/>
						<stop  offset="0.1725" style="stop-color:#4F4F4F"/>
						<stop  offset="0.3765" style="stop-color:#232323"/>
						<stop  offset="0.5098" style="stop-color:#0F0F0F"/>
						<stop  offset="1" style="stop-color:#000000"/>
					</radialGradient>
					<path fill-rule="evenodd" clip-rule="evenodd" fill="url(#SVGID_71_)" d="M210.6,414.7c0,0.3,0.6,0.6,1.7,0.8
						c0.1,0.1,0.3,0.1,0.5,0.1c1,0.2,2.3,0.3,3.7,0.3c1.4,0,2.6-0.1,3.6-0.3c0.2,0,0.3,0,0.5-0.1c1.2-0.2,1.8-0.5,1.8-0.8
						c0.4,0.7,0.7,1.3,0.9,2v0.1c0,0.4-0.7,0.7-2,1c-1.3,0.3-2.9,0.4-4.7,0.4c-1.8,0-3.4-0.1-4.8-0.4c-1.3-0.3-2-0.6-2-1v0
						c0-0.1,0-0.1,0.1-0.1C209.8,415.9,210.1,415.3,210.6,414.7z"/>
					<path fill-rule="evenodd" clip-rule="evenodd" fill="#2F2F2F" d="M213.4,413.7c0.9-0.2,1.9-0.3,3-0.3h0.1
						c1.2,0,2.2,0.1,3.1,0.3c0.3,0,0.7,0.1,1,0.1c1.1,0.2,1.7,0.5,1.8,0.9c0,0.3-0.6,0.6-1.8,0.8c-0.2,0.1-0.3,0.1-0.5,0.1
						c-1,0.2-2.2,0.3-3.6,0.3c-1.4,0-2.6-0.1-3.7-0.3c-0.2,0-0.4,0-0.5-0.1c-1.1-0.2-1.7-0.5-1.7-0.8v-0.1c0.2-0.3,0.7-0.5,1.7-0.8
						C212.6,413.8,212.9,413.7,213.4,413.7v0.3c-0.4,0-0.7,0.1-0.9,0.2c-0.2,0.1-0.4,0.2-0.4,0.3c0,0.2,0.4,0.3,1.3,0.5
						c0.9,0.1,1.9,0.2,3,0.2c1.2,0,2.2-0.1,3-0.2c0.8-0.1,1.3-0.3,1.3-0.5c0-0.1-0.1-0.2-0.3-0.3c-0.2-0.1-0.5-0.2-1-0.2
						c-0.8-0.1-1.8-0.2-3-0.2c-1.2,0-2.2,0.1-3,0.2V413.7z"/>
					<linearGradient id="SVGID_72_" gradientUnits="userSpaceOnUse" x1="212.0874" y1="414.5" x2="220.6124" y2="414.5">
						<stop  offset="0" style="stop-color:#1C1C1C"/>
						<stop  offset="0.1255" style="stop-color:#606060"/>
						<stop  offset="0.3961" style="stop-color:#7B7B7B"/>
						<stop  offset="0.851" style="stop-color:#494949"/>
						<stop  offset="1" style="stop-color:#000000"/>
					</linearGradient>
					<path fill-rule="evenodd" clip-rule="evenodd" fill="url(#SVGID_72_)" d="M213.4,414c0.9-0.1,1.9-0.2,3-0.2
						c1.2,0,2.2,0.1,3,0.2c0.4,0,0.8,0.1,1,0.2c0.2,0.1,0.3,0.2,0.3,0.3c0,0.2-0.4,0.3-1.3,0.5c-0.8,0.1-1.8,0.2-3,0.2
						c-1.2,0-2.2-0.1-3-0.2c-0.8-0.1-1.3-0.3-1.3-0.5c0-0.1,0.1-0.2,0.4-0.3C212.6,414.2,213,414.1,213.4,414z"/>
					<polygon fill-rule="evenodd" clip-rule="evenodd" fill="#505050" points="213.3,413.7 213.4,413.7 213.4,414 					"/>
				</g>
			</g>
			<g>
				<g>
					<path fill-rule="evenodd" clip-rule="evenodd" fill="#2F2F2F" d="M189,414.7c0,0.3-0.6,0.6-1.8,0.8c-0.2,0.1-0.3,0.1-0.5,0.1
						c-1,0.2-2.2,0.3-3.6,0.3c-1.4,0-2.6-0.1-3.7-0.3c-0.2,0-0.4,0-0.5-0.1c-1.1-0.2-1.7-0.5-1.7-0.8v-0.1c0.2-0.3,0.7-0.5,1.7-0.8
						c0.3-0.1,0.6-0.1,1-0.1l0.1,0.3c-0.4,0-0.7,0.1-0.9,0.2c-0.2,0.1-0.4,0.2-0.4,0.3c0,0.2,0.4,0.3,1.3,0.5c0.9,0.1,1.9,0.2,3,0.2
						c1.2,0,2.2-0.1,3-0.2c0.8-0.1,1.3-0.3,1.3-0.5c0-0.1-0.1-0.2-0.3-0.3c-0.2-0.1-0.6-0.2-1-0.2c-0.8-0.1-1.8-0.2-3-0.2
						c-1.2,0-2.2,0.1-3,0.2v-0.3c0.9-0.2,1.9-0.3,3-0.3h0.1c1.2,0,2.2,0.1,3.1,0.3c0.3,0,0.7,0.1,1,0.1
						C188.4,414.1,189,414.4,189,414.7z"/>
					<linearGradient id="SVGID_73_" gradientUnits="userSpaceOnUse" x1="178.8374" y1="414.5" x2="187.3624" y2="414.5">
						<stop  offset="0" style="stop-color:#1C1C1C"/>
						<stop  offset="0.1255" style="stop-color:#606060"/>
						<stop  offset="0.3961" style="stop-color:#7B7B7B"/>
						<stop  offset="0.851" style="stop-color:#494949"/>
						<stop  offset="1" style="stop-color:#000000"/>
					</linearGradient>
					<path fill-rule="evenodd" clip-rule="evenodd" fill="url(#SVGID_73_)" d="M180.1,414c0.9-0.1,1.9-0.2,3-0.2
						c1.2,0,2.2,0.1,3,0.2c0.4,0,0.8,0.1,1,0.2c0.2,0.1,0.3,0.2,0.3,0.3c0,0.2-0.4,0.3-1.3,0.5c-0.8,0.1-1.8,0.2-3,0.2
						c-1.2,0-2.2-0.1-3-0.2c-0.8-0.1-1.3-0.3-1.3-0.5c0-0.1,0.1-0.2,0.4-0.3C179.4,414.2,179.7,414.1,180.1,414z"/>
					
						<radialGradient id="SVGID_74_" cx="183.6499" cy="416.5" r="10.9125" gradientTransform="matrix(1 0 0 0.3631 0 265.2623)" gradientUnits="userSpaceOnUse">
						<stop  offset="0" style="stop-color:#6A6A6A"/>
						<stop  offset="0.1725" style="stop-color:#4F4F4F"/>
						<stop  offset="0.3765" style="stop-color:#232323"/>
						<stop  offset="0.5098" style="stop-color:#0F0F0F"/>
						<stop  offset="1" style="stop-color:#000000"/>
					</radialGradient>
					<path fill-rule="evenodd" clip-rule="evenodd" fill="url(#SVGID_74_)" d="M189,414.7c0.4,0.7,0.7,1.3,0.9,2v0.1
						c0,0.4-0.7,0.7-2,1c-1.3,0.3-2.9,0.4-4.7,0.4c-1.8,0-3.4-0.1-4.7-0.4c-1.4-0.3-2-0.6-2-1v0c0-0.1,0-0.1,0.1-0.1
						c0-0.7,0.3-1.4,0.8-2c0,0.3,0.6,0.6,1.7,0.8c0.1,0.1,0.3,0.1,0.5,0.1c1,0.2,2.3,0.3,3.7,0.3c1.4,0,2.6-0.1,3.6-0.3
						c0.2,0,0.3,0,0.5-0.1C188.5,415.3,189,415,189,414.7z"/>
					<polygon fill-rule="evenodd" clip-rule="evenodd" fill="#505050" points="180,413.7 180.1,413.7 180.1,414 					"/>
				</g>
			</g>
			<g>
				<g>
					<path fill-rule="evenodd" clip-rule="evenodd" fill="#2F2F2F" d="M194.4,416.3c0,0.1-0.1,0.1-0.4,0.2c-0.1,0-0.1,0-0.1,0
						c-0.3,0.1-0.6,0.1-0.9,0.1c-0.3,0-0.6,0-0.9-0.1c-0.1,0-0.1,0-0.1,0c-0.3,0-0.4-0.1-0.4-0.2v-0.1c0.1-0.1,0.2-0.1,0.4-0.2
						c0.1,0,0.2,0,0.3,0c0.2,0,0.4,0,0.7,0h0c0.3,0,0.5,0,0.7,0c0.1,0,0.2,0,0.3,0C194.2,416.1,194.4,416.2,194.4,416.3z M192,416.2
						c0,0.1,0.1,0.1,0.3,0.1c0.2,0,0.4,0,0.7,0c0.3,0,0.5,0,0.8,0c0.2,0,0.3,0,0.3-0.1c0,0,0,0-0.1,0c0,0-0.1-0.1-0.2-0.1
						c-0.2,0-0.5,0-0.8,0c-0.3,0-0.5,0-0.7,0C192.2,416.1,192.1,416.1,192,416.2C192,416.2,192,416.2,192,416.2z"/>
					<linearGradient id="SVGID_75_" gradientUnits="userSpaceOnUse" x1="191.9502" y1="416.1992" x2="193.9502" y2="416.1992">
						<stop  offset="0" style="stop-color:#1C1C1C"/>
						<stop  offset="0.1255" style="stop-color:#606060"/>
						<stop  offset="0.3961" style="stop-color:#7B7B7B"/>
						<stop  offset="0.851" style="stop-color:#494949"/>
						<stop  offset="1" style="stop-color:#000000"/>
					</linearGradient>
					<path fill-rule="evenodd" clip-rule="evenodd" fill="url(#SVGID_75_)" d="M192,416.2C192,416.2,192,416.2,192,416.2
						c0.1-0.1,0.2-0.1,0.3-0.1c0.2,0,0.4,0,0.7,0c0.3,0,0.5,0,0.8,0c0.1,0,0.2,0,0.2,0.1c0.1,0,0.1,0,0.1,0c0,0.1-0.1,0.1-0.3,0.1
						c-0.2,0-0.5,0-0.8,0c-0.3,0-0.5,0-0.7,0C192.1,416.3,192,416.3,192,416.2z"/>
					
						<radialGradient id="SVGID_76_" cx="193.1001" cy="416.6504" r="2.5375" gradientTransform="matrix(1 0 0 0.3645 0 264.768)" gradientUnits="userSpaceOnUse">
						<stop  offset="0" style="stop-color:#6A6A6A"/>
						<stop  offset="0.1725" style="stop-color:#4F4F4F"/>
						<stop  offset="0.3765" style="stop-color:#232323"/>
						<stop  offset="0.5098" style="stop-color:#0F0F0F"/>
						<stop  offset="1" style="stop-color:#000000"/>
					</radialGradient>
					<path fill-rule="evenodd" clip-rule="evenodd" fill="url(#SVGID_76_)" d="M194.4,416.3c0.1,0.1,0.2,0.3,0.2,0.4
						c0,0.1-0.1,0.2-0.4,0.3c-0.3,0.1-0.7,0.1-1.1,0.1s-0.8,0-1.1-0.1c-0.3,0-0.4-0.1-0.4-0.3c0-0.2,0-0.3,0.1-0.5v0.1
						c0,0.1,0.1,0.1,0.4,0.2c0,0,0.1,0,0.1,0c0.2,0.1,0.5,0.1,0.9,0.1c0.3,0,0.6,0,0.9-0.1c0,0,0.1,0,0.1,0
						C194.2,416.4,194.4,416.4,194.4,416.3z"/>
				</g>
			</g>
			<g>
				<g>
					<path fill-rule="evenodd" clip-rule="evenodd" fill="#2F2F2F" d="M198.9,416.3c0,0.1-0.1,0.1-0.4,0.2c-0.1,0-0.1,0-0.1,0
						c-0.3,0.1-0.5,0.1-0.9,0.1c-0.3,0-0.6,0-0.9-0.1c0,0-0.1,0-0.1,0c-0.3,0-0.4-0.1-0.4-0.2v-0.1c0-0.1,0.2-0.1,0.4-0.2
						c0.1,0,0.2,0,0.3,0c0.2,0,0.4,0,0.6,0h0c0.3,0,0.5,0,0.7,0c0.1,0,0.2,0,0.3,0C198.8,416.1,198.9,416.2,198.9,416.3z
						 M196.6,416.2C196.6,416.2,196.5,416.2,196.6,416.2c-0.1,0.1,0,0.1,0.3,0.1c0.2,0,0.4,0,0.6,0c0.3,0,0.5,0,0.8,0
						c0.2,0,0.3,0,0.3-0.1c0,0,0,0-0.1,0c0,0-0.1-0.1-0.2-0.1c-0.2,0-0.5,0-0.8,0c-0.3,0-0.5,0-0.6,0
						C196.7,416.1,196.6,416.1,196.6,416.2z"/>
					
						<radialGradient id="SVGID_77_" cx="197.6499" cy="416.6504" r="2.5375" gradientTransform="matrix(1 0 0 0.3645 0 264.768)" gradientUnits="userSpaceOnUse">
						<stop  offset="0" style="stop-color:#6A6A6A"/>
						<stop  offset="0.1725" style="stop-color:#4F4F4F"/>
						<stop  offset="0.3765" style="stop-color:#232323"/>
						<stop  offset="0.5098" style="stop-color:#0F0F0F"/>
						<stop  offset="1" style="stop-color:#000000"/>
					</radialGradient>
					<path fill-rule="evenodd" clip-rule="evenodd" fill="url(#SVGID_77_)" d="M196.1,416.2L196.1,416.2c0,0.2,0.1,0.2,0.4,0.3
						c0,0,0.1,0,0.1,0c0.3,0.1,0.6,0.1,0.9,0.1c0.3,0,0.6,0,0.9-0.1c0,0,0.1,0,0.1,0c0.2,0,0.4-0.1,0.4-0.2c0.1,0.1,0.2,0.3,0.2,0.4
						c0,0.1-0.1,0.2-0.5,0.3c-0.3,0.1-0.7,0.1-1.1,0.1c-0.4,0-0.8,0-1.1-0.1c-0.3,0-0.5-0.1-0.5-0.3
						C196,416.5,196,416.4,196.1,416.2z"/>
					<linearGradient id="SVGID_78_" gradientUnits="userSpaceOnUse" x1="196.5" y1="416.1992" x2="198.5" y2="416.1992">
						<stop  offset="0" style="stop-color:#1C1C1C"/>
						<stop  offset="0.1255" style="stop-color:#606060"/>
						<stop  offset="0.3961" style="stop-color:#7B7B7B"/>
						<stop  offset="0.851" style="stop-color:#494949"/>
						<stop  offset="1" style="stop-color:#000000"/>
					</linearGradient>
					<path fill-rule="evenodd" clip-rule="evenodd" fill="url(#SVGID_78_)" d="M196.6,416.2c0,0,0.1-0.1,0.3-0.1c0.2,0,0.4,0,0.6,0
						c0.3,0,0.5,0,0.8,0c0.1,0,0.2,0,0.2,0.1c0.1,0,0.1,0,0.1,0c0,0.1-0.1,0.1-0.3,0.1c-0.2,0-0.5,0-0.8,0c-0.3,0-0.5,0-0.6,0
						C196.6,416.3,196.5,416.3,196.6,416.2C196.5,416.2,196.6,416.2,196.6,416.2z"/>
				</g>
			</g>
			<g>
				<g>
					<path fill-rule="evenodd" clip-rule="evenodd" fill="#2F2F2F" d="M203.5,416.3c0,0.1-0.1,0.1-0.4,0.2c-0.1,0-0.1,0-0.1,0
						c-0.3,0.1-0.6,0.1-0.9,0.1c-0.3,0-0.6,0-0.9-0.1c0,0-0.1,0-0.1,0c-0.3,0-0.4-0.1-0.4-0.2v-0.1c0-0.1,0.2-0.1,0.4-0.2
						c0.1,0,0.2,0,0.3,0c0.2,0,0.4,0,0.6,0h0.1c0.3,0,0.5,0,0.7,0c0.1,0,0.2,0,0.3,0C203.3,416.1,203.5,416.2,203.5,416.3z
						 M203.1,416.2c0,0,0,0-0.1,0c0,0-0.1-0.1-0.2-0.1c-0.2,0-0.4,0-0.8,0c-0.3,0-0.5,0-0.6,0c-0.1,0-0.2,0-0.3,0.1c0,0,0,0,0,0
						c0,0.1,0.1,0.1,0.3,0.1c0.2,0,0.4,0,0.6,0c0.3,0,0.6,0,0.8,0C203,416.3,203.1,416.3,203.1,416.2z"/>
					
						<radialGradient id="SVGID_79_" cx="202.2002" cy="416.6504" r="2.5375" gradientTransform="matrix(1 0 0 0.3645 0 264.768)" gradientUnits="userSpaceOnUse">
						<stop  offset="0" style="stop-color:#6A6A6A"/>
						<stop  offset="0.1725" style="stop-color:#4F4F4F"/>
						<stop  offset="0.3765" style="stop-color:#232323"/>
						<stop  offset="0.5098" style="stop-color:#0F0F0F"/>
						<stop  offset="1" style="stop-color:#000000"/>
					</radialGradient>
					<path fill-rule="evenodd" clip-rule="evenodd" fill="url(#SVGID_79_)" d="M203.5,416.3c0.1,0.1,0.2,0.3,0.2,0.4
						c0,0.1-0.1,0.2-0.4,0.3c-0.3,0.1-0.7,0.1-1.1,0.1c-0.4,0-0.8,0-1.1-0.1c-0.3,0-0.5-0.1-0.5-0.3c0-0.2,0.1-0.3,0.2-0.5v0.1
						c0,0.1,0.1,0.1,0.4,0.2c0,0,0.1,0,0.1,0c0.3,0.1,0.6,0.1,0.9,0.1c0.3,0,0.6,0,0.9-0.1c0,0,0.1,0,0.1,0
						C203.3,416.4,203.5,416.4,203.5,416.3z"/>
					<linearGradient id="SVGID_80_" gradientUnits="userSpaceOnUse" x1="201.0498" y1="416.1992" x2="203.0498" y2="416.1992">
						<stop  offset="0" style="stop-color:#1C1C1C"/>
						<stop  offset="0.1255" style="stop-color:#606060"/>
						<stop  offset="0.3961" style="stop-color:#7B7B7B"/>
						<stop  offset="0.851" style="stop-color:#494949"/>
						<stop  offset="1" style="stop-color:#000000"/>
					</linearGradient>
					<path fill-rule="evenodd" clip-rule="evenodd" fill="url(#SVGID_80_)" d="M203.1,416.2c0,0.1-0.1,0.1-0.3,0.1
						c-0.2,0-0.4,0-0.8,0c-0.3,0-0.5,0-0.6,0c-0.2,0-0.3,0-0.3-0.1c0,0,0,0,0,0c0,0,0.1-0.1,0.3-0.1c0.2,0,0.4,0,0.6,0
						c0.3,0,0.6,0,0.8,0c0.1,0,0.2,0,0.2,0.1C203.1,416.2,203.1,416.2,203.1,416.2z"/>
				</g>
			</g>
			<g>
				<g>
					<path fill-rule="evenodd" clip-rule="evenodd" fill="#2F2F2F" d="M207.4,416.1c-0.2,0-0.5,0-0.8,0c-0.3,0-0.5,0-0.6,0
						c-0.1,0-0.2,0-0.3,0.1c0,0-0.1,0-0.1,0c0,0.1,0.1,0.1,0.3,0.1c0.2,0,0.4,0,0.6,0c0.3,0,0.5,0,0.8,0c0.2,0,0.3,0,0.3-0.1
						c0,0,0,0-0.1,0C207.5,416.1,207.5,416.1,207.4,416.1z M208,416.3c0,0.1-0.1,0.1-0.4,0.2c-0.1,0-0.1,0-0.1,0
						c-0.3,0.1-0.5,0.1-0.9,0.1c-0.3,0-0.6,0-0.9-0.1c0,0-0.1,0-0.1,0c-0.3,0-0.4-0.1-0.4-0.2v-0.1c0-0.1,0.2-0.1,0.4-0.2
						c0.1,0,0.2,0,0.3,0c0.2,0,0.4,0,0.6,0h0c0.3,0,0.5,0,0.7,0c0.1,0,0.2,0,0.3,0C207.9,416.1,208,416.2,208,416.3z"/>
					<linearGradient id="SVGID_81_" gradientUnits="userSpaceOnUse" x1="205.6001" y1="416.1992" x2="207.6001" y2="416.1992">
						<stop  offset="0" style="stop-color:#1C1C1C"/>
						<stop  offset="0.1255" style="stop-color:#606060"/>
						<stop  offset="0.3961" style="stop-color:#7B7B7B"/>
						<stop  offset="0.851" style="stop-color:#494949"/>
						<stop  offset="1" style="stop-color:#000000"/>
					</linearGradient>
					<path fill-rule="evenodd" clip-rule="evenodd" fill="url(#SVGID_81_)" d="M207.4,416.1c0.1,0,0.2,0,0.2,0.1c0.1,0,0.1,0,0.1,0
						c0,0.1-0.1,0.1-0.3,0.1c-0.2,0-0.5,0-0.8,0c-0.3,0-0.5,0-0.6,0c-0.2,0-0.3,0-0.3-0.1c0,0,0,0,0.1,0c0,0,0.1-0.1,0.3-0.1
						c0.2,0,0.4,0,0.6,0C206.9,416,207.1,416.1,207.4,416.1z"/>
					
						<radialGradient id="SVGID_82_" cx="206.75" cy="416.6504" r="2.5375" gradientTransform="matrix(1 0 0 0.3645 0 264.768)" gradientUnits="userSpaceOnUse">
						<stop  offset="0" style="stop-color:#6A6A6A"/>
						<stop  offset="0.1725" style="stop-color:#4F4F4F"/>
						<stop  offset="0.3765" style="stop-color:#232323"/>
						<stop  offset="0.5098" style="stop-color:#0F0F0F"/>
						<stop  offset="1" style="stop-color:#000000"/>
					</radialGradient>
					<path fill-rule="evenodd" clip-rule="evenodd" fill="url(#SVGID_82_)" d="M208,416.3c0.1,0.1,0.2,0.3,0.2,0.4
						c0,0.1-0.2,0.2-0.5,0.3c-0.3,0.1-0.7,0.1-1.1,0.1c-0.4,0-0.8,0-1.1-0.1c-0.3,0-0.4-0.1-0.4-0.3c0-0.2,0-0.3,0.1-0.5v0.1
						c0,0.1,0.1,0.1,0.4,0.2c0,0,0.1,0,0.1,0c0.3,0.1,0.6,0.1,0.9,0.1c0.3,0,0.6,0,0.9-0.1c0,0,0.1,0,0.1,0
						C207.9,416.4,208,416.4,208,416.3z"/>
				</g>
			</g>
		</g>
	</g>
</g>
</svg>
