<?xml version="1.0" encoding="utf-8"?>
<!-- Generator: Adobe Illustrator 16.0.0, SVG Export Plug-In . SVG Version: 6.00 Build 0)  -->
<!DOCTYPE svg PUBLIC "-//W3C//DTD SVG 1.1//EN" "http://www.w3.org/Graphics/SVG/1.1/DTD/svg11.dtd">
<svg version="1.1" xmlns="http://www.w3.org/2000/svg" xmlns:xlink="http://www.w3.org/1999/xlink" x="0px" y="0px" width="700px"
	 height="700px" viewBox="0 0 700 700" enable-background="new 0 0 700 700" xml:space="preserve">
<g id="Layer_1">
	<g>
		<g>
			
				<path fill-rule="evenodd" clip-rule="evenodd" fill="none" stroke="#CCCCCC" stroke-width="7.45" stroke-linecap="round" stroke-linejoin="round" stroke-miterlimit="3" stroke-opacity="0.5765" d="
				M290.1,564.6c-2.9,0.2-5.9,0.4-8.8,0.6c-3.7,0.1-7.5-0.1-11.2-0.6c-4.1-0.5-8-1.6-11.7-3.3c-3.1-1.5-5.6-3.6-7.5-6.3
				c-0.9-1.3-1.7-2.7-2.4-4.2c-0.6-1.5-1.1-3.1-1.4-4.8c-0.3-1.8-0.5-3.7-0.5-5.5c0-3.3,0.4-6.5,1.2-9.7c0.6-2.5,1.3-5,2.1-7.5
				c0.9-2.8,2-5.5,3.1-8.1c1.2-3.1,2.6-6,4-9c1.6-3.2,3.3-6.4,5-9.5c1.9-3.5,3.9-7,5.9-10.4c1.2-2,2.5-4.1,3.8-6.1
				c2.1-3.5,3.6-7.2,4.6-11c0.9-3.8,0.7-7.5-0.6-11.2c-0.5-1.3-1.2-2.5-2-3.6c-0.8-1.2-1.8-2.2-3-3.2c-1.2-1-2.6-1.9-4-2.7
				c-1.6-1-3.3-1.8-5-2.5c-3.1-1.2-6.3-2.1-9.6-2.8c-4-0.8-7.9-1.3-11.9-1.6c-3.1-0.2-6.3-0.3-9.4-0.5c-3.4,0-6.9,0-10.4,0
				c-1.2,0-2.5,0-3.8,0.1"/>
		</g>
		<g>
			<radialGradient id="SVGID_1_" cx="227.4502" cy="438.4502" r="9.025" gradientUnits="userSpaceOnUse">
				<stop  offset="0" style="stop-color:#FFFFFF"/>
				<stop  offset="1" style="stop-color:#F9F9F9;stop-opacity:0"/>
			</radialGradient>
			<path fill-rule="evenodd" clip-rule="evenodd" fill="url(#SVGID_1_)" d="M218.5,436.9C218.5,436.9,218.6,436.9,218.5,436.9
				l21.3,1.3c0,0,0.1,0,0.1,0c0,0,0.1,0,0.1,0c0,0.1-0.1,0.1-0.1,0.2c0,0-0.1,0-0.1,0l-21.2-1.2c0-0.1-0.1-0.1-0.1-0.1
				c-0.1,0-0.1-0.1,0-0.1C218.5,437,218.5,437,218.5,436.9z"/>
		</g>
		<g>
			<g>
				<radialGradient id="SVGID_2_" cx="275.0498" cy="454.1504" r="16.15" gradientUnits="userSpaceOnUse">
					<stop  offset="0" style="stop-color:#FFFFFF"/>
					<stop  offset="1" style="stop-color:#FFFFFF;stop-opacity:0"/>
				</radialGradient>
				<path fill-rule="evenodd" clip-rule="evenodd" fill="url(#SVGID_2_)" d="M264.4,444c0.2-0.1,0.3-0.1,0.5,0
					c12.2,5.8,16.5,16.1,13,31c0,0.1-0.1,0.3-0.3,0.3c-0.2,0.1-0.3,0.2-0.5,0.2c-0.2,0-0.4-0.1-0.5-0.3c-0.1-0.2-0.2-0.4-0.1-0.6
					c3.3-14.1-0.8-23.8-12.1-29.3c-0.2-0.1-0.4-0.2-0.4-0.4c-0.1-0.2-0.1-0.4,0-0.5C264,444.1,264.2,444,264.4,444z"/>
				
					<radialGradient id="SVGID_3_" cx="280.75" cy="548.6504" r="20.5875" gradientTransform="matrix(1 0 0 0.6721 0 179.8854)" gradientUnits="userSpaceOnUse">
					<stop  offset="0" style="stop-color:#FFFFFF"/>
					<stop  offset="1" style="stop-color:#F9F9F9;stop-opacity:0"/>
				</radialGradient>
				<path fill-rule="evenodd" clip-rule="evenodd" fill="url(#SVGID_3_)" d="M300.8,535.6c0-0.2,0.1-0.3,0.2-0.4
					c0.1-0.1,0.3-0.2,0.4-0.2c0.1,0,0.3,0.1,0.4,0.2c0.1,0.1,0.2,0.3,0.2,0.4c0.2,10.2-3.2,18.4-10.2,24.5c0,0,0,0,0,0.1
					c-0.6,0.3-1.1,0.6-1.5,0.8c-1.7,1-3.3,1.6-4.9,2c-0.2,0-0.3,0-0.4-0.1c-0.2-0.1-0.3-0.2-0.3-0.4c0-0.2,0-0.3,0.2-0.4
					c0.1-0.2,0.2-0.3,0.3-0.3c1.5-0.3,3-0.9,4.6-1.7v0c0.4-0.3,0.9-0.6,1.4-0.9C297.7,553.2,300.9,545.4,300.8,535.6z"/>
				<radialGradient id="SVGID_4_" cx="256.7998" cy="562.4502" r="19.75" gradientUnits="userSpaceOnUse">
					<stop  offset="0" style="stop-color:#FFFFFF"/>
					<stop  offset="1" style="stop-color:#FFFFFF;stop-opacity:0"/>
				</radialGradient>
				<path fill-rule="evenodd" clip-rule="evenodd" fill="url(#SVGID_4_)" d="M246.5,540.8c-0.1-0.2,0-0.4,0.1-0.5
					c0.1-0.2,0.3-0.3,0.5-0.3c0.2-0.1,0.4-0.1,0.5,0c0.2,0.1,0.3,0.3,0.4,0.5c3.6,17.1,15.6,24.6,36.3,22.5c0.2,0,0.4,0,0.6,0.2
					c0.1,0.1,0.2,0.3,0.3,0.5c0,0.2,0,0.3-0.1,0.5c-0.2,0.1-0.3,0.2-0.5,0.3C262.8,566.7,250.2,558.8,246.5,540.8z"/>
			</g>
		</g>
		<g>
			
				<radialGradient id="SVGID_5_" cx="255.2964" cy="442.2002" r="3.1055" gradientTransform="matrix(0.2578 -0.9662 4.5253 1.2073 -1811.615 155.0044)" gradientUnits="userSpaceOnUse">
				<stop  offset="0" style="stop-color:#FEFEFE"/>
				<stop  offset="0.2078" style="stop-color:#FEFEFE"/>
				<stop  offset="0.4902" style="stop-color:#FFFFFF;stop-opacity:0.3137"/>
				<stop  offset="0.6784" style="stop-color:#FFFFFF;stop-opacity:8.235294e-002"/>
				<stop  offset="0.8392" style="stop-color:#FCFCFC;stop-opacity:0"/>
				<stop  offset="1" style="stop-color:#FBFBFB;stop-opacity:0"/>
			</radialGradient>
			<path fill-rule="evenodd" clip-rule="evenodd" fill="url(#SVGID_5_)" d="M244.8,441.7c-2.6-1.4-3.8-2.5-3.5-3.3
				c0.2-0.8,1.8-1.1,4.6-1c2.9,0.1,6.3,0.7,10.3,1.7c3.9,1,7.1,2.2,9.8,3.6c2.6,1.3,3.8,2.3,3.5,3.2c-0.2,0.8-1.8,1.2-4.7,1
				c-2.9-0.2-6.3-0.8-10.2-1.8C250.6,444.2,247.3,443,244.8,441.7z"/>
		</g>
		<g>
			
				<radialGradient id="SVGID_6_" cx="288.6504" cy="562.75" r="3.075" gradientTransform="matrix(-1.169385e-002 -0.9999 2.1787 -2.547899e-002 -934.0305 865.719)" gradientUnits="userSpaceOnUse">
				<stop  offset="0" style="stop-color:#FEFEFE"/>
				<stop  offset="0.2078" style="stop-color:#FEFEFE"/>
				<stop  offset="0.4902" style="stop-color:#FFFFFF;stop-opacity:0.3137"/>
				<stop  offset="0.6784" style="stop-color:#FFFFFF;stop-opacity:8.235294e-002"/>
				<stop  offset="0.8392" style="stop-color:#FCFCFC;stop-opacity:0"/>
				<stop  offset="1" style="stop-color:#FBFBFB;stop-opacity:0"/>
			</radialGradient>
			<path fill-rule="evenodd" clip-rule="evenodd" fill="url(#SVGID_6_)" d="M288.5,559.7c1.9,0,3.5,0.3,4.8,0.9c1.3,0.6,2,1.3,2,2.2
				c0,0.8-0.7,1.6-2,2.2c-1.2,0.6-2.8,0.9-4.7,0.9c-1.9,0-3.5-0.3-4.8-0.8c-1.3-0.6-1.9-1.4-1.9-2.3c0-0.8,0.6-1.5,1.9-2.1
				C285.1,560,286.6,559.7,288.5,559.7z"/>
		</g>
		<g>
			
				<radialGradient id="SVGID_7_" cx="464.2285" cy="308.2813" r="3.082" gradientTransform="matrix(0.867 0.4983 -4.7644 8.9049 1323.2797 -2473.2732)" gradientUnits="userSpaceOnUse">
				<stop  offset="0" style="stop-color:#FEFEFE"/>
				<stop  offset="0.2078" style="stop-color:#FEFEFE"/>
				<stop  offset="0.4902" style="stop-color:#FFFFFF;stop-opacity:0.3137"/>
				<stop  offset="0.6784" style="stop-color:#FFFFFF;stop-opacity:8.235294e-002"/>
				<stop  offset="0.8392" style="stop-color:#FCFCFC;stop-opacity:0"/>
				<stop  offset="1" style="stop-color:#FBFBFB;stop-opacity:0"/>
			</radialGradient>
			<path fill-rule="evenodd" clip-rule="evenodd" fill="url(#SVGID_7_)" d="M271.8,475.7c0.7,0.4-0.1,3.5-2.5,9.1
				c-2.3,5.7-5.5,12.3-9.6,20c-4.1,7.6-7.9,14-11.3,19c-3.4,5.1-5.5,7.4-6.3,7c-0.7-0.4,0.1-3.4,2.5-9.1c2.3-5.7,5.5-12.3,9.6-20
				c4.1-7.6,7.9-14,11.3-19C269,477.6,271,475.3,271.8,475.7z"/>
		</g>
	</g>
	<g>
		<g>
			<polygon fill-rule="evenodd" clip-rule="evenodd" fill-opacity="0.3451" points="279,614.2 287.4,592.2 453.3,592.2 453.3,614.7 
							"/>
		</g>
		<g>
			<g>
				<linearGradient id="SVGID_8_" gradientUnits="userSpaceOnUse" x1="247.5498" y1="470.2002" x2="560.5498" y2="470.2002">
					<stop  offset="0" style="stop-color:#9E9594"/>
					<stop  offset="1" style="stop-color:#D4D3CF"/>
				</linearGradient>
				<polygon fill-rule="evenodd" clip-rule="evenodd" fill="url(#SVGID_8_)" points="446.4,476.7 284.4,476.7 288.6,463.7 
					439.7,463.7 				"/>
				<linearGradient id="SVGID_9_" gradientUnits="userSpaceOnUse" x1="365.3906" y1="627.8379" x2="365.3632" y2="469.3629">
					<stop  offset="0" style="stop-color:#B1B0AF"/>
					<stop  offset="1" style="stop-color:#F2F2F2"/>
				</linearGradient>
				<path fill-rule="evenodd" clip-rule="evenodd" fill="url(#SVGID_9_)" d="M284.4,476.7h162.1v14.1V606c-0.2,2.3-1.4,3.5-3.8,3.5
					H288.1c-2.4,0-3.6-1.2-3.8-3.5V490.8V476.7z"/>
			</g>
		</g>
		<g>
			<linearGradient id="SVGID_10_" gradientUnits="userSpaceOnUse" x1="365.375" y1="603.625" x2="365.375" y2="612.175">
				<stop  offset="0" style="stop-color:#7A7573"/>
				<stop  offset="4.705882e-002" style="stop-color:#C7C2C0"/>
				<stop  offset="0.1725" style="stop-color:#918885"/>
				<stop  offset="0.549" style="stop-color:#C8C2C0"/>
				<stop  offset="1" style="stop-color:#766B67"/>
			</linearGradient>
			<polygon fill-rule="evenodd" clip-rule="evenodd" fill="url(#SVGID_10_)" points="284.4,603.7 446.4,603.7 446.4,612.1 
				284.4,612.1 			"/>
		</g>
		<g>
			<linearGradient id="SVGID_11_" gradientUnits="userSpaceOnUse" x1="365.4502" y1="477.4746" x2="365.4502" y2="486.0246">
				<stop  offset="0" style="stop-color:#393635"/>
				<stop  offset="0.851" style="stop-color:#3A3736;stop-opacity:0.4235"/>
				<stop  offset="1" style="stop-color:#6D6969;stop-opacity:0"/>
			</linearGradient>
			<path fill-rule="evenodd" clip-rule="evenodd" fill="url(#SVGID_11_)" d="M284.4,478.3c0,0.1,0,0.1,0.1,0.1h162.1v7.5H284.4
				V478.3z"/>
		</g>
		<g>
			<linearGradient id="SVGID_12_" gradientUnits="userSpaceOnUse" x1="365.4502" y1="476.9746" x2="365.4502" y2="485.5246">
				<stop  offset="0" style="stop-color:#393635"/>
				<stop  offset="2.352941e-002" style="stop-color:#686464"/>
				<stop  offset="0.1098" style="stop-color:#CBC5C5"/>
				<stop  offset="1" style="stop-color:#C5BFBE"/>
			</linearGradient>
			<path fill-rule="evenodd" clip-rule="evenodd" fill="url(#SVGID_12_)" d="M284.4,476.9c0,0,0,0,0.1,0h162.1v7.5H284.4V476.9z"/>
		</g>
		<g>
			<g>
				<path fill-rule="evenodd" clip-rule="evenodd" d="M298.6,479.3c0.4,0,0.8,0.2,1.2,0.5c0.3,0.3,0.4,0.7,0.4,1.2
					c0,0.4-0.1,0.8-0.4,1.1c-0.4,0.4-0.8,0.5-1.2,0.5c-0.4,0-0.8-0.2-1.1-0.5c-0.3-0.3-0.5-0.7-0.5-1.1c0-0.5,0.2-0.9,0.5-1.2
					S298.2,479.3,298.6,479.3z"/>
			</g>
			<g>
				<g>
					<linearGradient id="SVGID_13_" gradientUnits="userSpaceOnUse" x1="297.3125" y1="481.0508" x2="299.9875" y2="481.0508">
						<stop  offset="0" style="stop-color:#B3B3B3"/>
						<stop  offset="1" style="stop-color:#848484"/>
					</linearGradient>
					<path fill-rule="evenodd" clip-rule="evenodd" fill="url(#SVGID_13_)" d="M298.3,480c0,0.3,0,0.5,0.1,0.7
						c-0.2,0.1-0.4,0.3-0.6,0.5c0.3,0,0.6,0,0.8,0c0.2,0.2,0.5,0.4,0.8,0.6c0.1-0.1,0.1-0.2,0-0.2c0-0.3-0.1-0.5-0.3-0.7
						c0.2-0.2,0.3-0.5,0.3-0.8c-0.3,0.1-0.5,0.2-0.6,0.2C298.5,480.4,298.4,480.2,298.3,480z M298,480.8c0.1-0.2,0.1-0.3-0.1-0.5
						h-0.1c-0.1,0-0.1,0.1-0.1,0.2C297.5,480.8,297.7,480.9,298,480.8L298,480.8z M298.6,479.7c0.3,0,0.7,0.1,1,0.3
						c0.2,0.3,0.4,0.6,0.4,1c0,0.4-0.1,0.7-0.4,0.9c-0.3,0.3-0.7,0.5-1,0.5c-0.3,0-0.6-0.2-0.9-0.5c-0.3-0.2-0.4-0.5-0.4-0.9
						c0-0.4,0.1-0.7,0.4-1C298,479.8,298.4,479.7,298.6,479.7z"/>
					<path fill-rule="evenodd" clip-rule="evenodd" d="M298.3,480c0.1,0.2,0.3,0.3,0.5,0.5c0.2,0,0.4-0.1,0.6-0.2
						c0,0.3-0.1,0.5-0.3,0.8c0.2,0.2,0.3,0.4,0.3,0.7c0.1,0,0.1,0,0,0.2c-0.3-0.2-0.6-0.4-0.8-0.6c-0.2,0-0.5,0-0.8,0
						c0.2-0.3,0.4-0.5,0.6-0.5C298.3,480.6,298.3,480.3,298.3,480z"/>
					<path fill-rule="evenodd" clip-rule="evenodd" fill="#FFFFFF" d="M298,480.8L298,480.8c-0.3,0.1-0.5,0-0.4-0.3
						c0-0.1,0-0.2,0.1-0.2h0.1C298.1,480.4,298.1,480.6,298,480.8z"/>
				</g>
			</g>
		</g>
		<g>
			<g>
				<path fill-rule="evenodd" clip-rule="evenodd" fill="#FFFFFF" d="M435.9,480.1c0.4,0,0.8,0.2,1.1,0.5c0.3,0.4,0.5,0.8,0.5,1.2
					c0,0.5-0.2,0.9-0.5,1.2c-0.3,0.3-0.7,0.4-1.1,0.4c-0.4,0-0.8-0.1-1.2-0.4c-0.3-0.3-0.5-0.7-0.5-1.2c0-0.4,0.2-0.8,0.5-1.2
					C435.1,480.3,435.5,480.1,435.9,480.1z"/>
			</g>
			<g>
				<path fill-rule="evenodd" clip-rule="evenodd" d="M435.5,480.1c0.5,0,0.9,0.2,1.3,0.5c0.3,0.3,0.5,0.7,0.5,1.2
					c0,0.5-0.2,0.9-0.5,1.2c-0.4,0.3-0.8,0.5-1.3,0.5c-0.4,0-0.8-0.2-1.2-0.5c-0.3-0.3-0.5-0.7-0.5-1.2c0-0.4,0.2-0.8,0.5-1.2
					C434.7,480.3,435.1,480.1,435.5,480.1z"/>
			</g>
			<g>
				<g>
					<linearGradient id="SVGID_14_" gradientUnits="userSpaceOnUse" x1="434.1621" y1="481.7246" x2="436.8371" y2="481.7246">
						<stop  offset="0" style="stop-color:#B3B3B3"/>
						<stop  offset="1" style="stop-color:#848484"/>
					</linearGradient>
					<path fill-rule="evenodd" clip-rule="evenodd" fill="url(#SVGID_14_)" d="M436.9,481.7c0,0.4-0.1,0.7-0.4,1
						c-0.3,0.3-0.7,0.4-1,0.4c-0.3,0-0.6-0.1-0.8-0.4s-0.4-0.6-0.4-1c0-0.3,0.1-0.6,0.4-1c0.3-0.3,0.5-0.4,0.8-0.4
						c0.4,0,0.7,0.1,1,0.4C436.8,481.1,436.9,481.4,436.9,481.7z M436.3,482.5c-0.1-0.3-0.2-0.6-0.4-0.8c0.3-0.1,0.4-0.4,0.4-0.7
						c-0.3,0.1-0.5,0.1-0.6,0.2c-0.2-0.2-0.3-0.3-0.5-0.5c0,0.3,0,0.5,0.1,0.8c-0.2,0.1-0.4,0.3-0.5,0.5c0.3,0,0.5,0,0.8,0
						C435.6,482.2,435.9,482.4,436.3,482.5C436.3,482.5,436.3,482.5,436.3,482.5z M434.5,481.3c0,0.3,0.1,0.4,0.4,0.3v0
						c0.1-0.2,0-0.4-0.2-0.5h0C434.6,481,434.5,481.1,434.5,481.3z"/>
					<path fill-rule="evenodd" clip-rule="evenodd" d="M436.3,482.5C436.3,482.5,436.3,482.5,436.3,482.5c-0.4-0.1-0.7-0.3-0.8-0.5
						c-0.2,0-0.5,0-0.8,0c0.1-0.2,0.3-0.4,0.5-0.5c-0.1-0.2-0.1-0.5-0.1-0.8c0.2,0.2,0.3,0.3,0.5,0.5c0.1-0.1,0.3-0.1,0.6-0.2
						c0,0.3-0.1,0.5-0.4,0.7C436.1,481.9,436.2,482.2,436.3,482.5z"/>
					<path fill-rule="evenodd" clip-rule="evenodd" fill="#FFFFFF" d="M434.5,481.3c0-0.1,0.1-0.2,0.2-0.3h0
						c0.2,0.1,0.3,0.3,0.2,0.5v0C434.6,481.6,434.5,481.5,434.5,481.3z"/>
				</g>
			</g>
		</g>
		<g>
			<g>
				<path fill-rule="evenodd" clip-rule="evenodd" fill="#FFFFFF" d="M435.9,607c0.4,0,0.8,0.1,1.1,0.3c0.3,0.4,0.5,0.8,0.5,1.3
					c0,0.4-0.2,0.8-0.5,1.2c-0.3,0.3-0.7,0.5-1.1,0.5c-0.4,0-0.8-0.2-1.2-0.5c-0.3-0.3-0.5-0.7-0.5-1.2c0-0.5,0.2-0.9,0.5-1.3
					C435.1,607.1,435.5,607,435.9,607z"/>
			</g>
			<g>
				<path fill-rule="evenodd" clip-rule="evenodd" d="M435.5,607c0.5,0,0.9,0.1,1.3,0.4c0.3,0.3,0.5,0.8,0.5,1.3
					c0,0.4-0.2,0.8-0.5,1.2c-0.4,0.3-0.8,0.5-1.3,0.5c-0.4,0-0.8-0.2-1.2-0.5c-0.3-0.4-0.5-0.8-0.5-1.2c0-0.5,0.2-0.9,0.5-1.3
					C434.7,607.1,435.1,607,435.5,607z"/>
			</g>
			<g>
				<g>
					<linearGradient id="SVGID_15_" gradientUnits="userSpaceOnUse" x1="434.1621" y1="608.5996" x2="436.8371" y2="608.5996">
						<stop  offset="0" style="stop-color:#B3B3B3"/>
						<stop  offset="1" style="stop-color:#848484"/>
					</linearGradient>
					<path fill-rule="evenodd" clip-rule="evenodd" fill="url(#SVGID_15_)" d="M435.3,608.3c-0.2,0.1-0.4,0.3-0.5,0.5
						c0.3,0,0.5,0,0.8,0c0.2,0.2,0.5,0.4,0.8,0.6c0,0,0,0,0,0c-0.1-0.4-0.2-0.6-0.4-0.8c0.3-0.2,0.4-0.4,0.4-0.7
						c-0.3,0.1-0.5,0.2-0.6,0.2c-0.2-0.2-0.3-0.3-0.5-0.5C435.2,607.9,435.2,608.2,435.3,608.3z M434.7,607.8
						c-0.1,0-0.2,0.1-0.2,0.3c0,0.3,0.1,0.4,0.4,0.3C435,608.2,435,608,434.7,607.8L434.7,607.8z M434.3,608.6c0-0.3,0.1-0.7,0.4-1
						c0.3-0.2,0.5-0.3,0.8-0.3c0.4,0,0.7,0.1,1,0.3c0.2,0.3,0.4,0.7,0.4,1c0,0.4-0.1,0.7-0.4,1c-0.3,0.3-0.7,0.4-1,0.4
						c-0.3,0-0.6-0.1-0.8-0.4C434.4,609.3,434.3,609,434.3,608.6z"/>
					<path fill-rule="evenodd" clip-rule="evenodd" fill="#FFFFFF" d="M434.7,607.8L434.7,607.8c0.3,0.1,0.3,0.3,0.2,0.5
						c-0.3,0.1-0.4,0.1-0.4-0.3C434.5,608,434.6,607.9,434.7,607.8z"/>
					<path fill-rule="evenodd" clip-rule="evenodd" d="M435.3,608.3c-0.1-0.2-0.1-0.4-0.1-0.8c0.2,0.2,0.3,0.3,0.5,0.5
						c0.1,0,0.3-0.1,0.6-0.2c0,0.3-0.1,0.5-0.4,0.7c0.2,0.2,0.3,0.4,0.4,0.8c0,0,0,0,0,0c-0.4-0.2-0.7-0.4-0.8-0.6
						c-0.2,0-0.5,0-0.8,0C434.8,608.7,435,608.5,435.3,608.3z"/>
				</g>
			</g>
		</g>
		<g>
			<g>
				<path fill-rule="evenodd" clip-rule="evenodd" fill="#FFFFFF" d="M366.8,601.7c-0.3-0.3-0.5-0.7-0.5-1.2s0.2-0.9,0.5-1.2
					c0.4-0.3,0.8-0.4,1.3-0.4c0.4,0,0.8,0.1,1.2,0.4c0.3,0.3,0.5,0.7,0.5,1.2s-0.2,0.8-0.5,1.2c-0.4,0.3-0.8,0.5-1.2,0.5
					C367.6,602.2,367.2,602,366.8,601.7z"/>
			</g>
			<g>
				<path fill-rule="evenodd" clip-rule="evenodd" d="M366.5,601.7c-0.3-0.3-0.5-0.7-0.5-1.2c0-0.5,0.2-0.9,0.5-1.2
					c0.3-0.3,0.7-0.5,1.1-0.5c0.5,0,0.9,0.2,1.2,0.5c0.3,0.3,0.5,0.7,0.5,1.2c0,0.4-0.2,0.8-0.5,1.2c-0.3,0.3-0.7,0.5-1.2,0.5
					C367.2,602.2,366.8,602,366.5,601.7z"/>
			</g>
			<g>
				<g>
					<linearGradient id="SVGID_16_" gradientUnits="userSpaceOnUse" x1="366.3125" y1="600.5" x2="368.9875" y2="600.5">
						<stop  offset="0" style="stop-color:#B3B3B3"/>
						<stop  offset="1" style="stop-color:#848484"/>
					</linearGradient>
					<path fill-rule="evenodd" clip-rule="evenodd" fill="url(#SVGID_16_)" d="M366.9,599.8h-0.2c-0.1,0-0.1,0.1-0.1,0.3
						c0,0.3,0.1,0.4,0.3,0.3C367.1,600,367.1,599.9,366.9,599.8z M368.3,599.8c-0.2,0.1-0.4,0.2-0.6,0.2c-0.1-0.2-0.3-0.3-0.5-0.5
						c0,0.3,0,0.5,0.2,0.8c-0.3,0.1-0.5,0.3-0.7,0.5c0.3,0,0.6,0,0.8,0c0.2,0.2,0.4,0.4,0.8,0.6c0.1-0.1,0.1-0.1,0-0.1
						c0-0.3-0.1-0.5-0.3-0.7C368.3,600.3,368.3,600.1,368.3,599.8z M368.7,599.5c0.2,0.3,0.3,0.7,0.3,1c0,0.4-0.1,0.7-0.3,0.9
						c-0.4,0.3-0.7,0.4-1,0.4c-0.3,0-0.6-0.1-0.9-0.4c-0.2-0.2-0.3-0.5-0.3-0.9c0-0.3,0.1-0.7,0.3-1c0.3-0.2,0.6-0.3,0.9-0.3
						C368,599.2,368.3,599.3,368.7,599.5z"/>
					<path fill-rule="evenodd" clip-rule="evenodd" fill="#FFFFFF" d="M366.9,599.8c0.2,0.1,0.2,0.3,0.1,0.5c-0.3,0.1-0.4,0-0.3-0.3
						c0-0.1,0-0.2,0.1-0.3H366.9z"/>
					<path fill-rule="evenodd" clip-rule="evenodd" d="M368.3,599.8c0,0.3-0.1,0.5-0.3,0.7c0.2,0.2,0.3,0.4,0.3,0.7
						c0.1,0,0.1,0,0,0.1c-0.3-0.2-0.6-0.4-0.8-0.6c-0.2,0-0.5,0-0.8,0c0.2-0.2,0.4-0.4,0.7-0.5c-0.1-0.2-0.2-0.5-0.2-0.8
						c0.2,0.2,0.4,0.3,0.5,0.5C367.9,600,368.1,599.9,368.3,599.8z"/>
				</g>
			</g>
		</g>
		<g>
			<g>
				<path fill-rule="evenodd" clip-rule="evenodd" fill="#FFFFFF" d="M290,610.7c-0.5,0-0.9-0.2-1.3-0.5c-0.2-0.3-0.4-0.7-0.4-1.2
					c0-0.4,0.1-0.8,0.4-1.1c0.4-0.3,0.8-0.5,1.3-0.5c0.4,0,0.7,0.1,1.1,0.5c0.4,0.3,0.6,0.7,0.6,1.1c0,0.5-0.2,0.9-0.6,1.2
					C290.8,610.5,290.4,610.7,290,610.7z"/>
			</g>
			<g>
				<path fill-rule="evenodd" clip-rule="evenodd" d="M290.8,610.3c-0.3,0.3-0.7,0.5-1.1,0.5c-0.5,0-0.9-0.2-1.1-0.5
					c-0.3-0.3-0.5-0.7-0.5-1.2s0.2-0.8,0.5-1.1c0.3-0.3,0.7-0.5,1.1-0.5c0.4,0,0.8,0.2,1.1,0.5c0.3,0.3,0.5,0.7,0.5,1.1
					S291.1,609.9,290.8,610.3z"/>
			</g>
			<g>
				<g>
					<linearGradient id="SVGID_17_" gradientUnits="userSpaceOnUse" x1="288.3125" y1="609.0752" x2="290.9875" y2="609.0752">
						<stop  offset="0" style="stop-color:#B3B3B3"/>
						<stop  offset="1" style="stop-color:#848484"/>
					</linearGradient>
					<path fill-rule="evenodd" clip-rule="evenodd" fill="url(#SVGID_17_)" d="M289.7,608.6c-0.1-0.2-0.3-0.3-0.5-0.5
						c0,0.3,0,0.5,0.1,0.7c-0.3,0.1-0.5,0.3-0.6,0.6c0.3,0,0.6,0,0.8-0.1c0.2,0.3,0.5,0.5,0.8,0.7c0.1-0.1,0.1-0.2,0-0.2
						c0-0.3-0.1-0.5-0.3-0.8c0.2-0.2,0.3-0.4,0.3-0.7C290.1,608.5,289.9,608.6,289.7,608.6z M288.9,608.3h-0.1c0,0-0.1,0.1-0.1,0.3
						c-0.1,0.2,0,0.3,0.3,0.3v0C289.1,608.6,289,608.5,288.9,608.3z M291,609c0,0.4-0.1,0.8-0.4,1c-0.3,0.3-0.6,0.5-1,0.5
						c-0.3,0-0.6-0.2-0.9-0.5c-0.2-0.2-0.3-0.5-0.3-1c0-0.3,0.1-0.6,0.3-1c0.3-0.3,0.6-0.4,0.9-0.4c0.3,0,0.6,0.1,1,0.4
						C290.9,608.4,291,608.8,291,609z"/>
					<path fill-rule="evenodd" clip-rule="evenodd" d="M289.7,608.6c0.2,0,0.4-0.1,0.6-0.3c0,0.3-0.1,0.5-0.3,0.7
						c0.2,0.2,0.3,0.5,0.3,0.8c0.1,0,0.1,0,0,0.2c-0.3-0.2-0.5-0.4-0.8-0.7c-0.2,0.1-0.5,0.1-0.8,0.1c0.2-0.3,0.4-0.5,0.6-0.6
						c-0.1-0.2-0.1-0.4-0.1-0.7C289.4,608.3,289.6,608.4,289.7,608.6z"/>
					<path fill-rule="evenodd" clip-rule="evenodd" fill="#FFFFFF" d="M288.9,608.3c0.2,0.1,0.2,0.3,0.1,0.5v0
						c-0.3,0.1-0.4,0-0.3-0.3c0-0.2,0-0.3,0.1-0.3H288.9z"/>
				</g>
			</g>
		</g>
		<g>
			<g>
				
					<radialGradient id="SVGID_18_" cx="432.9004" cy="465.7998" r="5.5375" gradientTransform="matrix(1 0 0 0.5779 0 196.6243)" gradientUnits="userSpaceOnUse">
					<stop  offset="0" style="stop-color:#241C27"/>
					<stop  offset="0.5569" style="stop-color:#26222B;stop-opacity:0.4"/>
					<stop  offset="0.7843" style="stop-color:#282830;stop-opacity:0"/>
				</radialGradient>
				<path fill-rule="evenodd" clip-rule="evenodd" fill="url(#SVGID_18_)" d="M430.1,466.8c0.2,0.1,0.3,0.2,0.5,0.2
					c0.7,0.2,1.6,0.3,2.5,0.3s1.7-0.1,2.4-0.3c0.1,0,0.3-0.1,0.5-0.2v0.8c-0.1,0.2-0.4,0.4-0.9,0.6c-0.5,0.2-1.2,0.3-2,0.3
					c-0.8,0-1.5-0.1-2.1-0.3c-0.5-0.2-0.8-0.4-0.9-0.7V466.8z"/>
			</g>
			<g>
				<g>
					<path fill-rule="evenodd" clip-rule="evenodd" fill="#B19F01" d="M429.7,466L429.7,466c0-0.3,0.3-0.6,1-0.8
						c0.7-0.2,1.5-0.3,2.3-0.3c0.9,0,1.6,0.1,2.3,0.3c0.6,0.2,1,0.4,1,0.6v0.2c0,0,0,0.1-0.1,0.2c-0.2,0.2-0.5,0.3-0.9,0.5
						c-0.7,0.2-1.4,0.3-2.3,0.3c-0.9,0-1.7-0.1-2.3-0.3c-0.4-0.1-0.7-0.3-0.8-0.5C429.8,466.1,429.8,466.1,429.7,466L429.7,466z"/>
					<path fill-rule="evenodd" clip-rule="evenodd" fill="#FFFF71" d="M436.3,466c0,0,0,0.1,0,0.2v0.1c0,0.1,0,0.2-0.1,0.2
						c-0.2,0.2-0.5,0.3-0.9,0.5c-0.7,0.2-1.4,0.3-2.3,0.3c-0.9,0-1.7-0.1-2.3-0.3c-0.4-0.1-0.7-0.3-0.8-0.5c-0.1,0-0.2-0.1-0.2-0.3
						V466l0.1,0c0,0,0,0.1,0.1,0.2c0.1,0.2,0.4,0.3,0.8,0.5c0.7,0.2,1.5,0.3,2.3,0.3c0.9,0,1.6-0.1,2.3-0.3c0.4-0.1,0.7-0.3,0.9-0.5
						C436.3,466.1,436.3,466.1,436.3,466z"/>
				</g>
			</g>
			<g>
				<g>
					<path fill-rule="evenodd" clip-rule="evenodd" fill="#9F9B9B" d="M434.9,464.2c-0.1-0.1-0.3-0.2-0.6-0.3
						c-0.4-0.1-0.8-0.1-1.2-0.1c-0.6,0-1,0-1.3,0.1c-0.3,0.1-0.5,0.2-0.5,0.3c0,0,0,0,0,0.1v-0.1c0-0.1,0.2-0.2,0.5-0.3
						c0.3-0.1,0.8-0.1,1.3-0.1c0.4,0,0.8,0,1.2,0.1C434.6,464,434.8,464.1,434.9,464.2z M431.5,464.4c0,0,0.1,0,0.3,0
						c0.3,0.1,0.8,0.2,1.3,0.2c0.4,0,0.8-0.1,1.2-0.2c0.2,0,0.3-0.1,0.4-0.1c0,0.1-0.2,0.2-0.5,0.3c-0.4,0.1-0.8,0.1-1.2,0.1
						c-0.5,0-0.9,0-1.2-0.1C431.6,464.5,431.5,464.4,431.5,464.4z"/>
					<linearGradient id="SVGID_19_" gradientUnits="userSpaceOnUse" x1="433.0254" y1="465.9375" x2="433.0254" y2="462.9625">
						<stop  offset="0" style="stop-color:#464342"/>
						<stop  offset="1" style="stop-color:#A9A3A3"/>
					</linearGradient>
					<path fill-rule="evenodd" clip-rule="evenodd" fill="url(#SVGID_19_)" d="M431.3,464.3c0,0.1,0.2,0.2,0.5,0.4
						c0.3,0.1,0.8,0.2,1.3,0.2c0.4,0,0.8-0.1,1.2-0.2c0.4-0.1,0.6-0.3,0.6-0.4v-0.1c-0.1-0.1-0.3-0.2-0.6-0.3
						c-0.4-0.1-0.8-0.1-1.2-0.1c-0.6,0-1,0-1.3,0.1C431.5,464,431.3,464.1,431.3,464.3L431.3,464.3z M434.7,464.3
						c-0.1,0-0.2,0.1-0.4,0.1c-0.4,0.1-0.8,0.2-1.2,0.2c-0.6,0-1-0.1-1.3-0.2c-0.2,0-0.3,0-0.3,0c-0.1,0-0.1-0.1-0.1-0.1
						c0-0.1,0.2-0.2,0.6-0.3c0.3-0.1,0.7-0.1,1.2-0.1c0.4,0,0.8,0,1.2,0.1C434.5,464.1,434.7,464.2,434.7,464.3L434.7,464.3z
						 M435.9,464.7c0,0.1-0.1,0.3-0.3,0.4c-0.1,0.1-0.3,0.2-0.5,0.3c-0.5,0.2-1.2,0.3-2,0.3c-0.8,0-1.5-0.1-2.1-0.3
						c-0.2-0.1-0.4-0.2-0.5-0.3c-0.2-0.1-0.3-0.3-0.4-0.4c0,0,0-0.1,0-0.2v0c0.1-0.3,0.4-0.5,0.9-0.7c0.6-0.2,1.3-0.3,2.1-0.3
						c0.8,0,1.5,0.1,2,0.3c0.5,0.1,0.8,0.3,0.9,0.6c0,0,0,0.1,0,0.1C436,464.5,435.9,464.6,435.9,464.7z"/>
					<path fill-rule="evenodd" clip-rule="evenodd" fill="#6D6867" d="M434.9,464.2L434.9,464.2c0,0.2-0.2,0.3-0.6,0.5
						c-0.4,0.1-0.8,0.2-1.2,0.2c-0.6,0-1-0.1-1.3-0.2c-0.3-0.1-0.5-0.3-0.5-0.4c0-0.1,0-0.1,0-0.1c0-0.1,0.2-0.2,0.5-0.3
						c0.3-0.1,0.8-0.1,1.3-0.1c0.4,0,0.8,0,1.2,0.1C434.6,464,434.8,464.1,434.9,464.2z M431.5,464.4c0,0,0.2,0.1,0.5,0.2
						c0.3,0.1,0.7,0.1,1.2,0.1c0.4,0,0.8,0,1.2-0.1c0.3-0.1,0.4-0.2,0.5-0.3v0c0-0.1-0.2-0.2-0.5-0.3c-0.4-0.1-0.8-0.1-1.2-0.1
						c-0.5,0-0.9,0-1.2,0.1c-0.4,0.1-0.6,0.2-0.6,0.3C431.3,464.3,431.4,464.4,431.5,464.4z"/>
					<linearGradient id="SVGID_20_" gradientUnits="userSpaceOnUse" x1="430.1504" y1="465.6504" x2="435.9512" y2="465.6504">
						<stop  offset="0" style="stop-color:#241C27"/>
						<stop  offset="0.4118" style="stop-color:#332D37"/>
						<stop  offset="0.6275" style="stop-color:#828095"/>
						<stop  offset="0.9451" style="stop-color:#282830"/>
						<stop  offset="1" style="stop-color:#32292C"/>
					</linearGradient>
					<path fill-rule="evenodd" clip-rule="evenodd" fill="url(#SVGID_20_)" d="M430.1,464.7c0,0.1,0.2,0.3,0.4,0.4
						c0.1,0.1,0.3,0.2,0.5,0.3c0.6,0.2,1.3,0.3,2.1,0.3c0.8,0,1.5-0.1,2-0.3c0.2-0.1,0.4-0.2,0.5-0.3c0.2-0.1,0.3-0.3,0.3-0.4v1.1
						c-0.1,0.2-0.4,0.4-0.9,0.5c-0.5,0.2-1.2,0.4-2,0.4c-0.8,0-1.5-0.1-2.1-0.4c-0.5-0.2-0.8-0.4-0.9-0.7V464.7z"/>
				</g>
			</g>
			<g>
				<path fill-rule="evenodd" clip-rule="evenodd" fill="none" d="M435.7,464.8c-0.1,0.2-0.4,0.3-0.7,0.5c-0.6,0.2-1.2,0.3-2,0.3
					s-1.5-0.1-2-0.3c-0.3-0.1-0.5-0.3-0.7-0.5"/>
			</g>
			<g>
				
					<radialGradient id="SVGID_21_" cx="432.6504" cy="465.5498" r="1.375" gradientTransform="matrix(1 0 0 0.3091 0 321.6526)" gradientUnits="userSpaceOnUse">
					<stop  offset="0" style="stop-color:#FFFFFF"/>
					<stop  offset="0.1922" style="stop-color:#FFFFFF"/>
					<stop  offset="0.2824" style="stop-color:#FFFFFF;stop-opacity:0.7529"/>
					<stop  offset="0.4157" style="stop-color:#FFFFFF;stop-opacity:0.6"/>
					<stop  offset="0.5882" style="stop-color:#FEFEFE;stop-opacity:0.3647"/>
					<stop  offset="0.8157" style="stop-color:#FCFCFC;stop-opacity:0.1059"/>
					<stop  offset="1" style="stop-color:#F9F9F9;stop-opacity:0"/>
				</radialGradient>
				<path fill-rule="evenodd" clip-rule="evenodd" fill="url(#SVGID_21_)" d="M433.6,465.8c-0.3,0.1-0.6,0.2-0.9,0.2
					c-0.4,0-0.7,0-1-0.2c-0.3-0.1-0.4-0.1-0.4-0.3c0-0.1,0.1-0.2,0.4-0.3c0.3-0.1,0.6-0.1,1-0.1c0.4,0,0.7,0,0.9,0.1
					c0.2,0.1,0.4,0.2,0.4,0.3C434,465.7,433.8,465.7,433.6,465.8z"/>
			</g>
		</g>
		<g>
			<g>
				
					<radialGradient id="SVGID_22_" cx="435.1504" cy="473" r="6.7875" gradientTransform="matrix(1 0 0 0.5783 0 199.4788)" gradientUnits="userSpaceOnUse">
					<stop  offset="0" style="stop-color:#241C27"/>
					<stop  offset="0.5569" style="stop-color:#26222B;stop-opacity:0.4"/>
					<stop  offset="0.7843" style="stop-color:#282830;stop-opacity:0"/>
				</radialGradient>
				<path fill-rule="evenodd" clip-rule="evenodd" fill="url(#SVGID_22_)" d="M438.8,475.2c-0.1,0.2-0.5,0.5-1,0.8
					c-0.6,0.2-1.5,0.3-2.5,0.3c-1,0-1.8-0.1-2.5-0.3c-0.6-0.3-1-0.6-1.1-0.9v-0.8c0.2,0.1,0.4,0.2,0.6,0.3c0.8,0.3,1.8,0.5,3,0.5
					c1.2,0,2.2-0.2,3-0.5c0.2-0.1,0.4-0.2,0.6-0.2V475.2z"/>
			</g>
			<g>
				<g>
					<path fill-rule="evenodd" clip-rule="evenodd" fill="#2C5798" d="M439.3,473.3c0,0.1,0,0.1,0,0.1c-0.1,0-0.1,0.1-0.1,0.1
						c-0.2,0.2-0.5,0.3-1,0.5c-0.4,0.1-0.9,0.2-1.4,0.3c-0.5,0-1,0-1.5,0s-1.1,0-1.5,0c-0.4-0.1-0.9-0.2-1.3-0.3
						c-0.5-0.2-0.8-0.3-1-0.5c-0.1-0.1-0.1-0.1-0.2-0.1c0-0.1,0-0.1,0-0.2v0c0-0.3,0.4-0.6,1.2-0.9c0.8-0.2,1.8-0.3,2.8-0.3
						c1.1,0,2.1,0.1,2.9,0.3C438.9,472.6,439.3,472.9,439.3,473.3C439.3,473.2,439.3,473.3,439.3,473.3z"/>
					<path fill-rule="evenodd" clip-rule="evenodd" fill="#264D84" d="M431.3,473.4c0,0,0.1,0.1,0.2,0.1c0.2,0.2,0.5,0.3,1,0.5
						c0.4,0.1,0.9,0.2,1.3,0.3c0.5,0,1,0,1.5,0s1.1,0,1.5,0c0.5-0.1,0.9-0.2,1.4-0.3c0.5-0.2,0.8-0.3,1-0.5c0-0.1,0-0.1,0.1-0.1
						c0,0,0,0,0-0.1c0,0.1,0,0.1,0,0.2v0.1c0,0.1-0.1,0.2-0.1,0.3c-0.2,0.2-0.5,0.3-0.9,0.5c0,0-0.1,0-0.1,0
						c-0.4,0.1-0.8,0.2-1.3,0.3h0v0.1c-0.5,0.1-1,0.1-1.6,0.1s-1.1,0-1.6-0.1v-0.1c-0.4,0-0.9-0.1-1.3-0.3c0,0-0.1,0-0.1,0h-0.1
						c-0.4-0.2-0.6-0.3-0.8-0.5c-0.1-0.1-0.2-0.2-0.2-0.3V473.4z"/>
				</g>
			</g>
			<g>
				<g>
					<linearGradient id="SVGID_23_" gradientUnits="userSpaceOnUse" x1="431.7246" y1="472.8242" x2="438.874" y2="472.8242">
						<stop  offset="0" style="stop-color:#241C27"/>
						<stop  offset="0.4118" style="stop-color:#332D37"/>
						<stop  offset="0.6275" style="stop-color:#828095"/>
						<stop  offset="0.9451" style="stop-color:#282830"/>
						<stop  offset="1" style="stop-color:#32292C"/>
					</linearGradient>
					<path fill-rule="evenodd" clip-rule="evenodd" fill="url(#SVGID_23_)" d="M431.7,471.6c0.1,0.2,0.2,0.3,0.4,0.5
						c0.2,0.1,0.4,0.3,0.7,0.4c0.7,0.2,1.5,0.3,2.5,0.3c1,0,1.9-0.1,2.5-0.3c0.3-0.1,0.5-0.2,0.7-0.4c0.2-0.1,0.3-0.3,0.3-0.4v1.3
						c-0.1,0.3-0.5,0.5-1,0.7c-0.6,0.3-1.5,0.4-2.5,0.4c-1,0-1.8-0.1-2.5-0.4c-0.6-0.2-1-0.5-1.1-0.9V471.6z"/>
					<linearGradient id="SVGID_24_" gradientUnits="userSpaceOnUse" x1="435.3008" y1="473.2246" x2="435.3008" y2="469.5746">
						<stop  offset="0" style="stop-color:#464342"/>
						<stop  offset="1" style="stop-color:#A9A3A3"/>
					</linearGradient>
					<path fill-rule="evenodd" clip-rule="evenodd" fill="url(#SVGID_24_)" d="M438.8,471.7c0,0.1-0.1,0.3-0.3,0.4
						c-0.2,0.1-0.4,0.3-0.7,0.4c-0.6,0.2-1.5,0.3-2.5,0.3c-1,0-1.8-0.1-2.5-0.3c-0.3-0.1-0.5-0.2-0.7-0.4c-0.2-0.1-0.3-0.3-0.4-0.5
						c0,0,0-0.1,0-0.2v-0.1c0.1-0.3,0.5-0.6,1.1-0.9c0.7-0.2,1.5-0.3,2.5-0.3c1,0,1.9,0.1,2.5,0.3c0.6,0.2,0.9,0.5,1,0.8
						c0,0.1,0.1,0.2,0.1,0.2C438.9,471.5,438.9,471.6,438.8,471.7z M433.1,471.2c0,0.2,0.2,0.3,0.7,0.4c0.5,0.1,1,0.2,1.6,0.2
						c0.6,0,1.2-0.1,1.6-0.2c0.4-0.1,0.6-0.3,0.6-0.4v-0.1c0-0.2-0.3-0.3-0.6-0.4c-0.4-0.1-0.9-0.2-1.6-0.2c-0.6,0-1.1,0-1.6,0.2
						C433.4,470.8,433.2,470.9,433.1,471.2C433.1,471.1,433.1,471.1,433.1,471.2z M437.3,471.3c-0.1,0.1-0.3,0.1-0.4,0.1
						c-0.4,0.1-0.9,0.2-1.6,0.2c-0.6,0-1.1-0.1-1.6-0.2c-0.1,0-0.2,0-0.3,0c0,0-0.1-0.1-0.1-0.1l-0.1,0c0-0.1,0-0.1,0-0.1
						c0-0.1,0.2-0.2,0.5-0.3c0.4-0.1,0.9-0.1,1.5-0.1c0.6,0,1.1,0,1.5,0.1c0.4,0.1,0.5,0.2,0.5,0.3
						C437.3,471.2,437.3,471.2,437.3,471.3z"/>
					<path fill-rule="evenodd" clip-rule="evenodd" fill="#6D6867" d="M437.5,471.2c0,0.2-0.2,0.3-0.6,0.4c-0.4,0.1-0.9,0.2-1.6,0.2
						c-0.6,0-1.1-0.1-1.6-0.2c-0.4-0.1-0.7-0.3-0.7-0.4h0.1c0.1-0.1,0.3-0.3,0.6-0.4c0.5-0.1,1-0.2,1.6-0.2c0.6,0,1.2,0.1,1.6,0.2
						C437.3,470.9,437.5,471,437.5,471.2z M433.5,471.4c0.1,0,0.2,0.1,0.3,0.2c0.4,0.1,0.9,0.2,1.5,0.2c0.6,0,1.1,0,1.5-0.2
						c0.3-0.1,0.5-0.2,0.5-0.3c0-0.1,0-0.1,0-0.1c0-0.1-0.2-0.2-0.5-0.3c-0.4-0.1-0.9-0.1-1.5-0.1c-0.6,0-1.1,0-1.5,0.1
						c-0.4,0.1-0.5,0.2-0.5,0.3c0,0,0,0.1,0,0.1L433.5,471.4C433.4,471.3,433.5,471.4,433.5,471.4z"/>
					<path fill-rule="evenodd" clip-rule="evenodd" fill="#9F9B9B" d="M437.5,471.2c-0.1-0.1-0.3-0.3-0.6-0.4
						c-0.4-0.1-0.9-0.2-1.6-0.2c-0.6,0-1.1,0.1-1.6,0.2c-0.3,0.1-0.5,0.2-0.6,0.4h-0.1c0,0,0-0.1,0.1-0.1c0-0.2,0.2-0.3,0.6-0.4
						c0.5-0.1,1-0.2,1.6-0.2c0.6,0,1.2,0,1.6,0.2C437.3,470.8,437.5,470.9,437.5,471.2L437.5,471.2z M433.5,471.4c0.1,0,0.2,0,0.3,0
						c0.5,0.1,1,0.2,1.6,0.2c0.6,0,1.2-0.1,1.6-0.2c0.2,0,0.3,0,0.4-0.1c-0.1,0.1-0.3,0.2-0.5,0.3c-0.4,0.1-0.9,0.2-1.5,0.2
						c-0.6,0-1.1,0-1.5-0.2C433.7,471.5,433.6,471.4,433.5,471.4z"/>
				</g>
			</g>
			<g>
				<path fill-rule="evenodd" clip-rule="evenodd" fill="none" d="M438.6,471.8c-0.1,0.2-0.4,0.4-0.8,0.6c-0.6,0.2-1.5,0.3-2.5,0.3
					c-1,0-1.8-0.1-2.5-0.3c-0.4-0.2-0.7-0.4-0.8-0.6"/>
			</g>
			<g>
				
					<radialGradient id="SVGID_25_" cx="434.9004" cy="472.75" r="1.6625" gradientTransform="matrix(1 0 0 0.3158 0 323.4605)" gradientUnits="userSpaceOnUse">
					<stop  offset="0" style="stop-color:#FFFFFF"/>
					<stop  offset="0.1922" style="stop-color:#FFFFFF"/>
					<stop  offset="0.2824" style="stop-color:#FFFFFF;stop-opacity:0.7529"/>
					<stop  offset="0.4157" style="stop-color:#FFFFFF;stop-opacity:0.6"/>
					<stop  offset="0.5882" style="stop-color:#FEFEFE;stop-opacity:0.3647"/>
					<stop  offset="0.8157" style="stop-color:#FCFCFC;stop-opacity:0.1059"/>
					<stop  offset="1" style="stop-color:#F9F9F9;stop-opacity:0"/>
				</radialGradient>
				<path fill-rule="evenodd" clip-rule="evenodd" fill="url(#SVGID_25_)" d="M436,473c-0.4,0.1-0.8,0.2-1.1,0.2
					c-0.5,0-0.9,0-1.2-0.2c-0.3-0.1-0.4-0.2-0.4-0.3c0-0.2,0.1-0.3,0.4-0.3c0.3-0.1,0.7-0.2,1.2-0.2c0.4,0,0.8,0.1,1.1,0.2
					c0.3,0.1,0.4,0.2,0.4,0.3C436.5,472.9,436.3,473,436,473z"/>
			</g>
		</g>
		<g>
			<g>
				<path fill-rule="evenodd" clip-rule="evenodd" fill="#8C8C8C" d="M319.4,563c0.1,0,0.1-0.1,0.1-0.1c0.3-0.4,0.6-0.7,1-0.7H354
					c0.4,0,0.8,0.2,1,0.7c0.3,0.4,0.5,0.9,0.5,1.5c0,0.7-0.2,1.2-0.5,1.5c-0.2,0.5-0.6,0.8-1,0.8h-33.5c-0.3,0-0.5-0.2-0.8-0.5
					c-0.1-0.1-0.2-0.2-0.2-0.3c-0.2-0.4-0.3-0.8-0.3-1.3c0-0.1,0-0.1,0-0.2C319.2,563.9,319.3,563.4,319.4,563z M321.4,566.5h31.2
					h1.2c0.4,0,0.7-0.2,1-0.7c0.2-0.3,0.3-0.8,0.3-1.3c0-0.5-0.1-0.9-0.3-1.3c-0.3-0.4-0.6-0.6-1-0.6h-1.2h-31.2h-0.5
					c-0.3,0-0.6,0.2-1,0.6c-0.2,0.4-0.4,0.8-0.4,1.3c0,0.6,0.1,1,0.4,1.3c0.3,0.5,0.6,0.7,1,0.7H321.4z"/>
				
					<radialGradient id="SVGID_26_" cx="320.6001" cy="567.3496" r="3.2875" gradientTransform="matrix(1 0 0 1.5019 0 -284.7534)" gradientUnits="userSpaceOnUse">
					<stop  offset="0" style="stop-color:#D4D3CF"/>
					<stop  offset="0.6471" style="stop-color:#CAC9C6"/>
					<stop  offset="0.6588" style="stop-color:#CDCCC9"/>
					<stop  offset="1" style="stop-color:#888886"/>
				</radialGradient>
				<path fill-rule="evenodd" clip-rule="evenodd" fill="url(#SVGID_26_)" d="M321.4,562.5c-1.8,0.2-1.8,1.5,0,4h-0.5
					c-0.3,0-0.6-0.2-1-0.7c-0.2-0.3-0.4-0.8-0.4-1.3c0-0.5,0.1-0.9,0.4-1.3c0.3-0.4,0.6-0.6,1-0.6H321.4z"/>
				<linearGradient id="SVGID_27_" gradientUnits="userSpaceOnUse" x1="337.063" y1="566.4746" x2="337.063" y2="562.6246">
					<stop  offset="0" style="stop-color:#CCCBC8"/>
					<stop  offset="0.6118" style="stop-color:#CBCAC7"/>
					<stop  offset="0.6902" style="stop-color:#C7C6C3"/>
					<stop  offset="0.8196" style="stop-color:#BFBEBB"/>
					<stop  offset="1" style="stop-color:#A0A09D"/>
				</linearGradient>
				<path fill-rule="evenodd" clip-rule="evenodd" fill="url(#SVGID_27_)" d="M321.4,562.5h31.2c2,0.1,2,1.5,0,4h-31.2
					C319.5,564,319.5,562.7,321.4,562.5z M321.1,563.3c0,0.1,0,0.2,0.2,0.2c10.8,0,21.6,0,32.4,0c0.1,0,0.1,0,0.1,0
					c0-0.1,0-0.2-0.1-0.2c-10.7,0-21.5,0-32.3,0C321.3,563.2,321.2,563.2,321.1,563.3L321.1,563.3z"/>
				<path fill-rule="evenodd" clip-rule="evenodd" fill="#E2E1E0" d="M321.1,563.3L321.1,563.3c0.1-0.1,0.1-0.1,0.2-0.1
					c10.8,0,21.6,0,32.3,0c0.1,0,0.1,0.1,0.1,0.2c0,0,0,0-0.1,0c-10.8,0-21.6,0-32.4,0C321.2,563.5,321.1,563.4,321.1,563.3z"/>
				
					<radialGradient id="SVGID_28_" cx="352.5" cy="568.3496" r="4.9625" gradientTransform="matrix(1 0 0 1.4081 0 -231.921)" gradientUnits="userSpaceOnUse">
					<stop  offset="0" style="stop-color:#D4D3CF"/>
					<stop  offset="0.6471" style="stop-color:#CAC9C6"/>
					<stop  offset="0.6588" style="stop-color:#CDCCC9"/>
					<stop  offset="1" style="stop-color:#888886"/>
				</radialGradient>
				<path fill-rule="evenodd" clip-rule="evenodd" fill="url(#SVGID_28_)" d="M352.6,566.5c2-2.5,2-3.8,0-4h1.2c0.4,0,0.7,0.2,1,0.6
					c0.2,0.4,0.3,0.8,0.3,1.3c0,0.6-0.1,1-0.3,1.3c-0.3,0.5-0.6,0.7-1,0.7H352.6z"/>
			</g>
		</g>
		<g>
			<g>
				<linearGradient id="SVGID_29_" gradientUnits="userSpaceOnUse" x1="337.063" y1="577.0752" x2="337.063" y2="573.2256">
					<stop  offset="0" style="stop-color:#CCCBC8"/>
					<stop  offset="0.6118" style="stop-color:#CBCAC7"/>
					<stop  offset="0.6902" style="stop-color:#C7C6C3"/>
					<stop  offset="0.8196" style="stop-color:#BFBEBB"/>
					<stop  offset="1" style="stop-color:#A0A09D"/>
				</linearGradient>
				<path fill-rule="evenodd" clip-rule="evenodd" fill="url(#SVGID_29_)" d="M321.4,573.7c-0.1,0-0.1,0-0.2,0.1v0.1
					c0,0.1,0,0.2,0.2,0.2c10.8,0,21.6,0,32.4,0c0.1,0,0.1,0,0.1,0c0-0.1,0-0.2-0.1-0.2C342.9,573.7,332.1,573.7,321.4,573.7z
					 M321.4,577c-1.8-2.4-1.8-3.7,0-3.8h31.2c2,0.1,2,1.4,0,3.8H321.4z"/>
				<path fill-rule="evenodd" clip-rule="evenodd" fill="#E2E1E0" d="M321.4,573.7c10.8,0,21.6,0,32.3,0.1c0.1,0,0.1,0.1,0.1,0.2
					c0,0,0,0-0.1,0c-10.8,0-21.6,0-32.4,0c-0.2,0-0.2-0.1-0.2-0.2v-0.1C321.2,573.7,321.3,573.7,321.4,573.7z"/>
				
					<radialGradient id="SVGID_30_" cx="320.6001" cy="578" r="3.2875" gradientTransform="matrix(1 0 0 1.5019 0 -290.0989)" gradientUnits="userSpaceOnUse">
					<stop  offset="0" style="stop-color:#D4D3CF"/>
					<stop  offset="0.6471" style="stop-color:#CAC9C6"/>
					<stop  offset="0.6588" style="stop-color:#CDCCC9"/>
					<stop  offset="1" style="stop-color:#888886"/>
				</radialGradient>
				<path fill-rule="evenodd" clip-rule="evenodd" fill="url(#SVGID_30_)" d="M321.4,573.2c-1.8,0.1-1.8,1.4,0,3.8h-0.5
					c-0.3,0-0.6-0.2-1-0.6c-0.2-0.3-0.4-0.8-0.4-1.4c0-0.5,0.1-1,0.4-1.3c0.3-0.3,0.6-0.5,1-0.5H321.4z"/>
				<path fill-rule="evenodd" clip-rule="evenodd" fill="#8C8C8C" d="M321.4,573.2h-0.5c-0.3,0-0.6,0.2-1,0.5
					c-0.2,0.4-0.4,0.8-0.4,1.3c0,0.6,0.1,1,0.4,1.4c0.3,0.4,0.6,0.6,1,0.6h0.5h31.2h1.2c0.4,0,0.7-0.2,1-0.6
					c0.2-0.3,0.3-0.8,0.3-1.4c0-0.5-0.1-1-0.3-1.3c-0.3-0.3-0.6-0.5-1-0.5h-1.2H321.4z M319.4,573.6c0.1,0,0.1-0.1,0.1-0.2
					c0.3-0.4,0.6-0.6,1-0.6H354c0.4,0,0.8,0.2,1,0.6c0.3,0.5,0.5,1,0.5,1.6c0,0.6-0.2,1.2-0.5,1.5c-0.2,0.5-0.6,0.8-1,0.8h-33.5
					c-0.3,0-0.5-0.2-0.8-0.5c-0.1-0.1-0.2-0.2-0.2-0.3c-0.2-0.4-0.3-0.9-0.3-1.4c0,0,0-0.1,0-0.2v0
					C319.2,574.5,319.3,574,319.4,573.6z"/>
				
					<radialGradient id="SVGID_31_" cx="352.5" cy="578.9502" r="4.9625" gradientTransform="matrix(1 0 0 1.4081 0 -236.2466)" gradientUnits="userSpaceOnUse">
					<stop  offset="0" style="stop-color:#D4D3CF"/>
					<stop  offset="0.6471" style="stop-color:#CAC9C6"/>
					<stop  offset="0.6588" style="stop-color:#CDCCC9"/>
					<stop  offset="1" style="stop-color:#888886"/>
				</radialGradient>
				<path fill-rule="evenodd" clip-rule="evenodd" fill="url(#SVGID_31_)" d="M352.6,577c2-2.4,2-3.7,0-3.8h1.2c0.4,0,0.7,0.2,1,0.5
					c0.2,0.4,0.3,0.8,0.3,1.3c0,0.6-0.1,1-0.3,1.4c-0.3,0.4-0.6,0.6-1,0.6H352.6z"/>
			</g>
		</g>
		<g>
			<g>
				
					<radialGradient id="SVGID_32_" cx="320.6001" cy="588" r="3.2875" gradientTransform="matrix(1 0 0 1.5019 0 -295.1179)" gradientUnits="userSpaceOnUse">
					<stop  offset="0" style="stop-color:#D4D3CF"/>
					<stop  offset="0.6471" style="stop-color:#CAC9C6"/>
					<stop  offset="0.6588" style="stop-color:#CDCCC9"/>
					<stop  offset="1" style="stop-color:#888886"/>
				</radialGradient>
				<path fill-rule="evenodd" clip-rule="evenodd" fill="url(#SVGID_32_)" d="M321.4,583.3c-1.8,0.2-1.8,1.5,0,3.8h-0.5
					c-0.3,0-0.6-0.2-1-0.6c-0.2-0.3-0.4-0.8-0.4-1.3c0-0.5,0.1-1,0.4-1.4c0.3-0.4,0.6-0.5,1-0.5H321.4z"/>
				<path fill-rule="evenodd" clip-rule="evenodd" fill="#8C8C8C" d="M319.5,583.5c0.3-0.4,0.6-0.6,1-0.6H354c0.4,0,0.8,0.2,1,0.6
					c0.3,0.5,0.5,1,0.5,1.6c0,0.7-0.2,1.2-0.5,1.5c-0.2,0.5-0.6,0.8-1,0.8h-33.5c-0.3,0-0.5-0.2-0.8-0.5c-0.1-0.1-0.2-0.2-0.2-0.3
					c-0.2-0.3-0.3-0.8-0.3-1.3c0-0.1,0-0.2,0-0.2c0-0.6,0.1-1.1,0.2-1.5C319.5,583.6,319.5,583.6,319.5,583.5z M321.4,583.3h-0.5
					c-0.3,0-0.6,0.2-1,0.5c-0.2,0.4-0.4,0.8-0.4,1.4c0,0.6,0.1,1,0.4,1.3c0.3,0.4,0.6,0.6,1,0.6h0.5h31.2h1.2c0.4,0,0.7-0.2,1-0.6
					c0.2-0.3,0.3-0.8,0.3-1.3c0-0.5-0.1-1-0.3-1.4c-0.3-0.4-0.6-0.5-1-0.5h-1.2H321.4z"/>
				<linearGradient id="SVGID_33_" gradientUnits="userSpaceOnUse" x1="337.063" y1="587.125" x2="337.063" y2="583.2754">
					<stop  offset="0" style="stop-color:#CCCBC8"/>
					<stop  offset="0.6118" style="stop-color:#CBCAC7"/>
					<stop  offset="0.6902" style="stop-color:#C7C6C3"/>
					<stop  offset="0.8196" style="stop-color:#BFBEBB"/>
					<stop  offset="1" style="stop-color:#A0A09D"/>
				</linearGradient>
				<path fill-rule="evenodd" clip-rule="evenodd" fill="url(#SVGID_33_)" d="M321.4,583.8c-0.1,0-0.1,0-0.2,0.1v0.1
					c0,0.1,0,0.2,0.2,0.2c10.8,0,21.6,0,32.4-0.1c0.1,0,0.1,0,0.1,0c0-0.1,0-0.2-0.1-0.2C342.9,583.8,332.1,583.8,321.4,583.8z
					 M321.4,587.1c-1.8-2.4-1.8-3.7,0-3.8h31.2c2,0.1,2,1.4,0,3.8H321.4z"/>
				<path fill-rule="evenodd" clip-rule="evenodd" fill="#E2E1E0" d="M321.4,583.8c10.8,0,21.6,0,32.3,0c0.1,0,0.1,0.1,0.1,0.2
					c0,0,0,0-0.1,0c-10.8,0.1-21.6,0.1-32.4,0.1c-0.2,0-0.2-0.1-0.2-0.2v-0.1C321.2,583.8,321.3,583.8,321.4,583.8z"/>
				
					<radialGradient id="SVGID_34_" cx="352.5" cy="589" r="4.9625" gradientTransform="matrix(1 0 0 1.4081 0 -240.3476)" gradientUnits="userSpaceOnUse">
					<stop  offset="0" style="stop-color:#D4D3CF"/>
					<stop  offset="0.6471" style="stop-color:#CAC9C6"/>
					<stop  offset="0.6588" style="stop-color:#CDCCC9"/>
					<stop  offset="1" style="stop-color:#888886"/>
				</radialGradient>
				<path fill-rule="evenodd" clip-rule="evenodd" fill="url(#SVGID_34_)" d="M352.6,583.3h1.2c0.4,0,0.7,0.2,1,0.5
					c0.2,0.4,0.3,0.8,0.3,1.4c0,0.6-0.1,1-0.3,1.3c-0.3,0.4-0.6,0.6-1,0.6h-1.2C354.6,584.6,354.6,583.3,352.6,583.3z"/>
			</g>
		</g>
		<g>
			<g>
				<path fill-rule="evenodd" clip-rule="evenodd" fill="#8C8C8C" d="M377.8,563C377.8,563,377.8,562.9,377.8,563
					c0.4-0.5,0.8-0.8,1.2-0.8h33.5c0.4,0,0.7,0.2,1,0.7c0.3,0.4,0.4,0.9,0.4,1.5c0,0.7-0.1,1.2-0.4,1.5c-0.3,0.5-0.6,0.8-1,0.8
					h-33.5c-0.3,0-0.6-0.2-0.9-0.5c-0.1-0.1-0.2-0.2-0.2-0.3c-0.2-0.4-0.3-0.8-0.3-1.3c0-0.1,0-0.1,0-0.2
					C377.5,563.9,377.6,563.4,377.8,563z M379.7,566.5H411h1.1c0.4,0,0.7-0.2,0.9-0.7c0.3-0.3,0.4-0.8,0.4-1.3
					c0-0.5-0.1-0.9-0.4-1.3c-0.2-0.4-0.5-0.6-0.9-0.6H411h-31.3h-0.5c-0.3,0-0.6,0.2-0.9,0.6c-0.2,0.4-0.3,0.8-0.3,1.3
					c0,0.6,0.1,1,0.3,1.3c0.3,0.5,0.6,0.7,0.9,0.7H379.7z"/>
				
					<radialGradient id="SVGID_35_" cx="378.9004" cy="567.3496" r="3.2875" gradientTransform="matrix(1 0 0 1.5019 0 -284.7534)" gradientUnits="userSpaceOnUse">
					<stop  offset="0" style="stop-color:#D4D3CF"/>
					<stop  offset="0.6471" style="stop-color:#CAC9C6"/>
					<stop  offset="0.6588" style="stop-color:#CDCCC9"/>
					<stop  offset="1" style="stop-color:#888886"/>
				</radialGradient>
				<path fill-rule="evenodd" clip-rule="evenodd" fill="url(#SVGID_35_)" d="M379.7,562.5c-1.8,0.2-1.8,1.5,0,4h-0.5
					c-0.3,0-0.6-0.2-0.9-0.7c-0.2-0.3-0.3-0.8-0.3-1.3c0-0.5,0.1-0.9,0.3-1.3c0.3-0.4,0.6-0.6,0.9-0.6H379.7z"/>
				<linearGradient id="SVGID_36_" gradientUnits="userSpaceOnUse" x1="395.4248" y1="566.4746" x2="395.4248" y2="562.6246">
					<stop  offset="0" style="stop-color:#CCCBC8"/>
					<stop  offset="0.6118" style="stop-color:#CBCAC7"/>
					<stop  offset="0.6902" style="stop-color:#C7C6C3"/>
					<stop  offset="0.8196" style="stop-color:#BFBEBB"/>
					<stop  offset="1" style="stop-color:#A0A09D"/>
				</linearGradient>
				<path fill-rule="evenodd" clip-rule="evenodd" fill="url(#SVGID_36_)" d="M379.7,562.5H411c2,0.1,2,1.5,0,4h-31.3
					C377.9,564,377.9,562.7,379.7,562.5z M379.5,563.3L379.5,563.3c0,0.2,0,0.3,0.2,0.3c10.8,0,21.6,0,32.3,0c0.1,0,0.1,0,0.1,0
					c0-0.1-0.1-0.2-0.2-0.2c-10.7,0-21.5,0-32.3,0C379.6,563.2,379.6,563.2,379.5,563.3z"/>
				<path fill-rule="evenodd" clip-rule="evenodd" fill="#E2E1E0" d="M379.5,563.3c0.1-0.1,0.1-0.1,0.2-0.1c10.8,0,21.6,0,32.3,0
					c0.1,0,0.2,0.1,0.2,0.2c0,0,0,0-0.1,0c-10.8,0-21.5,0-32.3,0C379.5,563.5,379.5,563.4,379.5,563.3L379.5,563.3z"/>
				
					<radialGradient id="SVGID_37_" cx="410.8496" cy="568.3496" r="4.9625" gradientTransform="matrix(1 0 0 1.4081 0 -231.921)" gradientUnits="userSpaceOnUse">
					<stop  offset="0" style="stop-color:#D4D3CF"/>
					<stop  offset="0.6471" style="stop-color:#CAC9C6"/>
					<stop  offset="0.6588" style="stop-color:#CDCCC9"/>
					<stop  offset="1" style="stop-color:#888886"/>
				</radialGradient>
				<path fill-rule="evenodd" clip-rule="evenodd" fill="url(#SVGID_37_)" d="M411,566.5c2-2.5,2-3.8,0-4h1.1c0.4,0,0.7,0.2,0.9,0.6
					c0.3,0.4,0.4,0.8,0.4,1.3c0,0.6-0.1,1-0.4,1.3c-0.2,0.5-0.5,0.7-0.9,0.7H411z"/>
			</g>
		</g>
		<g>
			<g>
				<linearGradient id="SVGID_38_" gradientUnits="userSpaceOnUse" x1="395.4248" y1="577.0752" x2="395.4248" y2="573.2256">
					<stop  offset="0" style="stop-color:#CCCBC8"/>
					<stop  offset="0.6118" style="stop-color:#CBCAC7"/>
					<stop  offset="0.6902" style="stop-color:#C7C6C3"/>
					<stop  offset="0.8196" style="stop-color:#BFBEBB"/>
					<stop  offset="1" style="stop-color:#A0A09D"/>
				</linearGradient>
				<path fill-rule="evenodd" clip-rule="evenodd" fill="url(#SVGID_38_)" d="M379.5,573.8v0.1c0,0.1,0,0.2,0.2,0.2
					c10.8,0,21.6,0,32.3,0c0.1,0,0.1,0,0.1,0c0-0.1-0.1-0.2-0.2-0.2c-10.7-0.1-21.5-0.1-32.3-0.1
					C379.6,573.7,379.6,573.7,379.5,573.8z M379.7,577c-1.8-2.4-1.8-3.7,0-3.8H411c2,0.1,2,1.4,0,3.8H379.7z"/>
				<path fill-rule="evenodd" clip-rule="evenodd" fill="#E2E1E0" d="M379.5,573.8c0.1-0.1,0.1-0.1,0.2-0.1c10.8,0,21.6,0,32.3,0.1
					c0.1,0,0.2,0.1,0.2,0.2c0,0,0,0-0.1,0c-10.8,0-21.5,0-32.3,0c-0.2,0-0.2-0.1-0.2-0.2V573.8z"/>
				<path fill-rule="evenodd" clip-rule="evenodd" fill="#8C8C8C" d="M377.8,573.6c0.1,0,0.1-0.1,0.1-0.2c0.3-0.4,0.7-0.6,1.1-0.6
					h33.5c0.4,0,0.7,0.2,1,0.6c0.3,0.5,0.4,1,0.4,1.6c0,0.6-0.1,1.2-0.4,1.5c-0.3,0.5-0.6,0.8-1,0.8h-33.5c-0.3,0-0.6-0.2-0.9-0.5
					c-0.1-0.1-0.2-0.2-0.2-0.3c-0.2-0.4-0.3-0.9-0.3-1.4c0,0,0-0.1,0-0.2v0C377.5,574.5,377.6,574,377.8,573.6z M379.7,573.2h-0.5
					c-0.3,0-0.6,0.2-0.9,0.5c-0.2,0.4-0.3,0.8-0.3,1.3c0,0.6,0.1,1,0.3,1.4c0.3,0.4,0.6,0.6,0.9,0.6h0.5H411h1.1
					c0.4,0,0.7-0.2,0.9-0.6c0.3-0.3,0.4-0.8,0.4-1.4c0-0.5-0.1-1-0.4-1.3c-0.2-0.3-0.5-0.5-0.9-0.5H411H379.7z"/>
				
					<radialGradient id="SVGID_39_" cx="378.9004" cy="578" r="3.2875" gradientTransform="matrix(1 0 0 1.5019 0 -290.0989)" gradientUnits="userSpaceOnUse">
					<stop  offset="0" style="stop-color:#D4D3CF"/>
					<stop  offset="0.6471" style="stop-color:#CAC9C6"/>
					<stop  offset="0.6588" style="stop-color:#CDCCC9"/>
					<stop  offset="1" style="stop-color:#888886"/>
				</radialGradient>
				<path fill-rule="evenodd" clip-rule="evenodd" fill="url(#SVGID_39_)" d="M379.7,573.2c-1.8,0.1-1.8,1.4,0,3.8h-0.5
					c-0.3,0-0.6-0.2-0.9-0.6c-0.2-0.3-0.3-0.8-0.3-1.4c0-0.5,0.1-1,0.3-1.3c0.3-0.3,0.6-0.5,0.9-0.5H379.7z"/>
				
					<radialGradient id="SVGID_40_" cx="410.8496" cy="578.9502" r="4.9625" gradientTransform="matrix(1 0 0 1.4081 0 -236.2466)" gradientUnits="userSpaceOnUse">
					<stop  offset="0" style="stop-color:#D4D3CF"/>
					<stop  offset="0.6471" style="stop-color:#CAC9C6"/>
					<stop  offset="0.6588" style="stop-color:#CDCCC9"/>
					<stop  offset="1" style="stop-color:#888886"/>
				</radialGradient>
				<path fill-rule="evenodd" clip-rule="evenodd" fill="url(#SVGID_40_)" d="M411,577c2-2.4,2-3.7,0-3.8h1.1c0.4,0,0.7,0.2,0.9,0.5
					c0.3,0.4,0.4,0.8,0.4,1.3c0,0.6-0.1,1-0.4,1.4c-0.2,0.4-0.5,0.6-0.9,0.6H411z"/>
			</g>
		</g>
		<g>
			<g>
				<linearGradient id="SVGID_41_" gradientUnits="userSpaceOnUse" x1="395.4248" y1="587.125" x2="395.4248" y2="583.2754">
					<stop  offset="0" style="stop-color:#CCCBC8"/>
					<stop  offset="0.6118" style="stop-color:#CBCAC7"/>
					<stop  offset="0.6902" style="stop-color:#C7C6C3"/>
					<stop  offset="0.8196" style="stop-color:#BFBEBB"/>
					<stop  offset="1" style="stop-color:#A0A09D"/>
				</linearGradient>
				<path fill-rule="evenodd" clip-rule="evenodd" fill="url(#SVGID_41_)" d="M379.7,583.3H411c2,0.1,2,1.4,0,3.8h-31.3
					C377.9,584.7,377.9,583.4,379.7,583.3z M379.5,583.9L379.5,583.9c0,0.2,0,0.3,0.2,0.3c10.8,0,21.6,0,32.3-0.1c0.1,0,0.1,0,0.1,0
					c0-0.1-0.1-0.2-0.2-0.2c-10.7,0-21.5,0-32.3,0C379.6,583.8,379.6,583.8,379.5,583.9z"/>
				<path fill-rule="evenodd" clip-rule="evenodd" fill="#E2E1E0" d="M379.5,583.9c0.1-0.1,0.1-0.1,0.2-0.1c10.8,0,21.6,0,32.3,0
					c0.1,0,0.2,0.1,0.2,0.2c0,0,0,0-0.1,0c-10.8,0.1-21.5,0.1-32.3,0.1C379.5,584.2,379.5,584.1,379.5,583.9L379.5,583.9z"/>
				
					<radialGradient id="SVGID_42_" cx="378.9004" cy="588" r="3.2875" gradientTransform="matrix(1 0 0 1.5019 0 -295.1179)" gradientUnits="userSpaceOnUse">
					<stop  offset="0" style="stop-color:#D4D3CF"/>
					<stop  offset="0.6471" style="stop-color:#CAC9C6"/>
					<stop  offset="0.6588" style="stop-color:#CDCCC9"/>
					<stop  offset="1" style="stop-color:#888886"/>
				</radialGradient>
				<path fill-rule="evenodd" clip-rule="evenodd" fill="url(#SVGID_42_)" d="M379.7,583.3c-1.8,0.2-1.8,1.5,0,3.8h-0.5
					c-0.3,0-0.6-0.2-0.9-0.6c-0.2-0.3-0.3-0.8-0.3-1.3c0-0.5,0.1-1,0.3-1.4c0.3-0.4,0.6-0.5,0.9-0.5H379.7z"/>
				<path fill-rule="evenodd" clip-rule="evenodd" fill="#8C8C8C" d="M377.8,583.7c0.1,0,0.1-0.1,0.1-0.1c0.3-0.4,0.7-0.6,1.1-0.6
					h33.5c0.4,0,0.7,0.2,1,0.6c0.3,0.5,0.4,1,0.4,1.6c0,0.7-0.1,1.2-0.4,1.5c-0.3,0.5-0.6,0.8-1,0.8h-33.5c-0.3,0-0.6-0.2-0.9-0.5
					c-0.1-0.1-0.2-0.2-0.2-0.3c-0.2-0.3-0.3-0.8-0.3-1.3c0-0.1,0-0.2,0-0.2C377.5,584.6,377.6,584.1,377.8,583.7z M379.7,587.1H411
					h1.1c0.4,0,0.7-0.2,0.9-0.6c0.3-0.3,0.4-0.8,0.4-1.3c0-0.5-0.1-1-0.4-1.4c-0.2-0.4-0.5-0.5-0.9-0.5H411h-31.3h-0.5
					c-0.3,0-0.6,0.2-0.9,0.5c-0.2,0.4-0.3,0.8-0.3,1.4c0,0.6,0.1,1,0.3,1.3c0.3,0.4,0.6,0.6,0.9,0.6H379.7z"/>
				
					<radialGradient id="SVGID_43_" cx="410.8496" cy="589" r="4.9625" gradientTransform="matrix(1 0 0 1.4081 0 -240.3476)" gradientUnits="userSpaceOnUse">
					<stop  offset="0" style="stop-color:#D4D3CF"/>
					<stop  offset="0.6471" style="stop-color:#CAC9C6"/>
					<stop  offset="0.6588" style="stop-color:#CDCCC9"/>
					<stop  offset="1" style="stop-color:#888886"/>
				</radialGradient>
				<path fill-rule="evenodd" clip-rule="evenodd" fill="url(#SVGID_43_)" d="M411,587.1c2-2.5,2-3.8,0-3.8h1.1
					c0.4,0,0.7,0.2,0.9,0.5c0.3,0.4,0.4,0.8,0.4,1.4c0,0.6-0.1,1-0.4,1.3c-0.2,0.4-0.5,0.6-0.9,0.6H411z"/>
			</g>
		</g>
		<g>
			<g>
				<path fill-rule="evenodd" clip-rule="evenodd" fill="#FFFFFF" d="M436.8,489.9c0.1,0.1,0.2,0.2,0.2,0.4v51.3
					c0,0.2-0.1,0.3-0.2,0.4c-0.1,0.1-0.3,0.2-0.5,0.2c-0.2,0-0.3-0.1-0.5-0.2c-0.1-0.1-0.2-0.2-0.2-0.4v-51.3c0-0.2,0.1-0.3,0.2-0.4
					c0.1-0.1,0.3-0.2,0.5-0.2C436.5,489.8,436.6,489.8,436.8,489.9z"/>
			</g>
			<g>
				<path fill-rule="evenodd" clip-rule="evenodd" fill="#868279" d="M435,489.8c0.1-0.1,0.3-0.1,0.4-0.1c0.2,0,0.3,0,0.5,0.1
					c0.1,0.1,0.2,0.3,0.2,0.5v51.3c0,0.2,0,0.3-0.2,0.4c-0.1,0.1-0.3,0.2-0.5,0.2c-0.1,0-0.3-0.1-0.4-0.2c-0.1-0.1-0.2-0.2-0.2-0.4
					v-51.3C434.8,490.1,434.8,490,435,489.8z"/>
			</g>
		</g>
		<g>
			<g>
				<path fill-rule="evenodd" clip-rule="evenodd" fill="#FFFFFF" d="M296.8,489.9c0.1,0.1,0.2,0.2,0.2,0.4v51.3
					c0,0.2-0.1,0.3-0.2,0.4c-0.1,0.1-0.2,0.2-0.4,0.2c-0.2,0-0.4-0.1-0.5-0.2c-0.1-0.1-0.2-0.2-0.2-0.4v-51.3c0-0.2,0.1-0.3,0.2-0.4
					c0.1-0.1,0.3-0.2,0.5-0.2C296.6,489.8,296.7,489.8,296.8,489.9z"/>
			</g>
			<g>
				<path fill-rule="evenodd" clip-rule="evenodd" fill="#868279" d="M295,489.8c0.1-0.1,0.2-0.1,0.4-0.1c0.1,0,0.3,0,0.4,0.1
					c0.1,0.1,0.2,0.3,0.2,0.5v51.3c0,0.2-0.1,0.3-0.2,0.4c-0.2,0.1-0.3,0.2-0.4,0.2c-0.2,0-0.3-0.1-0.4-0.2
					c-0.1-0.1-0.1-0.2-0.1-0.4v-51.3C294.9,490.1,295,490,295,489.8z"/>
			</g>
		</g>
		<g>
			<g>
				<path fill-rule="evenodd" clip-rule="evenodd" fill="#FFFFFF" d="M435.7,547.3c0-0.2,0.1-0.3,0.2-0.3c0.1-0.1,0.3-0.2,0.5-0.2
					c0.2,0,0.3,0.1,0.5,0.2c0.1,0.1,0.2,0.2,0.2,0.3v51.3c0,0.2-0.1,0.3-0.2,0.5c-0.1,0.1-0.3,0.2-0.5,0.2c-0.2,0-0.3,0-0.5-0.2
					c-0.1-0.1-0.2-0.3-0.2-0.5V547.3z"/>
			</g>
			<g>
				<path fill-rule="evenodd" clip-rule="evenodd" fill="#868279" d="M434.8,547.3c0-0.2,0.1-0.3,0.2-0.5c0.1-0.1,0.3-0.1,0.4-0.1
					c0.2,0,0.3,0,0.5,0.1c0.1,0.1,0.2,0.3,0.2,0.5v51.3c0,0.2,0,0.3-0.2,0.5c-0.1,0.1-0.3,0.1-0.5,0.1c-0.1,0-0.3,0-0.4-0.1
					c-0.1-0.1-0.2-0.3-0.2-0.5V547.3z"/>
			</g>
		</g>
		<g>
			<g>
				<path fill-rule="evenodd" clip-rule="evenodd" fill="#FFFFFF" d="M295.7,547.3c0-0.2,0.1-0.3,0.2-0.3c0.1-0.1,0.3-0.2,0.5-0.2
					c0.2,0,0.3,0.1,0.4,0.2c0.1,0.1,0.2,0.2,0.2,0.3v51.3c0,0.2-0.1,0.3-0.2,0.5c-0.1,0.1-0.2,0.2-0.4,0.2c-0.2,0-0.4,0-0.5-0.2
					c-0.1-0.1-0.2-0.3-0.2-0.5V547.3z"/>
			</g>
			<g>
				<path fill-rule="evenodd" clip-rule="evenodd" fill="#868279" d="M294.9,547.3c0-0.2,0.1-0.3,0.1-0.5c0.1-0.1,0.2-0.1,0.4-0.1
					c0.1,0,0.3,0,0.4,0.1c0.1,0.1,0.2,0.3,0.2,0.5v51.3c0,0.2-0.1,0.3-0.2,0.5c-0.2,0.1-0.3,0.1-0.4,0.1c-0.2,0-0.3,0-0.4-0.1
					c-0.1-0.1-0.1-0.3-0.1-0.5V547.3z"/>
			</g>
		</g>
		<g>
			
				<path fill-rule="evenodd" clip-rule="evenodd" fill="none" stroke="#000000" stroke-linecap="round" stroke-linejoin="round" stroke-miterlimit="3" stroke-opacity="0.1608" d="
				M392.2,506.5H338c-4.2,0-6.4,0.8-6.5,2.5l0.1,21.6c-0.1,1.7,1.9,2.6,6.1,2.6h54.2c4.3,0,6.5-0.9,6.7-2.6l-0.2-21.6
				C398.6,507.3,396.5,506.5,392.2,506.5z"/>
		</g>
		<g>
			
				<radialGradient id="SVGID_44_" cx="393.5498" cy="478.2998" r="34.6125" gradientTransform="matrix(1 0 0 3.105814e-002 0 463.4447)" gradientUnits="userSpaceOnUse">
				<stop  offset="0" style="stop-color:#FFFFFF"/>
				<stop  offset="0.2235" style="stop-color:#FFFFFF"/>
				<stop  offset="0.4706" style="stop-color:#FFFFFF;stop-opacity:0.6"/>
				<stop  offset="0.7098" style="stop-color:#FFFFFF;stop-opacity:0.251"/>
				<stop  offset="1" style="stop-color:#FFFFFF;stop-opacity:0"/>
			</radialGradient>
			<path fill-rule="evenodd" clip-rule="evenodd" fill="url(#SVGID_44_)" d="M424.5,479.3c-8.4,0.3-18.7,0.5-30.9,0.5
				c-12.1,0-22.4-0.2-31-0.5c-8.5-0.2-12.7-0.5-12.7-0.8c0-0.4,4.2-0.7,12.7-0.9c8.6-0.3,18.9-0.4,31-0.4c12.2,0,22.5,0.1,30.9,0.4
				c8.7,0.2,13,0.5,13,0.9C437.5,478.8,433.2,479.1,424.5,479.3z"/>
		</g>
	</g>
</g>
<g id="Layer_2">
	<path fill-rule="evenodd" clip-rule="evenodd" fill="none" d="M298.6,468.5c0.5,0.1,0.9,0.4,1.3,0.7c0.4,0.3,0.8,0.4,1.3,0.4"/>
	<g>
		
			<radialGradient id="SVGID_45_" cx="293.6909" cy="471.5762" r="10.2713" gradientTransform="matrix(1.0264 0 0 1.2726 -8.4055 -128.0455)" gradientUnits="userSpaceOnUse">
			<stop  offset="0" style="stop-color:#6A6A6A"/>
			<stop  offset="0.1725" style="stop-color:#4F4F4F"/>
			<stop  offset="0.3765" style="stop-color:#232323"/>
			<stop  offset="0.5098" style="stop-color:#0F0F0F"/>
			<stop  offset="1" style="stop-color:#000000"/>
		</radialGradient>
		<path fill-rule="evenodd" clip-rule="evenodd" fill="url(#SVGID_45_)" d="M299.5,474.9c0,0.7-2.8,1.4-6.3,1.4s-6.3-0.6-6.3-1.4
			c0,0,0.6-2,1.2-2c2.8-0.3,8-0.3,9.8-0.1c0.2,0,0.5,0,0.7,0.3"/>
		<ellipse fill-rule="evenodd" clip-rule="evenodd" fill="#2F2F2F" cx="293.2" cy="473" rx="5.3" ry="0.9"/>
		<linearGradient id="SVGID_46_" gradientUnits="userSpaceOnUse" x1="289.5454" y1="472.9941" x2="296.8555" y2="472.9941">
			<stop  offset="0" style="stop-color:#1C1C1C"/>
			<stop  offset="0.1255" style="stop-color:#606060"/>
			<stop  offset="0.3961" style="stop-color:#7B7B7B"/>
			<stop  offset="0.851" style="stop-color:#494949"/>
			<stop  offset="1" style="stop-color:#000000"/>
		</linearGradient>
		<ellipse fill-rule="evenodd" clip-rule="evenodd" fill="url(#SVGID_46_)" cx="293.2" cy="473" rx="3.7" ry="0.6"/>
		<radialGradient id="SVGID_47_" cx="298.6494" cy="474.5576" r="0" gradientUnits="userSpaceOnUse">
			<stop  offset="0" style="stop-color:#6A6A6A"/>
			<stop  offset="0.1725" style="stop-color:#4F4F4F"/>
			<stop  offset="0.3765" style="stop-color:#232323"/>
			<stop  offset="0.5098" style="stop-color:#0F0F0F"/>
			<stop  offset="1" style="stop-color:#000000"/>
		</radialGradient>
		<path fill-rule="evenodd" clip-rule="evenodd" fill="url(#SVGID_47_)" d="M298.6,474.6"/>
	</g>
	<g>
		
			<radialGradient id="SVGID_48_" cx="295.3696" cy="467.4902" r="2.6608" gradientTransform="matrix(1.0264 0 0 1.2726 -8.4055 -128.0455)" gradientUnits="userSpaceOnUse">
			<stop  offset="0" style="stop-color:#6A6A6A"/>
			<stop  offset="0.1725" style="stop-color:#4F4F4F"/>
			<stop  offset="0.3765" style="stop-color:#232323"/>
			<stop  offset="0.5098" style="stop-color:#0F0F0F"/>
			<stop  offset="1" style="stop-color:#000000"/>
		</radialGradient>
		<path fill-rule="evenodd" clip-rule="evenodd" fill="url(#SVGID_48_)" d="M296.4,467.6c0,0.2-0.7,0.4-1.6,0.4
			c-0.9,0-1.6-0.2-1.6-0.4c0,0,0.2-0.5,0.3-0.5c0.7-0.1,2.1-0.1,2.5,0c0.1,0,0.1,0,0.2,0.1"/>
		<ellipse fill-rule="evenodd" clip-rule="evenodd" fill="#2F2F2F" cx="294.8" cy="467.1" rx="1.4" ry="0.2"/>
		<linearGradient id="SVGID_49_" gradientUnits="userSpaceOnUse" x1="293.8511" y1="467.1309" x2="295.7441" y2="467.1309">
			<stop  offset="0" style="stop-color:#1C1C1C"/>
			<stop  offset="0.1255" style="stop-color:#606060"/>
			<stop  offset="0.3961" style="stop-color:#7B7B7B"/>
			<stop  offset="0.851" style="stop-color:#494949"/>
			<stop  offset="1" style="stop-color:#000000"/>
		</linearGradient>
		<ellipse fill-rule="evenodd" clip-rule="evenodd" fill="url(#SVGID_49_)" cx="294.8" cy="467.1" rx="0.9" ry="0.1"/>
		<radialGradient id="SVGID_50_" cx="296.2085" cy="467.5361" r="0" gradientUnits="userSpaceOnUse">
			<stop  offset="0" style="stop-color:#6A6A6A"/>
			<stop  offset="0.1725" style="stop-color:#4F4F4F"/>
			<stop  offset="0.3765" style="stop-color:#232323"/>
			<stop  offset="0.5098" style="stop-color:#0F0F0F"/>
			<stop  offset="1" style="stop-color:#000000"/>
		</radialGradient>
		<path fill-rule="evenodd" clip-rule="evenodd" fill="url(#SVGID_50_)" d="M296.2,467.5"/>
	</g>
	<g>
		
			<radialGradient id="SVGID_51_" cx="294.9824" cy="468.4385" r="2.6601" gradientTransform="matrix(1.0264 0 0 1.2726 -8.4055 -128.0455)" gradientUnits="userSpaceOnUse">
			<stop  offset="0" style="stop-color:#6A6A6A"/>
			<stop  offset="0.1725" style="stop-color:#4F4F4F"/>
			<stop  offset="0.3765" style="stop-color:#232323"/>
			<stop  offset="0.5098" style="stop-color:#0F0F0F"/>
			<stop  offset="1" style="stop-color:#000000"/>
		</radialGradient>
		<path fill-rule="evenodd" clip-rule="evenodd" fill="url(#SVGID_51_)" d="M296,468.8c0,0.2-0.7,0.4-1.6,0.4
			c-0.9,0-1.6-0.2-1.6-0.4c0,0,0.2-0.5,0.3-0.5c0.7-0.1,2.1-0.1,2.5,0c0.1,0,0.1,0,0.2,0.1"/>
		<ellipse fill-rule="evenodd" clip-rule="evenodd" fill="#2F2F2F" cx="294.4" cy="468.4" rx="1.4" ry="0.2"/>
		<linearGradient id="SVGID_52_" gradientUnits="userSpaceOnUse" x1="293.4536" y1="468.3379" x2="295.3467" y2="468.3379">
			<stop  offset="0" style="stop-color:#1C1C1C"/>
			<stop  offset="0.1255" style="stop-color:#606060"/>
			<stop  offset="0.3961" style="stop-color:#7B7B7B"/>
			<stop  offset="0.851" style="stop-color:#494949"/>
			<stop  offset="1" style="stop-color:#000000"/>
		</linearGradient>
		<ellipse fill-rule="evenodd" clip-rule="evenodd" fill="url(#SVGID_52_)" cx="294.4" cy="468.3" rx="0.9" ry="0.1"/>
		<radialGradient id="SVGID_53_" cx="295.811" cy="468.7422" r="0" gradientUnits="userSpaceOnUse">
			<stop  offset="0" style="stop-color:#6A6A6A"/>
			<stop  offset="0.1725" style="stop-color:#4F4F4F"/>
			<stop  offset="0.3765" style="stop-color:#232323"/>
			<stop  offset="0.5098" style="stop-color:#0F0F0F"/>
			<stop  offset="1" style="stop-color:#000000"/>
		</radialGradient>
		<path fill-rule="evenodd" clip-rule="evenodd" fill="url(#SVGID_53_)" d="M295.8,468.7"/>
	</g>
	<g>
		
			<radialGradient id="SVGID_54_" cx="294.7139" cy="469.3711" r="2.6608" gradientTransform="matrix(1.0264 0 0 1.2726 -8.4055 -128.0455)" gradientUnits="userSpaceOnUse">
			<stop  offset="0" style="stop-color:#6A6A6A"/>
			<stop  offset="0.1725" style="stop-color:#4F4F4F"/>
			<stop  offset="0.3765" style="stop-color:#232323"/>
			<stop  offset="0.5098" style="stop-color:#0F0F0F"/>
			<stop  offset="1" style="stop-color:#000000"/>
		</radialGradient>
		<path fill-rule="evenodd" clip-rule="evenodd" fill="url(#SVGID_54_)" d="M295.7,470c0,0.2-0.7,0.4-1.6,0.4
			c-0.9,0-1.6-0.2-1.6-0.4c0,0,0.2-0.5,0.3-0.5c0.7-0.1,2.1-0.1,2.5,0c0.1,0,0.1,0,0.2,0.1"/>
		<ellipse fill-rule="evenodd" clip-rule="evenodd" fill="#2F2F2F" cx="294.1" cy="469.5" rx="1.4" ry="0.2"/>
		<linearGradient id="SVGID_55_" gradientUnits="userSpaceOnUse" x1="293.1782" y1="469.5254" x2="295.0713" y2="469.5254">
			<stop  offset="0" style="stop-color:#1C1C1C"/>
			<stop  offset="0.1255" style="stop-color:#606060"/>
			<stop  offset="0.3961" style="stop-color:#7B7B7B"/>
			<stop  offset="0.851" style="stop-color:#494949"/>
			<stop  offset="1" style="stop-color:#000000"/>
		</linearGradient>
		<ellipse fill-rule="evenodd" clip-rule="evenodd" fill="url(#SVGID_55_)" cx="294.1" cy="469.5" rx="0.9" ry="0.1"/>
		<radialGradient id="SVGID_56_" cx="295.5356" cy="469.9297" r="0" gradientUnits="userSpaceOnUse">
			<stop  offset="0" style="stop-color:#6A6A6A"/>
			<stop  offset="0.1725" style="stop-color:#4F4F4F"/>
			<stop  offset="0.3765" style="stop-color:#232323"/>
			<stop  offset="0.5098" style="stop-color:#0F0F0F"/>
			<stop  offset="1" style="stop-color:#000000"/>
		</radialGradient>
		<path fill-rule="evenodd" clip-rule="evenodd" fill="url(#SVGID_56_)" d="M295.5,469.9"/>
	</g>
	<g>
		
			<radialGradient id="SVGID_57_" cx="294.4468" cy="470.2793" r="2.6608" gradientTransform="matrix(1.0264 0 0 1.2726 -8.4055 -128.0455)" gradientUnits="userSpaceOnUse">
			<stop  offset="0" style="stop-color:#6A6A6A"/>
			<stop  offset="0.1725" style="stop-color:#4F4F4F"/>
			<stop  offset="0.3765" style="stop-color:#232323"/>
			<stop  offset="0.5098" style="stop-color:#0F0F0F"/>
			<stop  offset="1" style="stop-color:#000000"/>
		</radialGradient>
		<path fill-rule="evenodd" clip-rule="evenodd" fill="url(#SVGID_57_)" d="M295.5,471.2c0,0.2-0.7,0.4-1.6,0.4
			c-0.9,0-1.6-0.2-1.6-0.4c0,0,0.2-0.5,0.3-0.5c0.7-0.1,2.1-0.1,2.5,0c0.1,0,0.1,0,0.2,0.1"/>
		<ellipse fill-rule="evenodd" clip-rule="evenodd" fill="#2F2F2F" cx="293.9" cy="470.7" rx="1.4" ry="0.2"/>
		<linearGradient id="SVGID_58_" gradientUnits="userSpaceOnUse" x1="292.9038" y1="470.6816" x2="294.7969" y2="470.6816">
			<stop  offset="0" style="stop-color:#1C1C1C"/>
			<stop  offset="0.1255" style="stop-color:#606060"/>
			<stop  offset="0.3961" style="stop-color:#7B7B7B"/>
			<stop  offset="0.851" style="stop-color:#494949"/>
			<stop  offset="1" style="stop-color:#000000"/>
		</linearGradient>
		<ellipse fill-rule="evenodd" clip-rule="evenodd" fill="url(#SVGID_58_)" cx="293.9" cy="470.7" rx="0.9" ry="0.1"/>
		<radialGradient id="SVGID_59_" cx="295.2612" cy="471.0859" r="0" gradientUnits="userSpaceOnUse">
			<stop  offset="0" style="stop-color:#6A6A6A"/>
			<stop  offset="0.1725" style="stop-color:#4F4F4F"/>
			<stop  offset="0.3765" style="stop-color:#232323"/>
			<stop  offset="0.5098" style="stop-color:#0F0F0F"/>
			<stop  offset="1" style="stop-color:#000000"/>
		</radialGradient>
		<path fill-rule="evenodd" clip-rule="evenodd" fill="url(#SVGID_59_)" d="M295.3,471.1"/>
	</g>
	<g>
		
			<radialGradient id="SVGID_60_" cx="295.4927" cy="465.082" r="7.1424" gradientTransform="matrix(1.0509 0 0 1.3618 -15.5656 -169.7212)" gradientUnits="userSpaceOnUse">
			<stop  offset="0" style="stop-color:#6A6A6A"/>
			<stop  offset="0.1725" style="stop-color:#4F4F4F"/>
			<stop  offset="0.3765" style="stop-color:#232323"/>
			<stop  offset="0.5098" style="stop-color:#0F0F0F"/>
			<stop  offset="1" style="stop-color:#000000"/>
		</radialGradient>
		<path fill-rule="evenodd" clip-rule="evenodd" fill="url(#SVGID_60_)" d="M299.6,465.7c0,0.6-2,1-4.5,1c-2.5,0-4.5-0.4-4.5-1
			c0,0,0.5-1.5,0.8-1.5c2-0.2,5.7-0.2,7,0c0.2,0,0.4,0,0.5,0.2"/>
		<ellipse fill-rule="evenodd" clip-rule="evenodd" fill="#2F2F2F" cx="295.1" cy="464.3" rx="3.8" ry="0.7"/>
		<linearGradient id="SVGID_61_" gradientUnits="userSpaceOnUse" x1="292.4976" y1="464.2832" x2="297.7031" y2="464.2832">
			<stop  offset="0" style="stop-color:#1C1C1C"/>
			<stop  offset="0.1255" style="stop-color:#606060"/>
			<stop  offset="0.3961" style="stop-color:#7B7B7B"/>
			<stop  offset="0.851" style="stop-color:#494949"/>
			<stop  offset="1" style="stop-color:#000000"/>
		</linearGradient>
		<ellipse fill-rule="evenodd" clip-rule="evenodd" fill="url(#SVGID_61_)" cx="295.1" cy="464.3" rx="2.6" ry="0.4"/>
		
			<radialGradient id="SVGID_62_" cx="298.7876" cy="465.541" r="0" gradientTransform="matrix(1.0239 0 0 1.0701 -6.9592 -32.7062)" gradientUnits="userSpaceOnUse">
			<stop  offset="0" style="stop-color:#6A6A6A"/>
			<stop  offset="0.1725" style="stop-color:#4F4F4F"/>
			<stop  offset="0.3765" style="stop-color:#232323"/>
			<stop  offset="0.5098" style="stop-color:#0F0F0F"/>
			<stop  offset="1" style="stop-color:#000000"/>
		</radialGradient>
		<path fill-rule="evenodd" clip-rule="evenodd" fill="url(#SVGID_62_)" d="M299,465.4"/>
	</g>
</g>
</svg>
