<?xml version="1.0" encoding="utf-8"?>
<!-- Generator: Adobe Illustrator 16.0.0, SVG Export Plug-In . SVG Version: 6.00 Build 0)  -->
<!DOCTYPE svg PUBLIC "-//W3C//DTD SVG 1.1//EN" "http://www.w3.org/Graphics/SVG/1.1/DTD/svg11.dtd">
<svg version="1.1" xmlns="http://www.w3.org/2000/svg" xmlns:xlink="http://www.w3.org/1999/xlink" x="0px" y="0px" width="196.6px"
	 height="196.6px" viewBox="134.5 109.5 196.6 196.6" enable-background="new 134.5 109.5 196.6 196.6" xml:space="preserve">
<g id="Layer_2_1_">
</g>
<g id="Layer_1">
	<g id="Layer_10">
	</g>
	<g id="Layer_2">
		<g>
			<g>
				<g>
					<g>
						<g>
							
								<linearGradient id="SVGID_1_" gradientUnits="userSpaceOnUse" x1="179.5522" y1="475.0693" x2="180.9343" y2="396.1921" gradientTransform="matrix(1 0 0 -1 52.3398 630.04)">
								<stop  offset="0" style="stop-color:#262626"/>
								<stop  offset="0.5725" style="stop-color:#111111"/>
							</linearGradient>
							<path fill="url(#SVGID_1_)" d="M270.6,239l-16.2-5.7c-0.2-0.1-0.4-0.3-0.7-0.4c-0.3-0.1-0.6-0.2-1-0.3l-0.3-0.1
								c-15.2-3.9-30.8-4.2-46.8-0.9h-0.1c-0.1,0-0.3,0.1-0.4,0.1l-15.8,4.5c-0.1,0-0.2,0-0.3,0s-0.1,0.1-0.2,0.1
								c-5.2,1.8-10.4,4.1-15.6,6.6c-0.2,0.1-0.4,0.2-0.5,0.3c-0.8,0.4-1.6,0.7-2.3,1c-2,0.4-3.2,0-3.7-1.2l-19.2-31.2
								c-6.7-9.5-6.8-16.6-0.4-21.3c0.3-0.2,0.6-0.3,1-0.5c61.2-28.9,118.6-26.3,172.4,7.9c2.9,2.8,3.3,6.3,1.2,10.4l-26.1,41.3
								c-1.4,1.9-2.6,2.5-3.6,1.8c-6.9-4.9-13.9-9-21-12.3C271,239.1,270.9,239.1,270.6,239z M296.4,223.1c0.4,0.2,0.8,0.4,1.2,0.6
								c0,0,0.1,0.1,0.2,0.1c0.101,0.1,0.3,0.2,0.5,0.3c0.101,0,0.3,0,0.4,0.1c3.3,1.1,5.7,0.8,7.1-1l9.5-17.3
								c0.7-1.5-0.8-3.1-4.3-5c-0.2-0.2-0.5-0.4-0.8-0.5c-0.101-0.1-0.101-0.1-0.3-0.2c-0.101-0.1-0.101-0.1-0.2-0.1
								c-50.5-28.6-102.7-30-156.4-4.1c-2.5,1.2-3.3,3.8-2.4,7.7c2,5.2,5.3,10.6,9.7,16.5c0.8,1.5,2.7,1.5,5.8,0.1
								C211,199.1,254.3,200.1,296.4,223.1z"/>
							
								<linearGradient id="SVGID_2_" gradientUnits="userSpaceOnUse" x1="51.0728" y1="1079.8496" x2="84.6194" y2="1079.8496" gradientTransform="matrix(-0.6878 0.7259 0.7862 0.6242 -497.5483 -508.0748)">
								<stop  offset="0" style="stop-color:#111111"/>
								<stop  offset="0.2353" style="stop-color:#444444"/>
								<stop  offset="0.6588" style="stop-color:#000000"/>
							</linearGradient>
							<path fill="url(#SVGID_2_)" d="M310.1,200.5c0.301,0.2,0.5,0.3,0.801,0.5c3.5,1.8,5,3.5,4.3,5l-9.5,17.3
								c-1.5,1.8-3.9,2.1-7.101,1c-0.1,0-0.3-0.1-0.399-0.1c-0.2-0.1-0.4-0.2-0.5-0.3c-0.1,0-0.1,0-0.2-0.1
								c-0.4-0.2-0.8-0.4-1.2-0.6c2.7,0.3,4.9-0.5,6.7-2.5l8.8-15.4C312.6,203.7,312,202.1,310.1,200.5z"/>
							
								<linearGradient id="SVGID_3_" gradientUnits="userSpaceOnUse" x1="150.0522" y1="1052.4697" x2="207.6823" y2="1052.4697" gradientTransform="matrix(-0.6012 0.7991 0.8489 0.535 -541.5142 -445.6274)">
								<stop  offset="0" style="stop-color:#595959"/>
								<stop  offset="0.5725" style="stop-color:#111111"/>
							</linearGradient>
							<path fill="url(#SVGID_3_)" d="M254.5,233.4c0.6,0.4,0.9,0.9,1,1.4c0,0.3,0,0.6-0.1,0.9c-0.1,0.3-0.2,0.7-0.4,1.1
								c0,0.1-0.1,0.1-0.1,0.2c0,0-0.1,0-0.1,0.1l-20,51l-0.8-1.4l20-50.8c0.2-0.4,0.3-0.8,0.4-1.2c0.1-0.7-0.1-1.3-0.6-1.8
								C254,233.1,254.3,233.2,254.5,233.4z"/>
							
								<linearGradient id="SVGID_4_" gradientUnits="userSpaceOnUse" x1="290.3965" y1="900.668" x2="365.1163" y2="900.668" gradientTransform="matrix(-0.0759 0.9971 0.9981 0.0634 -646.2919 -115.3881)">
								<stop  offset="0" style="stop-color:#000000"/>
								<stop  offset="1" style="stop-color:#111111"/>
							</linearGradient>
							<path fill="url(#SVGID_4_)" d="M228.4,306.1l-36.8-68.8c-0.6-0.8-1.3-1.2-2-1.1l15.8-4.5c-0.6,0.2-0.8,0.7-0.5,1.4l29.1,53.6
								l0.8,1.4l20-51c0,0,0-0.1,0.1-0.1c0-0.1,0.1-0.1,0.1-0.2c0.2-0.5,0.4-0.9,0.4-1.1c0.1-0.3,0.1-0.6,0.1-0.9
								c-0.1-0.6-0.5-1-1-1.4l16.2,5.7c-0.7-0.1-1.3,0.2-1.6,0.9l-26.5,66.1H228.4z"/>
							
								<linearGradient id="SVGID_5_" gradientUnits="userSpaceOnUse" x1="269.9253" y1="613.1748" x2="330.8522" y2="613.1748" gradientTransform="matrix(0.5937 0.8047 0.8533 -0.5278 -545.1935 298.8616)">
								<stop  offset="0" style="stop-color:#111111"/>
								<stop  offset="0.2353" style="stop-color:#444444"/>
								<stop  offset="0.6588" style="stop-color:#000000"/>
							</linearGradient>
							<path fill="url(#SVGID_5_)" d="M170.6,244.3c-2.5,0.9-4,0.9-4.5-0.1l-22.7-36.6c-4.6-8-3.3-13.7,4-16.9
								c-6.5,4.7-6.4,11.8,0.4,21.3l19.2,31.2C167.4,244.3,168.6,244.7,170.6,244.3z"/>
							
								<linearGradient id="SVGID_6_" gradientUnits="userSpaceOnUse" x1="112.6553" y1="349.5117" x2="146.5265" y2="349.5117" gradientTransform="matrix(0.9979 -0.0647 -0.077 -0.9971 106.2594 628.0414)">
								<stop  offset="0" style="stop-color:#595959"/>
								<stop  offset="0.5725" style="stop-color:#111111"/>
							</linearGradient>
							<path fill="url(#SVGID_6_)" d="M228.4,306.1h-1.3l-36.8-68.8c-0.4-0.5-0.8-0.9-1.3-1c0.1,0,0.1-0.1,0.2-0.1
								c0.1,0,0.3,0,0.3,0c0.7-0.1,1.4,0.3,2,1.1L228.4,306.1z"/>
						</g>
					</g>
					<g>
						<g>
							<path fill="#6F6F6F" fill-opacity="0.3922" d="M230.5,177.6c-22.2,0.4-43.8,5.9-64.9,16.5c-6,3.9-8.5,9.8-7.8,17.8
								c1.1,7.1,6,10.6,14.9,10.5l60.7-0.4l55.8,0.4c8.899,0,13.899-3.5,15-10.5c0.8-8-1.8-13.9-7.8-17.8
								c-21.1-10.6-42.7-16.1-64.9-16.5c-0.2,0-0.3,0-0.5,0C230.9,177.6,230.7,177.6,230.5,177.6z M230.5,177.3c0.2,0,0.3,0,0.5,0
								s0.3,0,0.5,0c22.5,0.4,44.5,6,65.9,16.8c6.1,3.9,8.7,9.9,7.9,18c-1.1,7.2-6.1,10.8-15.1,10.8l-56.7-0.4l-61.5,0.4
								c-9,0-14.1-3.6-15.2-10.8c-0.8-8.1,1.9-14.1,8-18C186.1,183.3,208,177.7,230.5,177.3z"/>
							
								<linearGradient id="SVGID_7_" gradientUnits="userSpaceOnUse" x1="169.5483" y1="454.9316" x2="183.912" y2="401.4854" gradientTransform="matrix(1 0 0 -1 52.3398 630.04)">
								<stop  offset="0" style="stop-color:#FFFFFF;stop-opacity:0.6"/>
								<stop  offset="1" style="stop-color:#FFFFFF;stop-opacity:0.3647"/>
							</linearGradient>
							<path fill="url(#SVGID_7_)" d="M230.5,177.6c0.2,0,0.3,0,0.5,0s0.3,0,0.5,0c22.2,0.4,43.8,5.9,64.9,16.5
								c6,3.9,8.6,9.8,7.8,17.8c-1.101,7.1-6.101,10.6-15,10.5l-55.8-0.4l-60.7,0.4c-8.9,0-13.8-3.5-14.9-10.5
								c-0.8-8,1.8-13.9,7.8-17.8C186.7,183.6,208.4,178.1,230.5,177.6z"/>
						</g>
					</g>
					<g>
						<g>
							
								<linearGradient id="SVGID_8_" gradientUnits="userSpaceOnUse" x1="319.6201" y1="831.9824" x2="334.2972" y2="831.9824" gradientTransform="matrix(0.2776 0.9607 0.9725 -0.2368 -628.536 94.9382)">
								<stop  offset="0" style="stop-color:#744F36"/>
								<stop  offset="1" style="stop-color:#1D130E"/>
							</linearGradient>
							<path fill="url(#SVGID_8_)" d="M266.4,206.3c1.4-1,3-1.5,4.9-1.5c2.2,0,4.1,0.7,5.6,2.1c1.6,1.4,2.4,3.2,2.4,5.2
								c0,1.8-0.6,3.3-1.8,4.7c-0.2,0.2-0.4,0.3-0.5,0.5c-0.2,0.2-0.5,0.4-0.8,0.6c-1.4,1-3,1.5-4.8,1.5c-2.2,0-4.1-0.7-5.6-2.1
								c-1.6-1.4-2.4-3.2-2.4-5.2c0-1.8,0.6-3.4,1.9-4.7c0.2-0.2,0.3-0.3,0.5-0.5C265.9,206.6,266.1,206.5,266.4,206.3z M267,206.8
								c-0.3,0.2-0.7,0.4-1,0.7c-0.1,0.1-0.3,0.2-0.4,0.3c-1.2,1.3-1.9,2.8-1.9,4.5c0,1.9,0.7,3.5,2.2,4.9c1.5,1.3,3.2,2,5.3,2
								c1.7,0,3.3-0.5,4.6-1.5c0.2-0.2,0.5-0.4,0.7-0.5c0.2-0.2,0.4-0.4,0.6-0.6c1.1-1.2,1.6-2.6,1.6-4.3c0-1.9-0.7-3.5-2.2-4.8
								s-3.2-2-5.3-2C269.6,205.5,268.2,205.9,267,206.8z"/>
							
								<linearGradient id="SVGID_9_" gradientUnits="userSpaceOnUse" x1="-361.1152" y1="785.1973" x2="-347.204" y2="785.1973" gradientTransform="matrix(-0.7817 -0.6236 -0.6932 0.7263 538.8177 -578.9202)">
								<stop  offset="0" style="stop-color:#372519"/>
								<stop  offset="0.1725" style="stop-color:#5C3F2C"/>
								<stop  offset="0.3647" style="stop-color:#372519"/>
								<stop  offset="1" style="stop-color:#170F0B"/>
							</linearGradient>
							<path fill="url(#SVGID_9_)" d="M267,206.8l10.1,9.8c-0.2,0.2-0.4,0.4-0.6,0.6c-0.2,0.2-0.5,0.4-0.7,0.5l-10.2-9.9
								c0.1-0.1,0.2-0.3,0.4-0.3C266.3,207.2,266.6,207,267,206.8z"/>
							<path fill="#372519" d="M277.1,216.5l-10.1-9.8c1.2-0.9,2.7-1.3,4.3-1.3c2.1,0,3.8,0.7,5.3,2c1.4,1.3,2.2,2.9,2.2,4.8
								C278.7,213.9,278.2,215.3,277.1,216.5z M265.6,207.8l10.2,9.9c-1.3,1-2.9,1.5-4.6,1.5c-2,0-3.8-0.7-5.3-2
								c-1.5-1.3-2.2-3-2.2-4.9C263.8,210.5,264.4,209.1,265.6,207.8z"/>
							<path fill="none" d="M267,206.8c1.2-0.9,2.7-1.3,4.3-1.3c2.1,0,3.8,0.7,5.3,2c1.4,1.3,2.2,2.9,2.2,4.8c0,1.6-0.5,3-1.6,4.3
								c-0.2,0.2-0.4,0.4-0.6,0.6c-0.2,0.2-0.5,0.4-0.7,0.5c-1.3,1-2.9,1.5-4.6,1.5c-2,0-3.8-0.7-5.3-2c-1.5-1.3-2.2-3-2.2-4.9
								c0-1.7,0.6-3.2,1.9-4.5c0.1-0.1,0.2-0.3,0.4-0.3C266.3,207.2,266.6,207,267,206.8z"/>
						</g>
					</g>
					<g>
						<g>
							
								<linearGradient id="SVGID_10_" gradientUnits="userSpaceOnUse" x1="251.4326" y1="202.9653" x2="267.0186" y2="202.9653" gradientTransform="matrix(-0.9999 -0.011 0.011 -1 447.7904 419.1972)">
								<stop  offset="0" style="stop-color:#744F36"/>
								<stop  offset="1" style="stop-color:#1D130E"/>
							</linearGradient>
							<path fill="url(#SVGID_10_)" d="M183.485,211.669c0.518-1.595,1.533-2.984,2.945-4.068c1.715-1.381,3.722-1.959,5.819-1.736
								c2.098,0.223,3.788,1.142,4.97,2.754c1.084,1.413,1.566,3.118,1.346,4.916c-0.002,0.2-0.104,0.399-0.106,0.599
								c-0.105,0.399-0.108,0.699-0.312,0.997c-0.518,1.595-1.533,2.983-2.945,4.068c-1.714,1.282-3.621,1.86-5.819,1.736
								c-2.098-0.223-3.789-1.042-4.971-2.655c-1.084-1.412-1.567-3.018-1.346-4.915c0.002-0.201,0.004-0.401,0.106-0.599
								C183.377,212.368,183.382,211.967,183.485,211.669z M197.45,214.922c0.205-0.397,0.309-0.797,0.313-1.097
								c0.002-0.2,0.103-0.299,0.105-0.499c0.219-1.698-0.164-3.302-1.248-4.714c-1.083-1.512-2.675-2.33-4.674-2.452
								c-1.998-0.222-3.804,0.358-5.317,1.542c-1.412,1.084-2.326,2.375-2.844,3.969c-0.104,0.299-0.106,0.499-0.21,0.898
								c-0.003,0.3-0.106,0.499-0.109,0.799c-0.118,1.598,0.366,3.104,1.353,4.315c1.184,1.513,2.675,2.33,4.572,2.551
								c1.999,0.222,3.804-0.358,5.418-1.641C196.22,217.609,197.034,216.418,197.45,214.922z"/>
							
								<linearGradient id="SVGID_11_" gradientUnits="userSpaceOnUse" x1="-240.5029" y1="971.0234" x2="-226.601" y2="971.0234" gradientTransform="matrix(0.9997 0.0254 0.1126 -0.9975 314.7992 1187.7771)">
								<stop  offset="0" style="stop-color:#372519"/>
								<stop  offset="0.1725" style="stop-color:#5C3F2C"/>
								<stop  offset="0.3647" style="stop-color:#372519"/>
								<stop  offset="1" style="stop-color:#170F0B"/>
							</linearGradient>
							<path fill="url(#SVGID_11_)" d="M183.885,211.673l14.083,1.655c-0.002,0.2-0.104,0.299-0.106,0.499
								c-0.004,0.4-0.109,0.799-0.312,1.097l-13.983-1.654c0.003-0.3,0.105-0.499,0.109-0.799
								C183.679,212.171,183.782,211.972,183.885,211.673z"/>
							<path fill="#372519" d="M183.467,213.269l13.982,1.654c-0.415,1.396-1.329,2.586-2.64,3.572
								c-1.614,1.282-3.419,1.762-5.418,1.64c-1.897-0.22-3.489-1.038-4.572-2.55C183.833,216.373,183.349,214.967,183.467,213.269z
								 M197.867,213.327l-13.982-1.654c0.518-1.594,1.432-2.885,2.844-3.969c1.614-1.183,3.42-1.763,5.318-1.542
								c1.999,0.122,3.59,0.939,4.673,2.452C197.704,210.025,198.086,211.629,197.867,213.327z"/>
							<path fill="none" d="M197.45,214.922c-0.415,1.396-1.329,2.586-2.64,3.572c-1.614,1.282-3.419,1.762-5.418,1.64
								c-1.897-0.22-3.489-1.038-4.572-2.55c-0.987-1.211-1.47-2.716-1.353-4.315c0.003-0.3,0.105-0.499,0.109-0.799
								c0.103-0.299,0.106-0.599,0.21-0.898c0.518-1.594,1.432-2.884,2.844-3.969c1.613-1.182,3.42-1.762,5.317-1.542
								c1.999,0.122,3.59,0.94,4.674,2.452c1.083,1.412,1.466,3.017,1.248,4.714c-0.002,0.201-0.103,0.299-0.105,0.5
								C197.758,214.226,197.653,214.624,197.45,214.922z"/>
						</g>
					</g>
					<g>
						
							<radialGradient id="SVGID_12_" cx="147.7603" cy="457.7393" r="30.325" gradientTransform="matrix(1 0 0 -1 52.3398 630.04)" gradientUnits="userSpaceOnUse">
							<stop  offset="0" style="stop-color:#FFFFFF;stop-opacity:0.5137"/>
							<stop  offset="1" style="stop-color:#FFFFFF;stop-opacity:0"/>
						</radialGradient>
						<path fill="url(#SVGID_12_)" d="M240.2,171c0,0-0.1,0-0.2,0c-29.4-1.5-58.7,4.6-87.9,18.1c-0.1,0-0.1,0-0.1,0
							c-0.1,0-0.1-0.1-0.1-0.1v-0.1c0-0.1,0.1-0.1,0.1-0.1c29.3-13.6,58.7-19.6,88.1-18.1c0.1,0,0.1,0,0.2,0.1v0.1
							C240.3,170.9,240.3,171,240.2,171z"/>
					</g>
					<g>
						
							<radialGradient id="SVGID_13_" cx="193.0601" cy="372.4902" r="25.024" gradientTransform="matrix(1 0 0 -1 52.3398 630.04)" gradientUnits="userSpaceOnUse">
							<stop  offset="0" style="stop-color:#FFFFFF"/>
							<stop  offset="1" style="stop-color:#FFFFFF;stop-opacity:0"/>
						</radialGradient>
						<path fill="url(#SVGID_13_)" d="M255,236.6L255,236.6L255,236.6c0.1,0,0.1,0,0.1,0.1l0,0L235,287.9v0.1h-0.1l-0.1-0.1v-0.1
							L255,236.6C254.9,236.7,254.9,236.6,255,236.6z"/>
					</g>
				</g>
			</g>
			<g>
				<g>
					<path fill-opacity="0.4902" d="M176.1,196.5c0,0,0.1,0,0.1-0.1l0.9,2.3l0,0l0,0H177l0,0L176.1,196.5z M174.5,197.1l0.9,2.3l0,0
						l0,0h-0.1l0,0l-1-2.3C174.3,197.2,174.4,197.1,174.5,197.1z M181.6,194.3l0.9,2.4v0.1l0,0l0,0l0,0l-0.9-2.4
						C181.6,194.3,181.6,194.3,181.6,194.3z M178,195.6l1,2.4l0,0l-0.1,0.1h-0.1l-0.9-2.4C177.9,195.7,178,195.7,178,195.6z
						 M180.8,197.4C180.8,197.4,180.7,197.4,180.8,197.4h-0.1l0,0l-0.9-2.4c0.1,0,0.1,0,0.1,0L180.8,197.4L180.8,197.4z M189,191.7
						l0.8,2.4v0.1l0,0l0,0L189,191.7C188.9,191.7,189,191.7,189,191.7z M190.9,191.1l0.8,2.5l0,0h-0.1l-0.8-2.5
						C190.8,191.1,190.8,191.1,190.9,191.1z M187,192.3c0,0,0.1,0,0.2,0l0.8,2.5l0,0v0.1c0,0-0.1,0-0.1-0.1l0,0L187,192.3z
						 M185.4,192.9l0.8,2.5l0,0v0.1l-0.1-0.1l-0.8-2.4C185.2,192.9,185.3,192.9,185.4,192.9z M183.5,193.5l0.9,2.4l0,0l0,0h-0.1l0,0
						l-0.9-2.4C183.4,193.6,183.5,193.6,183.5,193.5z M202.2,188.3l0.5,2.5l0,0h-0.1l0,0l-0.6-2.5
						C202.1,188.3,202.1,188.3,202.2,188.3z M200.3,188.6l0.6,2.5v0.1h-0.1l0,0L200.3,188.6C200.2,188.7,200.3,188.6,200.3,188.6z
						 M198.9,191.6l-0.6-2.5h0.1l0.6,2.5l0,0v0.1C198.9,191.7,198.9,191.7,198.9,191.6L198.9,191.6z M192.8,190.6l0.7,2.4v0.1h-0.1
						l0,0l-0.7-2.5C192.7,190.6,192.7,190.6,192.8,190.6z M196.5,189.6l0.6,2.4v0.1l0,0H197l0,0l-0.6-2.5H196.5z M194.6,190l0.6,2.5
						v0.1h-0.1v-0.1l-0.7-2.5C194.5,190,194.6,190,194.6,190z M211.7,186.6l0.3,2.5l0,0l0,0l0,0l-0.4-2.5H211.7z M209.8,186.9
						l0.4,2.5l0,0c0,0,0,0,0,0.1v-0.1H210l-0.4-2.5C209.7,186.9,209.7,186.9,209.8,186.9z M207.9,187.2l0.4,2.5l0,0h-0.1l0,0
						l-0.4-2.5C207.8,187.2,207.8,187.2,207.9,187.2z M205.8,187.5c0.1,0,0.1,0,0.2,0l0.4,2.5l0,0v0.1c0,0-0.1,0-0.1-0.1
						L205.8,187.5z M204,187.9l0.5,2.5l0,0v0.1c0,0,0,0,0-0.1h-0.1L204,187.9L204,187.9z M221.3,185.8c0,0,0.1,0,0.2,0l0.1,2.4
						l-0.1,0.1l0,0v-0.1L221.3,185.8z M219.6,188.4L219.6,188.4l-0.3-2.5h0.1l0.2,2.4V188.4L219.6,188.4z M217.8,188.5
						C217.7,188.5,217.7,188.5,217.8,188.5h-0.1l0,0l-0.2-2.4h0.1L217.8,188.5L217.8,188.5z M215.6,186.1l0.3,2.5l0,0l-0.1,0.1v-0.1
						l0,0l-0.3-2.4L215.6,186.1z M213.6,186.4l0.3,2.5l0,0h-0.1l0,0l-0.3-2.5C213.6,186.4,213.6,186.4,213.6,186.4z M225.3,185.6
						l0.1,2.4l0,0h-0.1l0,0V185.6C225.2,185.6,225.3,185.6,225.3,185.6z M231.1,185.6v2.3L231,188v-0.1l0,0v-2.3H231.1z
						 M227.3,185.5v2.4v0.1h-0.1v-2.4C227.2,185.5,227.2,185.5,227.3,185.5z M229.2,185.5v2.4l-0.1,0.1c0,0,0,0,0-0.1l0,0l-0.1-2.3
						C229.1,185.5,229.1,185.5,229.2,185.5z M223.3,185.6h0.1l0.1,2.4l0,0l-0.1,0.1V188l0,0L223.3,185.6z M242.8,186.4l-0.2,2.1l0,0
						v0.1c0,0,0-0.1-0.1-0.1l0,0l0.2-2.1C242.6,186.4,242.7,186.4,242.8,186.4z M240.8,186.2l-0.2,2.1l0,0h-0.1l0,0L240.8,186.2
						C240.7,186.2,240.8,186.2,240.8,186.2z M238.8,188.2C238.7,188.2,238.7,188.2,238.8,188.2h-0.1l0,0l0.1-2.2h0.1L238.8,188.2z
						 M236.8,188L236.8,188v0.1V188C236.7,188.1,236.7,188.1,236.8,188v-2.2c0,0,0.1,0,0.2,0L236.8,188z M235,185.8v2.2h-0.1l0,0
						c0,0,0,0-0.1,0l0.1-2.3C234.9,185.8,235,185.8,235,185.8z M233,185.6v2.3l0,0h-0.1c0,0,0,0,0-0.1L233,185.6L233,185.6z
						 M252.3,187.9l-0.4,2l0,0c0,0,0,0.1-0.1,0.1v-0.1l0,0l0.4-2C252.2,187.9,252.2,187.9,252.3,187.9z M250.3,187.5h0.1l-0.4,2.1
						l0,0l0,0c0,0,0,0,0-0.1L250.3,187.5z M248.5,187.2l-0.3,2.1h-0.1v0.1c0,0,0-0.1-0.1-0.1l0,0l0.3-2
						C248.4,187.2,248.4,187.2,248.5,187.2z M246.6,186.9l-0.3,2.1h-0.1h-0.1l0,0l0.3-2.1C246.5,186.9,246.6,186.9,246.6,186.9z
						 M244.7,186.6l-0.3,2.1h-0.1h-0.1l0,0l0.3-2.1C244.6,186.6,244.6,186.6,244.7,186.6z M259.2,191.5L259.2,191.5l0.5-2h0.1
						l-0.4,1.9C259.3,191.5,259.3,191.5,259.2,191.5L259.2,191.5z M261.7,190l-0.5,1.9l0,0h-0.1l0,0l0.5-2
						C261.6,190,261.7,190,261.7,190z M256,188.6l-0.4,2l-0.1,0.1v-0.1l0,0l0.4-2C256,188.6,256,188.6,256,188.6z M254,188.2h0.1
						l-0.4,2l0,0h-0.1l0,0L254,188.2z M257.5,191C257.5,191,257.5,191.1,257.5,191l-0.1,0.1V191l0.4-2l0.1,0.1L257.5,191z
						 M263,192.5L263,192.5L263,192.5L263,192.5L263,192.5l0.4-1.9h0.1L263,192.5z M265.4,191.1l-0.5,1.8v0.1h-0.1v-0.1l0.5-1.9
						L265.4,191.1z M267.3,191.6l-0.5,1.9h-0.1l0,0l0,0l0,0l0.5-1.9C267.2,191.6,267.2,191.6,267.3,191.6z M272.6,193.4l0.1,0.1
						l-0.6,1.8v0.1H272v-0.1L272.6,193.4z M269,192.2l-0.5,1.8l0,0h-0.1l0,0l0,0L269,192.2L269,192.2z M270.2,194.6L270.2,194.6
						l0.6-1.8c0,0,0.1,0,0.2,0.1l-0.6,1.8h-0.2V194.6L270.2,194.6z M276.4,194.8l-0.6,1.8c0,0-0.1,0-0.1,0.1l0,0l-0.1-0.1l0,0
						l0.7-1.8C276.3,194.8,276.3,194.8,276.4,194.8z M274.4,194l0.1,0.1l-0.6,1.8l0,0h-0.1l0,0c0,0,0,0,0-0.1L274.4,194z
						 M277.4,197.3L277.4,197.3c-0.1,0-0.1,0-0.1,0v-0.1l0.8-1.8c0,0,0,0.1,0.1,0.1L277.4,197.3
						C277.4,197.2,277.4,197.2,277.4,197.3z M279.3,197.9L279.3,197.9l-0.1,0.1c0,0,0,0,0-0.1l0,0l0.7-1.7c0,0,0.1,0,0.2,0.1
						L279.3,197.9z M283.4,197.6h0.1l-0.8,1.7c0,0,0,0-0.1,0l0,0v-0.1L283.4,197.6z M281.7,197l-0.7,1.7v0.1h-0.1v-0.1l0,0l0.7-1.7
						C281.6,196.9,281.7,196.9,281.7,197z M295.5,203.5l-0.8,1.8h-0.1l-0.1-0.1L295.5,203.5L295.5,203.5z M293.9,202.6l-0.9,1.7l0,0
						h-0.1l0,0v-0.1l0.9-1.7C293.8,202.6,293.8,202.6,293.9,202.6z M297.3,204.5l-0.9,1.7c0,0-0.1,0-0.1,0.1v-0.1l0,0L297.3,204.5
						L297.3,204.5z M298,207.1L298,207.1h-0.1V207l1.6-2.8l0.3-0.1L298,207.1z M290.5,200.9l-0.9,1.7c0,0,0,0-0.1,0l0,0l0,0
						c0,0,0,0,0-0.1l0.9-1.7C290.4,200.9,290.4,200.9,290.5,200.9z M288.6,200h0.1l-0.8,1.7l0,0h-0.1l0,0l0,0L288.6,200z M292,201.8
						h0.1l-0.9,1.7l0,0l0,0l0,0L292,201.8z M287,199.3l-0.8,1.7h-0.1l0,0H286v-0.1l0.8-1.7C286.9,199.2,286.9,199.2,287,199.3z
						 M285.1,198.4c0,0,0.1,0,0.1,0.1l-0.8,1.7c0,0,0,0.1-0.1,0.1l0,0v-0.1h-0.1L285.1,198.4z M173.6,200.3L173.6,200.3l-0.1,0.1
						v-0.1l-1-2.3h0.1L173.6,200.3L173.6,200.3z M171.9,201L171.9,201l-0.1,0.1V201l-1-2.3h0.1L171.9,201L171.9,201z M169.1,199.6
						l1,2.2v0.1l0,0H170l0,0l-1-2.2C169,199.6,169.1,199.6,169.1,199.6z M167.3,200.5l1.1,2.2v0.1l0,0h-0.1l0,0L167.3,200.5
						C167.2,200.5,167.3,200.5,167.3,200.5z M162,203.1h0.1l1.1,2.1l0,0l0,0h-0.1L162,203.1z M163.7,202.3
						C163.7,202.2,163.8,202.2,163.7,202.3l1.1,2v0.1l0,0h-0.1l0,0L163.7,202.3z M165.5,201.4c0,0,0.1,0,0.1-0.1l1,2.2l0,0l0,0h-0.1
						l0,0L165.5,201.4z"/>
				</g>
			</g>
			<g>
				
					<text transform="matrix(0.4781 -0.8783 0.8783 0.4781 296.4126 201.5664)" fill="#232323" font-family="'ArialMT'" font-size="2.5">.00</text>
				
					<text transform="matrix(0.4989 -0.8666 0.8666 0.4989 293.041 199.6064)" fill="#232323" font-family="'ArialMT'" font-size="2.4999">.01</text>
				
					<text transform="matrix(0.4128 -0.9108 0.9108 0.4128 289.5806 198.0347)" fill="#232323" font-family="'ArialMT'" font-size="2.5">.02</text>
				
					<text transform="matrix(0.384 -0.9233 0.9233 0.384 286.1616 196.3438)" fill="#232323" font-family="'ArialMT'" font-size="2.5">.03</text>
				
					<text transform="matrix(0.384 -0.9233 0.9233 0.384 282.4614 194.7939)" fill="#232323" font-family="'ArialMT'" font-size="2.5">.04</text>
				
					<text transform="matrix(0.384 -0.9233 0.9233 0.384 279.0112 193.1943)" fill="#232323" font-family="'ArialMT'" font-size="2.5">.05</text>
				
					<text transform="matrix(0.384 -0.9233 0.9233 0.384 275.3608 191.8438)" fill="#232323" font-family="'ArialMT'" font-size="2.5">.06</text>
				
					<text transform="matrix(0.3218 -0.9468 0.9468 0.3218 271.625 190.5576)" fill="#232323" font-family="'ArialMT'" font-size="2.5">.07</text>
				
					<text transform="matrix(0.3182 -0.948 0.948 0.3182 267.9268 189.4097)" fill="#232323" font-family="'ArialMT'" font-size="2.5">.08</text>
				
					<text transform="matrix(0.293 -0.9561 0.9561 0.293 264.2026 188.4106)" fill="#232323" font-family="'ArialMT'" font-size="2.5">.09</text>
				
					<text transform="matrix(0.209 -0.9779 0.9779 0.209 260.4375 187.4717)" fill="#232323" font-family="'ArialMT'" font-size="2.5">.10</text>
				
					<text transform="matrix(0.2294 -0.9733 0.9733 0.2294 256.5171 186.4697)" fill="#232323" font-family="'ArialMT'" font-size="2.4999">.11</text>
				
					<text transform="matrix(0.1705 -0.9854 0.9854 0.1705 252.4751 185.7236)" fill="#232323" font-family="'ArialMT'" font-size="2.5001">.12</text>
				
					<text transform="matrix(0.2089 -0.9779 0.9779 0.2089 249.0879 185.0195)" fill="#232323" font-family="'ArialMT'" font-size="2.4999">.13</text>
				
					<text transform="matrix(0.144 -0.9896 0.9896 0.144 244.8506 184.5723)" fill="#232323" font-family="'ArialMT'" font-size="2.5">.14</text>
				
					<text transform="matrix(0.1224 -0.9925 0.9925 0.1224 241.123 184.1226)" fill="#232323" font-family="'ArialMT'" font-size="2.5">.15</text>
				
					<text transform="matrix(0.1488 -0.9889 0.9889 0.1488 237.1978 183.6733)" fill="#232323" font-family="'ArialMT'" font-size="2.5001">.16</text>
				
					<text transform="matrix(0.1312 -0.9914 0.9914 0.1312 233.3135 183.6211)" fill="#232323" font-family="'ArialMT'" font-size="2.5001">.17</text>
				
					<text transform="matrix(0.144 -0.9896 0.9896 0.144 229.3008 183.5723)" fill="#232323" font-family="'ArialMT'" font-size="2.5">.18</text>
				
					<text transform="matrix(-0.07 -0.9976 0.9976 -0.07 225.5088 183.4995)" fill="#232323" font-family="'ArialMT'" font-size="2.5001">.19</text>
				
					<text transform="matrix(-0.0782 -0.9969 0.9969 -0.0782 221.666 183.8501)" fill="#232323" font-family="'ArialMT'" font-size="2.4999">.20</text>
				
					<text transform="matrix(-0.0607 -0.9982 0.9982 -0.0607 217.3496 184.1504)" fill="#232323" font-family="'ArialMT'" font-size="2.5001">.21</text>
				
					<text transform="matrix(-0.1047 -0.9945 0.9945 -0.1047 213.5405 184.6431)" fill="#232323" font-family="'ArialMT'" font-size="2.5">.22</text>
				
					<text transform="matrix(-0.1262 -0.992 0.992 -0.1262 209.6606 185.0874)" fill="#232323" font-family="'ArialMT'" font-size="2.5">.23</text>
				
					<text transform="matrix(-0.1697 -0.9855 0.9855 -0.1697 205.6528 185.874)" fill="#232323" font-family="'ArialMT'" font-size="2.5">.24</text>
				
					<text transform="matrix(-0.2081 -0.9781 0.9781 -0.2081 202.0884 186.5596)" fill="#232323" font-family="'ArialMT'" font-size="2.5">.25</text>
				
					<text transform="matrix(-0.2635 -0.9647 0.9647 -0.2635 198.3892 187.4395)" fill="#232323" font-family="'ArialMT'" font-size="2.5001">.26</text>
				
					<text transform="matrix(-0.2889 -0.9574 0.9574 -0.2889 194.6631 188.3799)" fill="#232323" font-family="'ArialMT'" font-size="2.5001">.27</text>
				
					<text transform="matrix(-0.3424 -0.9396 0.9396 -0.3424 190.7124 189.7554)" fill="#232323" font-family="'ArialMT'" font-size="2.5001">.28</text>
				
					<text transform="matrix(-0.2928 -0.9562 0.9562 -0.2928 186.8667 190.6787)" fill="#232323" font-family="'ArialMT'" font-size="2.5">.29</text>
				
					<text transform="matrix(-0.3549 -0.9349 0.9349 -0.3549 183.2734 192.0991)" fill="#232323" font-family="'ArialMT'" font-size="2.5">.30</text>
				
					<text transform="matrix(-0.3795 -0.9252 0.9252 -0.3795 179.5464 193.5371)" fill="#232323" font-family="'ArialMT'" font-size="2.5">.31</text>
				
					<text transform="matrix(-0.4585 -0.8887 0.8887 -0.4585 176.167 194.9912)" fill="#232323" font-family="'ArialMT'" font-size="2.5">.32</text>
				
					<text transform="matrix(-0.4434 -0.8963 0.8963 -0.4434 172.2534 196.4502)" fill="#232323" font-family="'ArialMT'" font-size="2.5">.33</text>
				
					<text transform="matrix(-0.3914 -0.9202 0.9202 -0.3914 168.4561 198.1284)" fill="#232323" font-family="'ArialMT'" font-size="2.5">.34</text>
				
					<text transform="matrix(-0.4151 -0.9098 0.9098 -0.4151 163.2783 200.5171)" fill="#232323" font-family="'ArialMT'" font-size="2.5">.35</text>
			</g>
			<g>
				<path fill-opacity="0.4902" d="M163.8,199.9L163.8,199.9h0.1l1.9,3.9v0.1l0,0h-0.1l0,0L163.8,199.9L163.8,199.9L163.8,199.9z
					 M167.4,203.1L167.4,203.1l-1.9-4V199l0,0h0.1l1.9,4l0,0C167.5,203,167.5,203.1,167.4,203.1L167.4,203.1z M167.3,198.3
					C167.3,198.2,167.3,198.2,167.3,198.3v-0.1h0.1c0,0,0,0,0,0.1l1.9,3.9l0,0v0.1h-0.1v-0.1L167.3,198.3z M290.7,198.3L290.7,198.3
					l-2,4h-0.1l0,0l0,0v-0.1l1.9-3.9c0,0,0,0,0.1,0H290.7L290.7,198.3z M292.4,199.1L292.4,199.1l-2,3.9v0.1h-0.1V203L292.4,199.1
					L292.4,199.1z M297.5,201.9L297.5,201.9l-2,3.9l0,0h-0.1l0,0v-0.1L297.5,201.9L297.5,201.9z M294,200h0.1H294l-2,3.9v0.1l0,0
					v-0.1l0,0L294,200L294,200z M295.7,200.9L295.7,200.9L295.7,200.9c0.1,0,0.1,0,0.1,0H295.7l-2,3.9v0.1l0,0l-0.1-0.1l0,0
					L295.7,200.9z M299.3,202.8L299.3,202.8l-2.2,3.9v0.1c0,0-0.1,0-0.1-0.1l0,0l0,0L299.3,202.8L299.3,202.8
					C299.2,202.7,299.3,202.7,299.3,202.8L299.3,202.8z M161.9,200.8L161.9,200.8c0.1,0,0.1,0,0.1,0.1l2,3.9l0,0l0,0c0,0,0,0-0.1,0
					l0,0l-2-3.9C161.9,200.9,161.9,200.9,161.9,200.8L161.9,200.8z M160.3,201.7L160.3,201.7l2.1,3.9l0,0h-0.1v0.1v-0.1L160.3,201.7
					C160.2,201.8,160.2,201.8,160.3,201.7L160.3,201.7L160.3,201.7z M288.9,197.4L288.9,197.4l-1.9,4v0.1l-0.1-0.1l0,0l1.9-4l0,0
					H288.9L288.9,197.4z M287.1,196.6L287.1,196.6l-1.9,3.9c0,0,0,0,0,0.1l0,0c0,0-0.1,0-0.1-0.1l0,0l1.9-3.9v-0.1L287.1,196.6
					L287.1,196.6z M283.6,195L283.6,195l-1.8,4h-0.1l0,0l0,0l0,0l1.8-4l0,0H283.6z M285.3,195.8L285.3,195.8L285.3,195.8
					c0.1,0,0.1,0,0.1,0l0,0l-1.8,4l0,0l0,0h-0.1l0,0L285.3,195.8z M281.7,194.2C281.7,194.2,281.8,194.2,281.7,194.2L281.7,194.2
					L281.7,194.2l-1.6,4c0,0,0,0-0.1,0l0,0l0,0l0,0L281.7,194.2z M278.2,197.5L278.2,197.5l1.6-4l0,0h0.1l0,0L278.2,197.5
					L278.2,197.5L278.2,197.5C278.2,197.6,278.2,197.6,278.2,197.5z M276.3,192L276.3,192l0.1,0.1l-1.6,4.1v0.1l0,0h-0.1l0,0
					L276.3,192C276.2,192.1,276.2,192,276.3,192L276.3,192z M278,192.8L278,192.8c0.1,0,0.1,0,0.1,0v0.1l-1.6,4l0,0l0,0l0,0
					c0,0,0,0,0-0.1L278,192.8L278,192.8z M273,195.5L273,195.5l-0.1,0.1v-0.1l0,0l1.5-4.1h0.1v0.1L273,195.5z M267,189L267,189
					L267,189l-1.2,4.3l0,0l0,0L267,189L267,189L267,189z M265.1,188.5L265.1,188.5L265.1,188.5c0.1-0.1,0.1,0,0.1,0l0,0l-1.2,4.2
					l0,0h-0.1l0,0v-0.1L265.1,188.5z M272.6,190.7L272.6,190.7h0.1l0,0l-1.5,4.2l0,0h-0.1l0,0c0,0,0,0,0-0.1L272.6,190.7
					C272.5,190.7,272.6,190.7,272.6,190.7z M268.9,189.5L268.9,189.5l0.1,0.1l-1.4,4.1c0,0,0,0-0.1,0l0,0v-0.1L268.9,189.5
					L268.9,189.5z M270.8,190.1L270.8,190.1l-1.3,4.2h-0.1l0,0h-0.1v-0.1L270.8,190.1L270.8,190.1L270.8,190.1L270.8,190.1z
					 M255.6,186.1L255.6,186.1l-0.9,4.4l0,0h-0.1l0,0l0.9-4.3C255.5,186.1,255.5,186.1,255.6,186.1L255.6,186.1z M257.5,186.5
					L257.5,186.5L257.5,186.5L257.5,186.5L257.5,186.5l-0.9,4.3h-0.1h-0.1l0,0L257.5,186.5z M259.4,187
					C259.4,186.9,259.4,186.9,259.4,187h0.1l0,0l-1,4.3l-0.1,0.1v-0.1l0,0L259.4,187L259.4,187z M263.2,188L263.2,188L263.2,188
					L263.2,188l-1,4.3h-0.1l0,0c0,0,0,0-0.1,0v-0.1L263.2,188z M261.3,187.5L261.3,187.5C261.3,187.4,261.3,187.4,261.3,187.5h0.1
					l0,0l-1.1,4.2l0,0h-0.1l0,0L261.3,187.5z M252.8,190.1L252.8,190.1l0.9-4.3l0,0l0,0h0.1l0,0l-0.8,4.3c0,0,0,0,0,0.1h-0.2V190.1z
					 M249.9,185L249.9,185l-0.7,4.4v0.1H249v-0.1l0.7-4.3V185C249.8,185,249.8,185,249.9,185L249.9,185z M251.6,185.4L251.6,185.4
					h0.1l0,0c0,0,0,0,0,0.1l-0.8,4.3l0,0h-0.1l0,0L251.6,185.4z M247.9,184.8L247.9,184.8L247.9,184.8l-0.6,4.4l0,0v0.1
					c0,0,0-0.1-0.1-0.1l0,0L247.9,184.8C247.8,184.8,247.8,184.8,247.9,184.8z M246,184.5L246,184.5l-0.5,4.4h-0.1v0.1
					c0,0,0-0.1-0.1-0.1l0,0l0.6-4.3l0,0L246,184.5L246,184.5z M244,184.3L244,184.3l-0.5,4.4l0,0v0.1c0,0,0-0.1-0.1-0.1l0,0l0.5-4.3
					C243.9,184.3,243.9,184.3,244,184.3C244,184.2,244,184.2,244,184.3z M228.1,183.4h0.1v4.5l0,0l0,0L228.1,183.4z M232.1,183.5
					L232.1,183.5v4.4H232L232.1,183.5C232.1,183.4,232.1,183.4,232.1,183.5z M230.2,183.5L230.2,183.5v4.4h-0.1l0,0L230.2,183.5
					C230.1,183.4,230.2,183.4,230.2,183.5z M224.3,183.5L224.3,183.5l0.2,4.4v0.1l0,0h-0.1L224.3,183.5L224.3,183.5z M226.3,183.5
					L226.3,183.5l0.1,4.4l0,0c0,0,0,0.1-0.1,0.1v-0.1V183.5L226.3,183.5z M242,184L242,184l-0.4,4.4c0,0,0,0,0,0.1h-0.1v-0.1
					L242,184L242,184L242,184L242,184z M240,183.9L240,183.9L240,183.9l-0.3,4.4l0,0h-0.1l0,0L240,183.9
					C240,183.8,240,183.8,240,183.9z M238,183.8L238,183.8h0.1l-0.3,4.4h-0.1v0.1v-0.1l0,0L238,183.8z M234.1,183.5
					C234.2,183.5,234.2,183.5,234.1,183.5l-0.1,4.4c0,0,0,0,0,0.1h-0.1l0.1-4.4C234,183.5,234.1,183.5,234.1,183.5L234.1,183.5z
					 M204.7,185.8L204.7,185.8L204.7,185.8l0.8,4.3l0,0c0,0,0,0,0,0.1c0,0-0.1,0-0.1-0.1L204.7,185.8
					C204.6,185.8,204.6,185.8,204.7,185.8L204.7,185.8z M202.7,186.3L202.7,186.3v-0.1l0,0c0,0,0,0.1,0.1,0.1l0.8,4.3l0,0h-0.1l0,0
					L202.7,186.3z M212.5,184.5L212.5,184.5L212.5,184.5l0.6,4.4L213,189l0,0v-0.1L212.5,184.5L212.5,184.5z M210.5,184.9
					L210.5,184.9v-0.1l0,0c0,0,0,0.1,0.1,0.1l0.5,4.3v0.1l0,0H211L210.5,184.9z M208.5,185.2C208.5,185.2,208.5,185.1,208.5,185.2
					c0-0.1,0-0.1,0-0.1h0.1l0,0l0.7,4.3l0,0l0,0l0,0h-0.1L208.5,185.2z M206.6,185.5L206.6,185.5l0.7,4.3v0.1h-0.1l-0.7-4.4l0,0
					H206.6C206.6,185.4,206.6,185.4,206.6,185.5z M222.3,183.6C222.3,183.6,222.4,183.6,222.3,183.6l0.1,0.1l0.2,4.3l-0.1,0.1l0,0
					V188L222.3,183.6L222.3,183.6z M220.3,183.8L220.3,183.8L220.3,183.8c0.1-0.1,0.1-0.1,0.1,0l0,0l0.3,4.4l-0.1,0.1l0,0v-0.1
					L220.3,183.8z M218.4,183.9L218.4,183.9l0.4,4.4v0.1l0,0c0,0-0.1,0-0.1-0.1L218.4,183.9C218.3,183.9,218.3,183.9,218.4,183.9
					L218.4,183.9z M214.5,184.3L214.5,184.3L214.5,184.3l0.5,4.4l0,0h-0.1l0,0L214.5,184.3C214.4,184.3,214.4,184.3,214.5,184.3
					L214.5,184.3z M216.4,184.1L216.4,184.1l0.1-0.1v0.1l0.4,4.4l0,0h-0.1l0,0l0,0L216.4,184.1z M193.2,188.5L193.2,188.5
					C193.3,188.5,193.3,188.5,193.2,188.5l1.2,4.3l0,0l0,0h-0.1l0,0L193.2,188.5L193.2,188.5L193.2,188.5z M195.1,188L195.1,188
					l1.1,4.2l0,0l0,0h-0.1l0,0L195,188l0,0H195.1L195.1,188z M198.1,191.8L198.1,191.8l-0.1,0.1c0,0,0,0,0-0.1l-1-4.3l0,0l0,0l0,0
					c0,0,0,0,0.1,0L198.1,191.8z M198.9,187L198.9,187c0.1,0,0.1,0,0.1,0l1,4.3v0.1h-0.1v-0.1l-1-4.2V187L198.9,187z M200.9,186.5
					L200.9,186.5L200.9,186.5l0.9,4.3v0.1c0,0,0,0,0-0.1l0,0L200.9,186.5C200.8,186.6,200.8,186.6,200.9,186.5
					C200.8,186.6,200.8,186.5,200.9,186.5z M183.8,191.5L183.8,191.5h0.1l1.4,4.1v0.1l0,0h-0.1L183.8,191.5L183.8,191.5z
					 M185.6,190.8L185.6,190.8c0.1,0,0.1,0,0.1,0.1l1.4,4.1H187l0,0l0,0l0,0L185.6,190.8C185.6,190.9,185.6,190.8,185.6,190.8z
					 M191.3,189C191.3,189,191.4,189.1,191.3,189l1.3,4.2h-0.1l0,0l0,0l0,0L191.3,189C191.2,189.1,191.2,189.1,191.3,189L191.3,189z
					 M187.5,190.2L187.5,190.2h0.1l1.3,4.1v0.1l-0.1-0.1L187.5,190.2L187.5,190.2L187.5,190.2z M189.4,189.6L189.4,189.6h0.1l0,0
					l1.3,4.1l0,0v0.1h-0.1v-0.1L189.4,189.6L189.4,189.6z M178.3,193.5L178.3,193.5l1.6,4v0.1l0,0h-0.1l0,0l-1.5-4
					C178.2,193.6,178.2,193.5,178.3,193.5L178.3,193.5L178.3,193.5z M180,192.9C180,192.9,180,192.8,180,192.9
					C180.1,192.8,180.1,192.8,180,192.9l0.1-0.1l1.5,4.1v0.1l0,0h-0.1l0,0L180,192.9z M182,192.1L182,192.1L182,192.1l1.5,4.1l0,0
					v0.1c0,0-0.1,0-0.1-0.1l0,0L182,192.1C181.9,192.1,181.9,192.1,182,192.1z M172.7,195.8C172.7,195.7,172.8,195.7,172.7,195.8
					L172.7,195.8l1.8,4l0,0v0.1h-0.1v-0.1L172.7,195.8L172.7,195.8z M174.5,195C174.5,195,174.6,195,174.5,195l1.7,4l0,0v0.1h-0.1
					V199L174.5,195L174.5,195L174.5,195z M176.4,194.3C176.3,194.3,176.3,194.3,176.4,194.3L176.4,194.3L176.4,194.3
					c0.1-0.1,0.1-0.1,0.1,0l1.6,4v0.1l0,0l0,0H178L176.4,194.3z M169.1,197.4L169.1,197.4C169.1,197.3,169.1,197.3,169.1,197.4h0.1
					l1.8,3.9v0.1l0,0h-0.1l0,0L169.1,197.4z M170.9,196.6L170.9,196.6C170.9,196.5,171,196.5,170.9,196.6l0.1-0.1l1.8,4l0,0v0.1
					h-0.1c0,0,0,0,0-0.1L170.9,196.6z"/>
			</g>
		</g>
	</g>
</g>
</svg>
