<?xml version="1.0" encoding="utf-8"?>
<!-- Generator: Adobe Illustrator 16.0.0, SVG Export Plug-In . SVG Version: 6.00 Build 0)  -->
<!DOCTYPE svg PUBLIC "-//W3C//DTD SVG 1.1//EN" "http://www.w3.org/Graphics/SVG/1.1/DTD/svg11.dtd">
<svg version="1.1" xmlns="http://www.w3.org/2000/svg" xmlns:xlink="http://www.w3.org/1999/xlink" x="0px" y="0px" width="700px"
	 height="700px" viewBox="0 0 700 700" enable-background="new 0 0 700 700" xml:space="preserve">
<g id="Layer_10">
</g>
<g id="Layer_9">
	<g>
		<path fill-rule="evenodd" clip-rule="evenodd" fill-opacity="0.349" d="M270,526.3c-20.2,6.7-44.7,10.1-73.3,10.1
			s-53.1-3.4-73.3-10.1c-20.2-6.7-30.3-14.9-30.3-24.4c0-9.6,10.1-17.7,30.3-24.5c20.2-6.7,44.7-10.1,73.3-10.1s53.1,3.4,73.3,10.1
			c20.2,6.7,30.3,14.9,30.3,24.5C300.3,511.5,290.2,519.6,270,526.3z"/>
	</g>
</g>
<g id="Layer_8">
	<g>
		<g>
			<g>
				
					<radialGradient id="SVGID_1_" cx="200.25" cy="476" r="166.55" gradientTransform="matrix(1 0 0 0.3819 0 294.2311)" gradientUnits="userSpaceOnUse">
					<stop  offset="0" style="stop-color:#3E3E3E"/>
					<stop  offset="0.298" style="stop-color:#373737"/>
					<stop  offset="0.5647" style="stop-color:#484848"/>
					<stop  offset="0.651" style="stop-color:#090909"/>
					<stop  offset="0.7216" style="stop-color:#0B0B0B"/>
					<stop  offset="1" style="stop-color:#000000"/>
				</radialGradient>
				<path fill-rule="evenodd" clip-rule="evenodd" fill="url(#SVGID_1_)" d="M106,486.3v-0.7c0.1-9.1,9.5-16.8,28.2-23.3
					c18.8-6.5,41.5-9.8,68.1-9.8c26.6,0,49.4,3.3,68.1,9.8s28.2,14.3,28.2,23.5c0,0.4,0,0.9-0.1,1.3c-0.2,2-0.8,3.9-1.9,5.7
					c-3.6,6.2-12.4,11.8-26.3,16.6c-18.8,6.4-41.5,9.7-68.1,9.7c-26.6,0-49.3-3.2-68.1-9.7c-13.9-4.8-22.7-10.4-26.3-16.6
					C106.8,490.7,106.1,488.5,106,486.3z"/>
				<path fill-rule="evenodd" clip-rule="evenodd" fill="#0B0B0B" d="M298.6,487v11.4c0,0.3,0.1,0.6,0.1,0.9c0,0.1,0,0.2,0,0.3
					c0,9.2-9.4,17-28.2,23.5c-18.8,6.5-41.5,9.7-68.1,9.7c-26.6,0-49.3-3.2-68.1-9.7c-17.4-6-26.8-13.2-28-21.5
					c-0.1-0.6-0.2-1.2-0.2-1.8v-13.7c0.1,2.3,0.7,4.4,1.9,6.5c3.6,6.2,12.4,11.8,26.3,16.6c18.8,6.4,41.5,9.7,68.1,9.7
					c26.6,0,49.4-3.2,68.1-9.7c13.9-4.8,22.7-10.4,26.3-16.6C297.9,490.9,298.5,489,298.6,487z"/>
			</g>
		</g>
		<g>
			
				<radialGradient id="SVGID_2_" cx="161.1499" cy="499" r="52.5125" gradientTransform="matrix(1 0 0 1.0288 0 -14.3725)" gradientUnits="userSpaceOnUse">
				<stop  offset="0" style="stop-color:#FFFFFF;stop-opacity:0.4118"/>
				<stop  offset="1" style="stop-color:#F9F9F9;stop-opacity:0"/>
			</radialGradient>
			<path fill-rule="evenodd" clip-rule="evenodd" fill="url(#SVGID_2_)" d="M286.2,493.5c0.1-0.2,0.2-0.3,0.4-0.3
				c0.2,0,0.3,0.1,0.4,0.2c0.1,0.1,0.1,0.2,0.1,0.4c0,0.1,0,0.2-0.1,0.4c-3.9,4.5-11.2,9.2-21.8,14.1c-10.6,4.9-28.9,7.8-54.6,8.8
				c-25.8,1-48.5-1.1-68.1-6.4c-19.6-5.3-31.1-11.3-34.6-18.1l1.5-5.5c7.1,7.4,18.4,13.4,34.1,18c15.6,4.6,35.6,6.9,59.9,6.8
				c24.3-0.1,43.3-2.1,56.8-6C273.7,502.1,282.4,498,286.2,493.5z"/>
		</g>
		<g>
			
				<radialGradient id="SVGID_3_" cx="99.6499" cy="443.4004" r="166.55" gradientTransform="matrix(1 0 0 0.3819 0 274.0803)" gradientUnits="userSpaceOnUse">
				<stop  offset="0" style="stop-color:#FFFFFF"/>
				<stop  offset="1" style="stop-color:#F9F9F9;stop-opacity:0"/>
			</radialGradient>
			<path fill-rule="evenodd" clip-rule="evenodd" fill="url(#SVGID_3_)" d="M296.8,492.8c-3.6,6.2-12.4,11.8-26.3,16.6
				c-18.8,6.4-41.5,9.7-68.1,9.7c-26.6,0-49.3-3.2-68.1-9.7c-13.9-4.8-22.7-10.4-26.3-16.6c-1.2-2.1-1.8-4.2-1.9-6.5v-0.7
				c0.1-9.1,9.5-16.8,28.2-23.3c18.8-6.5,41.5-9.8,68.1-9.8c26.6,0,49.4,3.3,68.1,9.8s28.2,14.3,28.2,23.5c0,0.4,0,0.9-0.1,1.3
				C298.5,489,297.9,490.9,296.8,492.8z"/>
		</g>
		<g>
			
				<radialGradient id="SVGID_4_" cx="154.7998" cy="509.7998" r="27.8953" gradientTransform="matrix(0.9846 0.1749 -2.532242e-002 0.1426 15.2946 410.045)" gradientUnits="userSpaceOnUse">
				<stop  offset="0" style="stop-color:#FEFEFE"/>
				<stop  offset="0.2078" style="stop-color:#FEFEFE"/>
				<stop  offset="0.4902" style="stop-color:#FFFFFF;stop-opacity:0.3137"/>
				<stop  offset="0.6784" style="stop-color:#FFFFFF;stop-opacity:8.235294e-002"/>
				<stop  offset="0.8392" style="stop-color:#FCFCFC;stop-opacity:0"/>
				<stop  offset="1" style="stop-color:#FBFBFB;stop-opacity:0"/>
			</radialGradient>
			<path fill-rule="evenodd" clip-rule="evenodd" fill="url(#SVGID_4_)" d="M173.6,516.2c-5.5-0.2-12.1-1-19.6-2.4
				c-7.6-1.4-14.1-3-19.3-4.8c-5.2-1.7-7.8-3.2-7.5-4.3c0.2-1.1,3-1.6,8.5-1.3c5.5,0.2,12.1,1,19.7,2.4c7.6,1.4,14,2.9,19.2,4.7
				c5.4,1.8,8,3.2,7.8,4.3C182.2,516,179.3,516.4,173.6,516.2z"/>
		</g>
		<g>
			<g>
				
					<radialGradient id="SVGID_5_" cx="-232.1138" cy="478.6875" r="26.3688" gradientTransform="matrix(0.4655 -0.885 0.8898 0.6855 -41.0259 -31.6051)" gradientUnits="userSpaceOnUse">
					<stop  offset="0" style="stop-color:#FFFFFF;stop-opacity:0.1647"/>
					<stop  offset="1" style="stop-color:#FDFDFD;stop-opacity:0"/>
				</radialGradient>
				<path fill-rule="evenodd" clip-rule="evenodd" fill="url(#SVGID_5_)" d="M287.8,499c-10.6,6-21.5,9.9-32.6,11.7
					c-11.1,1.8-17.2,2.9-18.3,3.3l7.5-5.1c29.7-8.3,46.6-17,50.9-26.2C300.9,487.7,298.4,493.1,287.8,499z"/>
				
					<radialGradient id="SVGID_6_" cx="121.6509" cy="497.71" r="18.5828" gradientTransform="matrix(0.9996 -2.892464e-002 0 1.0285 -5.662441e-005 -13.9794)" gradientUnits="userSpaceOnUse">
					<stop  offset="0" style="stop-color:#FFFFFF"/>
					<stop  offset="1" style="stop-color:#FDFDFD;stop-opacity:0"/>
				</radialGradient>
				<path fill-rule="evenodd" clip-rule="evenodd" fill="url(#SVGID_6_)" d="M106.2,485.2c0.6,0.6,2,2.1,4.4,4.6
					c2.4,2.5,6.6,5.2,12.6,8.2c6,2.9,11.3,5.2,15.8,6.8l-5.5-1.3C117.8,497.8,108.6,491.7,106.2,485.2z"/>
			</g>
		</g>
	</g>
</g>
<g id="Layer_7">
	<g>
		<linearGradient id="SVGID_7_" gradientUnits="userSpaceOnUse" x1="213.7998" y1="478.2002" x2="295.7236" y2="478.2002">
			<stop  offset="0" style="stop-color:#000000;stop-opacity:0.498"/>
			<stop  offset="1" style="stop-color:#0D0E08;stop-opacity:0"/>
		</linearGradient>
		<path fill-rule="evenodd" clip-rule="evenodd" fill="url(#SVGID_7_)" d="M261.8,470.3H288c5.4,2.8,8,6.2,7.7,10.1h-36.6l-1.2,4.4
			c-1,4.6-4,7.7-9.3,9.3l-26,3.6l0.4-22.1l-9.2,0.4v-0.3l0.3-0.3l12.2-6.6l1.5,0.9c-2.9-5-3-8.7-0.4-10.9l29.3,0.4
			c4.1,0.8,6.3,2.5,6.6,5.1L261.8,470.3z"/>
	</g>
</g>
<g id="Layer_6">
	<g>
		<g>
			<g>
				<path fill-rule="evenodd" clip-rule="evenodd" fill="#222355" d="M202.2,446c-0.3,0.5-1.5,0.6-3.5,0.5c0-0.1,0-0.1,0-0.2
					c0.1,0,0.1,0,0.2,0c0.2,0,0.6,0,1.1-0.3H202.2z"/>
				<path fill-rule="evenodd" clip-rule="evenodd" fill="#1F2883" d="M196.1,446h2.3c0.2,0,0.3,0.1,0.5,0.1v0.1c-0.1,0-0.1,0-0.2,0
					c0,0.1,0,0.1,0,0.2v0.1c-0.8,0.1-1.7,0.1-2.6,0.2c0-0.1,0-0.2,0-0.2C196.3,446.3,196.2,446.1,196.1,446z"/>
				<path fill-rule="evenodd" clip-rule="evenodd" fill="#18181B" d="M202.2,446h16.5v5.8h-35.3c0-0.1,0.1-0.1,0.1-0.2
					c0,0,0,0,0.1,0c0-1.4,0.5-2.3,1.4-2.8c0,0,0.1-0.1,0.1-0.2c1.6,0.3,2.2,0,2-0.8h0.1c0.6,0.1,1.3,0.3,2.1,0.6c0.1,0,0.1,0,0.2,0
					c0.2-0.9,1.1-1.3,2.6-1.2V447c1.6,0.6,2.9,0.5,3.9-0.3c0,0,0.1,0,0.1-0.1c0.9,0,1.8-0.1,2.6-0.2v-0.1
					C200.7,446.6,201.9,446.5,202.2,446z M184.9,449.2c0,0.1,0,0.1,0.1,0.2c0.4,0.8,0.9,1,1.6,0.5c0-0.1,0-0.1,0.1-0.2
					C186.9,448.9,186.4,448.8,184.9,449.2z"/>
				<path fill-rule="evenodd" clip-rule="evenodd" fill="#3F499F" d="M198.4,446h1.6c-0.5,0.2-0.9,0.3-1.1,0.3v-0.1
					C198.7,446,198.6,446,198.4,446z"/>
				<path fill-rule="evenodd" clip-rule="evenodd" fill="#262857" d="M192.1,447c-0.1,0-0.1,0-0.2,0c0-0.1,0-0.1,0-0.2
					c0.9,0,1.7-0.2,2.4-0.4c0.1,0,0.1,0,0.2,0c0.4,0.2,0.8,0.3,1.4,0.3c0.1,0,0.1,0,0.2,0c0,0.1,0,0.1-0.1,0.1
					C195,447.5,193.7,447.6,192.1,447z"/>
				<path fill-rule="evenodd" clip-rule="evenodd" fill="#2C3496" d="M196.1,446.7c-0.1,0-0.1,0-0.2,0c-0.6,0-1.1-0.1-1.4-0.3
					c-0.1,0-0.1,0-0.2,0c-0.7,0.2-1.5,0.4-2.4,0.4c0,0.1,0,0.1,0,0.2c-0.1,0-0.2,0-0.2,0c-0.3-0.2-0.6-0.4-0.9-0.6
					c0.6-0.2,1.1-0.3,1.6-0.5h3.8c0.1,0.1,0.1,0.3,0,0.5C196.1,446.5,196.1,446.5,196.1,446.7z"/>
				<path fill-rule="evenodd" clip-rule="evenodd" fill="#363E89" d="M190.8,446.4c-0.1,0-0.1,0-0.1,0c-0.7,0.6-1.4,0.8-2.1,0.6
					c0-0.1,0-0.1,0-0.2c0.1-0.1,0.1-0.1,0.1-0.3c0-0.1,0.1-0.1,0.1-0.2c0.3-0.1,0.6-0.1,0.8-0.2c0.1,0,0.2,0,0.3,0
					c0.1,0.2,0.5,0.2,1,0.1V446.4z"/>
				<path fill-rule="evenodd" clip-rule="evenodd" fill="#314DBA" d="M189.8,446.2c0-0.1,0.1-0.2,0.1-0.3h2.5
					c-0.5,0.1-1,0.3-1.6,0.5v-0.1C190.3,446.4,189.9,446.4,189.8,446.2z"/>
				<path fill-rule="evenodd" clip-rule="evenodd" fill="#2A2B43" d="M185.1,448.5c0-0.1,0-0.1,0-0.2c0-0.2,0-0.4,0-0.6
					c0.5,0.2,1,0.1,1.6-0.3c0,0,0-0.1,0-0.2c0.8,0.3,1.3,0.3,1.6-0.2c0,0,0.1,0,0.1,0c0.8,0.2,1.5,0,2.1-0.6c0,0,0.1,0,0.1,0
					c0.3,0.2,0.6,0.4,0.9,0.6c0,0,0.1,0,0.2,0c0.1,0,0.1,0,0.2,0v0.1c-1.5-0.1-2.4,0.3-2.6,1.2c-0.1,0-0.1,0-0.2,0
					c-0.8-0.3-1.6-0.5-2.1-0.6h-0.1C187.3,448.6,186.7,448.8,185.1,448.5z"/>
				<path fill-rule="evenodd" clip-rule="evenodd" fill="#3246B1" d="M189.9,446c0,0.1-0.1,0.2-0.1,0.3c-0.1,0-0.1,0-0.3,0
					c-0.3,0.1-0.5,0.1-0.8,0.2c-0.1,0-0.1,0-0.2,0c-0.6,0.2-0.9,0.1-0.9-0.3h0.1c0-0.1-0.1-0.2-0.1-0.3H189.9z"/>
				<path fill-rule="evenodd" clip-rule="evenodd" fill="#343774" d="M184,447.3c0-0.1,0-0.1,0-0.2c1.7-0.2,2.8-0.5,3.4-0.8
					c0.1,0,0.1,0,0.2,0c0,0.4,0.3,0.5,0.9,0.3c0.1,0,0.1,0,0.2,0c0,0.1,0,0.1-0.1,0.2c0,0.1-0.1,0.2-0.1,0.3c0,0.1,0,0.1,0,0.2
					c-0.1,0-0.1,0-0.1,0c-0.2,0.4-0.8,0.5-1.6,0.2c-0.1,0-0.2,0-0.3,0C185.8,447.2,184.9,447.2,184,447.3z"/>
				<path fill-rule="evenodd" clip-rule="evenodd" fill="#3A49AF" d="M187.6,446.2c-0.1,0-0.1,0-0.2,0c-0.6,0.3-1.7,0.6-3.4,0.8
					c-0.1,0-0.1,0-0.3,0c-0.9-0.1-1.8-0.2-2.5-0.2c-0.1,0-0.1,0-0.1,0c-0.1-0.1-0.2-0.2-0.3-0.4c1-0.2,2.1-0.4,3.3-0.5h3.6
					c0.1,0.1,0.1,0.2,0.1,0.3H187.6z"/>
				<path fill-rule="evenodd" clip-rule="evenodd" fill="#363842" d="M185.1,448.5c0,0.1,0,0.1-0.1,0.2c-0.9,0.5-1.4,1.4-1.4,2.8
					c-0.1,0-0.1,0-0.1,0c0,0.1-0.1,0.1-0.1,0.2h-5.3v-3.5c0,0,0.1,0,0.1,0c0.4,0.1,0.7-0.1,0.9-0.8c0,0,0-0.1,0-0.2
					c0.6,1,1,1.2,1.3,0.5c0-0.1,0.1-0.1,0.1-0.2c0.8,0.2,2,0.1,3.4-0.2c0.1,0,0.1,0,0.2,0c0.9-0.1,1.7-0.1,2.5,0c0.1,0,0.2,0,0.3,0
					c0,0.1,0,0.2,0,0.2c-0.6,0.4-1.1,0.5-1.6,0.3c0,0.2,0,0.5,0,0.6C185.1,448.4,185.1,448.5,185.1,448.5z M180.3,448.8
					c0.2,1.6,0.8,1.9,1.9,0.8v-0.1c-0.8,0.1-1.4-0.3-1.9-1C180.2,448.6,180.2,448.7,180.3,448.8z"/>
				<path fill-rule="evenodd" clip-rule="evenodd" fill="#363A77" d="M180.5,447.5c0-0.1,0-0.2,0-0.3c0,0,0.1,0,0.1,0
					c0,0,0.1-0.1,0.1-0.2c0.2,0,0.4,0,0.6-0.1c0,0,0,0,0-0.1c0.8,0,1.6,0.1,2.5,0.2c0.1,0,0.2,0,0.3,0c0,0.1,0,0.1,0,0.2
					c-0.1,0-0.1,0-0.2,0C182.4,447.6,181.3,447.7,180.5,447.5z"/>
				<path fill-rule="evenodd" clip-rule="evenodd" fill="#2E2E2F" d="M184.9,449.2c1.5-0.4,2-0.3,1.7,0.4c0,0.1-0.1,0.1-0.1,0.2
					c-0.7,0.5-1.2,0.4-1.6-0.5C184.9,449.3,184.9,449.2,184.9,449.2z"/>
				<path fill-rule="evenodd" clip-rule="evenodd" fill="#425BC3" d="M179.6,446h4.4c-1.1,0.1-2.2,0.3-3.3,0.5
					c0.1,0.2,0.2,0.3,0.3,0.4c0,0,0.1,0,0.1,0c0,0.1,0,0.1,0,0.1c-0.2,0.1-0.4,0.1-0.6,0.1h-0.1c-0.1-0.5-0.5-0.6-1.1-0.4
					c-0.1,0-0.1,0-0.2-0.1c-0.2-0.1-0.4-0.3-0.4-0.6C179.1,446,179.4,446,179.6,446z"/>
				<path fill-rule="evenodd" clip-rule="evenodd" fill="#41457E" d="M180.6,447c0,0.1,0,0.1-0.1,0.2c0,0-0.1,0-0.1,0
					c0,0.1,0,0.2,0,0.3s0,0.1-0.1,0.2c-0.2,0.7-0.6,0.6-1.3-0.5c0-0.1,0-0.1,0-0.2s0-0.1,0-0.2c0.1,0,0.1,0,0.1,0
					c0,0,0.1-0.1,0.1-0.1c0.7-0.2,1-0.1,1.1,0.4H180.6z"/>
				<path fill-rule="evenodd" clip-rule="evenodd" fill="#4758A0" d="M178.1,447.3V446c0.1,0,0.3,0,0.4,0c0.1,0,0.1,0,0.2,0
					c0.1,0.3,0.3,0.5,0.4,0.6c0.1,0,0.1,0.1,0.2,0.1c0,0.1,0,0.1-0.1,0.1c0,0-0.1,0-0.1,0c0,0.1,0,0.1,0,0.2s0,0.1,0,0.2
					c-0.1,0-0.1,0-0.2,0C178.7,447.3,178.4,447.3,178.1,447.3z"/>
				<path fill-rule="evenodd" clip-rule="evenodd" fill="#738FD4" d="M178.7,446c-0.1,0-0.1,0-0.2,0c-0.1,0-0.3,0-0.4,0V446h1.5
					C179.4,446,179.1,446,178.7,446z"/>
				<path fill-rule="evenodd" clip-rule="evenodd" fill="#4D5774" d="M178.1,447.3c0.3,0,0.6,0,0.9,0c0.1,0,0.1,0,0.2,0
					c0,0.1,0,0.2,0,0.2c-0.2,0.6-0.5,0.9-0.9,0.8c0,0-0.1,0-0.1,0V447.3z"/>
				<path fill-rule="evenodd" clip-rule="evenodd" fill="#262731" d="M180.3,448.8c0-0.1,0-0.1,0-0.2c0.5,0.7,1.1,1,1.9,1v0.1
					C181.1,450.6,180.5,450.3,180.3,448.8z"/>
			</g>
		</g>
		<g>
			<linearGradient id="SVGID_8_" gradientUnits="userSpaceOnUse" x1="165.3252" y1="475.4502" x2="240.2749" y2="475.4502">
				<stop  offset="0" style="stop-color:#32353D"/>
				<stop  offset="0.4118" style="stop-color:#2D3037"/>
				<stop  offset="1" style="stop-color:#131419"/>
			</linearGradient>
			<path fill-rule="evenodd" clip-rule="evenodd" fill="url(#SVGID_8_)" d="M197.1,462.9c10.4,0,19.2,1.2,26.4,3.7
				c7.3,2.5,11,5.4,11,8.9c0,0.1,0,0.3,0,0.5c-0.1,0.7-0.3,1.5-0.8,2.1c-1.4,2.3-4.8,4.4-10.3,6.3c-7.3,2.4-16.1,3.7-26.4,3.7
				s-19.2-1.2-26.5-3.7c-5.4-1.8-8.9-3.9-10.3-6.3c-0.5-0.8-0.7-1.6-0.8-2.4v-0.3c0.1-3.4,3.7-6.4,11-8.8
				C177.9,464.1,186.7,462.9,197.1,462.9z"/>
		</g>
		<g>
			<radialGradient id="SVGID_9_" cx="199.5488" cy="475.4746" r="36.8647" gradientUnits="userSpaceOnUse">
				<stop  offset="0" style="stop-color:#000000"/>
				<stop  offset="0.4706" style="stop-color:#000000;stop-opacity:0.6941"/>
				<stop  offset="1" style="stop-color:#000000;stop-opacity:0"/>
			</radialGradient>
			<path fill-rule="evenodd" clip-rule="evenodd" fill="url(#SVGID_9_)" d="M171,467.5c-2.4,0.8-4.3,1.6-5.9,2.5
				c-0.2,0.1-0.5,0.2-0.8,0.1c-0.3-0.1-0.5-0.3-0.6-0.5c-0.2-0.2-0.2-0.5-0.1-0.8c0.1-0.3,0.2-0.5,0.4-0.6c1.6-0.9,3.7-1.8,6.3-2.7
				c7.4-2.5,16.3-3.7,26.8-3.7s19.4,1.2,26.8,3.7c7.9,2.7,11.8,5.9,11.6,9.8c0,0.1,0,0.3,0,0.5c0,0,0,0.1,0,0.1
				c-0.1,0.8-0.3,1.5-0.8,2.3c0,0.1-0.1,0.2-0.1,0.3v-0.1c-1.4,2.5-5,4.8-10.8,6.7c-7.4,2.5-16.3,3.7-26.8,3.7s-19.4-1.2-26.8-3.7
				c-2.5-0.8-4.6-1.7-6.3-2.6c-0.2-0.2-0.4-0.4-0.4-0.6c-0.1-0.3-0.1-0.5,0.1-0.8c0.1-0.2,0.3-0.4,0.6-0.5c0.3-0.1,0.5-0.1,0.8,0.1
				c1.5,0.9,3.5,1.7,5.9,2.5h0.1c7.2,2.4,15.9,3.6,26.1,3.6s18.9-1.2,26.1-3.6c4.5-1.5,7.6-3.2,9.1-5.1c0.2-0.2,0.4-0.5,0.6-0.8
				c0.3-0.5,0.5-1.1,0.6-1.7c0-0.2-1.8,0.4-5.4,1.6c-3.6,1.2-7.4-0.5-11.3-5.3c-3.9-4.8-10.8-7.3-20.5-7.7
				C186.6,464.1,178.1,465.1,171,467.5z"/>
		</g>
		<g>
			<path fill-rule="evenodd" clip-rule="evenodd" fill="none" d="M167.2,475.1c0.8,1.2,2.6,2.3,5.3,3.3c0.9,0.3,1.9,0.7,3,1
				c5.3,1.5,11.6,2.3,18.9,2.5c0.8,0,1.6,0,2.5,0c8.3,0,15.4-0.8,21.4-2.5c1.2-0.3,2.2-0.7,3.1-1c3.3-1.2,5.2-2.6,5.6-4.3"/>
		</g>
		<g>
			<g>
				<path fill-rule="evenodd" clip-rule="evenodd" fill="#101010" d="M204.6,287.2h34c-0.7,2.8-1.1,6.1-1.1,9.9
					c0,4.5,0.5,8.3,1.4,11.4l0.3,0.3h-34.6V287.2z"/>
				<linearGradient id="SVGID_10_" gradientUnits="userSpaceOnUse" x1="174.2163" y1="279.6978" x2="298.7964" y2="294.0965">
					<stop  offset="0" style="stop-color:#4E514F"/>
					<stop  offset="0.2824" style="stop-color:#797D79"/>
					<stop  offset="0.502" style="stop-color:#1A1B1B"/>
					<stop  offset="0.7686" style="stop-color:#434544"/>
					<stop  offset="1" style="stop-color:#0B0B0B"/>
				</linearGradient>
				<path fill-rule="evenodd" clip-rule="evenodd" fill="url(#SVGID_10_)" d="M238.6,287.2h-34v-4H239v2.5c0,0,0,0.1,0,0.1
					L238.6,287.2z"/>
			</g>
		</g>
		<g>
			<g>
				<polygon fill-rule="evenodd" clip-rule="evenodd" fill="#C6C6C6" points="224.5,282.8 224.7,287.5 224.3,287.5 224.1,282.8 				
					"/>
				<path fill-rule="evenodd" clip-rule="evenodd" fill="#373737" d="M224.7,287.5v21.7h-0.5c-0.1-0.1-0.2-0.3-0.4-0.4h0.4v-21.3
					H224.7z"/>
				<linearGradient id="SVGID_11_" gradientUnits="userSpaceOnUse" x1="193.855" y1="280.8618" x2="318.435" y2="295.2606">
					<stop  offset="0" style="stop-color:#4E514F"/>
					<stop  offset="0.2824" style="stop-color:#797D79"/>
					<stop  offset="0.502" style="stop-color:#1A1B1B"/>
					<stop  offset="0.7686" style="stop-color:#434544"/>
					<stop  offset="1" style="stop-color:#0B0B0B"/>
				</linearGradient>
				<path fill-rule="evenodd" clip-rule="evenodd" fill="url(#SVGID_11_)" d="M224.7,287.5l-0.2-4.7h11.8c0.5,1.8,0.4,3.4-0.4,4.7
					H224.7z M237,288.2L237,288.2L237,288.2L237,288.2z"/>
				<path fill-rule="evenodd" clip-rule="evenodd" fill="#101010" d="M237,288.1L237,288.1c1.9,0.8,4.4,1.5,7.6,2l-3.8,20.6
					c-1.8-0.3-3.5-0.8-5.4-1.6h-10.8v-21.7H236C236.3,287.7,236.6,287.9,237,288.1z"/>
			</g>
		</g>
		<g>
			<g>
				<polygon fill-rule="evenodd" clip-rule="evenodd" fill="#A6A9A7" points="189.1,236.7 189.9,235.1 206.3,235.1 206.3,236.7 				
					"/>
				<path fill-rule="evenodd" clip-rule="evenodd" fill="#0F0F14" d="M206.2,237.7H189l0,0.4v-0.4l0.1-1h17.1L206.2,237.7z
					 M188.8,238.9l0.1-0.4l-0.3,1.3L188.8,238.9z"/>
				<linearGradient id="SVGID_12_" gradientUnits="userSpaceOnUse" x1="196.4453" y1="237.3877" x2="196.2232" y2="249.8378">
					<stop  offset="0" style="stop-color:#141419"/>
					<stop  offset="0.3804" style="stop-color:#858887"/>
					<stop  offset="0.6941" style="stop-color:#17171E"/>
					<stop  offset="1" style="stop-color:#101015"/>
				</linearGradient>
				<polygon fill-rule="evenodd" clip-rule="evenodd" fill="url(#SVGID_12_)" points="206.2,237.7 206.4,249.8 186.1,249.8 
					188.8,238.9 188.6,239.8 188.9,238.5 188.9,238 188.9,238 189,237.7 189,238.1 189,237.7 				"/>
				
					<radialGradient id="SVGID_13_" cx="186.3501" cy="409.7998" r="185.4377" gradientTransform="matrix(-1.471399e-002 0.9999 -0.1114 -1.639740e-003 234.7555 224.1418)" gradientUnits="userSpaceOnUse">
					<stop  offset="0.2202" style="stop-color:#1E1F26"/>
					<stop  offset="0.586" style="stop-color:#0F0F14"/>
					<stop  offset="1" style="stop-color:#121212"/>
				</radialGradient>
				<path fill-rule="evenodd" clip-rule="evenodd" fill="url(#SVGID_13_)" d="M208.6,271.1L208.6,271.1l-2.3-21.4h-20.3H186l0.1,0
					L183,259l-4.8,22.4l-11.5,191.3c-0.1,0.2-0.1,0.4-0.1,0.6c0,0.1,0,0.2,0,0.4c0,0.1,0,0.2,0.1,0.3c0.5,2.1,3.4,3.9,8.8,5.4
					c5.3,1.5,11.6,2.3,18.9,2.5c0.8,0,1.6,0,2.5,0c8.3,0,15.4-0.8,21.4-2.5c5.7-1.6,8.7-3.5,8.9-5.8L208.6,271.1z"/>
			</g>
		</g>
	</g>
</g>
<g id="Layer_5">
	<g>
		<path fill-rule="evenodd" clip-rule="evenodd" d="M250.6,391.5C250.8,391.8,250.7,391.8,250.6,391.5L250.6,391.5z"/>
		<g>
			<g>
				<g>
					<linearGradient id="SVGID_14_" gradientUnits="userSpaceOnUse" x1="253.771" y1="420.8096" x2="217.3937" y2="441.8055">
						<stop  offset="0" style="stop-color:#373848"/>
						<stop  offset="1" style="stop-color:#000000"/>
					</linearGradient>
					<path fill-rule="evenodd" clip-rule="evenodd" fill="url(#SVGID_14_)" d="M267,429.4c-0.5,1-3,2-7.3,3.1c-0.4,0-1,0.1-1.8,0.2
						l-56.7,1.8c15.6-1.7,22.6-5.4,21.1-11l36.7,2.2C265.1,426.8,267.7,428.1,267,429.4z"/>
					<linearGradient id="SVGID_15_" gradientUnits="userSpaceOnUse" x1="259.8701" y1="411.4766" x2="234.5385" y2="455.6227">
						<stop  offset="0" style="stop-color:#22222B"/>
						<stop  offset="1" style="stop-color:#0F0F14"/>
					</linearGradient>
					<path fill-rule="evenodd" clip-rule="evenodd" fill="url(#SVGID_15_)" d="M267,429.4v47.9c0.1,2.7-4.2,4.3-13,4.6h-52.8v-47.4
						l56.7-1.8c0.7-0.1,1.3-0.1,1.8-0.2C264.1,431.5,266.5,430.4,267,429.4z"/>
				</g>
			</g>
			<g>
				<radialGradient id="SVGID_16_" cx="230.3501" cy="433.5996" r="29.3" gradientUnits="userSpaceOnUse">
					<stop  offset="0" style="stop-color:#FFFFFF;stop-opacity:0.3922"/>
					<stop  offset="1" style="stop-color:#FFFFFF;stop-opacity:0"/>
				</radialGradient>
				<path fill-rule="evenodd" clip-rule="evenodd" fill="url(#SVGID_16_)" d="M258,432.5c0.1,0,0.1,0,0.2,0.1c0,0,0.1,0.1,0.1,0.2
					s0,0.1-0.1,0.2c0,0-0.1,0-0.1,0l-56.7,1.8c-0.1,0-0.1,0-0.2,0c0-0.1-0.1-0.1-0.1-0.2c0-0.1,0-0.2,0.1-0.2c0-0.1,0.1-0.1,0.2-0.1
					L258,432.5z"/>
			</g>
		</g>
		<g>
			<g>
				<g>
					<linearGradient id="SVGID_17_" gradientUnits="userSpaceOnUse" x1="248.98" y1="395.4912" x2="255.3043" y2="406.4416">
						<stop  offset="0" style="stop-color:#4D4D4D"/>
						<stop  offset="0.4745" style="stop-color:#333333"/>
						<stop  offset="1" style="stop-color:#000000"/>
					</linearGradient>
					<path fill-rule="evenodd" clip-rule="evenodd" fill="url(#SVGID_17_)" d="M261.8,396.1c0,0.5-1.3,1-3.6,1.5
						c-2.4,0.4-5.4,0.6-8.8,0.6c-3.5,0-6.4-0.2-8.9-0.6c-2.4-0.4-3.6-0.9-3.6-1.5c0-0.6,1.2-1.1,3.6-1.5c2.4-0.4,5.4-0.6,8.9-0.6
						c3.4,0,6.3,0.2,8.8,0.6c2.2,0.4,3.4,0.8,3.6,1.3C261.7,396,261.8,396,261.8,396.1z"/>
					<linearGradient id="SVGID_18_" gradientUnits="userSpaceOnUse" x1="236.8999" y1="413.4492" x2="261.7749" y2="413.4492">
						<stop  offset="0" style="stop-color:#151515"/>
						<stop  offset="0.2549" style="stop-color:#808088"/>
						<stop  offset="0.5529" style="stop-color:#3E3F42"/>
						<stop  offset="1" style="stop-color:#000000"/>
					</linearGradient>
					<path fill-rule="evenodd" clip-rule="evenodd" fill="url(#SVGID_18_)" d="M236.9,396.1c0,0.5,1.2,1,3.6,1.5
						c2.4,0.4,5.4,0.6,8.9,0.6c3.4,0,6.3-0.2,8.8-0.6c2.4-0.4,3.6-0.9,3.6-1.5v33.1c-8.3,2.2-16.5,2.2-24.9,0V396.1z"/>
				</g>
			</g>
			<g>
				<g>
					<radialGradient id="SVGID_19_" cx="246.6499" cy="398.4004" r="7.175" gradientUnits="userSpaceOnUse">
						<stop  offset="0" style="stop-color:#FFFFFF;stop-opacity:0.5922"/>
						<stop  offset="1" style="stop-color:#FFFFFF;stop-opacity:0"/>
					</radialGradient>
					<path fill-rule="evenodd" clip-rule="evenodd" fill="url(#SVGID_19_)" d="M262,396.3c-0.2,0.6-1.5,1.1-3.9,1.5
						c-2.4,0.4-5.4,0.6-8.8,0.6c-3.5,0-6.4-0.2-8.9-0.6c-2.4-0.4-3.6-0.8-3.8-1.5c0-0.1,0-0.1,0-0.2c0,0,0.1-0.1,0.1-0.1
						c0.1,0,0.1,0,0.2,0c0,0,0.1,0.1,0.1,0.2c0.2,0.4,1.3,0.8,3.4,1.1c2.4,0.4,5.4,0.6,8.8,0.6c3.4,0,6.3-0.2,8.7-0.6
						c2.1-0.4,3.3-0.8,3.5-1.1c0-0.1,0.1-0.1,0.1-0.2c0.1,0,0.1,0,0.2,0c0,0,0.1,0.1,0.1,0.1C262,396.2,262,396.2,262,396.3z"/>
				</g>
			</g>
		</g>
		<g>
			<path fill-rule="evenodd" clip-rule="evenodd" d="M247.7,396.3c0-0.1,0.1-0.3,0.4-0.3c0.3-0.1,0.7-0.2,1.2-0.2
				c0.4,0,0.8,0.1,1.1,0.2c0.3,0.1,0.5,0.2,0.5,0.3c0,0.1-0.2,0.3-0.5,0.4c-0.3,0.1-0.7,0.1-1.1,0.1c-0.5,0-0.9,0-1.2-0.1
				C247.9,396.6,247.7,396.5,247.7,396.3z"/>
		</g>
		<g>
			<g>
				<linearGradient id="SVGID_20_" gradientUnits="userSpaceOnUse" x1="240.5249" y1="383.625" x2="255.3749" y2="383.625">
					<stop  offset="0" style="stop-color:#4F4F4F"/>
					<stop  offset="0.2039" style="stop-color:#BEBEBE"/>
					<stop  offset="0.2863" style="stop-color:#FFFFFF"/>
					<stop  offset="0.5255" style="stop-color:#737373"/>
					<stop  offset="1" style="stop-color:#4E4E4E"/>
				</linearGradient>
				<path fill-rule="evenodd" clip-rule="evenodd" fill="url(#SVGID_20_)" d="M252.4,383.7c0,0.3-0.3,0.5-0.9,0.7
					c-0.6,0.2-1.4,0.3-2.2,0.3c-0.9,0-1.6-0.1-2.2-0.3c-0.6-0.2-0.9-0.4-0.9-0.7c0-0.3,0.3-0.6,0.9-0.8c0.6-0.2,1.3-0.3,2.2-0.3
					c0.8,0,1.6,0.1,2.2,0.3C252,383.1,252.4,383.3,252.4,383.7z"/>
				<linearGradient id="SVGID_21_" gradientUnits="userSpaceOnUse" x1="246.1499" y1="386.3252" x2="252.3501" y2="386.3252">
					<stop  offset="0" style="stop-color:#595959"/>
					<stop  offset="0.5255" style="stop-color:#A6A6A6"/>
					<stop  offset="1" style="stop-color:#333333"/>
				</linearGradient>
				<path fill-rule="evenodd" clip-rule="evenodd" fill="url(#SVGID_21_)" d="M250.7,388.9c-0.4,0.1-0.9,0.1-1.5,0.1
					c-0.5,0-0.9,0-1.3-0.1c-0.1,0-0.2,0-0.3-0.1c-0.2,0-0.5-0.1-0.7-0.1c-0.6-0.2-0.9-0.4-0.9-0.7v-4.3c0,0.3,0.3,0.5,0.9,0.7
					c0.6,0.2,1.3,0.3,2.2,0.3c0.8,0,1.6-0.1,2.2-0.3c0.6-0.2,0.9-0.4,0.9-0.7v4.3c0,0.3-0.3,0.5-0.9,0.7c-0.2,0.1-0.4,0.1-0.6,0.1
					C250.8,388.9,250.8,388.9,250.7,388.9L250.7,388.9z"/>
				<linearGradient id="SVGID_22_" gradientUnits="userSpaceOnUse" x1="247.9751" y1="392.7871" x2="250.7251" y2="392.7871">
					<stop  offset="0" style="stop-color:#595959"/>
					<stop  offset="0.5255" style="stop-color:#A6A6A6"/>
					<stop  offset="1" style="stop-color:#333333"/>
				</linearGradient>
				<path fill-rule="evenodd" clip-rule="evenodd" fill="url(#SVGID_22_)" d="M248,388.9c0.4,0.1,0.8,0.1,1.3,0.1c0.5,0,1,0,1.5-0.1
					v7.4c-0.9,0.5-1.9,0.5-2.8,0V388.9z"/>
			</g>
		</g>
		<g>
			<g>
				
					<linearGradient id="SVGID_23_" gradientUnits="userSpaceOnUse" x1="272.2461" y1="385.0947" x2="282.0111" y2="385.0947" gradientTransform="matrix(0.9933 0.1152 -6.589172e-002 0.9991 2.010316e-004 2.596229e-004)">
					<stop  offset="0" style="stop-color:#000000"/>
					<stop  offset="0.4275" style="stop-color:#73737B"/>
					<stop  offset="0.6275" style="stop-color:#C7C7C9"/>
					<stop  offset="0.6902" style="stop-color:#F2F2F2"/>
					<stop  offset="0.7569" style="stop-color:#B7B7BA"/>
					<stop  offset="0.8784" style="stop-color:#8D8E94"/>
					<stop  offset="1" style="stop-color:#434348"/>
				</linearGradient>
				<path fill-rule="evenodd" clip-rule="evenodd" fill="url(#SVGID_23_)" d="M245,419.6l0.5-3.4c0.2-0.6,0.6-1.1,1-1.5
					c1-1,2.1-1.5,3.5-1.5c1.4,0,2.6,0.5,3.5,1.5c0.8,0.7,1.3,1.6,1.4,2.7l-0.1,3c0-0.2,0-0.4,0-0.6c-0.2-0.9-0.7-1.7-1.4-2.3
					c-1-1-2.1-1.5-3.5-1.5c-0.1,0-0.2,0-0.3,0c-1.2,0-2.3,0.5-3.3,1.4c-0.5,0.5-0.9,1.1-1.1,1.8C245.1,419.3,245,419.5,245,419.6z"
					/>
				<linearGradient id="SVGID_24_" gradientUnits="userSpaceOnUse" x1="247.248" y1="422.5293" x2="250.3277" y2="417.157">
					<stop  offset="0" style="stop-color:#4F4F4F"/>
					<stop  offset="0.2039" style="stop-color:#BEBEBE"/>
					<stop  offset="0.2863" style="stop-color:#FFFFFF"/>
					<stop  offset="0.5255" style="stop-color:#737373"/>
					<stop  offset="1" style="stop-color:#4E4E4E"/>
				</linearGradient>
				<path fill-rule="evenodd" clip-rule="evenodd" fill="url(#SVGID_24_)" d="M249.5,425.7c-1.2-0.1-2.3-0.5-3.3-1.5
					c-0.5-0.5-0.8-1-1-1.5c-0.3-0.6-0.4-1.2-0.4-1.9v0l0.1-1.2c0-0.1,0.1-0.3,0.1-0.4c0.2-0.7,0.6-1.3,1.1-1.8
					c0.9-0.9,2-1.4,3.3-1.4v1c-0.9,0.1-1.8,0.5-2.5,1.1c-0.7,0.8-1.1,1.7-1.1,2.8c0,1.1,0.4,2,1.1,2.8c0.7,0.7,1.6,1.1,2.5,1.1
					V425.7z"/>
				<linearGradient id="SVGID_25_" gradientUnits="userSpaceOnUse" x1="249.5376" y1="420.8252" x2="254.7626" y2="420.8252">
					<stop  offset="0" style="stop-color:#4F4F4F"/>
					<stop  offset="1" style="stop-color:#4D4D4D"/>
				</linearGradient>
				<path fill-rule="evenodd" clip-rule="evenodd" fill="url(#SVGID_25_)" d="M254.8,420.3l0,1.4c-0.1,0.7-0.4,1.3-0.8,1.8
					c-0.2,0.2-0.4,0.5-0.5,0.7c-1,1-2.1,1.5-3.5,1.5c-0.1,0-0.2,0-0.3,0v-0.9c0.1,0,0.2,0,0.3,0c1.1,0,2-0.4,2.8-1.1
					c0.8-0.8,1.2-1.7,1.2-2.8c0-1.1-0.4-2-1.2-2.8c-0.8-0.8-1.7-1.1-2.8-1.1c-0.1,0-0.2,0-0.3,0v-1c0.1,0,0.2,0,0.3,0
					c1.4,0,2.5,0.5,3.5,1.5c0.7,0.7,1.1,1.4,1.4,2.3C254.7,420,254.8,420.2,254.8,420.3z"/>
				<linearGradient id="SVGID_26_" gradientUnits="userSpaceOnUse" x1="240.7246" y1="419.0996" x2="257.9024" y2="422.4605">
					<stop  offset="0" style="stop-color:#4F4F4F"/>
					<stop  offset="0.2039" style="stop-color:#BEBEBE"/>
					<stop  offset="0.2863" style="stop-color:#FFFFFF"/>
					<stop  offset="0.5255" style="stop-color:#737373"/>
					<stop  offset="1" style="stop-color:#4D4D4D"/>
				</linearGradient>
				<path fill-rule="evenodd" clip-rule="evenodd" fill="url(#SVGID_26_)" d="M249.5,424.8c-0.9-0.1-1.8-0.5-2.5-1.1
					c-0.7-0.8-1.1-1.7-1.1-2.8c0-1.1,0.4-2,1.1-2.8c0.7-0.7,1.6-1.1,2.5-1.1c0.1,0,0.2,0,0.3,0c1.1,0,2,0.4,2.8,1.1
					c0.8,0.8,1.2,1.7,1.2,2.8c0,1.1-0.4,2-1.2,2.8c-0.8,0.8-1.7,1.1-2.8,1.1C249.7,424.8,249.6,424.8,249.5,424.8z"/>
			</g>
		</g>
		<g>
			<path fill-rule="evenodd" clip-rule="evenodd" fill-opacity="0.3569" d="M250.7,390.5c-0.9,0.3-1.8,0.3-2.8,0v-1.6
				c0.4,0.1,0.8,0.1,1.3,0.1c0.5,0,1,0,1.5-0.1V390.5z"/>
		</g>
	</g>
</g>
<g id="Layer_4">
	<g>
		<g>
			<g>
				
					<linearGradient id="SVGID_27_" gradientUnits="userSpaceOnUse" x1="-163.8677" y1="470.3984" x2="-148.0359" y2="470.3984" gradientTransform="matrix(0.6411 -0.7674 0.7775 0.6291 -3.139973e-004 4.543066e-004)">
					<stop  offset="0" style="stop-color:#8D8D8D"/>
					<stop  offset="0.3765" style="stop-color:#E1E1E1"/>
					<stop  offset="0.5373" style="stop-color:#CECECE"/>
					<stop  offset="0.6039" style="stop-color:#B3B3B3"/>
					<stop  offset="0.698" style="stop-color:#FFFFFF"/>
					<stop  offset="0.7608" style="stop-color:#C0C0C0"/>
					<stop  offset="1" style="stop-color:#ABABAB"/>
				</linearGradient>
				<polygon fill-rule="evenodd" clip-rule="evenodd" fill="url(#SVGID_27_)" points="232,398.6 230,394.6 298.4,431.2 302.6,435.3 
									"/>
				
					<linearGradient id="SVGID_28_" gradientUnits="userSpaceOnUse" x1="409.3311" y1="214.4102" x2="460.243" y2="214.4102" gradientTransform="matrix(0.8466 0.5323 -0.5617 0.8281 -2.391338e-004 -5.980730e-004)">
					<stop  offset="0" style="stop-color:#D9D9D9"/>
					<stop  offset="9.411765e-002" style="stop-color:#5E5E5E"/>
					<stop  offset="1" style="stop-color:#000000"/>
				</linearGradient>
				<path fill-rule="evenodd" clip-rule="evenodd" fill="url(#SVGID_28_)" d="M227.6,404.6l4.4-6l70.6,36.8
					c-1.2,3.1-2.7,5.3-4.4,6.4L227.6,404.6z"/>
				
					<linearGradient id="SVGID_29_" gradientUnits="userSpaceOnUse" x1="405.6074" y1="204.4219" x2="430.472" y2="204.4219" gradientTransform="matrix(0.8305 0.557 -0.5797 0.8153 -2.146959e-004 3.516674e-004)">
					<stop  offset="0" style="stop-color:#A2A2A2"/>
					<stop  offset="0.3059" style="stop-color:#606060"/>
					<stop  offset="0.4706" style="stop-color:#888888"/>
					<stop  offset="0.6471" style="stop-color:#AEAEAE"/>
					<stop  offset="0.8706" style="stop-color:#151515"/>
					<stop  offset="1" style="stop-color:#9D9D9D"/>
				</linearGradient>
				<path fill-rule="evenodd" clip-rule="evenodd" fill="url(#SVGID_29_)" d="M227.6,404.6c-0.6-2.8-0.9-5-0.9-6.8l3.2-3.2l2.1,4
					L227.6,404.6z"/>
			</g>
			<g>
				<line fill-rule="evenodd" clip-rule="evenodd" fill="none" x1="227.5" y1="404.7" x2="232" y2="398.3"/>
			</g>
			<g>
				
					<linearGradient id="SVGID_30_" gradientUnits="userSpaceOnUse" x1="-207.7954" y1="456.21" x2="-166.2235" y2="456.21" gradientTransform="matrix(0.5737 -0.8191 0.836 0.5495 -8.165836e-005 -3.410578e-004)">
					<stop  offset="0" style="stop-color:#D9D9D9"/>
					<stop  offset="9.411765e-002" style="stop-color:#5E5E5E"/>
					<stop  offset="1" style="stop-color:#000000"/>
				</linearGradient>
				<path fill-rule="evenodd" clip-rule="evenodd" fill="url(#SVGID_30_)" d="M230,394.6c0.4,0.2,0.8,0.3,1.1,0.4l67.3,36.3l4.4,4.1
					l-2.6-1.1l-3-3l-65.5-34.6l1.6,2.7l-1.4-0.5C231.1,397.1,230.5,395.7,230,394.6z"/>
			</g>
		</g>
	</g>
</g>
<g id="Layer_3">
	<g>
		<g>
			<g>
				<g>
					<g>
						<g>
							
								<radialGradient id="SVGID_31_" cx="120.5" cy="286.25" r="14.0875" gradientTransform="matrix(1 0 0 2.748 0 -500.366)" gradientUnits="userSpaceOnUse">
								<stop  offset="0" style="stop-color:#5E5C5F"/>
								<stop  offset="1" style="stop-color:#000000"/>
							</radialGradient>
							<path fill-rule="evenodd" clip-rule="evenodd" fill="url(#SVGID_31_)" d="M127.4,268.7c-0.7,0.5-1.5,3.5-2.2,8.9
								c-0.7,5.4-1.1,12.1-1.2,20.3c0,8.1,0.4,14.9,1.2,20.4c0.8,5.5,1.5,8.4,2.3,8.9c-3.8-0.2-6.2-0.7-7.2-1.4
								c0.2-0.1,0-0.2-0.4-0.3c-0.4-0.1-1.1-2.9-2-8.6c-0.3-2.1-0.6-4.4-0.9-6.8c0-0.1,0-0.1,0-0.2c-0.3-3.9-0.5-8.1-0.5-12.6
								c-0.1-7.5,0.3-13.9,1.1-19.2c0.3-1.9,0.6-3.5,0.9-4.8c0.5-2.1,1-3.2,1.5-3.2C120.8,269.1,123.2,268.7,127.4,268.7z"/>
							<linearGradient id="SVGID_32_" gradientUnits="userSpaceOnUse" x1="127.3491" y1="268.7627" x2="127.3491" y2="327.0377">
								<stop  offset="0" style="stop-color:#5E5C5F"/>
								<stop  offset="1" style="stop-color:#1A1A1A"/>
							</linearGradient>
							<path fill-rule="evenodd" clip-rule="evenodd" fill="url(#SVGID_32_)" d="M127.5,327.1c-0.7-0.4-1.5-3.4-2.3-8.9
								c-0.8-5.5-1.2-12.3-1.2-20.4c0-8.1,0.4-14.9,1.2-20.3c0.7-5.4,1.5-8.4,2.2-8.9c0.1-0.1,0.1-0.1,0.3-0.1
								c0.8,0,1.6,2.9,2.1,8.5c0.6,5.7,0.9,12.6,0.9,20.8s-0.3,15-0.9,20.7c-0.6,5.7-1.3,8.6-2.1,8.6
								C127.6,327.2,127.5,327.2,127.5,327.1z"/>
							
								<path fill-rule="evenodd" clip-rule="evenodd" fill="none" stroke="#00CCFF" stroke-linecap="round" stroke-linejoin="round" stroke-miterlimit="3" d="
								M117,310c0-0.1,0-0.1,0-0.2"/>
						</g>
					</g>
					<g>
						<path fill-rule="evenodd" clip-rule="evenodd" d="M127.1,290.3c0.4,0,0.8,0.7,1.1,2.2c0.3,1.5,0.5,3.3,0.5,5.3
							c0,2.1-0.2,3.8-0.5,5.3c-0.3,1.5-0.7,2.2-1.1,2.2c-0.4,0-0.8-0.7-1.1-2.2c-0.3-1.4-0.4-3.2-0.4-5.3c0-2.1,0.1-3.9,0.4-5.3
							C126.4,291,126.7,290.3,127.1,290.3z"/>
					</g>
					<g>
						<g>
							<path fill-rule="evenodd" clip-rule="evenodd" fill="#3C3C3C" d="M152.5,291C152.5,291,152.5,291,152.5,291
								c0.1,0,0.1,0,0.1,0c0.2,0.1,0.4,0.8,0.5,1.9c0,0.2,0,0.4,0,0.6h-0.6c-0.4,2.8-0.4,5.7,0,8.7h0.6c0,0.1,0,0.1,0,0.2
								c-0.1,1.3-0.3,1.9-0.6,1.9c-0.2,0-0.4-0.7-0.6-1.9c0-0.1,0-0.1,0-0.2c-0.1-1.3-0.2-2.8-0.2-4.5c0-1.6,0-3,0.1-4.2
								c0-0.2,0.1-0.4,0.1-0.6C152.1,291.8,152.3,291.1,152.5,291z"/>
							<linearGradient id="SVGID_33_" gradientUnits="userSpaceOnUse" x1="157.5122" y1="293.4248" x2="157.5122" y2="302.3748">
								<stop  offset="0" style="stop-color:#6B6B72"/>
								<stop  offset="0.1608" style="stop-color:#84868C"/>
								<stop  offset="0.2745" style="stop-color:#DFE1E3"/>
								<stop  offset="0.3686" style="stop-color:#7D828A"/>
								<stop  offset="0.4627" style="stop-color:#73737B"/>
								<stop  offset="1" style="stop-color:#17171C"/>
							</linearGradient>
							<path fill-rule="evenodd" clip-rule="evenodd" fill="url(#SVGID_33_)" d="M153.1,293.5h9.6v8.7h-9.6h-0.6
								c-0.4-3-0.4-5.9,0-8.7H153.1z"/>
							<linearGradient id="SVGID_34_" gradientUnits="userSpaceOnUse" x1="139.4497" y1="290.875" x2="139.4497" y2="304.525">
								<stop  offset="0" style="stop-color:#6B6B72"/>
								<stop  offset="0.1608" style="stop-color:#84868C"/>
								<stop  offset="0.2745" style="stop-color:#FFFFFF"/>
								<stop  offset="0.3686" style="stop-color:#7D828A"/>
								<stop  offset="0.4471" style="stop-color:#73737B"/>
								<stop  offset="0.502" style="stop-color:#626269"/>
								<stop  offset="0.5725" style="stop-color:#777780"/>
								<stop  offset="0.6824" style="stop-color:#46464A"/>
								<stop  offset="1" style="stop-color:#17171C"/>
							</linearGradient>
							<path fill-rule="evenodd" clip-rule="evenodd" fill="url(#SVGID_34_)" d="M152.5,291c-0.2,0.1-0.3,0.8-0.5,1.9
								c0,0.2,0,0.4-0.1,0.6c-0.1,1.2-0.1,2.6-0.1,4.2c0,1.8,0.1,3.3,0.2,4.5c0,0.1,0,0.1,0,0.2c0.2,1.3,0.4,1.9,0.6,1.9H127
								c-0.9-4.5-0.9-8.9,0-13.4H152.5z"/>
						</g>
					</g>
					<g>
						<g>
							<linearGradient id="SVGID_35_" gradientUnits="userSpaceOnUse" x1="181" y1="288.1626" x2="181" y2="309.8376">
								<stop  offset="0" style="stop-color:#1A1A1A"/>
								<stop  offset="0.1961" style="stop-color:#262626"/>
								<stop  offset="0.651" style="stop-color:#000000"/>
								<stop  offset="1" style="stop-color:#1A1A1A"/>
							</linearGradient>
							<path fill-rule="evenodd" clip-rule="evenodd" fill="url(#SVGID_35_)" d="M157.4,309.9c0.7-7,0.8-14.3,0.1-21.7
								c0.1,0,0.1,0,0.2,0h47V310L157.4,309.9z"/>
							<linearGradient id="SVGID_36_" gradientUnits="userSpaceOnUse" x1="156.6797" y1="288.1499" x2="156.6797" y2="309.8501">
								<stop  offset="0" style="stop-color:#000000"/>
								<stop  offset="0.2745" style="stop-color:#3C3C3C"/>
								<stop  offset="1" style="stop-color:#000000"/>
							</linearGradient>
							<path fill-rule="evenodd" clip-rule="evenodd" fill="url(#SVGID_36_)" d="M157.4,309.9h-0.3c-1.1-0.4-1.6-4.1-1.5-11.4
								c-0.6-6.4,0-9.9,1.9-10.4C158.1,295.6,158.1,302.8,157.4,309.9z"/>
						</g>
					</g>
					<g>
						<g>
							<path fill-rule="evenodd" clip-rule="evenodd" d="M127.5,268.8c0.1-0.1,0.2-0.1,0.3-0.1l0.5,0.2v0.4
								c-0.9,0.9-1.7,2.7-2.4,5.5c-0.2,0.8-0.4,1.7-0.6,2.7c-0.6,3.7-1.1,7.9-1.3,12.6c-0.1,1.9-0.2,3.9-0.3,5.9v0c0,0.5,0,1,0,1.5
								c0,0.1,0,0.2,0,0.4c0,7.9,0.5,14.7,1.5,20.3c0.2,1.1,0.5,2,0.6,2.8c0.6,2.8,1.4,4.6,2.3,5.3v0.5c-0.3,0-0.6-0.1-0.8-0.3
								c-0.9-0.8-1.7-2.5-2.3-5.3c-0.2-0.9-0.4-1.8-0.7-2.9c-1-5.7-1.5-12.5-1.5-20.5c0-0.2,0-0.3,0-0.4c0-0.5,0-1,0-1.5
								c0-2.1,0.1-4.1,0.2-6c0.2-4.7,0.7-9,1.3-12.8c0.2-1,0.4-1.9,0.6-2.8C125.9,271.6,126.6,269.7,127.5,268.8z"/>
						</g>
					</g>
					<g>
						<linearGradient id="SVGID_37_" gradientUnits="userSpaceOnUse" x1="142.3755" y1="290.6157" x2="137.1554" y2="304.7175">
							<stop  offset="0" style="stop-color:#000000;stop-opacity:0"/>
							<stop  offset="1" style="stop-color:#000000"/>
						</linearGradient>
						<path fill-rule="evenodd" clip-rule="evenodd" fill="url(#SVGID_37_)" d="M127,290.9h25.4c-0.2,0.1-0.3,0.8-0.5,1.9
							c0,0.2,0,0.4-0.1,0.6c-0.1,1.2-0.1,2.6-0.1,4.1c0,1.8,0.1,3.3,0.2,4.6c0,0.1,0,0.1,0,0.2c0.2,1.3,0.4,2,0.6,2H127
							C126.1,299.8,126.1,295.4,127,290.9z"/>
					</g>
				</g>
				<g>
					<g>
						<g>
							<linearGradient id="SVGID_38_" gradientUnits="userSpaceOnUse" x1="188.4287" y1="296.9106" x2="257.8537" y2="350.9106">
								<stop  offset="0" style="stop-color:#848484"/>
								<stop  offset="0.3843" style="stop-color:#000000"/>
							</linearGradient>
							<path fill-rule="evenodd" clip-rule="evenodd" fill="url(#SVGID_38_)" d="M239.3,282.9c11.3,4.4,19.4,12.2,24.3,23.4
								c4.9,11.2,5.1,22.4,0.6,33.8c-4.4,11.3-12.2,19.4-23.4,24.3c-11.2,4.9-22.4,5.1-33.8,0.7c-11.3-4.5-19.4-12.3-24.3-23.5
								c-4.9-11.2-5.1-22.4-0.6-33.7c4.5-11.3,12.3-19.4,23.4-24.3C216.7,278.6,228,278.4,239.3,282.9z M238.6,284.6
								c-10.8-4.2-21.6-4-32.3,0.6c-10.7,4.6-18.1,12.4-22.3,23.3c-4.3,10.8-4.1,21.6,0.5,32.3c4.7,10.7,12.4,18.1,23.3,22.4
								c10.8,4.2,21.6,4,32.3-0.6c10.7-4.7,18.1-12.4,22.4-23.2c4.2-10.8,4-21.6-0.6-32.3C257.2,296.4,249.4,289,238.6,284.6z"/>
							<linearGradient id="SVGID_39_" gradientUnits="userSpaceOnUse" x1="181.0146" y1="311.1807" x2="265.2896" y2="336.6057">
								<stop  offset="0" style="stop-color:#262626"/>
								<stop  offset="1" style="stop-color:#0D0D0D"/>
							</linearGradient>
							<path fill-rule="evenodd" clip-rule="evenodd" fill="url(#SVGID_39_)" d="M238.6,284.6c10.8,4.3,18.6,11.8,23.2,22.5
								c4.6,10.7,4.8,21.4,0.6,32.3c-4.3,10.8-11.7,18.5-22.4,23.2c-10.7,4.6-21.4,4.8-32.3,0.6c-10.8-4.3-18.6-11.7-23.3-22.4
								c-4.6-10.7-4.8-21.4-0.5-32.3c4.2-10.9,11.7-18.6,22.3-23.3C217,280.6,227.8,280.4,238.6,284.6z"/>
						</g>
					</g>
				</g>
				<g>
					<g>
						<g>
							<linearGradient id="SVGID_40_" gradientUnits="userSpaceOnUse" x1="274.8784" y1="337.0034" x2="278.9246" y2="321.9024">
								<stop  offset="0" style="stop-color:#1A1A1A"/>
								<stop  offset="0.2392" style="stop-color:#333333"/>
								<stop  offset="0.4118" style="stop-color:#6D6F6E"/>
								<stop  offset="0.5412" style="stop-color:#515151"/>
								<stop  offset="0.7137" style="stop-color:#8A8C89"/>
								<stop  offset="0.7765" style="stop-color:#E6E6E6"/>
								<stop  offset="0.8392" style="stop-color:#6F716E"/>
								<stop  offset="1" style="stop-color:#30302E"/>
							</linearGradient>
							<path fill-rule="evenodd" clip-rule="evenodd" fill="url(#SVGID_40_)" d="M269.8,335.3c0.7-0.9,1.4-1.8,1.9-2.8
								c1.5-2.6,2.3-5.5,2.5-8.5c0-1,0-2.1-0.1-3.1c0.8-0.5,3.3,0,7.6,1.5c0.5,0.1,1,0.4,1.3,0.9c0.5,4.5-0.7,8.8-3.5,13.1
								c-0.3,0.5-0.7,0.9-1,1.4c-0.2,0.1-0.3,0.1-0.5,0.1c-0.2,0-0.4,0.1-0.6,0.1c-0.2,0-0.4-0.1-0.7-0.2c-0.2-0.1-0.4-0.1-0.6-0.1
								C271.9,336.6,269.8,335.8,269.8,335.3z"/>
							<linearGradient id="SVGID_41_" gradientUnits="userSpaceOnUse" x1="264.1831" y1="330.6616" x2="266.4626" y2="322.1378">
								<stop  offset="0" style="stop-color:#1A1A1A"/>
								<stop  offset="0.2392" style="stop-color:#333333"/>
								<stop  offset="0.4118" style="stop-color:#6D6F6E"/>
								<stop  offset="0.5412" style="stop-color:#515151"/>
								<stop  offset="0.6667" style="stop-color:#727472"/>
								<stop  offset="0.7529" style="stop-color:#DDDDDD"/>
								<stop  offset="0.8471" style="stop-color:#8A8C89"/>
								<stop  offset="1" style="stop-color:#30302E"/>
							</linearGradient>
							<path fill-rule="evenodd" clip-rule="evenodd" fill="url(#SVGID_41_)" d="M269.8,332l-13.1-3.1l2.4-8.4l13.4,3.1l0.9,0.3
								c0.5,0.5,0.4,2-0.4,4.4c-0.7,2.4-1.5,3.7-2.3,4L269.8,332z"/>
							<path fill-rule="evenodd" clip-rule="evenodd" fill="#333333" d="M269.8,335.3c-0.1-1.1-0.1-2.2,0-3.3l0.8,0.2
								c0.8-0.3,1.5-1.6,2.3-4c0.8-2.4,0.9-3.9,0.4-4.4l-0.9-0.3c0.5-0.9,1-1.8,1.6-2.7c0.1,1.1,0.1,2.1,0.1,3.1
								c-0.2,3-1,5.9-2.5,8.5C271.1,333.5,270.5,334.4,269.8,335.3z"/>
						</g>
					</g>
					<g>
						<g>
							<g>
								<linearGradient id="SVGID_42_" gradientUnits="userSpaceOnUse" x1="274.5996" y1="334.812" x2="281.3002" y2="333.0144">
									<stop  offset="0" style="stop-color:#1A1A1A"/>
									<stop  offset="0.2431" style="stop-color:#4D4D4D"/>
									<stop  offset="0.4941" style="stop-color:#A6A6A6"/>
									<stop  offset="0.6157" style="stop-color:#DDDDDD"/>
									<stop  offset="0.7216" style="stop-color:#848484"/>
									<stop  offset="0.8824" style="stop-color:#30302E"/>
									<stop  offset="1" style="stop-color:#000000"/>
								</linearGradient>
								<path fill-rule="evenodd" clip-rule="evenodd" fill="url(#SVGID_42_)" d="M282.6,338.1c-0.2-0.5-0.4-0.9-0.8-1.3
									c-0.6-0.6-1.4-0.9-2.3-0.9c-0.9,0-1.7,0.3-2.3,0.9c-0.6,0.6-1,1.4-1,2.3c0,0.2,0,0.4,0,0.5l-2.2-7.5c0-0.1,0-0.3,0-0.3
									c0-0.9,0.3-1.7,0.9-2.3s1.4-0.9,2.3-0.9s1.7,0.3,2.3,0.9c0.3,0.2,0.5,0.5,0.6,0.9L282.6,338.1z"/>
								<radialGradient id="SVGID_43_" cx="279.6001" cy="339.3999" r="3.5875" gradientUnits="userSpaceOnUse">
									<stop  offset="0" style="stop-color:#111216"/>
									<stop  offset="0.8039" style="stop-color:#000000"/>
									<stop  offset="1" style="stop-color:#A2A2A2"/>
								</radialGradient>
								<path fill-rule="evenodd" clip-rule="evenodd" fill="url(#SVGID_43_)" d="M276.3,339.8c0-0.2,0-0.3,0-0.5
									c0-0.9,0.3-1.7,1-2.3c0.7-0.6,1.4-0.9,2.3-0.9c0.9,0,1.7,0.3,2.3,0.9c0.4,0.4,0.6,0.8,0.8,1.3c0.1,0.3,0.1,0.7,0.1,1.1
									c0,0.9-0.3,1.7-0.9,2.3c-0.6,0.7-1.4,1-2.3,1c-0.9,0-1.7-0.3-2.3-1c-0.5-0.5-0.8-1-0.9-1.6L276.3,339.8L276.3,339.8z"/>
							</g>
						</g>
					</g>
					<g>
						<linearGradient id="SVGID_44_" gradientUnits="userSpaceOnUse" x1="268.2524" y1="327.3325" x2="256.8821" y2="324.29">
							<stop  offset="0" style="stop-color:#000000;stop-opacity:0"/>
							<stop  offset="1" style="stop-color:#000000"/>
						</linearGradient>
						<polygon fill-rule="evenodd" clip-rule="evenodd" fill="url(#SVGID_44_)" points="269.1,322.9 267.5,331.3 256.6,328.9 
							259,320.5 						"/>
					</g>
				</g>
				<g>
					<g>
						<linearGradient id="SVGID_45_" gradientUnits="userSpaceOnUse" x1="188.6748" y1="287.2749" x2="241.0746" y2="339.6747">
							<stop  offset="0" style="stop-color:#D0D0D0"/>
							<stop  offset="1" style="stop-color:#222222"/>
						</linearGradient>
						<path fill-rule="evenodd" clip-rule="evenodd" fill="url(#SVGID_45_)" d="M198.8,297.4c7.2-7.2,16-10.9,26.2-10.9
							c10.2,0,19,3.6,26.2,10.9s10.9,16,10.9,26.2c0,10.2-3.6,19-10.9,26.2s-16,10.8-26.2,10.8c-10.2,0-19-3.6-26.2-10.8
							s-10.9-16-10.9-26.2C187.9,313.3,191.5,304.6,198.8,297.4z M199.1,297.8c-7.1,7.1-10.6,15.7-10.6,25.8
							c0,10.1,3.5,18.7,10.6,25.8c7.1,7.1,15.7,10.6,25.8,10.6c10,0,18.6-3.5,25.8-10.6c7.1-7.1,10.7-15.7,10.7-25.8
							c0-10-3.6-18.6-10.7-25.8S235,287.1,225,287.1C214.9,287.1,206.3,290.7,199.1,297.8z"/>
						<linearGradient id="SVGID_46_" gradientUnits="userSpaceOnUse" x1="162.2002" y1="323.5498" x2="423.5002" y2="323.5498">
							<stop  offset="0" style="stop-color:#202124"/>
							<stop  offset="7.058824e-002" style="stop-color:#4F5056"/>
							<stop  offset="0.1176" style="stop-color:#5C5E61"/>
							<stop  offset="0.2353" style="stop-color:#A3A299"/>
							<stop  offset="0.3647" style="stop-color:#1E1C18"/>
							<stop  offset="0.5176" style="stop-color:#AF937C"/>
							<stop  offset="0.6471" style="stop-color:#A1949B"/>
							<stop  offset="0.7451" style="stop-color:#EBE9EB"/>
							<stop  offset="0.8157" style="stop-color:#CBCBC9"/>
							<stop  offset="0.8706" style="stop-color:#757574"/>
							<stop  offset="0.9412" style="stop-color:#FFFFFF"/>
							<stop  offset="1" style="stop-color:#000000"/>
						</linearGradient>
						<path fill-rule="evenodd" clip-rule="evenodd" fill="url(#SVGID_46_)" d="M199.1,297.8c7.1-7.1,15.7-10.7,25.8-10.7
							c10,0,18.6,3.6,25.8,10.7s10.7,15.7,10.7,25.8c0,10.1-3.6,18.7-10.7,25.8C243.6,356.5,235,360,225,360
							c-10.1,0-18.7-3.5-25.8-10.6c-7.1-7.1-10.6-15.7-10.6-25.8C188.5,313.5,192,304.9,199.1,297.8z"/>
					</g>
				</g>
				<g>
					<g>
						<linearGradient id="SVGID_47_" gradientUnits="userSpaceOnUse" x1="238.1514" y1="306.438" x2="241.6014" y2="300.338">
							<stop  offset="0" style="stop-color:#AEAEAE"/>
							<stop  offset="0.4118" style="stop-color:#222222"/>
						</linearGradient>
						<path fill-rule="evenodd" clip-rule="evenodd" fill="url(#SVGID_47_)" d="M242,301.3c-0.6-0.6-1.3-0.8-2.1-0.8
							c-0.8,0-1.5,0.3-2.1,0.8c-0.6,0.6-0.8,1.3-0.8,2.1c0,0.8,0.3,1.5,0.8,2.1c0.6,0.6,1.3,0.9,2.1,0.9c0.8,0,1.5-0.3,2.1-0.9
							c0.6-0.6,0.9-1.3,0.9-2.1C242.9,302.6,242.6,301.9,242,301.3z M242.4,300.9c0.7,0.7,1,1.5,1,2.5s-0.4,1.8-1,2.5
							c-0.7,0.7-1.5,1-2.5,1s-1.8-0.4-2.5-1c-0.7-0.7-1-1.5-1-2.5s0.4-1.8,1-2.5c0.7-0.7,1.5-1,2.5-1S241.7,300.2,242.4,300.9z"/>
						<path fill-rule="evenodd" clip-rule="evenodd" d="M242,301.3c0.6,0.6,0.9,1.3,0.9,2.1c0,0.8-0.3,1.5-0.9,2.1
							c-0.6,0.6-1.3,0.9-2.1,0.9c-0.8,0-1.5-0.3-2.1-0.9c-0.6-0.6-0.8-1.3-0.8-2.1c0-0.8,0.3-1.5,0.8-2.1c0.6-0.6,1.3-0.8,2.1-0.8
							C240.7,300.5,241.4,300.7,242,301.3z"/>
					</g>
				</g>
				<g>
					<g>
						<g>
							
								<linearGradient id="SVGID_48_" gradientUnits="userSpaceOnUse" x1="-285.3486" y1="336.0913" x2="-274.1846" y2="336.0913" gradientTransform="matrix(0.2779 -0.9606 0.9606 0.2779 -2.119541e-004 -1.792312e-004)">
								<stop  offset="0" style="stop-color:#262523"/>
								<stop  offset="0.2902" style="stop-color:#656D78"/>
								<stop  offset="0.5647" style="stop-color:#1A1D22"/>
								<stop  offset="0.6941" style="stop-color:#656668"/>
								<stop  offset="0.8353" style="stop-color:#D5D5D5"/>
								<stop  offset="0.9804" style="stop-color:#666769"/>
							</linearGradient>
							<path fill-rule="evenodd" clip-rule="evenodd" fill="url(#SVGID_48_)" d="M253.5,358.8c-1.9,3-2.8,6.6-2.8,10.7l-14.4-4.2
								l3.4-10.5L253.5,358.8z"/>
							
								<radialGradient id="SVGID_49_" cx="-402.2725" cy="-209.0508" r="26.7277" gradientTransform="matrix(-0.8985 -0.4389 -0.2985 0.6112 -154.1657 315.6065)" gradientUnits="userSpaceOnUse">
								<stop  offset="0" style="stop-color:#B9B7B5"/>
								<stop  offset="0.1725" style="stop-color:#656D78"/>
								<stop  offset="0.2706" style="stop-color:#363D41"/>
								<stop  offset="0.3765" style="stop-color:#656F78"/>
								<stop  offset="0.502" style="stop-color:#42464A"/>
								<stop  offset="0.6941" style="stop-color:#656668"/>
								<stop  offset="0.8353" style="stop-color:#D5D5D5"/>
								<stop  offset="0.9804" style="stop-color:#666769"/>
							</radialGradient>
							<path fill-rule="evenodd" clip-rule="evenodd" fill="url(#SVGID_49_)" d="M263.4,371.2c1.4-2.9,2.1-5.7,2.1-8.6
								c0.3,0,0.6-0.1,0.9-0.1c1.2,0.1,2.3,0.3,3.2,0.5c1,0.3,1.8,0.6,2.4,1.1c1.2,1,1.6,2.5,1.2,4.4c-1.1,4.9-3.8,6.1-8.1,3.6
								C264.5,371.7,264,371.4,263.4,371.2z"/>
							
								<linearGradient id="SVGID_50_" gradientUnits="userSpaceOnUse" x1="-294.3804" y1="343.5879" x2="-285.291" y2="343.5879" gradientTransform="matrix(0.2495 -0.9684 0.9684 0.2495 1.841486e-004 3.485978e-004)">
								<stop  offset="0" style="stop-color:#262523"/>
								<stop  offset="0.2902" style="stop-color:#656D78"/>
								<stop  offset="0.5647" style="stop-color:#1A1D22"/>
								<stop  offset="0.6941" style="stop-color:#656668"/>
								<stop  offset="0.8353" style="stop-color:#D5D5D5"/>
								<stop  offset="0.9804" style="stop-color:#666769"/>
							</linearGradient>
							<path fill-rule="evenodd" clip-rule="evenodd" fill="url(#SVGID_50_)" d="M265.5,362.5c0,2.9-0.7,5.7-2.1,8.6
								c-2.6-1.3-5.3-2-8-2.1c0.2-2.5,0.8-5,2-7.6C260.1,362.3,262.8,362.7,265.5,362.5z"/>
							
								<linearGradient id="SVGID_51_" gradientUnits="userSpaceOnUse" x1="-303.2783" y1="330.7979" x2="-290.538" y2="330.7979" gradientTransform="matrix(0.2295 -0.9733 0.9733 0.2295 -2.884567e-004 -1.094937e-004)">
								<stop  offset="3.529412e-002" style="stop-color:#262523"/>
								<stop  offset="0.3451" style="stop-color:#5E666F"/>
								<stop  offset="0.5647" style="stop-color:#1A1D22"/>
								<stop  offset="0.698" style="stop-color:#65616B"/>
								<stop  offset="0.8392" style="stop-color:#D5D5D5"/>
								<stop  offset="0.9804" style="stop-color:#666769"/>
							</linearGradient>
							<path fill-rule="evenodd" clip-rule="evenodd" fill="url(#SVGID_51_)" d="M255.4,369c-1.5,0-3.1,0.1-4.6,0.5
								c0-4.1,0.9-7.6,2.8-10.7c1.3,0.9,2.6,1.8,3.8,2.6C256.2,364,255.6,366.5,255.4,369z"/>
						</g>
					</g>
				</g>
				<g>
					<polygon fill-rule="evenodd" clip-rule="evenodd" points="205,363 238.6,314.8 261.5,316.4 260,324.8 251,323 216.5,369.8 
											"/>
				</g>
				<g>
					<g>
						<g>
							<linearGradient id="SVGID_52_" gradientUnits="userSpaceOnUse" x1="260.9053" y1="311.2837" x2="212.6945" y2="369.0997">
								<stop  offset="0" style="stop-color:#7B7B7B"/>
								<stop  offset="0" style="stop-color:#9D9D9D"/>
								<stop  offset="1" style="stop-color:#2B2B2B"/>
							</linearGradient>
							<path fill-rule="evenodd" clip-rule="evenodd" fill="url(#SVGID_52_)" d="M243.7,322.3c-0.1-0.1-0.1-0.2-0.2-0.3l3.6-4.4
								l14,3.4l-0.1,0.4l-13.8-3.5L243.7,322.3z M237.1,329.7c0.1,0,0.2,0.1,0.3,0.1l-27.3,34.6l1.1-2.3L237.1,329.7z"/>
							<linearGradient id="SVGID_53_" gradientUnits="userSpaceOnUse" x1="238.7295" y1="330.1494" x2="246.1842" y2="322.6541">
								<stop  offset="0" style="stop-color:#4D4D4D"/>
								<stop  offset="0.298" style="stop-color:#5E5E5E"/>
								<stop  offset="0.4" style="stop-color:#B7B7B7"/>
								<stop  offset="0.5059" style="stop-color:#575757"/>
								<stop  offset="1" style="stop-color:#151515"/>
							</linearGradient>
							<path fill-rule="evenodd" clip-rule="evenodd" fill="url(#SVGID_53_)" d="M243.5,322c0.1,0.1,0.1,0.2,0.2,0.3
								c0.8,1.2,1.2,2.2,1.1,3.1c-0.1,1.4-0.6,2.6-1.6,3.6c-1,1-2.3,1.4-3.7,1.4c-0.8,0-1.5-0.2-2.1-0.5c-0.1-0.1-0.2-0.1-0.3-0.1
								l1.9-2.3c0.2,0.1,0.4,0.1,0.6,0.1c0.7,0,1.2-0.2,1.7-0.6c0.5-0.5,0.7-1,0.8-1.7c0-0.5-0.1-0.9-0.3-1.3L243.5,322z"/>
							<linearGradient id="SVGID_54_" gradientUnits="userSpaceOnUse" x1="201.8027" y1="307.9541" x2="252.9277" y2="370.2792">
								<stop  offset="0" style="stop-color:#777777"/>
								<stop  offset="1" style="stop-color:#373737"/>
							</linearGradient>
							<path fill-rule="evenodd" clip-rule="evenodd" fill="url(#SVGID_54_)" d="M243.7,322.3l3.5-4.4l13.8,3.5L245,382l-38.5-9.5
								l3.6-8l27.3-34.6c0.6,0.3,1.3,0.5,2.1,0.5c1.4,0.1,2.7-0.4,3.7-1.4c1-1,1.6-2.2,1.6-3.6C244.9,324.5,244.5,323.5,243.7,322.3
								z"/>
						</g>
					</g>
				</g>
				<g>
					<g>
						<g>
							<g>
								<g>
									<g>
										<radialGradient id="SVGID_55_" cx="239.8501" cy="325.3501" r="6.4" gradientUnits="userSpaceOnUse">
											<stop  offset="0" style="stop-color:#777777"/>
											<stop  offset="1" style="stop-color:#151515"/>
										</radialGradient>
										<path fill-rule="evenodd" clip-rule="evenodd" fill="url(#SVGID_55_)" d="M242.3,320.8l-1.8,2.3c-0.2-0.1-0.5-0.1-0.7-0.1
											c-0.7,0-1.2,0.2-1.7,0.7c-0.4,0.5-0.6,1-0.6,1.6c0,0.5,0.1,0.9,0.3,1.3l-1.8,2.3c-0.9-1-1.3-2.1-1.3-3.5
											c0-1.4,0.5-2.6,1.5-3.6s2.2-1.5,3.6-1.5C240.8,320.2,241.6,320.4,242.3,320.8z"/>
										<linearGradient id="SVGID_56_" gradientUnits="userSpaceOnUse" x1="193.5547" y1="298.9619" x2="240.9911" y2="356.798">
											<stop  offset="0" style="stop-color:#777777"/>
											<stop  offset="1" style="stop-color:#373737"/>
										</linearGradient>
										<path fill-rule="evenodd" clip-rule="evenodd" fill="url(#SVGID_56_)" d="M236,328.9l-28.3,36.4l-5.4,8.4l-9.8-1.1
											l0.9-11.5l1.1,0.3l14.1-59.3l58.4,12l-1.3,6.3L246,316l-3.7,4.8c-0.7-0.4-1.5-0.6-2.4-0.6c-1.4,0-2.6,0.5-3.6,1.5
											s-1.5,2.2-1.5,3.6C234.7,326.7,235.1,327.9,236,328.9z"/>
										<linearGradient id="SVGID_57_" gradientUnits="userSpaceOnUse" x1="201.1499" y1="299.3999" x2="201.1499" y2="362.9999">
											<stop  offset="0" style="stop-color:#7B7B7B"/>
											<stop  offset="0" style="stop-color:#A2A2A2"/>
											<stop  offset="1" style="stop-color:#2B2B2B"/>
										</linearGradient>
										<polygon fill-rule="evenodd" clip-rule="evenodd" fill="url(#SVGID_57_)" points="208.8,302 194.6,361.3 193.5,361 
											207.8,301 										"/>
										<linearGradient id="SVGID_58_" gradientUnits="userSpaceOnUse" x1="208.6826" y1="296.9429" x2="257.6588" y2="314.3396">
											<stop  offset="0" style="stop-color:#7B7B7B"/>
											<stop  offset="0" style="stop-color:#9D9D9D"/>
											<stop  offset="1" style="stop-color:#2B2B2B"/>
										</linearGradient>
										<polygon fill-rule="evenodd" clip-rule="evenodd" fill="url(#SVGID_58_)" points="267.1,314 208.8,302 207.8,301 
											270.5,313.9 271,314.8 										"/>
										<polygon fill-rule="evenodd" clip-rule="evenodd" fill="#3C3C3C" points="265.9,320.4 267.1,314 271,314.8 269.3,321.1 
																					"/>
									</g>
								</g>
								<g>
									<radialGradient id="SVGID_59_" cx="234.6001" cy="306.5" r="29.825" gradientUnits="userSpaceOnUse">
										<stop  offset="0" style="stop-color:#FFFFFF"/>
										<stop  offset="1" style="stop-color:#FFFFFF;stop-opacity:0"/>
									</radialGradient>
									<path fill-rule="evenodd" clip-rule="evenodd" fill="url(#SVGID_59_)" d="M208.7,302C208.7,302,208.7,302,208.7,302
										L208.7,302C208.7,301.9,208.7,301.9,208.7,302l58.5,12c0,0,0,0,0,0c0,0,0,0,0,0.1h-0.1l-58.5-11.5L208.7,302z"/>
								</g>
								<g>
									<radialGradient id="SVGID_60_" cx="205.5" cy="310.6499" r="29.2625" gradientUnits="userSpaceOnUse">
										<stop  offset="0" style="stop-color:#FFFFFF"/>
										<stop  offset="1" style="stop-color:#FFFFFF;stop-opacity:0"/>
									</radialGradient>
									<path fill-rule="evenodd" clip-rule="evenodd" fill="url(#SVGID_60_)" d="M208.6,302C208.6,301.9,208.6,301.9,208.6,302
										c0.1-0.1,0.1-0.1,0.2-0.1h0.1c0,0,0.1,0.4,0.2,1.1l-13.6,56c0,0-0.1,0.1-0.1,0.1c0,0-0.1,0-0.1,0c0,0-0.1,0-0.1,0
										c0,0,0-0.1,0-0.1L208.6,302z"/>
								</g>
							</g>
						</g>
						<g>
							<g>
								<g>
									<linearGradient id="SVGID_61_" gradientUnits="userSpaceOnUse" x1="190.6479" y1="355.9912" x2="196.5881" y2="378.1439">
										<stop  offset="0" style="stop-color:#FFFFFF"/>
										<stop  offset="1" style="stop-color:#555555"/>
									</linearGradient>
									<path fill-rule="evenodd" clip-rule="evenodd" fill="url(#SVGID_61_)" d="M189.6,377.4
										C189.7,377.4,189.7,377.4,189.6,377.4L189.6,377.4v0.1h0c-1.6-0.6-2.7-2.2-3.3-4.6c-0.7-2.6-0.6-5.6,0.3-8.8
										s2.3-5.8,4.2-7.8c1.9-1.9,3.8-2.6,5.6-2.1l0.1,0c0.2,0,0.4,0.1,0.6,0.2c0.5,0.2,1,0.6,1.4,1v0c0.8,0.8,1.4,2,1.8,3.5
										c0.7,2.6,0.6,5.4-0.2,8.6c0,0.1,0,0.1,0,0.2c-0.2,0.7-0.4,1.4-0.6,2.1l0,0h-0.1c0,0,0,0,0,0v-0.1c0.2-0.6,0.4-1.3,0.6-2.1
										c0-0.1,0-0.1,0-0.2c0.8-3.2,0.9-6,0.2-8.6c-0.4-1.5-1-2.7-1.8-3.5c-1.9-1.2-3.5-1.4-5-0.6c-0.8,0.4-1.6,0.9-2.5,1.7
										c-2,1.8-3.5,4.3-4.4,7.5c-0.8,3.2-0.9,6.1-0.3,8.7C187,375.3,188.1,376.8,189.6,377.4z"/>
									<linearGradient id="SVGID_62_" gradientUnits="userSpaceOnUse" x1="199.4521" y1="355.4063" x2="187.2293" y2="376.5825">
										<stop  offset="0" style="stop-color:#D2D6DF"/>
										<stop  offset="1" style="stop-color:#A9B1BE"/>
									</linearGradient>
									<path fill-rule="evenodd" clip-rule="evenodd" fill="url(#SVGID_62_)" d="M191.1,372l6.3,1.7c-0.5,0.7-1,1.3-1.5,1.8
										c-0.3,0.3-0.6,0.6-1,0.8l-1.3-0.3l-3.4-0.8l-0.6,2.3c-1.5-0.6-2.6-2.1-3.3-4.5c-0.7-2.6-0.6-5.5,0.3-8.7
										c0.9-3.2,2.3-5.8,4.4-7.5c0.9-0.8,1.7-1.3,2.5-1.7c1.5-0.8,3.1-0.6,5,0.6c0.8,0.8,1.4,1.9,1.8,3.5c0.7,2.6,0.6,5.4-0.2,8.6
										c0,0,0,0.1,0,0.2c-0.2,0.8-0.4,1.5-0.6,2.1v0.1l-3.8-1l-3.3-0.9L191.1,372z"/>
									<linearGradient id="SVGID_63_" gradientUnits="userSpaceOnUse" x1="201.4883" y1="355.8428" x2="199.4252" y2="379.7438">
										<stop  offset="0" style="stop-color:#6E7379"/>
										<stop  offset="0.1725" style="stop-color:#9BA4B0"/>
										<stop  offset="0.4157" style="stop-color:#73757B"/>
										<stop  offset="0.4863" style="stop-color:#828486"/>
										<stop  offset="0.5412" style="stop-color:#555555"/>
										<stop  offset="1" style="stop-color:#A9B1BE"/>
									</linearGradient>
									<path fill-rule="evenodd" clip-rule="evenodd" fill="url(#SVGID_63_)" d="M199.5,369.9c0.2-0.7,0.4-1.4,0.6-2.1
										c0-0.1,0-0.1,0-0.2c0.8-3.2,0.9-6,0.2-8.6c-0.4-1.6-1-2.8-1.8-3.5v0c-0.4-0.5-0.9-0.8-1.4-1l3.9,1c0,0,0.1,0,0.1,0
										c1.7,0.6,2.9,2.1,3.6,4.6c0.6,2.3,0.6,4.9,0,7.6c-0.1,0.4-0.2,0.8-0.3,1.2c-0.1,0.4-0.2,0.8-0.4,1.1L199.5,369.9z"/>
									<linearGradient id="SVGID_64_" gradientUnits="userSpaceOnUse" x1="191.6685" y1="369.9795" x2="195.0438" y2="370.8782">
										<stop  offset="0" style="stop-color:#262A33"/>
										<stop  offset="1" style="stop-color:#59616C"/>
									</linearGradient>
									<polygon fill-rule="evenodd" clip-rule="evenodd" fill="url(#SVGID_64_)" points="195.5,368.9 194.9,371.5 191.1,372 
										192.2,368 									"/>
									<linearGradient id="SVGID_65_" gradientUnits="userSpaceOnUse" x1="198.7266" y1="373.0879" x2="198.7724" y2="376.9129">
										<stop  offset="0.3137" style="stop-color:#343A43"/>
										<stop  offset="0.5098" style="stop-color:#464B53"/>
										<stop  offset="1" style="stop-color:#888D91"/>
									</linearGradient>
									<path fill-rule="evenodd" clip-rule="evenodd" fill="url(#SVGID_65_)" d="M194.9,376.3c0.3-0.2,0.6-0.5,1-0.8
										c0.6-0.6,1.1-1.2,1.5-1.8h5.2c-0.6,1-1.3,1.9-2.1,2.8L194.9,376.3z"/>
									<linearGradient id="SVGID_66_" gradientUnits="userSpaceOnUse" x1="189.9644" y1="376.2949" x2="193.3397" y2="377.1938">
										<stop  offset="0" style="stop-color:#262A33"/>
										<stop  offset="1" style="stop-color:#59616C"/>
									</linearGradient>
									<path fill-rule="evenodd" clip-rule="evenodd" fill="url(#SVGID_66_)" d="M189.6,377.4l0.6-2.3l3.4,0.8l-0.4,1.7
										L189.6,377.4L189.6,377.4C189.7,377.4,189.7,377.4,189.6,377.4z"/>
									<linearGradient id="SVGID_67_" gradientUnits="userSpaceOnUse" x1="191.3472" y1="371.2754" x2="202.4577" y2="374.304">
										<stop  offset="0" style="stop-color:#262A33"/>
										<stop  offset="1" style="stop-color:#59616C"/>
									</linearGradient>
									<polygon fill-rule="evenodd" clip-rule="evenodd" fill="url(#SVGID_67_)" points="194.9,371.5 202.6,373.6 202.6,373.7 
										197.4,373.7 191.1,372 									"/>
									<path fill-rule="evenodd" clip-rule="evenodd" fill="none" d="M197.4,373.7c-0.5,0.7-1,1.3-1.5,1.8c-0.3,0.3-0.6,0.6-1,0.8
										"/>
								</g>
							</g>
							<g>
								<g>
									<linearGradient id="SVGID_68_" gradientUnits="userSpaceOnUse" x1="203.563" y1="357.6836" x2="200.8136" y2="358.8601">
										<stop  offset="0" style="stop-color:#FFFFFF"/>
										<stop  offset="0.2667" style="stop-color:#B3B3B3"/>
										<stop  offset="1" style="stop-color:#000000"/>
									</linearGradient>
									<path fill-rule="evenodd" clip-rule="evenodd" fill="url(#SVGID_68_)" d="M202.3,357c0.4,0.2,0.7,0.5,0.9,0.9
										c0.2,0.4,0.3,0.9,0.1,1.3c-0.1,0.3-0.2,0.6-0.4,0.8c-0.3,0.1-0.6,0.1-0.9-0.1c-0.3-0.2-0.6-0.6-0.8-1
										c-0.2-0.4-0.3-0.8-0.2-1.2c0.1-0.4,0.2-0.6,0.4-0.8C201.6,356.6,201.9,356.7,202.3,357z M201.5,357.5
										c-0.2,0.1-0.3,0.2-0.3,0.5c-0.1,0.3,0,0.5,0.1,0.8c0.1,0.3,0.3,0.5,0.4,0.6c0.2,0.1,0.4,0.1,0.6,0c0.2-0.1,0.3-0.2,0.3-0.4
										c0.1-0.2,0.1-0.5,0-0.8c-0.1-0.3-0.3-0.5-0.5-0.6C201.9,357.4,201.7,357.4,201.5,357.5z"/>
									<path fill-rule="evenodd" clip-rule="evenodd" d="M201.3,358.2c0,0.1,0,0.1,0.1,0.3c0,0.1,0,0.1,0,0.2
										c0.1,0.2,0.3,0.4,0.5,0.5c0.2,0.1,0.3,0.1,0.4,0.1c0.2-0.1,0.3-0.2,0.3-0.5c0-0.1,0-0.1,0-0.2c0,0,0-0.1,0-0.1
										c0-0.1-0.1-0.2-0.1-0.3c-0.1-0.2-0.2-0.4-0.4-0.5c-0.2-0.1-0.3-0.1-0.5-0.1c-0.1,0-0.2,0.2-0.3,0.4
										C201.3,358,201.3,358.1,201.3,358.2z M201.5,357.5c0.2-0.1,0.4,0,0.6,0.1c0.2,0.1,0.4,0.3,0.5,0.6c0.1,0.3,0.1,0.5,0,0.8
										c0,0.2-0.1,0.4-0.3,0.4c-0.1,0.1-0.3,0.1-0.6,0c-0.2-0.1-0.3-0.3-0.4-0.6c-0.1-0.3-0.2-0.5-0.1-0.8
										C201.3,357.7,201.4,357.5,201.5,357.5z"/>
									<path fill-rule="evenodd" clip-rule="evenodd" fill="#666666" d="M202.6,358.5l-1.3-0.3c0-0.1,0-0.2,0-0.3
										c0.1-0.2,0.2-0.3,0.3-0.4c0.2-0.1,0.3,0,0.5,0.1c0.2,0.1,0.3,0.3,0.4,0.5C202.5,358.3,202.6,358.3,202.6,358.5z
										 M201.4,358.5l1.3,0.1c0,0.1,0,0.1,0,0.2c0,0.2-0.1,0.4-0.3,0.5c-0.1,0-0.3,0-0.4-0.1c-0.2-0.1-0.4-0.3-0.5-0.5
										C201.4,358.6,201.4,358.5,201.4,358.5z"/>
									<path fill-rule="evenodd" clip-rule="evenodd" fill="#333333" d="M201.3,358.2l1.3,0.3c0,0.1,0,0.1,0,0.1l-1.3-0.1
										C201.3,358.3,201.3,358.3,201.3,358.2z"/>
								</g>
							</g>
						</g>
					</g>
				</g>
				<g>
					<g>
						<radialGradient id="SVGID_69_" cx="239.7002" cy="360.4502" r="5.6" gradientUnits="userSpaceOnUse">
							<stop  offset="0" style="stop-color:#CCCCCC"/>
							<stop  offset="0.2353" style="stop-color:#999999"/>
							<stop  offset="1" style="stop-color:#373737"/>
						</radialGradient>
						<path fill-rule="evenodd" clip-rule="evenodd" fill="url(#SVGID_69_)" d="M242.6,369.1c0,0,0.1,0,0.1,0.1c0.1,0,0.1,0,0.1,0
							c-0.3,0.1-0.7,0.1-1,0.1c-1.4,0-2.7-0.5-3.7-1.5c-1-1-1.5-2.3-1.5-3.7s0.5-2.7,1.5-3.7c1-1,2.3-1.5,3.7-1.5
							c1.4,0,2.7,0.5,3.7,1.5c1,1,1.5,2.3,1.5,3.7c0,0.9-0.2,1.7-0.6,2.5c0,0,0-0.1,0-0.1c0.1-0.3,0.1-0.7,0.1-1.1
							c0-0.1,0-0.3,0-0.4c-0.1-0.8-0.5-1.6-1.1-2.2c-0.7-0.7-1.6-1.1-2.6-1.1s-1.9,0.4-2.6,1.1s-1.1,1.6-1.1,2.6
							c0,1,0.4,1.9,1.1,2.7c0.4,0.4,0.8,0.7,1.3,0.9C241.9,369,242.2,369.1,242.6,369.1L242.6,369.1z"/>
						<linearGradient id="SVGID_70_" gradientUnits="userSpaceOnUse" x1="245.2104" y1="363.0205" x2="239.4604" y2="367.8455">
							<stop  offset="0" style="stop-color:#333333"/>
							<stop  offset="0.2745" style="stop-color:#959595"/>
							<stop  offset="0.4627" style="stop-color:#BFBFBF"/>
							<stop  offset="0.6431" style="stop-color:#8D8D8D"/>
							<stop  offset="1" style="stop-color:#090909"/>
						</linearGradient>
						<path fill-rule="evenodd" clip-rule="evenodd" fill="url(#SVGID_70_)" d="M242.7,369.1L242.7,369.1h-0.1
							c-0.4,0-0.7-0.1-1.1-0.2c-0.5-0.2-0.9-0.5-1.3-0.9c-0.7-0.8-1.1-1.7-1.1-2.7c0-1,0.4-1.9,1.1-2.6s1.6-1.1,2.6-1.1
							s1.9,0.4,2.6,1.1c0.6,0.6,1,1.4,1.1,2.2c0,0.2,0,0.3,0,0.4c0,0.4,0,0.7-0.1,1.1c0-0.1,0-0.2,0-0.3c-0.1-0.5-0.4-1-0.8-1.4
							c-0.5-0.5-1.2-0.8-2-0.8c-0.7,0-1.4,0.3-1.9,0.8c-0.5,0.5-0.8,1.2-0.8,1.9s0.3,1.4,0.8,2C242.1,368.8,242.4,369,242.7,369.1z"
							/>
						<radialGradient id="SVGID_71_" cx="242.8999" cy="365.0498" r="2.8875" gradientUnits="userSpaceOnUse">
							<stop  offset="0" style="stop-color:#FFFFFF"/>
							<stop  offset="0.251" style="stop-color:#BFBFBF"/>
							<stop  offset="1" style="stop-color:#6A6A6A"/>
						</radialGradient>
						<path fill-rule="evenodd" clip-rule="evenodd" fill="url(#SVGID_71_)" d="M242.7,369.1c-0.3-0.1-0.6-0.3-0.9-0.5
							c-0.5-0.5-0.8-1.2-0.8-2s0.3-1.4,0.8-1.9c0.5-0.5,1.2-0.8,1.9-0.8c0.8,0,1.5,0.3,2,0.8c0.4,0.4,0.6,0.9,0.8,1.4
							c0,0.1,0,0.2,0,0.3c0,0,0,0.1,0,0.1s0,0.1,0,0.1c0,0.2,0,0.3,0,0.5c-0.1,0.5-0.4,1-0.8,1.5c-0.5,0.5-1.2,0.8-2,0.8
							c-0.1,0-0.2,0-0.3,0c-0.2,0-0.4-0.1-0.6-0.1C242.9,369.2,242.8,369.2,242.7,369.1L242.7,369.1z M244,365.6c-0.1,0-0.2,0-0.3,0
							c-0.3,0-0.5,0.1-0.8,0.3c-0.2,0.2-0.3,0.4-0.3,0.7v0c0,0.3,0.1,0.5,0.3,0.8c0.2,0.2,0.5,0.3,0.8,0.3c0.3,0,0.5-0.1,0.7-0.3
							c0.2-0.2,0.3-0.5,0.3-0.8c0-0.3-0.1-0.5-0.3-0.8C244.4,365.7,244.2,365.6,244,365.6z"/>
						<path fill-rule="evenodd" clip-rule="evenodd" fill="#333333" d="M242.8,366.5c0.1-0.2,0.2-0.4,0.4-0.6
							c0.3-0.2,0.6-0.4,0.9-0.4c0.2,0,0.3,0.1,0.5,0.3c0.2,0.2,0.3,0.5,0.3,0.8c0,0.3-0.1,0.5-0.3,0.8c-0.2,0.2-0.4,0.3-0.7,0.3
							c-0.3,0-0.5-0.1-0.8-0.3C242.9,367.1,242.8,366.9,242.8,366.5L242.8,366.5z"/>
					</g>
				</g>
				<g>
					<g>
						<g>
							<g>
								<linearGradient id="SVGID_72_" gradientUnits="userSpaceOnUse" x1="206.3008" y1="323.8672" x2="208.2169" y2="312.8656">
									<stop  offset="0" style="stop-color:#262523"/>
									<stop  offset="0.2902" style="stop-color:#656D78"/>
									<stop  offset="0.5647" style="stop-color:#1A1D22"/>
									<stop  offset="0.6941" style="stop-color:#656668"/>
									<stop  offset="0.8353" style="stop-color:#D5D5D5"/>
									<stop  offset="0.9804" style="stop-color:#666769"/>
								</linearGradient>
								<path fill-rule="evenodd" clip-rule="evenodd" fill="url(#SVGID_72_)" d="M199,322.5c1.8-3.6,2.5-7.2,2.1-10.8l14.2,2.4
									l-1.6,10.9L199,322.5z"/>
								<linearGradient id="SVGID_73_" gradientUnits="userSpaceOnUse" x1="190.6963" y1="319.9385" x2="192.5473" y2="311.0137">
									<stop  offset="0" style="stop-color:#262523"/>
									<stop  offset="0.2902" style="stop-color:#656D78"/>
									<stop  offset="0.5647" style="stop-color:#1A1D22"/>
									<stop  offset="0.6941" style="stop-color:#656668"/>
									<stop  offset="0.8353" style="stop-color:#D5D5D5"/>
									<stop  offset="0.9804" style="stop-color:#666769"/>
								</linearGradient>
								<path fill-rule="evenodd" clip-rule="evenodd" fill="url(#SVGID_73_)" d="M196.6,312.3c-0.1,2.8-0.7,5.4-1.6,7.8
									c-2.5-1.1-5.2-1.7-8.1-1.6c0-3.2,0.6-6.1,1.9-8.6C191.1,311,193.7,311.9,196.6,312.3z"/>
								
									<radialGradient id="SVGID_74_" cx="184.1001" cy="309.5498" r="26.7625" gradientTransform="matrix(1 0 0 0.6801 0 99.0386)" gradientUnits="userSpaceOnUse">
									<stop  offset="0" style="stop-color:#B9B7B5"/>
									<stop  offset="0.1725" style="stop-color:#656D78"/>
									<stop  offset="0.2706" style="stop-color:#363D41"/>
									<stop  offset="0.3765" style="stop-color:#656F78"/>
									<stop  offset="0.502" style="stop-color:#42464A"/>
									<stop  offset="0.6941" style="stop-color:#656668"/>
									<stop  offset="0.8353" style="stop-color:#D5D5D5"/>
									<stop  offset="0.9804" style="stop-color:#666769"/>
								</radialGradient>
								<path fill-rule="evenodd" clip-rule="evenodd" fill="url(#SVGID_74_)" d="M188.7,309.8c-1.2,2.6-1.9,5.5-1.9,8.6
									c-0.7,0-1.3,0-2,0.1c-5,0.3-6.9-2-5.6-6.8c0.5-1.9,1.5-3,3-3.4c0.8-0.2,1.6-0.2,2.6,0c0.9,0.2,1.9,0.5,3,1
									C188.2,309.4,188.4,309.6,188.7,309.8z"/>
								<linearGradient id="SVGID_75_" gradientUnits="userSpaceOnUse" x1="196.7813" y1="323.2017" x2="199.6128" y2="310.7531">
									<stop  offset="3.529412e-002" style="stop-color:#262523"/>
									<stop  offset="0.3451" style="stop-color:#5E666F"/>
									<stop  offset="0.5647" style="stop-color:#1A1D22"/>
									<stop  offset="0.698" style="stop-color:#65616B"/>
									<stop  offset="0.8392" style="stop-color:#D5D5D5"/>
									<stop  offset="0.9804" style="stop-color:#666769"/>
								</linearGradient>
								<path fill-rule="evenodd" clip-rule="evenodd" fill="url(#SVGID_75_)" d="M201.1,311.7c0.4,3.5-0.4,7.1-2.1,10.8
									c-1.3-1-2.6-1.8-4-2.4c1-2.3,1.5-4.9,1.6-7.8C198,312.1,199.5,311.9,201.1,311.7z"/>
							</g>
						</g>
					</g>
					<g>
						<g>
							<g>
								<g>
									<path fill-rule="evenodd" clip-rule="evenodd" fill="#424244" d="M207,313.5c1.8-1.8,3.9-2.6,6.4-2.6
										c2.5,0,4.6,0.9,6.3,2.6c1.8,1.8,2.7,3.9,2.7,6.4c0,2.5-0.9,4.6-2.7,6.3c-1.7,1.8-3.8,2.7-6.3,2.7c-2.5,0-4.6-0.9-6.4-2.7
										c-1.7-1.8-2.6-3.9-2.6-6.3C204.5,317.5,205.3,315.3,207,313.5z M209,315.5c-1.2,1.2-1.8,2.7-1.8,4.5c0,1.7,0.6,3.2,1.8,4.4
										c1.2,1.2,2.7,1.8,4.5,1.8c1.7,0,3.2-0.6,4.4-1.8c1.2-1.2,1.8-2.7,1.8-4.4c0-1.7-0.6-3.2-1.8-4.5c-1.2-1.2-2.7-1.8-4.4-1.8
										C211.7,313.7,210.2,314.3,209,315.5z"/>
									<linearGradient id="SVGID_76_" gradientUnits="userSpaceOnUse" x1="208.4209" y1="323.6152" x2="218.4443" y2="316.2381">
										<stop  offset="0" style="stop-color:#000000"/>
										<stop  offset="0.3647" style="stop-color:#8C8C8C"/>
										<stop  offset="1" style="stop-color:#000000"/>
									</linearGradient>
									<path fill-rule="evenodd" clip-rule="evenodd" fill="url(#SVGID_76_)" d="M209,315.5c1.2-1.2,2.7-1.8,4.5-1.8
										c1.7,0,3.2,0.6,4.4,1.8c1.2,1.2,1.8,2.7,1.8,4.5c0,1.7-0.6,3.2-1.8,4.4c-1.2,1.2-2.7,1.8-4.4,1.8c-1.7,0-3.2-0.6-4.5-1.8
										c-1.2-1.2-1.8-2.7-1.8-4.4C207.2,318.2,207.8,316.7,209,315.5z"/>
									<linearGradient id="SVGID_77_" gradientUnits="userSpaceOnUse" x1="207.9819" y1="311.061" x2="218.8819" y2="328.761">
										<stop  offset="0" style="stop-color:#FFFFFF"/>
										<stop  offset="0.4314" style="stop-color:#5E5E5E"/>
										<stop  offset="1" style="stop-color:#000000"/>
									</linearGradient>
									<path fill-rule="evenodd" clip-rule="evenodd" fill="url(#SVGID_77_)" d="M206,312.5c2.1-2,4.5-3,7.4-3s5.3,1,7.3,3
										c2,2,3.1,4.5,3.1,7.4s-1,5.3-3.1,7.4c-2,2-4.5,3-7.3,3s-5.3-1-7.4-3c-2-2-3-4.5-3-7.4S204,314.6,206,312.5z M207,313.5
										c-1.7,1.8-2.6,3.9-2.6,6.4c0,2.5,0.9,4.6,2.6,6.3c1.8,1.8,3.9,2.7,6.4,2.7c2.5,0,4.6-0.9,6.3-2.7c1.8-1.8,2.7-3.9,2.7-6.3
										c0-2.5-0.9-4.6-2.7-6.4c-1.7-1.8-3.8-2.6-6.3-2.6C211,310.9,208.9,311.8,207,313.5z"/>
								</g>
							</g>
							<g>
								
									<radialGradient id="SVGID_78_" cx="216" cy="325.2002" r="7.85" fx="216.0308" fy="325.2002" gradientUnits="userSpaceOnUse">
									<stop  offset="0" style="stop-color:#FFFFFF"/>
									<stop  offset="1" style="stop-color:#FFFFFF;stop-opacity:0"/>
								</radialGradient>
								<path fill-rule="evenodd" clip-rule="evenodd" fill="url(#SVGID_78_)" d="M217.4,316c-1.1-1.1-2.4-1.6-3.9-1.6
									c-1.5,0-2.8,0.6-3.9,1.6c-1.1,1.1-1.6,2.4-1.6,3.9c0,1.5,0.6,2.8,1.6,3.9c1.1,1.1,2.4,1.6,3.9,1.6c1.5,0,2.8-0.5,3.9-1.6
									c1.1-1.1,1.6-2.4,1.6-3.9C219,318.4,218.4,317.1,217.4,316z M218.4,315c1.3,1.3,2,3,2,4.9c0,1.9-0.7,3.5-2,4.9
									c-1.3,1.3-3,2-4.9,2c-1.9,0-3.6-0.7-4.9-2c-1.4-1.4-2-3-2-4.9c0-1.9,0.7-3.6,2-4.9c1.3-1.4,3-2,4.9-2
									C215.4,313,217,313.7,218.4,315z"/>
							</g>
						</g>
						<g>
							<radialGradient id="SVGID_79_" cx="212.2002" cy="319" r="4.1125" gradientUnits="userSpaceOnUse">
								<stop  offset="0" style="stop-color:#000000"/>
								<stop  offset="1" style="stop-color:#000000;stop-opacity:0"/>
							</radialGradient>
							<path fill-rule="evenodd" clip-rule="evenodd" fill="url(#SVGID_79_)" d="M208.1,319c0-1.1,0.4-2.1,1.1-2.9
								c0.8-0.8,1.8-1.2,2.9-1.2s2.1,0.4,2.9,1.2c0.8,0.8,1.2,1.8,1.2,2.9s-0.4,2.1-1.2,2.9c-0.8,0.8-1.8,1.2-2.9,1.2
								s-2.1-0.4-2.9-1.2C208.5,321.1,208.1,320.1,208.1,319z"/>
						</g>
					</g>
				</g>
				<g>
					<g>
						<radialGradient id="SVGID_80_" cx="205.2002" cy="332.7998" r="5.375" gradientUnits="userSpaceOnUse">
							<stop  offset="0" style="stop-color:#CCCCCC"/>
							<stop  offset="0.2353" style="stop-color:#999999"/>
							<stop  offset="1" style="stop-color:#373737"/>
						</radialGradient>
						<path fill-rule="evenodd" clip-rule="evenodd" fill="url(#SVGID_80_)" d="M211.8,338.6c0,0,0-0.1,0-0.1c0.1-0.3,0.1-0.6,0.1-1
							c0-0.1,0-0.3,0-0.5c-0.1-0.8-0.4-1.5-1-2.1c-0.7-0.7-1.6-1.1-2.6-1.1c-1,0-1.8,0.4-2.5,1.1c-0.7,0.7-1.1,1.5-1.1,2.5
							s0.4,1.9,1.1,2.5c0.4,0.4,0.8,0.7,1.3,0.9c0.3,0.1,0.7,0.2,1,0.3h0c0,0,0.1,0,0.1,0c0,0,0.1,0,0.1,0.1c-0.3,0-0.6,0-1,0
							c-1.4,0-2.5-0.5-3.5-1.5c-1-1-1.5-2.2-1.5-3.5c0-1.4,0.5-2.6,1.5-3.5c1-1,2.2-1.5,3.5-1.5c1.4,0,2.6,0.5,3.6,1.5
							c1,1,1.5,2.1,1.5,3.5C212.4,337.1,212.2,337.9,211.8,338.6z"/>
						<linearGradient id="SVGID_81_" gradientUnits="userSpaceOnUse" x1="210.5093" y1="335.269" x2="204.9577" y2="339.8954">
							<stop  offset="0" style="stop-color:#333333"/>
							<stop  offset="0.2745" style="stop-color:#959595"/>
							<stop  offset="0.4627" style="stop-color:#BFBFBF"/>
							<stop  offset="0.6431" style="stop-color:#8D8D8D"/>
							<stop  offset="1" style="stop-color:#090909"/>
						</linearGradient>
						<path fill-rule="evenodd" clip-rule="evenodd" fill="url(#SVGID_81_)" d="M211.8,338.5c0-0.1,0-0.2,0-0.3
							c-0.1-0.5-0.4-1-0.8-1.4c-0.5-0.5-1.1-0.8-1.9-0.8c-0.7,0-1.3,0.3-1.9,0.8c-0.5,0.5-0.8,1.2-0.8,1.9c0,0.8,0.3,1.4,0.8,1.9
							c0.2,0.2,0.5,0.4,0.8,0.6h0c-0.3-0.1-0.7-0.1-1-0.3c-0.5-0.2-0.9-0.5-1.3-0.9c-0.7-0.7-1.1-1.5-1.1-2.5s0.4-1.9,1.1-2.5
							c0.7-0.7,1.5-1.1,2.5-1.1c1,0,1.9,0.4,2.6,1.1c0.6,0.6,0.9,1.3,1,2.1c0,0.2,0,0.3,0,0.5C211.9,337.9,211.9,338.2,211.8,338.5z
							"/>
						<radialGradient id="SVGID_82_" cx="208.25" cy="337.2002" r="2.775" gradientUnits="userSpaceOnUse">
							<stop  offset="0" style="stop-color:#FFFFFF"/>
							<stop  offset="0.251" style="stop-color:#BFBFBF"/>
							<stop  offset="1" style="stop-color:#6A6A6A"/>
						</radialGradient>
						<path fill-rule="evenodd" clip-rule="evenodd" fill="url(#SVGID_82_)" d="M211.8,338.6L211.8,338.6c0,0.3,0,0.4,0,0.5
							c-0.1,0.5-0.4,1-0.8,1.4c-0.5,0.5-1.1,0.8-1.9,0.8c-0.1,0-0.2,0-0.3,0c-0.2,0-0.3-0.1-0.5-0.1c0,0-0.1-0.1-0.1-0.1
							c0,0-0.1,0-0.1,0c-0.3-0.2-0.6-0.4-0.8-0.6c-0.5-0.5-0.8-1.1-0.8-1.9c0-0.7,0.3-1.3,0.8-1.9c0.5-0.5,1.1-0.8,1.9-0.8
							c0.8,0,1.4,0.3,1.9,0.8c0.4,0.4,0.6,0.9,0.8,1.4c0,0.1,0,0.2,0,0.3C211.8,338.5,211.8,338.6,211.8,338.6z M209.3,337.7
							c0,0-0.1,0-0.1,0c-0.3,0-0.5,0.1-0.7,0.3c-0.2,0.2-0.3,0.4-0.3,0.6v0.1c0,0.3,0.1,0.5,0.3,0.7c0.2,0.2,0.4,0.3,0.7,0.3
							s0.5-0.1,0.6-0.3c0.2-0.2,0.3-0.4,0.3-0.7c0-0.3-0.1-0.5-0.3-0.7C209.7,337.9,209.5,337.8,209.3,337.7L209.3,337.7z"/>
						<path fill-rule="evenodd" clip-rule="evenodd" fill="#333333" d="M208.1,338.6c0.1-0.2,0.2-0.4,0.3-0.5
							c0.2-0.2,0.5-0.4,0.8-0.4h0.1c0.2,0.1,0.4,0.2,0.4,0.3c0.2,0.2,0.3,0.4,0.3,0.7c0,0.3-0.1,0.5-0.3,0.7
							c-0.2,0.2-0.4,0.3-0.6,0.3s-0.5-0.1-0.7-0.3C208.3,339.2,208.1,339,208.1,338.6L208.1,338.6z"/>
					</g>
				</g>
			</g>
		</g>
		<g>
			<g>
				<linearGradient id="SVGID_83_" gradientUnits="userSpaceOnUse" x1="227.0859" y1="325.7817" x2="234.2332" y2="272.0314">
					<stop  offset="0" style="stop-color:#000000;stop-opacity:0"/>
					<stop  offset="1" style="stop-color:#000000"/>
				</linearGradient>
				<path fill-rule="evenodd" clip-rule="evenodd" fill="url(#SVGID_83_)" d="M215.5,288.3c3-0.8,6.2-1.2,9.5-1.2
					c9.5,0,17.8,3.2,24.7,9.6c0.3,0.3,0.7,0.7,1.1,1c7.1,7.1,10.7,15.7,10.7,25.8c0,10.1-3.6,18.7-10.7,25.8
					c-5.3,5.3-11.4,8.6-18.3,9.9c-2.4,0.5-4.9,0.7-7.4,0.7c-2.2,0-4.1,0.1-5.9,0.4c-0.1-7.4-4-18.8-11.6-34.3c-3-3.9-3-8.4,0-13.5
					c-0.6,0.2-1.1,0-1.4-0.6c0.8,0,3.4-0.8,7.6-2.3l-4.6-16.9c-2.5-0.4-5.4,0.9-8.6,3.9c-1.5,1.3-3,3-4.6,5c0.4-0.9,1.5-2.3,3.3-4
					c0.4-0.4,0.7-0.7,1.1-1c3.9-3.7,8.3-6.3,13.1-7.9C214.1,288.7,214.8,288.5,215.5,288.3z"/>
			</g>
		</g>
	</g>
</g>
<g id="Layer_2">
	<g>
		<g>
			<g>
				<path fill-rule="evenodd" clip-rule="evenodd" fill="#FFFFFF" fill-opacity="0.3059" d="M174.4,412.3h-10.9
					c0.5-0.5,0.9-1,1.4-1.5c33.7-36.5,47.1-60.1,40-70.8c-0.6-0.9-0.9-1.9-0.7-3c0.2-1.1,0.7-2,1.6-2.6c0.9-0.7,1.9-0.9,2.9-0.8
					c1.1,0.2,2,0.7,2.7,1.6C221.6,348.2,209.2,373.8,174.4,412.3z"/>
				
					<radialGradient id="SVGID_84_" cx="197.1001" cy="422" r="84.325" gradientTransform="matrix(1 0 0 1.1694 0 -71.501)" gradientUnits="userSpaceOnUse">
					<stop  offset="0.6941" style="stop-color:#FFFFFF;stop-opacity:0.3059"/>
					<stop  offset="0.9451" style="stop-color:#000000"/>
				</radialGradient>
				<path fill-rule="evenodd" clip-rule="evenodd" fill="url(#SVGID_84_)" d="M174.4,412.3c-1.2,1.3-2.4,2.6-3.6,3.9
					c-16.8,18.1-24.6,33.5-23.5,46.1c1.5,12,11.7,21.6,30.5,28.7c16,6,28.9,6.1,38.7,0.1v9.3c-11,5-24.9,4.4-41.5-1.9
					c-22.5-8.5-34.3-20.3-35.6-35.4c-1.7-14.1,6.4-31.1,24.3-50.8H174.4z"/>
			</g>
		</g>
		<g>
			<g>
				
					<radialGradient id="SVGID_85_" cx="201.8501" cy="368.3496" r="15.72" gradientTransform="matrix(0.866 0.5 -0.9617 1.6657 381.2728 -346.1294)" gradientUnits="userSpaceOnUse">
					<stop  offset="0" style="stop-color:#FFFFFF"/>
					<stop  offset="1" style="stop-color:#FFFFFF;stop-opacity:0"/>
				</radialGradient>
				<path fill-rule="evenodd" clip-rule="evenodd" fill="url(#SVGID_85_)" d="M206.1,335.6c-0.1-0.1-0.1-0.2-0.1-0.4
					c0-0.2,0.1-0.3,0.2-0.3c0.1-0.1,0.2-0.1,0.4-0.1c0.1,0,0.2,0,0.3,0.1c9.9,11.4-3,36.4-38.7,74.8c-0.1,0.1-0.2,0.2-0.4,0.2
					s-0.3,0-0.4-0.2c-0.1-0.1-0.1-0.2-0.1-0.3c0-0.2,0-0.3,0.1-0.3C202.6,371.2,215.5,346.7,206.1,335.6z"/>
				<radialGradient id="SVGID_86_" cx="218.4502" cy="471.7998" r="36.3" gradientUnits="userSpaceOnUse">
					<stop  offset="0" style="stop-color:#FFFFFF"/>
					<stop  offset="1" style="stop-color:#FFFFFF;stop-opacity:0"/>
				</radialGradient>
				<path fill-rule="evenodd" clip-rule="evenodd" fill="url(#SVGID_86_)" d="M217.4,492.4c0.1,0,0.2,0.1,0.3,0.2
					c0.1,0.1,0.1,0.2,0.1,0.4c0,0.1-0.1,0.2-0.1,0.3c-6,4.7-13.2,7-21.6,7c-0.1,0-0.2,0-0.3-0.2c-0.1-0.1-0.2-0.2-0.2-0.3
					c0-0.1,0.1-0.2,0.2-0.3c0.1-0.1,0.2-0.2,0.3-0.2c8.1,0,15.1-2.2,21-6.8C217,492.4,217.2,492.4,217.4,492.4z"/>
				<radialGradient id="SVGID_87_" cx="143.1001" cy="441.8496" r="31.2625" gradientUnits="userSpaceOnUse">
					<stop  offset="0" style="stop-color:#FFFFFF"/>
					<stop  offset="1" style="stop-color:#FFFFFF;stop-opacity:0"/>
				</radialGradient>
				<path fill-rule="evenodd" clip-rule="evenodd" fill="url(#SVGID_87_)" d="M158.1,417.8c0.1-0.1,0.2-0.2,0.4-0.2
					c0.1,0,0.2,0,0.3,0.1c0.1,0.1,0.2,0.2,0.2,0.3c0,0.1,0,0.3-0.1,0.4c-17.6,23-22.2,42.8-13.6,59.5c0.1,0.1,0.1,0.3,0,0.4
					c-0.1,0.1-0.1,0.2-0.3,0.3s-0.2,0.1-0.4,0c-0.1-0.1-0.2-0.1-0.3-0.3C135.6,461.4,140.2,441.2,158.1,417.8z"/>
			</g>
		</g>
	</g>
</g>
</svg>
