<?xml version="1.0" encoding="UTF-8" standalone="no"?>
<!-- Generator: Adobe Illustrator 16.0.0, SVG Export Plug-In . SVG Version: 6.00 Build 0)  -->
<!DOCTYPE svg  PUBLIC '-//W3C//DTD SVG 1.1//EN'  'http://www.w3.org/Graphics/SVG/1.1/DTD/svg11.dtd'>
<svg xmlns="http://www.w3.org/2000/svg" xml:space="preserve" height="700px" width="700px" version="1.1" y="0px" x="0px" xmlns:xlink="http://www.w3.org/1999/xlink" viewBox="0 0 700 700" enable-background="new 0 0 700 700">
<g id="Layer_3">
		<linearGradient id="SVGID_1_" y2="369.37" gradientUnits="userSpaceOnUse" x2="211.48" y1="385.7" x1="142.76">
			<stop stop-color="#271B25" offset="0"/>
			<stop stop-color="#3A4045" offset=".4784"/>
			<stop offset="1"/>
		</linearGradient>
		<path fill="url(#SVGID_1_)" clip-rule="evenodd" d="m211.9 377l-0.2-0.5c-1.7-2.4-4-5.2-7.1-8.4-0.4-1.4-3.1-2.5-8.2-3.4-5.5-1-12.1-1.5-19.9-1.5s-14.4 0.5-20 1.5c-4.5 0.9-7.2 1.9-8 3v0.2s-0.1 0-0.1 0.1c-0.7 0.7-1.2 1.3-1.4 1.6-2.4 2.7-4.4 5.2-6 7.4l-0.1-0.1-0.4 0.8 0.3 7c0.2 2 3.6 3.6 10.3 4.8 4.6 0.8 9.8 1.3 15.6 1.6 2.9 0.1 6 0.2 9.1 0.2h0.5c9.9 0 18.3-0.6 25.3-1.8 6.6-1.1 10-2.6 10.4-4.3v-8l-0.1-0.2z" fill-rule="evenodd"/>
			<radialGradient id="SVGID_2_" gradientUnits="userSpaceOnUse" cy="383.4" cx="177.35" r="37.425">
				<stop stop-color="#fff" stop-opacity=".1333" offset="0"/>
				<stop stop-color="#FBFBFB" stop-opacity=".098039" offset=".4314"/>
				<stop stop-color="#F9F9F9" stop-opacity="0" offset="1"/>
			</radialGradient>
			<path fill="url(#SVGID_2_)" clip-rule="evenodd" d="m141.1 379.3c-0.2-0.6-0.2-0.9 0.1-1 0.1-0.1 0.3 0 0.7 0.2 0.1 0.1 0.3 0.1 0.4 0.3 0.2 0.1 0.4 0.3 0.6 0.5 0.3 0.2 0.4 0.3 0.3 0.3s-0.2 0.1-0.3 0.2h-0.1c-0.2 0.1-0.3 0.2-0.5 0.2-0.4 0-0.8-0.1-1.1-0.5 0 0 0-0.1-0.1-0.2zm11.9 2.2h1c0.2 0.2 0.3 0.5 0.3 0.7v0.1c0 0.2-0.1 0.4-0.3 0.5h-0.1c-0.5 0.4-1.1 0.4-1.6 0 0 0 0-0.1-0.1-0.2-0.1-0.3-0.1-0.5-0.1-0.6 0-0.2 0.1-0.4 0.3-0.6 0.1 0.2 0.3 0.1 0.6 0.1zm2.1 1.7c-0.1-0.3-0.2-0.5-0.1-0.7s0.2-0.3 0.4-0.3c0.5-0.1 1-0.1 1.6 0 0.7 0.1 0.9 0.2 0.7 0.2-0.3 0-0.5 0.1-0.5 0.3 0 0.3-0.1 0.5-0.3 0.5h-0.2c-0.5 0.4-1 0.4-1.6 0zm2.8-0.7c0-0.1 0.1-0.1 0.1-0.2 0.1-0.1 0.3-0.1 0.6-0.1 0.4 0 0.7 0 1 0.1 0.2 0.2 0.4 0.5 0.4 0.7s-0.1 0.4-0.3 0.6l-0.1 0.1c-0.5 0.4-1.1 0.4-1.6 0v-0.2c-0.2-0.5-0.3-0.8-0.1-1zm3.6 0.2c0.4 0 0.7 0.1 0.9 0.3 0.2 0.1 0.3 0.2 0.3 0.4s-0.1 0.4-0.3 0.6c0 0.1-0.1 0.1-0.1 0.1-0.6 0.4-1.1 0.4-1.6-0.1 0 0 0-0.1-0.1-0.2-0.2-0.4-0.3-0.7-0.1-0.8v-0.2c0.3-0.2 0.6-0.3 1-0.1zm-15.5-2.3c-0.1 0.1-0.2 0.2-0.4 0.3 0 0.1-0.1 0.1-0.1 0.1-0.5 0.4-1.1 0.3-1.6-0.1 0 0 0-0.1-0.1-0.2-0.1-0.3-0.2-0.6-0.1-0.8s0.1-0.3 0.3-0.3c0.1-0.1 0.5 0.1 1.1 0.5 0.4 0.4 0.8 0.5 0.9 0.5zm0.6 0.4c0-0.1 0.1-0.3 0.2-0.3 0.1-0.1 0.3 0 0.8 0.2s0.8 0.3 1.1 0.4c0.2 0.1 0.3 0.2 0.3 0.3-0.1 0.1-0.2 0.3-0.4 0.3h-0.1c-0.6 0.4-1.1 0.4-1.6 0 0 0 0-0.1-0.1-0.2-0.3-0.2-0.3-0.5-0.2-0.7zm4.9 1.2c0 0.2-0.1 0.3-0.3 0.5h-0.1c-0.6 0.4-1.1 0.4-1.6 0 0 0 0-0.1-0.1-0.2-0.1-0.3-0.2-0.5-0.1-0.7 0-0.2 0.1-0.3 0.3-0.4 0.1-0.1 0.3-0.1 0.5-0.1 0.4 0 0.8 0 1.1 0.1 0.2 0.2 0.3 0.4 0.3 0.6v0.2zm22.8 1.2c0.4 0 0.7 0 1 0.1 0.3 0.2 0.4 0.4 0.4 0.7 0 0.2-0.1 0.4-0.3 0.6l-0.1 0.1c-0.6 0.4-1.1 0.4-1.6 0 0 0 0-0.1-0.1-0.2-0.1-0.3-0.2-0.5-0.1-0.7 0-0.2 0.1-0.4 0.3-0.5 0.1-0.1 0.2-0.1 0.5-0.1zm5.7-0.2c0.3 0 0.5 0 0.6 0.2 0.1 0.1 0.2 0.3 0.2 0.5s0 0.4-0.1 0.6v0.2c-0.6 0.3-1.2 0.3-1.7 0-0.1 0-0.1 0-0.2-0.1-0.1-0.2-0.2-0.4-0.2-0.6 0-0.3 0.1-0.5 0.4-0.6 0.3-0.2 0.6-0.2 1-0.2zm-2.1 0.3c0.2 0.1 0.3 0.3 0.3 0.5s0 0.4-0.1 0.7v0.2c-0.6 0.4-1.1 0.4-1.8 0v-0.1c-0.1-0.2-0.2-0.4-0.2-0.6 0-0.3 0.1-0.5 0.3-0.7 0.3-0.1 0.7-0.1 1.1-0.1 0.1 0 0.3 0 0.4 0.1zm-14-0.6c0.4 0 0.7 0 1 0.1 0.2 0.2 0.4 0.5 0.4 0.7 0 0.3-0.1 0.5-0.3 0.6l-0.1 0.1c-0.5 0.4-1.1 0.4-1.6 0v-0.2c-0.1-0.3-0.2-0.5-0.2-0.7s0.1-0.4 0.3-0.5c0-0.1 0.2-0.1 0.5-0.1zm2.5 0.3c0.4 0 0.8 0 1 0.1s0.3 0.3 0.4 0.5v0.1c0 0.3-0.1 0.5-0.3 0.6l-0.1 0.1c-0.6 0.4-1.1 0.4-1.6 0v-0.2c-0.1-0.3-0.2-0.5-0.1-0.7 0-0.2 0.1-0.4 0.3-0.5h0.4zm2.7 0.2c0.4 0.1 0.6 0.1 0.9 0.1s0.5 0.1 0.5 0.4-0.1 0.5-0.3 0.6h-0.2c-0.5 0.4-1 0.4-1.6 0v-0.2c-0.1-0.3-0.1-0.5-0.1-0.6s0-0.2 0.1-0.3h0.7zm2 0c0.1-0.1 0.3-0.2 0.6-0.2 0.4 0 0.7 0 1 0.2 0.2 0.2 0.3 0.4 0.3 0.6s-0.1 0.4-0.3 0.6c0 0.1-0.1 0.1-0.1 0.1-0.5 0.3-1.1 0.3-1.6 0 0-0.1 0-0.1-0.1-0.2-0.1-0.3-0.1-0.5-0.1-0.7 0.2-0.2 0.2-0.3 0.3-0.4zm39.4-4.7c0.4-0.2 0.7-0.3 0.8-0.2 0.3 0.1 0.4 0.4 0.1 1v0.3c-0.6 0.5-1.1 0.5-1.7 0.3h-0.1c-0.2-0.1-0.3-0.2-0.3-0.2-0.1 0 0-0.2 0.3-0.3 0.2-0.5 0.5-0.7 0.9-0.9zm-6.5 3.3h-0.1c-0.2-0.1-0.3-0.2-0.4-0.3s0-0.2 0.3-0.3 0.6-0.3 1-0.4c0.4-0.2 0.7-0.3 0.8-0.2l0.3 0.3c0.1 0.2 0 0.5-0.1 0.8 0 0.1-0.1 0.1-0.1 0.2-0.6 0.3-1.2 0.3-1.7-0.1zm2.4-1.4c0.1 0 0.4-0.1 1.1-0.5 0.6-0.4 1-0.6 1-0.5l0.3 0.3c0 0.2-0.1 0.5-0.2 0.8v0.2c-0.6 0.4-1.1 0.5-1.8 0.1 0 0-0.1 0-0.1-0.1l-0.3-0.3zm-14.9 2.4s0.1 0.1 0.1 0.2c0.1 0.1 0 0.4-0.1 0.8-0.1 0.1-0.1 0.2-0.1 0.2-0.6 0.5-1.1 0.5-1.6 0.1 0 0-0.1 0-0.1-0.1-0.2-0.1-0.3-0.3-0.3-0.6s0.1-0.4 0.3-0.4c0.1-0.1 0.4-0.2 0.8-0.3 0.4-0.2 0.7-0.1 1 0.1zm-5.5 0.3c0.2 0.1 0.3 0.2 0.3 0.5 0 0.2 0 0.4-0.1 0.7-0.1 0.1-0.1 0.1-0.1 0.2-0.5 0.4-1.1 0.4-1.7 0 0 0-0.1 0-0.1-0.1-0.1-0.2-0.1-0.4-0.1-0.6v-0.1c0-0.2 0.1-0.4 0.3-0.5 0.3-0.1 0.7-0.1 1.1-0.1 0.1-0.1 0.3-0.1 0.4 0zm0.7 0.4c0-0.2 0.1-0.4 0.3-0.7 0.3-0.1 0.6-0.1 1-0.1 0.3 0 0.6 0 0.7 0.1s0.2 0.3 0.2 0.5 0 0.4-0.1 0.7v0.2c-0.6 0.4-1.1 0.4-1.7 0-0.1 0-0.1 0-0.1-0.1-0.2-0.2-0.3-0.4-0.3-0.6zm14.3-1c-0.1-0.1-0.2-0.3-0.2-0.5v-0.2c0-0.2 0.1-0.4 0.4-0.6 0.3-0.1 0.6-0.1 1-0.1 0.3 0 0.6 0 0.6 0.1 0.2 0.1 0.3 0.3 0.3 0.4 0 0.2 0 0.4-0.1 0.7v0.2c-0.6 0.4-1.2 0.4-1.7 0h-0.3zm-1.1 0.3v0.2c-0.6 0.4-1.2 0.4-1.7 0h-0.1c-0.1-0.2-0.2-0.4-0.2-0.5v-0.1c0-0.2 0.1-0.5 0.4-0.7h1 0.6c0.1 0.1 0.2 0.3 0.2 0.6-0.1 0-0.1 0.2-0.2 0.5zm-7.5-0.5c0.3-0.1 0.7-0.1 1.1-0.1 0.3 0 0.5 0 0.6 0.1 0.3 0.2 0.4 0.6 0.2 1.2-0.1 0.1-0.1 0.2-0.1 0.2-0.5 0.4-1.1 0.4-1.7 0 0 0-0.1 0-0.1-0.1-0.1-0.2-0.1-0.4-0.1-0.6s-0.1-0.5 0.1-0.7zm2.1 0.1h-0.2c0.1-0.1 0.4-0.1 0.8-0.2 0.7-0.1 1.3-0.2 1.7 0 0.2 0.1 0.4 0.2 0.5 0.3 0 0.2 0 0.4-0.2 0.7v0.1c-0.6 0.4-1.1 0.4-1.8 0h-0.1c-0.1-0.1-0.2-0.3-0.2-0.5 0-0.3-0.2-0.4-0.5-0.4zm-12.9 1.9h-0.1c-0.2-0.1-0.3-0.3-0.3-0.6 0-0.2 0.2-0.4 0.5-0.4 0.2 0 0.5-0.1 0.9-0.1h0.9c0.1 0.1 0.2 0.1 0.2 0.3 0 0.1-0.1 0.3-0.3 0.6 0 0.1-0.1 0.2-0.1 0.2-0.5 0.4-1.1 0.5-1.7 0z" fill-rule="evenodd"/>
			<path clip-rule="evenodd" d="m151 381.7c-1.2-0.2-2.4-0.5-3.4-0.7-3.5-0.9-5.8-1.9-6.9-3-0.1-0.1-0.2-0.3-0.3-0.3l0.4-0.9c1 1.2 3.3 2.3 7.1 3.3 1 0.2 2.1 0.4 3.3 0.7 4.5 0.8 9.7 1.4 15.5 1.7 2.4 0.1 4.8 0.2 7.3 0.3h0.1 1.8 0.4c9.8 0 18.1-0.6 25-1.9 1.3-0.3 2.5-0.5 3.5-0.8 4.3-1 6.6-2.2 6.8-3.6l0.4 0.7c0 0.4-0.1 0.7-0.4 1.1-0.9 1-3.1 2-6.5 2.8-1 0.2-2.2 0.5-3.5 0.7-7 1.3-15.4 1.9-25.3 1.9h-0.5-1.8c-2.5 0-5-0.1-7.4-0.3-5.8-0.3-11-0.9-15.6-1.7z" fill-rule="evenodd"/>
				<radialGradient id="SVGID_3_" gradientUnits="userSpaceOnUse" cy="362.23" cx="148.8" gradientTransform="matrix(.9982 .060416 .0039402 .13 9.5898 316.46)" r="9.5174">
				<stop stop-color="#FEFEFE" offset="0"/>
				<stop stop-color="#FEFEFE" offset=".2078"/>
				<stop stop-color="#fff" stop-opacity=".3137" offset=".4902"/>
				<stop stop-color="#fff" stop-opacity=".082353" offset=".6784"/>
				<stop stop-color="#FCFCFC" stop-opacity="0" offset=".8392"/>
				<stop stop-color="#FBFBFB" stop-opacity="0" offset="1"/>
			</radialGradient>
			<path fill="url(#SVGID_3_)" clip-rule="evenodd" d="m152.8 371.3c1.8-0.1 4.1-0.1 6.8 0 2.6 0.2 4.8 0.4 6.7 0.7 1.9 0.4 2.9 0.7 2.9 1.1 0 0.3-1 0.5-2.9 0.6-1.8 0.2-4.1 0.2-6.7 0-2.7-0.1-4.9-0.4-6.8-0.8-1.9-0.3-2.8-0.7-2.8-1 0-0.2 0.9-0.4 2.8-0.6z" fill-rule="evenodd"/>
				<radialGradient id="SVGID_4_" gradientUnits="userSpaceOnUse" cy="372.62" cx="154.62" gradientTransform="matrix(.9983 .058174 .0041553 .2254 5.3391 289.66)" r="12.032">
				<stop stop-color="#FEFEFE" offset="0"/>
				<stop stop-color="#FEFEFE" offset=".2078"/>
				<stop stop-color="#fff" stop-opacity=".3137" offset=".4902"/>
				<stop stop-color="#fff" stop-opacity=".082353" offset=".6784"/>
				<stop stop-color="#FCFCFC" stop-opacity="0" offset=".8392"/>
				<stop stop-color="#FBFBFB" stop-opacity="0" offset="1"/>
			</radialGradient>
			<path fill="url(#SVGID_4_)" clip-rule="evenodd" d="m152.6 380.2c2.3-0.4 5.2-0.5 8.6-0.3 3.3 0.2 6.1 0.6 8.4 1.3 2.4 0.7 3.6 1.4 3.6 2.1 0 0.8-1.2 1.3-3.5 1.7-2.3 0.5-5.1 0.6-8.5 0.4-3.3-0.2-6.2-0.7-8.5-1.4-2.4-0.7-3.6-1.4-3.6-2.2 0.1-0.6 1.3-1.2 3.5-1.6z" fill-rule="evenodd"/>
				<radialGradient id="SVGID_5_" gradientUnits="userSpaceOnUse" cy="370.85" cx="200.55" gradientTransform="matrix(.9662 -.258 .086665 .3246 -25.351 302.22)" r="7.0904">
				<stop stop-color="#FEFEFE" offset="0"/>
				<stop stop-color="#FEFEFE" offset=".2078"/>
				<stop stop-color="#fff" stop-opacity=".3137" offset=".4902"/>
				<stop stop-color="#fff" stop-opacity=".082353" offset=".6784"/>
				<stop stop-color="#FCFCFC" stop-opacity="0" offset=".8392"/>
				<stop stop-color="#FBFBFB" stop-opacity="0" offset="1"/>
			</radialGradient>
			<path fill="url(#SVGID_5_)" clip-rule="evenodd" d="m193.6 372.6c-0.1-0.6 0.4-1.3 1.6-2.1s2.8-1.4 4.7-1.9c1.9-0.5 3.6-0.7 5-0.6 1.5 0.1 2.3 0.5 2.5 1.1 0.2 0.7-0.4 1.4-1.6 2.2s-2.8 1.5-4.6 2c-1.9 0.5-3.6 0.6-5.1 0.5-1.4-0.1-2.2-0.5-2.5-1.2z" fill-rule="evenodd"/>
				<radialGradient id="SVGID_6_" gradientUnits="userSpaceOnUse" cy="-281.37" cx="316.59" gradientTransform="matrix(-.3609 .9326 -.3951 -.1197 158.89 48.125)" r="6.581">
				<stop stop-color="#FEFEFE" offset="0"/>
				<stop stop-color="#FEFEFE" offset=".2078"/>
				<stop stop-color="#fff" stop-opacity=".3137" offset=".4902"/>
				<stop stop-color="#fff" stop-opacity=".082353" offset=".6784"/>
				<stop stop-color="#FCFCFC" stop-opacity="0" offset=".8392"/>
				<stop stop-color="#FBFBFB" stop-opacity="0" offset="1"/>
			</radialGradient>
			<path fill="url(#SVGID_6_)" clip-rule="evenodd" d="m152.3 380.8c0-1.4 0.3-2.9 1-4.6s1.5-3.1 2.4-4.2c0.9-1 1.8-1.4 2.5-1.2 0.8 0.2 1.2 1 1.2 2.3s-0.3 2.9-1 4.6c-0.6 1.7-1.4 3-2.4 4.1s-1.8 1.5-2.6 1.3c-0.8-0.1-1.1-0.8-1.1-2.3z" fill-rule="evenodd"/>
	<g clip-rule="evenodd" fill-rule="evenodd">
		<linearGradient id="SVGID_7_" y2="333.18" gradientUnits="userSpaceOnUse" x2="207.15" y1="333.18" x1="144.2">
			<stop stop-color="#271B25" offset="0"/>
			<stop stop-color="#3A4045" offset=".4784"/>
			<stop offset="1"/>
		</linearGradient>
		<path fill="url(#SVGID_7_)" d="m207.1 353.3c0-4.6-0.6-8.7-1.9-12.1-0.2-0.5-0.5-1-0.7-1.5-0.1-0.1-0.2-0.2-0.3-0.2v-0.4l-0.1-4.5 0.1-0.7c-0.2-0.6-0.8-1.1-1.8-1.6l-4-22.4c0-0.7-0.8-1.3-2.3-1.8-0.2-0.1-0.3-0.1-0.5-0.2v-12.4c0-0.3-0.1-0.5-0.3-0.7l-0.1-0.1c-0.2-0.1-0.3-0.2-0.5-0.4-3.9-1.3-4.9-0.9-3 1.4-2.7-0.3-7.5-0.4-14.4-0.3-9.7 0.1-16.1 0.1-19.2 0.1 0.1-1.6-0.9-2-3-1.1l-0.1 0.1c-0.4 0.3-0.6 0.6-0.6 0.9v12.4c-1.5 0.5-2.3 1-2.5 1.5v0.3l-4.3 22.6c-0.9 0.4-1.4 0.9-1.6 1.3l-0.1 0.4v4.9 0.2-0.1l-0.5 1.6c-0.9 3.5-1.4 7.6-1.4 12.3 0 5.5 0.6 10.2 1.8 14.1l0.4 0.3h-0.3c0.1 0.4 0.2 0.6 0.4 0.8 0.8 1.2 3.5 2.3 8.1 3.1 3.6 0.6 7.9 1.1 12.8 1.3 2.4 0.1 4.9 0.2 7.5 0.2h0.4c8 0 14.7-0.5 20.2-1.4 0.6 0.3 1.2 0.4 1.8 0.4 1.4 0 2.7-0.6 3.9-1.8 1.3-0.4 2.2-0.9 2.7-1.4 2.4-5.1 3.4-10.2 3.4-15.1z"/>
		<linearGradient id="SVGID_8_" y2="196.92" gradientUnits="userSpaceOnUse" x2="196.53" y1="196.92" x1="153.19">
			<stop stop-color="#271B25" offset="0"/>
			<stop stop-color="#3A4045" offset=".4784"/>
			<stop offset="1"/>
		</linearGradient>
		<path fill="url(#SVGID_8_)" d="m155 202.2c0.1 0.7 1.9 1.4 5.5 2.1 0.1 0 0.3 0 0.4 0.1 3.9 0.7 8.5 1 13.9 1 5.5 0 10.1-0.4 14-1 0.2 0 1.2-0.2 3.1-0.6s3.3-1.7 4.2-4 0.5-4.9-1.3-7.8c-0.2-1-2.2-1.8-6-2.5s-8.5-1-14-1c-5.4 0-10 0.3-13.8 1-3.8 0.6-5.8 1.2-5.9 1.8-1.4 2.6-2 4.7-1.9 6.4 0.1 1.6 0.7 3.1 1.8 4.5z"/>
	</g>
</g>
<g id="Layer_2">
	<path d="m150.8 228.5v4.3 0.2c0 0.4 0.3 0.9 1 1.3s1.9 0.8 3.5 1.2c0.5 0.1 1.1 0.3 1.8 0.4 0.3 0.1 0.6 0.1 0.9 0.1 4.8 0.9 10.5 1.3 17.2 1.3s12.5-0.4 17.2-1.3c1-0.2 1.9-0.3 2.7-0.5 3-0.7 4.6-1.6 4.6-2.5 0-0.1 0-0.3-0.1-0.4v-4.1c0.1-0.1 0.1-0.2 0.1-0.4 0-0.5-0.3-0.9-1-1.3-0.5-0.4-1-0.6-1.4-0.8l-8.1-3.4c0.1 0.1 0.1 0.1 0.1 0.3v0.3s0 0.1-0.1 0.1c-0.2 0.4-0.8 0.7-1.9 1.1h-0.3c-0.6 0.1-1.3 0.3-2.1 0.5-0.2 0-0.4 0.1-0.7 0.1-2.7 0.4-5.8 0.6-9.5 0.6h-3.4c-2.5-0.1-4.8-0.4-6.8-0.6-0.8-0.2-1.4-0.3-2-0.5h-0.1c-1.1-0.4-1.8-0.8-2-1.1 0-0.1-0.1-0.2-0.1-0.3s0-0.2 0.1-0.3l-7.4 3.5c-0.4 0.2-0.8 0.4-1.1 0.5-0.7 0.4-1.1 0.9-1.1 1.4v0.1" fill="#646D86"/>
</g>
<g id="Layer_1">
			<g clip-rule="evenodd" fill-rule="evenodd">
				<linearGradient id="SVGID_9_" y2="348.84" gradientUnits="userSpaceOnUse" x2="235.36" y1="331.17" x1="80.868">
					<stop stop-color="#4E514F" offset="0"/>
					<stop stop-color="#797D79" offset=".2824"/>
					<stop stop-color="#1A1B1B" offset=".502"/>
					<stop stop-color="#434544" offset=".7686"/>
					<stop stop-color="#0B0B0B" offset="1"/>
				</linearGradient>
				<path fill="url(#SVGID_9_)" d="m160.7 340.4h-42.1v-4.9h42.6v3.2 0.1l-0.5 1.6z"/>
				<path fill="#101010" d="m118.6 340.4h42.1c-0.9 3.5-1.4 7.6-1.4 12.3 0 5.5 0.6 10.2 1.8 14.1l0.4 0.3h-42.8v-26.7z"/>
			</g>
			<g clip-rule="evenodd" fill-rule="evenodd">
				<polygon points="143.5 340.8 142.9 340.8 142.7 334.9 143.3 334.9" fill="#C6C6C6"/>
				<path fill="#373737" d="m143.5 367.7h-0.6c-0.1-0.2-0.3-0.4-0.4-0.6h0.4v-26.3h0.6v26.9z"/>
				<linearGradient id="SVGID_10_" y2="350.27" gradientUnits="userSpaceOnUse" x2="259.72" y1="332.6" x1="105.22">
					<stop stop-color="#4E514F" offset="0"/>
					<stop stop-color="#797D79" offset=".2824"/>
					<stop stop-color="#1A1B1B" offset=".502"/>
					<stop stop-color="#434544" offset=".7686"/>
					<stop stop-color="#0B0B0B" offset="1"/>
				</linearGradient>
				<path fill="url(#SVGID_10_)" d="m143.3 334.9h14.6c0.7 2.3 0.5 4.3-0.5 5.9h-13.9l-0.2-5.9zm15.5 6.6l0.1 0.1h-0.1v-0.1z"/>
				<path fill="#101010" d="m158.8 341.6c2.3 0.9 5.4 1.7 9.4 2.4l-4.6 25.5c-2.2-0.3-4.4-1-6.6-1.9h-13.4v-26.9h13.9c0.4 0.3 0.8 0.5 1.4 0.8v0.1z"/>
			</g>
				<radialGradient id="SVGID_11_" gradientUnits="userSpaceOnUse" cy="340.5" cx="137" gradientTransform="matrix(1 0 0 .063783 0 318.78)" r="17.05">
				<stop stop-color="#FEFEFE" offset="0"/>
				<stop stop-color="#FEFEFE" offset=".2078"/>
				<stop stop-color="#fff" stop-opacity=".3137" offset=".4902"/>
				<stop stop-color="#fff" stop-opacity=".082353" offset=".6784"/>
				<stop stop-color="#FCFCFC" stop-opacity="0" offset=".8392"/>
				<stop stop-color="#FBFBFB" stop-opacity="0" offset="1"/>
			</radialGradient>
			<path fill="url(#SVGID_11_)" clip-rule="evenodd" d="m154.1 340.5c0 0.3-1.7 0.5-5.1 0.8-3.3 0.2-7.3 0.3-12 0.3s-8.8-0.1-12.1-0.3c-3.3-0.3-5-0.5-5-0.8s1.7-0.6 5-0.8 7.4-0.3 12.1-0.3 8.7 0.1 12 0.3c3.4 0.2 5.1 0.5 5.1 0.8z" fill-rule="evenodd"/>
				<radialGradient id="SVGID_12_" gradientUnits="userSpaceOnUse" cy="340.6" cx="145.5" gradientTransform="matrix(1 0 0 .1602 0 286.03)" r="6.7875">
				<stop stop-color="#FEFEFE" offset="0"/>
				<stop stop-color="#FEFEFE" offset=".2078"/>
				<stop stop-color="#fff" stop-opacity=".3137" offset=".4902"/>
				<stop stop-color="#fff" stop-opacity=".082353" offset=".6784"/>
				<stop stop-color="#FCFCFC" stop-opacity="0" offset=".8392"/>
				<stop stop-color="#FBFBFB" stop-opacity="0" offset="1"/>
			</radialGradient>
			<path fill="url(#SVGID_12_)" clip-rule="evenodd" d="m150.3 339.8c1.4 0.2 2.1 0.5 2.1 0.8s-0.7 0.6-2.1 0.8c-1.3 0.2-2.9 0.3-4.8 0.3s-3.5-0.1-4.9-0.3c-1.3-0.2-1.9-0.5-1.9-0.8s0.6-0.6 1.9-0.8c1.4-0.2 3-0.3 4.9-0.3s3.5 0.1 4.8 0.3z" fill-rule="evenodd"/>
				<radialGradient id="SVGID_13_" gradientUnits="userSpaceOnUse" cy="340.35" cx="126.95" gradientTransform="matrix(1 0 0 .2613 0 251.43)" r="4.1625">
				<stop stop-color="#FEFEFE" offset="0"/>
				<stop stop-color="#FEFEFE" offset=".2078"/>
				<stop stop-color="#fff" stop-opacity=".3137" offset=".4902"/>
				<stop stop-color="#fff" stop-opacity=".082353" offset=".6784"/>
				<stop stop-color="#FCFCFC" stop-opacity="0" offset=".8392"/>
				<stop stop-color="#FBFBFB" stop-opacity="0" offset="1"/>
			</radialGradient>
			<path fill="url(#SVGID_13_)" clip-rule="evenodd" d="m129.9 339.6c0.8 0.2 1.2 0.4 1.2 0.8 0 0.3-0.4 0.6-1.2 0.8s-1.8 0.3-2.9 0.3-2.1-0.1-3-0.3c-0.8-0.2-1.3-0.5-1.3-0.8s0.4-0.6 1.3-0.8c0.8-0.2 1.8-0.4 3-0.4s2.1 0.2 2.9 0.4z" fill-rule="evenodd"/>
			<g clip-rule="evenodd" fill-rule="evenodd">
				<linearGradient id="SVGID_14_" y2="368.35" gradientUnits="userSpaceOnUse" x2="208.44" y1="368.35" x1="143.96">
					<stop stop-color="#111" offset=".066667"/>
					<stop stop-color="#646464" offset=".7765"/>
					<stop stop-color="#393939" offset="1"/>
				</linearGradient>
				<path fill="url(#SVGID_14_)" d="m148.5 367.7c0.8-1.1 3.5-2.1 8-3 5.5-1 12.2-1.5 20-1.5s14.4 0.5 19.9 1.5c5.1 0.9 7.8 2.1 8.2 3.4 0.1 0.1 0.1 0.2 0.1 0.3v0.3c-0.4 1.3-3.2 2.4-8.3 3.3-1.8 0.3-3.8 0.6-5.9 0.9-4.3 0.4-9.1 0.5-14.3 0.5h-2.2c-2.2 0-4.4-0.1-6.5-0.2h-1.7l-1.6-0.1c-2.8-0.3-5.3-0.6-7.6-1.1-5.5-1-8.2-2.3-8.2-3.6 0-0.2 0-0.3 0.1-0.5 0 0 0-0.1 0.1-0.1 0-0.1 0.1-0.2 0.2-0.3-0.2 0.1-0.2 0.1-0.3 0.2z"/>
				<linearGradient id="SVGID_15_" y2="377.66" gradientUnits="userSpaceOnUse" x2="171.42" y1="373.24" x1="143.79">
					<stop stop-color="#271B25" offset="0"/>
					<stop stop-color="#8B6B78" offset=".2431"/>
					<stop stop-color="#7C8591" offset=".4784"/>
					<stop stop-color="#3C3F4D" offset="1"/>
				</linearGradient>
				<path fill="url(#SVGID_15_)" d="m148.5 367.7c0.1 0 0.1-0.1 0.1-0.1-0.1 0.1-0.2 0.2-0.2 0.3 0.1-0.1 0.1-0.2 0.1-0.2zm-7.5 9.3c1.5-2.2 3.5-4.7 6-7.4 0.2-0.4 0.7-1 1.4-1.6-0.1 0.2-0.1 0.3-0.1 0.5 0 1.4 2.7 2.6 8.2 3.6 2.3 0.5 4.9 0.8 7.6 1.1l1.6 0.1h1.7c2.1 0.1 4.3 0.2 6.5 0.2v9.3c-2.5 0-4.9-0.1-7.3-0.3-5.8-0.3-10.9-0.8-15.5-1.7-1.2-0.3-2.3-0.5-3.3-0.7-3.5-0.9-5.8-1.9-6.8-3.1z"/>
				<path d="m141 377c1 1.2 3.3 2.3 7 3.2 1 0.2 2.1 0.4 3.3 0.7 4.5 0.8 9.7 1.4 15.5 1.7 2.4 0.1 4.8 0.2 7.3 0.3h0.1 1.8 0.4c9.8 0 18.1-0.6 25-1.9 1.3-0.3 2.5-0.5 3.5-0.8 4.3-1 6.6-2.2 6.8-3.6l0.3 0.5v0.2 0.2c0 0.2-0.2 0.5-0.4 0.9-0.9 1-3.1 2-6.5 2.8-1 0.2-2.2 0.5-3.5 0.7-7 1.3-15.4 1.9-25.3 1.9h-0.5-1.8c-2.5 0-5-0.1-7.4-0.3-5.8-0.3-11-0.8-15.6-1.6-1.2-0.2-2.4-0.5-3.4-0.7-3.5-0.9-5.8-1.9-6.9-3-0.1-0.1-0.2-0.3-0.3-0.3l0.4-0.8c0.2-0.2 0.2-0.2 0.2-0.1z"/>
				<linearGradient id="SVGID_16_" y2="383.88" gradientUnits="userSpaceOnUse" x2="211.9" y1="383.88" x1="140.5">
					<stop stop-color="#271B25" offset="0"/>
					<stop stop-color="#3A4045" offset=".4784"/>
					<stop offset="1"/>
				</linearGradient>
				<path fill="url(#SVGID_16_)" d="m211.9 377.3v7.8c-0.4 1.7-3.8 3.2-10.4 4.3-7 1.2-15.4 1.8-25.3 1.8h-0.5c-3.2 0-6.2-0.1-9.1-0.2-5.8-0.3-11-0.8-15.6-1.6-6.7-1.2-10.1-2.8-10.3-4.8l-0.3-7c0.1 0.1 0.1 0.2 0.3 0.3 1.1 1.1 3.4 2.1 6.9 3 1 0.2 2.2 0.4 3.4 0.7 4.6 0.8 9.8 1.4 15.6 1.6 2.4 0.1 4.8 0.2 7.4 0.3h1.8 0.5c9.9 0 18.3-0.6 25.3-1.9 1.3-0.2 2.5-0.5 3.5-0.7 3.4-0.8 5.5-1.7 6.5-2.8 0.1-0.2 0.3-0.5 0.3-0.8zm-0.3-0.8l0.2 0.5-0.3-0.5h0.1z"/>
				<linearGradient id="SVGID_17_" y2="371.6" gradientUnits="userSpaceOnUse" x2="211.26" y1="380.36" x1="174.39">
					<stop stop-color="#3C3F4D" offset="0"/>
					<stop stop-color="#252930" offset=".3529"/>
					<stop stop-color="#353A41" offset=".5725"/>
					<stop stop-color="#4E555C" offset=".6941"/>
					<stop stop-color="#343840" offset=".851"/>
					<stop stop-color="#282B33" offset="1"/>
				</linearGradient>
				<path fill="url(#SVGID_17_)" d="m204.5 368.1c3.1 3.1 5.4 5.9 7.1 8.4h-0.1c-0.2 1.4-2.5 2.6-6.8 3.6-1 0.2-2.2 0.5-3.5 0.8-6.9 1.3-15.2 1.9-25 1.9h-0.4-1.8v-9.3h2.2c5.2 0 10-0.2 14.3-0.5 2.1-0.3 4-0.6 5.9-0.9 5.1-0.9 7.9-2 8.3-3.3v-0.3c-0.1-0.2-0.1-0.3-0.2-0.4z"/>
			</g>
			<g fill="none" clip-rule="evenodd" fill-rule="evenodd">
				<path d="m151.6 381.4v7.9m2.9-7.5v8m-5.6-8.9v7.9m-2.9-8.6v7.9m14-5.6v8m-2.7-8.2v8m-14.2-11.3v7.9m19.7-4.1v7.9m2.4-7.8v7.9m12.9-7.6v8m-10.3-8.1v7.9m2.7-7.8v7.9m2.5-7.9v8m7.9-8v7.9m2.7-7.9v7.9m16.6-9.6v7.9m-2.9-7.4v7.9m-2.8-7.6v8m-2.8-7.6v7.9m-5.5-7.6v7.9m2.7-7.9v7.9m20-11.4v7.9m-2.9-7v7.9m-2.9-7.2v7.9"/>
				<line y2="391.2" x2="175.6" y1="383.2" x1="175.6"/>
			</g>
			<path fill="none" clip-rule="evenodd" d="m160.3 382.5v7.9m-2.8-8.2v7.9m-8.3-9.3v7.9m-2.8-8.7v8m8.4-6.2v7.9m-2.8-8.4v7.9m-8.6-10.2v7.9m19.6-4.2v7.9m5.1-7.6v7.9m-2.6-8.1v7.9m13-7.5v7.9m-2.6-7.9v7.9m-2.6-7.9v7.9m-2.5-8v7.9m10.3-7.9v7.9m19.4-9.6v7.9m-3-7.5v7.9m-2.7-7.5v7.9m-5.6-7.4v7.9m2.8-8.1v7.9m-5.5-7.6v8m-2.6-7.8v7.9m25.2-11.7v7.9m-2.8-6.9v8m-2.9-7.4v7.9" fill-rule="evenodd"/>
			<path fill="url(#SVGID_2_)" clip-rule="evenodd" d="m141.1 379.3c-0.2-0.6-0.2-0.9 0.1-1 0.1-0.1 0.3 0 0.7 0.2 0.1 0.1 0.3 0.1 0.4 0.3 0.2 0.1 0.4 0.3 0.6 0.5 0.3 0.2 0.4 0.3 0.3 0.3s-0.2 0.1-0.3 0.2h-0.1c-0.2 0.1-0.3 0.2-0.5 0.2-0.4 0-0.8-0.1-1.1-0.5 0 0 0-0.1-0.1-0.2zm11.9 2.2h1c0.2 0.2 0.3 0.5 0.3 0.7v0.1c0 0.2-0.1 0.4-0.3 0.5h-0.1c-0.5 0.4-1.1 0.4-1.6 0 0 0 0-0.1-0.1-0.2-0.1-0.3-0.1-0.5-0.1-0.6 0-0.2 0.1-0.4 0.3-0.6 0.1 0.2 0.3 0.1 0.6 0.1zm2.1 1.7c-0.1-0.3-0.2-0.5-0.1-0.7s0.2-0.3 0.4-0.3c0.5-0.1 1-0.1 1.6 0 0.7 0.1 0.9 0.2 0.7 0.2-0.3 0-0.5 0.1-0.5 0.3 0 0.3-0.1 0.5-0.3 0.5h-0.2c-0.5 0.4-1 0.4-1.6 0zm2.8-0.7c0-0.1 0.1-0.1 0.1-0.2 0.1-0.1 0.3-0.1 0.6-0.1 0.4 0 0.7 0 1 0.1 0.2 0.2 0.4 0.5 0.4 0.7s-0.1 0.4-0.3 0.6l-0.1 0.1c-0.5 0.4-1.1 0.4-1.6 0v-0.2c-0.2-0.5-0.3-0.8-0.1-1zm3.6 0.2c0.4 0 0.7 0.1 0.9 0.3 0.2 0.1 0.3 0.2 0.3 0.4s-0.1 0.4-0.3 0.6c0 0.1-0.1 0.1-0.1 0.1-0.6 0.4-1.1 0.4-1.6-0.1 0 0 0-0.1-0.1-0.2-0.2-0.4-0.3-0.7-0.1-0.8v-0.2c0.3-0.2 0.6-0.3 1-0.1zm-15.5-2.3c-0.1 0.1-0.2 0.2-0.4 0.3 0 0.1-0.1 0.1-0.1 0.1-0.5 0.4-1.1 0.3-1.6-0.1 0 0 0-0.1-0.1-0.2-0.1-0.3-0.2-0.6-0.1-0.8s0.1-0.3 0.3-0.3c0.1-0.1 0.5 0.1 1.1 0.5 0.4 0.4 0.8 0.5 0.9 0.5zm0.6 0.4c0-0.1 0.1-0.3 0.2-0.3 0.1-0.1 0.3 0 0.8 0.2s0.8 0.3 1.1 0.4c0.2 0.1 0.3 0.2 0.3 0.3-0.1 0.1-0.2 0.3-0.4 0.3h-0.1c-0.6 0.4-1.1 0.4-1.6 0 0 0 0-0.1-0.1-0.2-0.3-0.2-0.3-0.5-0.2-0.7zm4.9 1.2c0 0.2-0.1 0.3-0.3 0.5h-0.1c-0.6 0.4-1.1 0.4-1.6 0 0 0 0-0.1-0.1-0.2-0.1-0.3-0.2-0.5-0.1-0.7 0-0.2 0.1-0.3 0.3-0.4 0.1-0.1 0.3-0.1 0.5-0.1 0.4 0 0.8 0 1.1 0.1 0.2 0.2 0.3 0.4 0.3 0.6v0.2zm22.8 1.2c0.4 0 0.7 0 1 0.1 0.3 0.2 0.4 0.4 0.4 0.7 0 0.2-0.1 0.4-0.3 0.6l-0.1 0.1c-0.6 0.4-1.1 0.4-1.6 0 0 0 0-0.1-0.1-0.2-0.1-0.3-0.2-0.5-0.1-0.7 0-0.2 0.1-0.4 0.3-0.5 0.1-0.1 0.2-0.1 0.5-0.1zm5.7-0.2c0.3 0 0.5 0 0.6 0.2 0.1 0.1 0.2 0.3 0.2 0.5s0 0.4-0.1 0.6v0.2c-0.6 0.3-1.2 0.3-1.7 0-0.1 0-0.1 0-0.2-0.1-0.1-0.2-0.2-0.4-0.2-0.6 0-0.3 0.1-0.5 0.4-0.6 0.3-0.2 0.6-0.2 1-0.2zm-2.1 0.3c0.2 0.1 0.3 0.3 0.3 0.5s0 0.4-0.1 0.7v0.2c-0.6 0.4-1.1 0.4-1.8 0v-0.1c-0.1-0.2-0.2-0.4-0.2-0.6 0-0.3 0.1-0.5 0.3-0.7 0.3-0.1 0.7-0.1 1.1-0.1 0.1 0 0.3 0 0.4 0.1zm-14-0.6c0.4 0 0.7 0 1 0.1 0.2 0.2 0.4 0.5 0.4 0.7 0 0.3-0.1 0.5-0.3 0.6l-0.1 0.1c-0.5 0.4-1.1 0.4-1.6 0v-0.2c-0.1-0.3-0.2-0.5-0.2-0.7s0.1-0.4 0.3-0.5c0-0.1 0.2-0.1 0.5-0.1zm2.5 0.3c0.4 0 0.8 0 1 0.1s0.3 0.3 0.4 0.5v0.1c0 0.3-0.1 0.5-0.3 0.6l-0.1 0.1c-0.6 0.4-1.1 0.4-1.6 0v-0.2c-0.1-0.3-0.2-0.5-0.1-0.7 0-0.2 0.1-0.4 0.3-0.5h0.4zm2.7 0.2c0.4 0.1 0.6 0.1 0.9 0.1s0.5 0.1 0.5 0.4-0.1 0.5-0.3 0.6h-0.2c-0.5 0.4-1 0.4-1.6 0v-0.2c-0.1-0.3-0.1-0.5-0.1-0.6s0-0.2 0.1-0.3h0.7zm2 0c0.1-0.1 0.3-0.2 0.6-0.2 0.4 0 0.7 0 1 0.2 0.2 0.2 0.3 0.4 0.3 0.6s-0.1 0.4-0.3 0.6c0 0.1-0.1 0.1-0.1 0.1-0.5 0.3-1.1 0.3-1.6 0 0-0.1 0-0.1-0.1-0.2-0.1-0.3-0.1-0.5-0.1-0.7 0.2-0.2 0.2-0.3 0.3-0.4zm39.4-4.7c0.4-0.2 0.7-0.3 0.8-0.2 0.3 0.1 0.4 0.4 0.1 1v0.3c-0.6 0.5-1.1 0.5-1.7 0.3h-0.1c-0.2-0.1-0.3-0.2-0.3-0.2-0.1 0 0-0.2 0.3-0.3 0.2-0.5 0.5-0.7 0.9-0.9zm-6.5 3.3h-0.1c-0.2-0.1-0.3-0.2-0.4-0.3s0-0.2 0.3-0.3 0.6-0.3 1-0.4c0.4-0.2 0.7-0.3 0.8-0.2l0.3 0.3c0.1 0.2 0 0.5-0.1 0.8 0 0.1-0.1 0.1-0.1 0.2-0.6 0.3-1.2 0.3-1.7-0.1zm2.4-1.4c0.1 0 0.4-0.1 1.1-0.5 0.6-0.4 1-0.6 1-0.5l0.3 0.3c0 0.2-0.1 0.5-0.2 0.8v0.2c-0.6 0.4-1.1 0.5-1.8 0.1 0 0-0.1 0-0.1-0.1l-0.3-0.3zm-14.9 2.4s0.1 0.1 0.1 0.2c0.1 0.1 0 0.4-0.1 0.8-0.1 0.1-0.1 0.2-0.1 0.2-0.6 0.5-1.1 0.5-1.6 0.1 0 0-0.1 0-0.1-0.1-0.2-0.1-0.3-0.3-0.3-0.6s0.1-0.4 0.3-0.4c0.1-0.1 0.4-0.2 0.8-0.3 0.4-0.2 0.7-0.1 1 0.1zm-5.5 0.3c0.2 0.1 0.3 0.2 0.3 0.5 0 0.2 0 0.4-0.1 0.7-0.1 0.1-0.1 0.1-0.1 0.2-0.5 0.4-1.1 0.4-1.7 0 0 0-0.1 0-0.1-0.1-0.1-0.2-0.1-0.4-0.1-0.6v-0.1c0-0.2 0.1-0.4 0.3-0.5 0.3-0.1 0.7-0.1 1.1-0.1 0.1-0.1 0.3-0.1 0.4 0zm0.7 0.4c0-0.2 0.1-0.4 0.3-0.7 0.3-0.1 0.6-0.1 1-0.1 0.3 0 0.6 0 0.7 0.1s0.2 0.3 0.2 0.5 0 0.4-0.1 0.7v0.2c-0.6 0.4-1.1 0.4-1.7 0-0.1 0-0.1 0-0.1-0.1-0.2-0.2-0.3-0.4-0.3-0.6zm14.3-1c-0.1-0.1-0.2-0.3-0.2-0.5v-0.2c0-0.2 0.1-0.4 0.4-0.6 0.3-0.1 0.6-0.1 1-0.1 0.3 0 0.6 0 0.6 0.1 0.2 0.1 0.3 0.3 0.3 0.4 0 0.2 0 0.4-0.1 0.7v0.2c-0.6 0.4-1.2 0.4-1.7 0h-0.3zm-1.1 0.3v0.2c-0.6 0.4-1.2 0.4-1.7 0h-0.1c-0.1-0.2-0.2-0.4-0.2-0.5v-0.1c0-0.2 0.1-0.5 0.4-0.7h1 0.6c0.1 0.1 0.2 0.3 0.2 0.6-0.1 0-0.1 0.2-0.2 0.5zm-7.5-0.5c0.3-0.1 0.7-0.1 1.1-0.1 0.3 0 0.5 0 0.6 0.1 0.3 0.2 0.4 0.6 0.2 1.2-0.1 0.1-0.1 0.2-0.1 0.2-0.5 0.4-1.1 0.4-1.7 0 0 0-0.1 0-0.1-0.1-0.1-0.2-0.1-0.4-0.1-0.6s-0.1-0.5 0.1-0.7zm2.1 0.1h-0.2c0.1-0.1 0.4-0.1 0.8-0.2 0.7-0.1 1.3-0.2 1.7 0 0.2 0.1 0.4 0.2 0.5 0.3 0 0.2 0 0.4-0.2 0.7v0.1c-0.6 0.4-1.1 0.4-1.8 0h-0.1c-0.1-0.1-0.2-0.3-0.2-0.5 0-0.3-0.2-0.4-0.5-0.4zm-12.9 1.9h-0.1c-0.2-0.1-0.3-0.3-0.3-0.6 0-0.2 0.2-0.4 0.5-0.4 0.2 0 0.5-0.1 0.9-0.1h0.9c0.1 0.1 0.2 0.1 0.2 0.3 0 0.1-0.1 0.3-0.3 0.6 0 0.1-0.1 0.2-0.1 0.2-0.5 0.4-1.1 0.5-1.7 0z" fill-rule="evenodd"/>
			<path clip-rule="evenodd" d="m151 381.7c-1.2-0.2-2.4-0.5-3.4-0.7-3.5-0.9-5.8-1.9-6.9-3-0.1-0.1-0.2-0.3-0.3-0.3l0.4-0.9c1 1.2 3.3 2.3 7.1 3.3 1 0.2 2.1 0.4 3.3 0.7 4.5 0.8 9.7 1.4 15.5 1.7 2.4 0.1 4.8 0.2 7.3 0.3h0.1 1.8 0.4c9.8 0 18.1-0.6 25-1.9 1.3-0.3 2.5-0.5 3.5-0.8 4.3-1 6.6-2.2 6.8-3.6l0.4 0.7c0 0.4-0.1 0.7-0.4 1.1-0.9 1-3.1 2-6.5 2.8-1 0.2-2.2 0.5-3.5 0.7-7 1.3-15.4 1.9-25.3 1.9h-0.5-1.8c-2.5 0-5-0.1-7.4-0.3-5.8-0.3-11-0.9-15.6-1.7z" fill-rule="evenodd"/>
			<path fill="url(#SVGID_3_)" clip-rule="evenodd" d="m152.8 371.3c1.8-0.1 4.1-0.1 6.8 0 2.6 0.2 4.8 0.4 6.7 0.7 1.9 0.4 2.9 0.7 2.9 1.1 0 0.3-1 0.5-2.9 0.6-1.8 0.2-4.1 0.2-6.7 0-2.7-0.1-4.9-0.4-6.8-0.8-1.9-0.3-2.8-0.7-2.8-1 0-0.2 0.9-0.4 2.8-0.6z" fill-rule="evenodd"/>
			<path fill="url(#SVGID_4_)" clip-rule="evenodd" d="m152.6 380.2c2.3-0.4 5.2-0.5 8.6-0.3 3.3 0.2 6.1 0.6 8.4 1.3 2.4 0.7 3.6 1.4 3.6 2.1 0 0.8-1.2 1.3-3.5 1.7-2.3 0.5-5.1 0.6-8.5 0.4-3.3-0.2-6.2-0.7-8.5-1.4-2.4-0.7-3.6-1.4-3.6-2.2 0.1-0.6 1.3-1.2 3.5-1.6z" fill-rule="evenodd"/>
			<path fill="url(#SVGID_5_)" clip-rule="evenodd" d="m193.6 372.6c-0.1-0.6 0.4-1.3 1.6-2.1s2.8-1.4 4.7-1.9c1.9-0.5 3.6-0.7 5-0.6 1.5 0.1 2.3 0.5 2.5 1.1 0.2 0.7-0.4 1.4-1.6 2.2s-2.8 1.5-4.6 2c-1.9 0.5-3.6 0.6-5.1 0.5-1.4-0.1-2.2-0.5-2.5-1.2z" fill-rule="evenodd"/>
			<path fill="url(#SVGID_6_)" clip-rule="evenodd" d="m152.3 380.8c0-1.4 0.3-2.9 1-4.6s1.5-3.1 2.4-4.2c0.9-1 1.8-1.4 2.5-1.2 0.8 0.2 1.2 1 1.2 2.3s-0.3 2.9-1 4.6c-0.6 1.7-1.4 3-2.4 4.1s-1.8 1.5-2.6 1.3c-0.8-0.1-1.1-0.8-1.1-2.3z" fill-rule="evenodd"/>
		<g clip-rule="evenodd" fill-rule="evenodd">
			<linearGradient id="SVGID_23_" y2="235.7" gradientUnits="userSpaceOnUse" x2="195.11" y1="235.7" x1="155.29">
				<stop stop-color="#484950" offset="0"/>
				<stop stop-color="#4F5056" offset=".047059"/>
				<stop stop-color="#5C5E61" offset=".1412"/>
				<stop stop-color="#A3A299" offset=".2588"/>
				<stop stop-color="#1E1C18" offset=".3647"/>
				<stop stop-color="#AF937C" offset=".5176"/>
				<stop stop-color="#A1949B" offset=".6471"/>
				<stop stop-color="#EBE9EB" offset=".7451"/>
				<stop stop-color="#CBCBC9" offset=".851"/>
				<stop stop-color="#757574" offset=".9255"/>
				<stop stop-color="#fff" offset=".9608"/>
				<stop offset="1"/>
			</linearGradient>
			<path fill="url(#SVGID_23_)" d="m155.4 235.5c0.5 0.1 1.1 0.3 1.8 0.4h-1.8v-0.4z"/>
				<radialGradient id="SVGID_24_" gradientUnits="userSpaceOnUse" cy="339.15" cx="165.7" gradientTransform="matrix(1 0 0 .3821 0 209.56)" r="86.2">
				<stop stop-color="#4B4D54" offset="0"/>
				<stop stop-color="#070707" offset=".3765"/>
				<stop stop-color="#090909" offset="1"/>
			</radialGradient>
			<path fill="url(#SVGID_24_)" d="m204.4 339.4v-0.4c0.1 0.2 0.1 0.4 0.3 0.6-0.2-0.1-0.3-0.2-0.3-0.2z"/>
		</g>
			<linearGradient id="SVGID_25_" y2="214.3" gradientUnits="userSpaceOnUse" x2="189.15" y1="214.3" x1="160.45">
				<stop stop-color="#202124" offset="0"/>
				<stop stop-color="#4F5056" offset=".070588"/>
				<stop stop-color="#5C5E61" offset=".1176"/>
				<stop stop-color="#A3A299" offset=".2353"/>
				<stop stop-color="#1E1C18" offset=".3647"/>
				<stop stop-color="#AF937C" offset=".5176"/>
				<stop stop-color="#A1949B" offset=".6471"/>
				<stop stop-color="#EBE9EB" offset=".7451"/>
				<stop stop-color="#CBCBC9" offset=".8157"/>
				<stop stop-color="#757574" offset=".8706"/>
				<stop stop-color="#fff" offset=".9412"/>
				<stop offset="1"/>
			</linearGradient>
			<path fill="url(#SVGID_25_)" clip-rule="evenodd" d="m160.5 223.3v-20.3c0.1 0 0.3 0 0.4 0.1 3.9 0.7 8.5 1 13.9 1 5.5 0 10.1-0.4 14-1 0.2 0 0.4-0.1 0.5-0.1v20.3c-0.2 0.4-0.8 0.7-1.9 1.1h-0.3c-0.6 0.1-1.3 0.3-2.1 0.5-0.2 0-0.4 0.1-0.7 0.1-2.7 0.4-5.8 0.6-9.5 0.6h-3.4c-2.5-0.1-4.8-0.4-6.8-0.6-0.8-0.2-1.4-0.3-2-0.5h-0.1c-1.1-0.5-1.8-0.9-2-1.2z" fill-rule="evenodd"/>
			<g clip-rule="evenodd" fill-rule="evenodd">
				<path fill="#36393D" d="m204.3 334.5c-0.3 0.8-1.3 1.5-3.1 2.1-0.8 0.2-1.7 0.5-2.7 0.8-0.8 0.2-1.8 0.4-2.8 0.5-5.7 1-12.5 1.6-20.6 1.6h-0.4c-2.6 0-5.1-0.1-7.5-0.2-4.8-0.2-9-0.7-12.8-1.4-0.9-0.2-1.6-0.3-2.3-0.5-1.1-0.3-2.1-0.6-3-0.9-0.7-0.3-1.3-0.5-1.8-0.8-0.9-0.6-1.3-1.2-1.4-1.8l0.1-0.4c0.2-0.7 1.5-1.4 3.8-2.1 1.2-0.3 2.8-0.7 4.5-1 5.6-1 12.4-1.5 20.3-1.5h0.4c8.1 0 14.9 0.5 20.6 1.5 2.5 0.4 4.4 0.9 5.8 1.4 1.6 0.6 2.5 1.3 2.8 2l0.1 0.7z"/>
				<linearGradient id="SVGID_26_" y2="339.15" gradientUnits="userSpaceOnUse" x2="204.35" y1="339.15" x1="146.1">
					<stop stop-color="#191616" offset="0"/>
					<stop stop-color="#0F0F0F" offset=".3608"/>
					<stop stop-color="#67362D" offset=".8353"/>
					<stop stop-color="#221616" offset=".8824"/>
					<stop stop-color="#4B4D54" offset=".9333"/>
					<stop stop-color="#090909" offset="1"/>
				</linearGradient>
				<path fill="url(#SVGID_26_)" d="m146.1 334c0 0.6 0.5 1.2 1.4 1.8 0.5 0.3 1.1 0.6 1.8 0.8 0.8 0.3 1.8 0.6 3 0.9 0.7 0.2 1.5 0.3 2.3 0.5 3.7 0.7 8 1.1 12.8 1.4 2.4 0.1 4.9 0.2 7.5 0.2h0.4c8.1 0 14.9-0.5 20.6-1.6 1-0.2 1.9-0.4 2.8-0.5 1-0.3 1.9-0.5 2.7-0.8 1.8-0.6 2.8-1.3 3.1-2.1l0.1 4.5v0.4c-0.4 1.3-3.3 2.5-8.6 3.5-4.3 0.8-9.2 1.3-14.8 1.4-1.9 0-3.8 0.1-5.8 0.1h-0.4c-2.6 0-5.1-0.1-7.5-0.2-4.8-0.2-9-0.7-12.8-1.3-4.8-0.9-7.5-2.1-8.3-3.4-0.1-0.2-0.2-0.4-0.2-0.6v-5z"/>
			</g>
			<g clip-rule="evenodd" fill-rule="evenodd">
				<linearGradient id="SVGID_27_" y2="315.91" gradientUnits="userSpaceOnUse" x2="171.54" y1="303.86" x1="159.49">
					<stop stop-color="#6C6D71" offset="0"/>
					<stop stop-color="#373C47" offset=".2824"/>
					<stop stop-color="#22232A" offset=".4471"/>
					<stop stop-color="#313640" offset=".7373"/>
					<stop stop-color="#373C47" offset="1"/>
				</linearGradient>
				<path fill="url(#SVGID_27_)" d="m175 305.6v8.4c-2.1 0-4.1 0-6-0.1-3.8-0.2-7.2-0.6-10.2-1.1-4.4-0.8-6.6-1.8-6.6-3.1v-0.3c0.2-0.6 1.2-1.2 3-1.7 1-0.3 2.2-0.5 3.6-0.8 4.5-0.9 9.8-1.3 16.2-1.3z"/>
				<linearGradient id="SVGID_28_" y2="324.9" gradientUnits="userSpaceOnUse" x2="171.68" y1="323.06" x1="151.01">
					<stop stop-color="#080808" offset="0"/>
					<stop stop-color="#2F2F2F" offset=".4471"/>
					<stop stop-color="#080808" offset="1"/>
				</linearGradient>
				<path fill="url(#SVGID_28_)" d="m175 314v24.1c-2.5 0-4.9 0-7.2-0.1-4.6-0.3-8.6-0.7-12.1-1.4-5.3-1-8-2.2-8-3.8v-0.3l4.4-23c0.1 1.3 2.3 2.4 6.6 3.1 3 0.5 6.4 0.9 10.2 1.1 2 0.3 4 0.3 6.1 0.3z"/>
				<linearGradient id="SVGID_29_" y2="321.34" gradientUnits="userSpaceOnUse" x2="205.11" y1="326.7" x1="177.84">
					<stop stop-color="#080808" offset="0"/>
					<stop stop-color="#2F2F2F" offset=".4471"/>
					<stop stop-color="#A15530" offset=".6"/>
					<stop stop-color="#242526" offset=".6784"/>
					<stop stop-color="#787875" offset=".7451"/>
					<stop stop-color="#1B1D1F" offset=".8"/>
					<stop stop-color="#0F1115" offset="1"/>
				</linearGradient>
				<path fill="url(#SVGID_29_)" d="m175 338.1v-24.1h0.3c6.4 0 11.9-0.4 16.5-1.2s6.8-1.8 6.8-3l4.2 23.5c-0.3 1.3-3 2.4-8.1 3.4-5.4 1-11.9 1.5-19.4 1.5-0.2-0.1-0.3-0.1-0.3-0.1z"/>
				<linearGradient id="SVGID_30_" y2="302.28" gradientUnits="userSpaceOnUse" x2="190.8" y1="318.28" x1="179.24">
					<stop stop-color="#363B46" offset="0"/>
					<stop stop-color="#404652" offset=".4471"/>
					<stop stop-color="#151518" offset=".5882"/>
					<stop stop-color="#343639" offset=".6941"/>
					<stop stop-color="#0F1115" offset="1"/>
				</linearGradient>
				<path fill="url(#SVGID_30_)" d="m198.5 309.8c0 1.2-2.3 2.2-6.8 3s-10 1.2-16.5 1.2h-0.3v-8.4h0.3c6.4 0 11.9 0.4 16.5 1.2 2 0.3 3.5 0.7 4.6 1.1 1.5 0.6 2.2 1.2 2.2 1.9z"/>
			</g>
			<g clip-rule="evenodd" fill-rule="evenodd">
				<linearGradient id="SVGID_31_" y2="298.29" gradientUnits="userSpaceOnUse" x2="195.8" y1="298.29" x1="154.65">
					<stop stop-color="#6D7272" offset="0"/>
					<stop stop-color="#0F1118" offset=".4157"/>
					<stop stop-color="#2E3039" offset=".5961"/>
					<stop stop-color="#32343B" offset=".8392"/>
					<stop offset="1"/>
				</linearGradient>
				<path fill="url(#SVGID_31_)" d="m195.8 297.4c-0.1 1-1.9 1.8-5.6 2.5h-0.5c-4 0.8-8.8 1.1-14.5 1.1-5.6 0-10.5-0.4-14.5-1.1-3.9-0.7-6-1.5-6.1-2.5v-1.9c0 0.3 0.2 0.5 0.7 0.8 0.9 0.6 2.6 1.2 5.4 1.6 4.1 0.8 8.9 1.1 14.5 1.1 5.7 0 10.5-0.4 14.5-1.1 0.2 0 0.3-0.1 0.5-0.1 2.3-0.4 3.9-0.9 4.9-1.5 0.4-0.3 0.6-0.6 0.6-0.8v1.9z"/>
				<path d="m195.8 295.5c0 0.3-0.2 0.5-0.6 0.8-1 0.6-2.7 1.1-4.9 1.5-0.1 0-0.3 0-0.5 0.1-4 0.8-8.8 1.1-14.5 1.1-5.6 0-10.5-0.4-14.5-1.1-2.7-0.4-4.5-1-5.4-1.6-0.5-0.3-0.7-0.6-0.7-0.8v-0.1c0-0.3 0.2-0.6 0.6-0.9l0.1-0.1c2.1-0.9 3.1-0.5 3 1.1 3.1 0 9.5 0 19.2-0.1 6.9-0.1 11.7 0 14.4 0.3-1.9-2.2-0.9-2.7 3-1.4 0.2 0.1 0.3 0.3 0.5 0.4l0.1 0.1c0.2 0.2 0.3 0.4 0.3 0.7z"/>
				<linearGradient id="SVGID_32_" y2="304.5" gradientUnits="userSpaceOnUse" x2="195.8" y1="304.5" x1="154.65">
					<stop stop-color="#090909" offset="0"/>
					<stop stop-color="#0F0F0F" offset=".7922"/>
					<stop stop-color="#67362D" offset=".8353"/>
					<stop stop-color="#221616" offset=".8824"/>
					<stop stop-color="#4B4D54" offset=".9333"/>
					<stop stop-color="#090909" offset="1"/>
				</linearGradient>
				<path fill="url(#SVGID_32_)" d="m154.6 297.4c0.1 1 2.1 1.8 6.1 2.5 4.1 0.8 8.9 1.1 14.5 1.1 5.7 0 10.5-0.4 14.5-1.1h0.5c3.7-0.7 5.5-1.5 5.6-2.5v10.9c-0.1 0.4-0.6 0.8-1.3 1 0 0-0.1 0-0.1 0.1-1 0.4-2.4 0.8-4.1 1.1h-0.4c-4 0.7-8.8 1.1-14.5 1.1s-10.1-0.3-13.2-0.9c-3.1-0.5-5.1-0.9-6-1.3s-1.4-0.7-1.5-1.1v-10.9z"/>
			</g>
			<g clip-rule="evenodd" fill-rule="evenodd">
				<linearGradient id="SVGID_33_" y2="231.74" gradientUnits="userSpaceOnUse" x2="165.81" y1="223.72" x1="157.83">
					<stop stop-color="#D3D5D6" offset="0"/>
					<stop stop-color="#A0A4AF" offset=".1725"/>
					<stop stop-color="#BBBEC4" offset=".3176"/>
					<stop stop-color="#646D86" offset=".9569"/>
				</linearGradient>
				<path fill="url(#SVGID_33_)" d="m171.4 225.5l-2.4 7c-4.1-0.2-7.8-0.6-11-1.2-1.3-0.3-2.5-0.5-3.4-0.8-2.5-0.7-3.8-1.4-3.8-2.3v-0.1c0-0.5 0.4-0.9 1.1-1.4 0.3-0.2 0.7-0.4 1.1-0.5l7.4-3.5c0 0.1-0.1 0.1-0.1 0.3 0 0.1 0 0.1 0.1 0.3 0.2 0.3 0.9 0.7 2 1.1h0.1c0.5 0.1 1.2 0.3 2 0.5 2.1 0.2 4.4 0.5 6.9 0.6z"/>
				<linearGradient id="SVGID_34_" y2="228.75" gradientUnits="userSpaceOnUse" x2="189.34" y1="228.75" x1="171.66">
					<stop stop-color="#646D86" offset="0"/>
					<stop stop-color="#646986" offset=".1725"/>
					<stop stop-color="#F9FBFE" offset=".3804"/>
					<stop stop-color="#AAB5C8" offset=".5255"/>
					<stop stop-color="#BCC6D7" offset="1"/>
				</linearGradient>
				<path fill="url(#SVGID_34_)" d="m184.3 225l6.1 6.7c-4.3 0.6-9.4 0.9-15.1 0.9-2.2 0-4.2 0-6.2-0.1l2.4-7h3.4c3.6 0 6.7-0.1 9.4-0.5z"/>
				<linearGradient id="SVGID_35_" y2="224.7" gradientUnits="userSpaceOnUse" x2="194.05" y1="229.6" x1="189.15">
					<stop stop-color="#B3BED0" offset="0"/>
					<stop stop-color="#A2AABF" offset=".2196"/>
					<stop stop-color="#7E8298" offset=".5255"/>
					<stop stop-color="#D9DBDC" offset="1"/>
				</linearGradient>
				<path fill="url(#SVGID_35_)" d="m190.4 231.6l-6.1-6.7c0.2 0 0.5-0.1 0.7-0.1 0.8-0.2 1.5-0.3 2.1-0.5h0.3c1-0.3 1.6-0.7 1.9-1.1 0.1 0 0.1-0.1 0.1-0.1v-0.3c0-0.1 0-0.2-0.1-0.3l8.1 3.4c0.4 0.2 0.9 0.4 1.4 0.8 0.7 0.4 1 0.8 1 1.3 0 0.1 0 0.3-0.1 0.4-0.3 0.7-1.5 1.4-3.8 2-1 0.3-2.1 0.5-3.4 0.8-0.6 0.1-1.3 0.2-1.9 0.3-0.1 0.1-0.1 0.1-0.2 0.1z"/>
			</g>
			<linearGradient id="SVGID_36_" y2="266.05" gradientUnits="userSpaceOnUse" x2="195.21" y1="266.05" x1="155.39">
				<stop stop-color="#202124" offset="0"/>
				<stop stop-color="#4F5056" offset=".070588"/>
				<stop stop-color="#5C5E61" offset=".1176"/>
				<stop stop-color="#A3A299" offset=".2353"/>
				<stop stop-color="#1E1C18" offset=".3647"/>
				<stop stop-color="#AF937C" offset=".5176"/>
				<stop stop-color="#A1949B" offset=".6471"/>
				<stop stop-color="#EBE9EB" offset=".7451"/>
				<stop stop-color="#CBCBC9" offset=".8157"/>
				<stop stop-color="#757574" offset=".8706"/>
				<stop stop-color="#fff" offset=".9412"/>
				<stop offset="1"/>
			</linearGradient>
			<path fill="url(#SVGID_36_)" clip-rule="evenodd" d="m155.5 296v-62.7h39.4v63c-1.1 0.6-2.6 1.1-4.6 1.4-0.2 0-0.3 0-0.5 0.1-3.9 0.7-8.7 1.1-14.4 1.1-5.6 0-10.4-0.4-14.4-1.1-2.7-0.5-4.5-1-5.3-1.6-0.1-0.2-0.2-0.2-0.2-0.2z" fill-rule="evenodd"/>
			<g clip-rule="evenodd" fill-rule="evenodd">
				<linearGradient id="SVGID_37_" y2="346.82" gradientUnits="userSpaceOnUse" x2="220.57" y1="329.16" x1="66.078">
					<stop stop-color="#4E514F" offset="0"/>
					<stop stop-color="#797D79" offset=".2824"/>
					<stop stop-color="#1A1B1B" offset=".502"/>
					<stop stop-color="#434544" offset=".7686"/>
					<stop stop-color="#0B0B0B" offset="1"/>
				</linearGradient>
				<path fill="url(#SVGID_37_)" d="m145.6 340.6l0.5-1.6c0 0.1 0.1 0.3 0.2 0.5 0.7 1.3 3.5 2.4 8.3 3.4 3.7 0.6 8 1.1 12.8 1.3 2.4 0.1 4.9 0.2 7.5 0.2h0.4c2 0 3.9 0 5.8-0.1 5.6-0.2 10.5-0.7 14.8-1.4 5.3-1 8.2-2.1 8.6-3.5 0.1 0 0.1 0.1 0.3 0.2 0.2 0.5 0.5 1 0.7 1.5-0.4 1.4-3.3 2.6-8.8 3.5-0.1 0-0.3 0.1-0.3 0.1-4.4 0.8-9.4 1.3-15 1.4h-0.2c-1.8 0-3.7 0.1-5.6 0.1h-0.4-0.2c-2.5 0-5 0-7.5-0.1-0.1 0-1.6-0.1-4.8-0.4-3.1-0.3-5.9-0.6-8.2-1-0.3 0-0.5-0.1-0.6-0.1-5.4-1.1-8.1-2.4-8.3-4z"/>
				<linearGradient id="SVGID_38_" y2="356.72" gradientUnits="userSpaceOnUse" x2="207.15" y1="356.72" x1="144.2">
					<stop stop-color="#080808" offset="0"/>
					<stop stop-color="#2F2F2F" offset=".4471"/>
					<stop stop-color="#080808" offset="1"/>
				</linearGradient>
				<path fill="url(#SVGID_38_)" d="m205.3 341.1c1.2 3.5 1.9 7.5 1.9 12.1 0 5-1.1 10.1-3.3 15.3-1.1 1.1-3.8 2-8.1 2.8-5.6 1-12.4 1.5-20.6 1.5h-0.4c-2.6 0-5.1-0.1-7.5-0.2-4.9-0.2-9.1-0.7-12.8-1.3-4.6-0.9-7.3-1.9-8.1-3.1-0.1-0.2-0.3-0.4-0.4-0.8h0.3l-0.3-0.4c-1.2-3.9-1.8-8.6-1.8-14.1 0-4.6 0.5-8.7 1.4-12.3 0.1 1.5 2.8 2.9 8.1 4 0.1 0 0.3 0 0.6 0.1 2.3 0.4 5.1 0.7 8.2 1s4.7 0.4 4.8 0.4c2.5 0.1 5 0.1 7.5 0.1h0.2 0.4c1.9 0 3.8 0 5.6-0.1h0.2c5.6-0.2 10.6-0.6 15-1.4 0.1 0 0.2 0 0.3-0.1 5.5-0.9 8.4-2.1 8.8-3.5z"/>
			</g>
				<radialGradient id="SVGID_39_" gradientUnits="userSpaceOnUse" cy="347.95" cx="179.85" gradientTransform="matrix(1 0 0 .4583 0 188.48)" r="44.675">
				<stop stop-color="#333" stop-opacity=".251" offset="0"/>
				<stop offset="1"/>
			</radialGradient>
			<path fill="url(#SVGID_39_)" clip-rule="evenodd" d="m154.4 344.7c2.3 0.4 5.1 0.7 8.2 1s4.7 0.4 4.8 0.4c2.5 0.1 5 0.1 7.5 0.1h0.2 0.4c1.9 0 3.8 0 5.6-0.1h0.2c5.6-0.2 10.6-0.6 15-1.4 0.1 0 0.2 0 0.3-0.1 5.4-1 8.3-2.1 8.8-3.5 1.2 3.5 1.9 7.5 1.9 12.1 0 5-1.1 10.1-3.3 15.3-1.1 1.1-3.8 2-8.1 2.8-5.6 1-12.4 1.5-20.6 1.5h-0.4c-2.6 0-5.1-0.1-7.5-0.2-4.9-0.2-9.1-0.7-12.8-1.3-4.6-0.9-7.3-1.9-8.1-3.1-0.1-0.2-0.3-0.4-0.4-0.8h0.3l-0.4-0.4c-1.2-3.9-1.8-8.6-1.8-14.1 0-4.6 0.5-8.7 1.4-12.3 0.1 1.5 2.8 2.9 8.1 4 0.2 0 0.4 0.1 0.7 0.1z" fill-rule="evenodd"/>
			<linearGradient id="SVGID_40_" y2="232.92" gradientUnits="userSpaceOnUse" x2="199.7" y1="232.92" x1="150.9">
				<stop stop-color="#6A6C6F" offset="0"/>
				<stop stop-color="#4E5054" offset=".1333"/>
				<stop stop-color="#A7ABB5" offset=".2745"/>
				<stop stop-color="#BCC0C7" offset=".4863"/>
				<stop stop-color="#CACAD2" offset=".7137"/>
				<stop stop-color="#BDC0C9" offset="1"/>
			</linearGradient>
			<path fill="url(#SVGID_40_)" clip-rule="evenodd" d="m150.9 228.5c0 0.3 0.3 0.6 1 1 0.6 0.4 1.5 0.7 2.8 1 0.9 0.3 2.1 0.5 3.4 0.8 3.2 0.5 6.9 0.9 11 1.2 2 0.1 4 0.1 6.2 0.1 5.7 0 10.8-0.3 15.1-0.9h0.3c0.6-0.1 1.2-0.2 1.9-0.3 1.3-0.3 2.4-0.5 3.4-0.8 2.2-0.6 3.5-1.3 3.8-2v4.1c0.1 0.1 0.1 0.2 0.1 0.4 0 1-1.5 1.8-4.6 2.5-0.8 0.2-1.7 0.4-2.7 0.5-4.7 0.9-10.5 1.3-17.2 1.3s-12.4-0.4-17.2-1.3c-0.3 0-0.6-0.1-0.9-0.1-0.7-0.1-1.3-0.3-1.8-0.4-1.6-0.4-2.7-0.8-3.5-1.2-0.7-0.5-1-0.9-1-1.3v-0.2-4.4z" fill-rule="evenodd"/>
			<g clip-rule="evenodd" fill-rule="evenodd">
				<linearGradient id="SVGID_41_" y2="189.71" gradientUnits="userSpaceOnUse" x2="240.5" y1="192.46" x1="161.7">
					<stop stop-color="#7F7F7F" offset="0"/>
					<stop offset=".7137"/>
					<stop offset="1"/>
				</linearGradient>
				<path fill="url(#SVGID_41_)" d="m155.1 191.3c0.2-0.6 2.1-1.2 5.9-1.8 3.8-0.7 8.4-1 13.8-1 5.5 0 10.1 0.3 14 1 3.8 0.6 5.8 1.5 6 2.5-0.2 1-2.2 1.9-6 2.6s-8.5 1-14 1c-1.9 0-3.6 0-5.3-0.1-3.2-0.2-6.1-0.5-8.6-0.9-3.9-0.8-5.8-1.9-5.8-3.3z"/>
					<radialGradient id="SVGID_42_" gradientUnits="userSpaceOnUse" cy="183.65" cx="174.1" gradientTransform="matrix(1 0 0 .4249 0 105.61)" r="58.038">
					<stop stop-color="#fff" offset="0"/>
					<stop stop-color="#C5C5C5" offset=".3216"/>
					<stop stop-color="#595959" offset=".5686"/>
					<stop stop-color="#2F2F2F" offset=".6"/>
					<stop stop-color="#1E1E1E" offset=".7255"/>
					<stop stop-color="#050505" offset=".8039"/>
					<stop offset=".8471"/>
					<stop offset="1"/>
				</radialGradient>
				<path fill="url(#SVGID_42_)" d="m194.8 192c1.8 3 2.2 5.6 1.3 7.8s-2.3 3.6-4.2 4-2.9 0.6-3.1 0.6c-3.8 0.7-8.5 1-14 1-5.4 0-10-0.4-13.9-1-0.1 0-0.3-0.1-0.4-0.1-3.6-0.7-5.4-1.4-5.5-2.1-1.1-1.4-1.7-2.9-1.8-4.6s0.5-3.8 1.9-6.4c0 1.4 1.9 2.5 5.8 3.3 2.5 0.4 5.4 0.7 8.6 0.9 1.7 0.1 3.4 0.1 5.3 0.1 5.5 0 10.1-0.3 14-1 3.8-0.7 5.8-1.5 6-2.5z"/>
			</g>
				<radialGradient id="SVGID_43_" gradientUnits="userSpaceOnUse" cy="345.9" cx="164.1" gradientTransform="matrix(.997 .077074 -.011325 .1465 4.4056 282.58)" r="11.6">
				<stop stop-color="#FEFEFE" offset="0"/>
				<stop stop-color="#FEFEFE" offset=".2078"/>
				<stop stop-color="#fff" stop-opacity=".3137" offset=".4902"/>
				<stop stop-color="#fff" stop-opacity=".082353" offset=".6784"/>
				<stop stop-color="#FCFCFC" stop-opacity="0" offset=".8392"/>
				<stop stop-color="#FBFBFB" stop-opacity="0" offset="1"/>
			</radialGradient>
			<path fill="url(#SVGID_43_)" clip-rule="evenodd" d="m152.5 345c0-0.5 1.2-0.8 3.5-1 2.3-0.1 5-0.1 8.3 0.1 3.2 0.3 5.9 0.6 8.1 1.1 2.4 0.5 3.5 1 3.5 1.5s-1.2 0.8-3.5 1c-2.3 0.1-5.1 0.1-8.3-0.1s-6-0.6-8.2-1.2c-2.3-0.5-3.4-0.9-3.4-1.4z" fill-rule="evenodd"/>
				<radialGradient id="SVGID_44_" gradientUnits="userSpaceOnUse" cy="317.72" cx="192.13" gradientTransform="matrix(.9932 .1166 -.018712 .1799 -26.924 258.88)" r="8.6846">
				<stop stop-color="#FEFEFE" offset="0"/>
				<stop stop-color="#FEFEFE" offset=".2078"/>
				<stop stop-color="#fff" stop-opacity=".3137" offset=".4902"/>
				<stop stop-color="#fff" stop-opacity=".082353" offset=".6784"/>
				<stop stop-color="#FCFCFC" stop-opacity="0" offset=".8392"/>
				<stop stop-color="#FBFBFB" stop-opacity="0" offset="1"/>
			</radialGradient>
			<path fill="url(#SVGID_44_)" clip-rule="evenodd" d="m149.3 337.5c0-0.5 0.9-0.8 2.7-0.9 1.7-0.1 3.8 0 6.2 0.3s4.4 0.7 6 1.3c1.7 0.5 2.5 0.9 2.5 1.4 0 0.4-0.9 0.7-2.8 0.8-1.7 0.1-3.7 0.1-6.1-0.3-2.4-0.3-4.5-0.7-6.1-1.3-1.6-0.5-2.4-0.9-2.4-1.3z" fill-rule="evenodd"/>
				<radialGradient id="SVGID_45_" gradientUnits="userSpaceOnUse" cy="313.05" cx="160.55" gradientTransform="matrix(.9921 .1256 -.025842 .2041 9.3615 228.99)" r="6.4263">
				<stop stop-color="#FEFEFE" offset="0"/>
				<stop stop-color="#FEFEFE" offset=".2078"/>
				<stop stop-color="#fff" stop-opacity=".3137" offset=".4902"/>
				<stop stop-color="#fff" stop-opacity=".082353" offset=".6784"/>
				<stop stop-color="#FCFCFC" stop-opacity="0" offset=".8392"/>
				<stop stop-color="#FBFBFB" stop-opacity="0" offset="1"/>
			</radialGradient>
			<path fill="url(#SVGID_45_)" clip-rule="evenodd" d="m160.6 311.8c1.8 0.3 3.3 0.6 4.5 1 1.3 0.4 1.9 0.8 1.8 1.1 0 0.4-0.7 0.6-2.1 0.7-1.2 0.1-2.7 0-4.5-0.3-1.7-0.3-3.3-0.6-4.5-1s-1.7-0.8-1.7-1.1 0.7-0.6 2-0.7c1.3-0.1 2.8 0 4.5 0.3z" fill-rule="evenodd"/>
				<radialGradient id="SVGID_46_" gradientUnits="userSpaceOnUse" cy="300.4" cx="162.2" gradientTransform="matrix(.9921 .1257 -.039713 .3135 13.216 185.83)" r="4.1847">
				<stop stop-color="#FEFEFE" offset="0"/>
				<stop stop-color="#FEFEFE" offset=".2078"/>
				<stop stop-color="#fff" stop-opacity=".3137" offset=".4902"/>
				<stop stop-color="#fff" stop-opacity=".082353" offset=".6784"/>
				<stop stop-color="#FCFCFC" stop-opacity="0" offset=".8392"/>
				<stop stop-color="#FBFBFB" stop-opacity="0" offset="1"/>
			</radialGradient>
			<path fill="url(#SVGID_46_)" clip-rule="evenodd" d="m159.4 299.1c0.8-0.2 1.8-0.2 2.9 0 1.2 0.2 2.2 0.4 3 0.7 0.8 0.4 1.2 0.8 1.1 1.1s-0.5 0.6-1.4 0.7c-0.8 0.2-1.8 0.2-3 0-1.1-0.2-2.1-0.4-2.9-0.7-0.8-0.4-1.1-0.8-1.1-1.1 0.1-0.3 0.5-0.5 1.4-0.7z" fill-rule="evenodd"/>
				<radialGradient id="SVGID_47_" gradientUnits="userSpaceOnUse" cy="-191.02" cx="264.57" gradientTransform="matrix(-.017280 .9999 -.1685 -.0067201 158.74 6.3316)" r="26.041">
				<stop stop-color="#FEFEFE" offset="0"/>
				<stop stop-color="#FEFEFE" offset=".2078"/>
				<stop stop-color="#fff" stop-opacity=".3137" offset=".4902"/>
				<stop stop-color="#fff" stop-opacity=".082353" offset=".6784"/>
				<stop stop-color="#FCFCFC" stop-opacity="0" offset=".8392"/>
				<stop stop-color="#FBFBFB" stop-opacity="0" offset="1"/>
			</radialGradient>
			<path fill="url(#SVGID_47_)" clip-rule="evenodd" d="m190.8 272.4c-0.1 7.2-0.7 13.3-1.6 18.4-1 5.1-2.1 7.7-3.3 7.6s-2.3-2.7-3.1-7.9c-0.8-5.1-1.1-11.3-0.9-18.5 0.1-7.2 0.7-13.4 1.6-18.4s2-7.5 3.3-7.5c1.2 0 2.2 2.6 3 7.7 0.8 5.2 1.1 11.3 1 18.6z" fill-rule="evenodd"/>
				<radialGradient id="SVGID_48_" gradientUnits="userSpaceOnUse" cy="-172.71" cx="208.49" gradientTransform="matrix(-.016699 .9999 -.1691 -.0062622 143.43 5.312)" r="11.977">
				<stop stop-color="#FEFEFE" offset="0"/>
				<stop stop-color="#FEFEFE" offset=".2078"/>
				<stop stop-color="#fff" stop-opacity=".3137" offset=".4902"/>
				<stop stop-color="#fff" stop-opacity=".082353" offset=".6784"/>
				<stop stop-color="#FCFCFC" stop-opacity="0" offset=".8392"/>
				<stop stop-color="#FBFBFB" stop-opacity="0" offset="1"/>
			</radialGradient>
			<path fill="url(#SVGID_48_)" clip-rule="evenodd" d="m167.9 206.2c0.4-2.3 0.9-3.5 1.4-3.4 0.6 0 1 1.2 1.4 3.6s0.6 5.2 0.5 8.5c0 3.3-0.3 6.1-0.8 8.5-0.4 2.4-0.9 3.5-1.4 3.5-0.6-0.1-1-1.3-1.4-3.6s-0.5-5.2-0.5-8.5 0.3-6.2 0.8-8.6z" fill-rule="evenodd"/>
				<radialGradient id="SVGID_49_" gradientUnits="userSpaceOnUse" cy="-224.81" cx="-179.74" gradientTransform="matrix(-.9992 -.040719 .031322 -.5043 -6.8982 111.06)" r="3.9914">
				<stop stop-color="#FEFEFE" offset="0"/>
				<stop stop-color="#FEFEFE" offset=".2078"/>
				<stop stop-color="#fff" stop-opacity=".3137" offset=".4902"/>
				<stop stop-color="#fff" stop-opacity=".082353" offset=".6784"/>
				<stop stop-color="#FCFCFC" stop-opacity="0" offset=".8392"/>
				<stop stop-color="#FBFBFB" stop-opacity="0" offset="1"/>
			</radialGradient>
			<path fill="url(#SVGID_49_)" clip-rule="evenodd" d="m161.6 231.6c0.1-0.6 0.5-1.1 1.3-1.4s1.8-0.5 2.9-0.5 2 0.3 2.8 0.7c0.8 0.4 1.2 0.9 1.1 1.5s-0.5 1-1.3 1.3c-0.8 0.4-1.8 0.5-2.9 0.5-1.1-0.1-2-0.3-2.8-0.8-0.7-0.3-1.1-0.7-1.1-1.3z" fill-rule="evenodd"/>
				<radialGradient id="SVGID_50_" gradientUnits="userSpaceOnUse" cy="-196.71" cx="-204" gradientTransform="matrix(-.9881 -.1537 .072148 -.4078 -20.085 113.53)" r="3.9852">
				<stop stop-color="#FEFEFE" offset="0"/>
				<stop stop-color="#FEFEFE" offset=".2078"/>
				<stop stop-color="#fff" stop-opacity=".3137" offset=".4902"/>
				<stop stop-color="#fff" stop-opacity=".082353" offset=".6784"/>
				<stop stop-color="#FCFCFC" stop-opacity="0" offset=".8392"/>
				<stop stop-color="#FBFBFB" stop-opacity="0" offset="1"/>
			</radialGradient>
			<path fill="url(#SVGID_50_)" clip-rule="evenodd" d="m163.3 224.5c0.1-0.5 0.6-0.8 1.5-1 0.8-0.2 1.8-0.2 2.9 0 1.1 0.1 2 0.4 2.7 0.9s1 0.9 1 1.4c-0.1 0.4-0.5 0.8-1.3 1-0.9 0.2-1.9 0.2-3 0s-2-0.5-2.6-1c-0.9-0.4-1.3-0.9-1.2-1.3z" fill-rule="evenodd"/>
				<radialGradient id="SVGID_51_" gradientUnits="userSpaceOnUse" cy="-169.21" cx="-194.7" gradientTransform="matrix(-.9884 -.1517 .058233 -.3325 -19.34 110.44)" r="8.1578">
				<stop stop-color="#FEFEFE" offset="0"/>
				<stop stop-color="#FEFEFE" offset=".2078"/>
				<stop stop-color="#fff" stop-opacity=".3137" offset=".4902"/>
				<stop stop-color="#fff" stop-opacity=".082353" offset=".6784"/>
				<stop stop-color="#FCFCFC" stop-opacity="0" offset=".8392"/>
				<stop stop-color="#FBFBFB" stop-opacity="0" offset="1"/>
			</radialGradient>
			<path fill="url(#SVGID_51_)" clip-rule="evenodd" d="m171.4 197.5c-0.1 0.7-1.1 1.2-2.8 1.5-1.6 0.3-3.5 0.3-5.8 0-2.2-0.3-4.1-0.9-5.6-1.7s-2.1-1.5-2-2.3c0.1-0.7 1.1-1.3 2.8-1.5 1.7-0.3 3.6-0.3 5.8 0 2.3 0.3 4.1 0.9 5.6 1.8 1.4 0.7 2.1 1.4 2 2.2z" fill-rule="evenodd"/>
				<radialGradient id="SVGID_52_" gradientUnits="userSpaceOnUse" cy="354.84" cx="217.22" gradientTransform="matrix(1 .0075870 -.1001 1.8588 16.426 -304.88)" r="8.2377">
				<stop stop-color="#fff" stop-opacity=".349" offset="0"/>
				<stop stop-color="#FEFEFE" stop-opacity=".2471" offset=".149"/>
				<stop stop-color="#fff" stop-opacity=".149" offset=".3608"/>
				<stop stop-color="#fff" stop-opacity=".027451" offset=".6784"/>
				<stop stop-color="#FCFCFC" stop-opacity="0" offset=".8392"/>
				<stop stop-color="#FBFBFB" stop-opacity="0" offset="1"/>
			</radialGradient>
			<path fill="url(#SVGID_52_)" clip-rule="evenodd" d="m199 340.9c2.2 0.1 4 1.6 5.5 4.7 1.6 2.9 2.2 6.5 2 10.8-0.3 4.3-1.3 7.9-3.2 10.8-1.8 3.1-3.8 4.6-6 4.6-2.3-0.1-4.1-1.6-5.5-4.7-1.5-2.9-2.1-6.5-1.9-10.8s1.3-7.9 3.1-10.8c1.6-3.1 3.6-4.7 6-4.6z" fill-rule="evenodd"/>
			<linearGradient id="SVGID_53_" y2="183.48" gradientUnits="userSpaceOnUse" x2="175.03" y1="193.58" x1="175.62">
				<stop stop-color="#7F7F7F" offset="0"/>
				<stop offset=".7137"/>
				<stop offset="1"/>
			</linearGradient>
			<path fill="url(#SVGID_53_)" clip-rule="evenodd" d="m192.3 192c-0.1 0.8-1.8 1.5-5 2.1-3.3 0.6-7.2 0.9-11.9 0.9-4.6 0-8.5-0.3-11.8-0.9-3.2-0.6-4.9-1.3-4.9-2.1 0-0.9 1.6-1.6 4.9-2.2s7.2-0.9 11.8-0.9c4.7 0 8.6 0.3 11.9 0.9 3.2 0.6 4.9 1.3 5 2.2z" fill-rule="evenodd"/>
			<g clip-rule="evenodd" fill-rule="evenodd">
				<linearGradient id="SVGID_54_" y2="191.57" gradientUnits="userSpaceOnUse" x2="167.61" y1="191.57" x1="180.19">
					<stop stop-color="#7F7F7F" offset="0"/>
					<stop stop-color="#434343" offset=".5569"/>
					<stop offset=".7137"/>
					<stop offset="1"/>
				</linearGradient>
				<path fill="url(#SVGID_54_)" d="m182.1 190.9c0.5 0.2 0.8 0.5 0.9 0.6-0.1 0.4-0.9 0.7-2.4 1-1.6 0.3-3.5 0.5-5.7 0.5s-4.1-0.2-5.8-0.5c-0.4-0.1-0.7-0.1-0.9-0.1-1-0.3-1.5-0.5-1.5-0.9s0.8-0.7 2.4-1 3.5-0.4 5.8-0.4c2.2 0 4.1 0.1 5.7 0.4 0.6 0.1 1.1 0.3 1.5 0.4z"/>
				<path fill="#333" d="m169.1 192.5c1.6 0.3 3.5 0.5 5.8 0.5 2.2 0 4.1-0.2 5.7-0.5 1.5-0.3 2.3-0.6 2.4-1-0.1-0.2-0.4-0.4-0.9-0.6 0.9 0.3 1.4 0.6 1.5 0.9 0 0.4-0.8 0.7-2.4 1s-3.5 0.5-5.8 0.5-4.1-0.2-5.8-0.5c-0.2 0-0.4-0.1-0.6-0.1h-0.1l0.2-0.2z"/>
			</g>
		<g clip-rule="evenodd" fill-rule="evenodd">
			<path fill-opacity=".7059" fill="#fff" d="m152.6 377c-0.1 0-0.3 0-0.4 0.1s-0.2 0.4-0.3 0.7v0.8c0.1 0.1 0.2 0.1 0.3 0.1s0.2 0 0.3-0.1c0.1 0 0.2-0.2 0.3-0.5 0.1-0.4 0.1-0.6 0-0.8 0-0.1-0.1-0.2-0.2-0.3zm-0.4 0h0.4 0.3c0.1 0.1 0.1 0.2 0.3 0.3v0.3 0.5c0 0.2-0.1 0.4-0.3 0.5 0 0.1-0.1 0.3-0.3 0.4h-0.4c-0.2 0-0.4-0.1-0.5-0.4-0.1-0.2-0.1-0.4 0-0.8 0-0.3 0.1-0.5 0.2-0.6s0.2-0.2 0.3-0.2zm-1.7-0.3c0.1-0.1 0.3-0.1 0.5-0.1 0.2 0.1 0.4 0.2 0.5 0.3s0.1 0.2 0.1 0.4c0 0.1-0.1 0.2-0.1 0.3s-0.1 0.2-0.2 0.3-0.3 0.2-0.5 0.3c-0.2 0.1-0.3 0.1-0.3 0.2h-0.2l1 0.2v0.2l-1.4-0.2c0-0.1 0.1-0.1 0.1-0.2 0 0 0.1-0.1 0.1-0.2 0.1-0.1 0.2-0.1 0.4-0.3 0.3-0.2 0.5-0.3 0.6-0.4s0.2-0.2 0.2-0.3 0-0.2-0.1-0.3c0-0.1-0.1-0.2-0.2-0.2s-0.3 0-0.4 0.2c-0.1 0-0.1 0.1-0.1 0.2l-0.3-0.1c0.1-0.2 0.2-0.3 0.3-0.3zm31.7 2.1h0.3l0.2 0.2c0.1 0.1 0.1 0.2 0.1 0.3s0 0.2-0.1 0.3c0 0.1 0 0.2-0.1 0.3 0.1 0 0.2 0 0.3 0.2 0.1 0.1 0.1 0.2 0.1 0.3 0.1 0.2 0 0.3-0.1 0.5s-0.3 0.3-0.5 0.3-0.4 0-0.4-0.2c-0.1-0.1-0.2-0.3-0.3-0.4h0.3c0.1 0.1 0.1 0.2 0.3 0.3h0.2s0.2 0 0.3-0.1v-0.3c0-0.1 0-0.2-0.1-0.3h-0.3-0.1v-0.3c0.1 0 0.2 0 0.2-0.1 0.1-0.1 0.1-0.2 0.1-0.3v-0.3c-0.1-0.1-0.1-0.1-0.2-0.1s-0.2 0-0.3 0.1-0.1 0.2-0.1 0.3h-0.4c0-0.2 0.1-0.3 0.3-0.4 0.1-0.2 0.2-0.3 0.3-0.3zm2.2 0.2c0 0.1 0.1 0.1 0.1 0.3 0 0.1 0.1 0.3 0.1 0.5 0 0.3 0 0.5-0.1 0.6 0 0.2-0.1 0.3-0.2 0.4s-0.2 0.1-0.4 0.1-0.4-0.1-0.5-0.2c-0.2-0.2-0.3-0.5-0.3-0.9v-0.5c0.1-0.2 0.1-0.3 0.3-0.5 0.1-0.1 0.2-0.1 0.4-0.1h0.3s0.2 0.1 0.3 0.3zm-0.3 0c-0.1-0.1-0.1-0.1-0.3-0.1-0.1 0-0.2 0-0.3 0.1-0.1 0.2-0.1 0.4-0.1 0.8s0.1 0.6 0.2 0.6c0.1 0.1 0.2 0.2 0.3 0.2s0.2-0.1 0.3-0.2c0-0.1 0.1-0.3 0.1-0.7 0-0.3 0-0.5-0.2-0.7z"/>
				<path stroke-linejoin="round" d="m160.6 372.8l-1.1 1.8m-6-3.2l-1.6 1.8m4-1.3l-3.1 4.1m5.3-3.7l-1.3 1.9m-5.4-3.4l-1.8 1.8m-0.1-2.4l-1.9 1.8m32.4 1.7v1.9m-5.7-1.9l-0.4 1.9m3.2-1.9l-0.3 1.9m-8-2.1l-1.5 4.5m-1.4-4.7l-0.9 2m-1.7-2.3l-1 2m9.2-1.3l-0.5 1.9m22.5-3.1l0.8 2m4.2-2.9l1 2.1m-3.5-1.6l2 4.6m-9.6-3.5l0.4 2m2.1-2.3l0.6 2m-5.9-1.4l0.3 1.9m-3-1.9l0.3 4.5m17.5-7l1.2 2m0.9-2.7l1.5 2.2m0.3-3l1.6 2.3" stroke-opacity=".251" stroke="#fff" stroke-linecap="round" stroke-miterlimit="3" fill="none"/>
		</g>
			<linearGradient id="SVGID_55_" y2="407.44" gradientUnits="userSpaceOnUse" x2="218.95" y1="425.16" x1="218.86">
				<stop stop-color="#2B2422" offset="0"/>
				<stop stop-color="#665950" offset=".1765"/>
				<stop stop-color="#5D594A" offset=".3333"/>
				<stop stop-color="#D2D1CE" offset=".7529"/>
				<stop stop-color="#7C7969" offset="1"/>
			</linearGradient>
			<path fill="url(#SVGID_55_)" clip-rule="evenodd" d="m238.8 422.5c-0.1 1.4-0.3 2.3-0.5 2.5h-39.5v-17.3h39.5c0.2 0.2 0.4 1 0.5 2.4 0.2 1.7 0.4 3.8 0.4 6.2-0.1 2.4-0.2 4.5-0.4 6.2z" fill-rule="evenodd"/>
			<g clip-rule="evenodd" fill-rule="evenodd">
				<radialGradient id="SVGID_56_" gradientUnits="userSpaceOnUse" cy="415.2" cx="235.85" r="8.525">
					<stop stop-color="#32302C" offset="0"/>
					<stop stop-color="#3C3B37" stop-opacity="0" offset="1"/>
				</radialGradient>
				<path fill="url(#SVGID_56_)" d="m235.4 408.1v-0.1h0.1c0.1 0 0.1 0.1 0.1 0.1 0.1 0.4 0.3 1.1 0.4 2.1 0.2 1.7 0.4 3.8 0.4 6.2s-0.1 4.5-0.4 6.2c-0.1 1-0.2 1.8-0.4 2.2l-0.1 0.1h-0.1l-0.1-0.1v-0.1c0.1-0.4 0.2-1.1 0.4-2.1 0.2-1.7 0.3-3.7 0.3-6.2 0-2.4-0.1-4.4-0.3-6.1-0.2-1.1-0.3-1.8-0.3-2.2z"/>
				<radialGradient id="SVGID_57_" gradientUnits="userSpaceOnUse" cy="415.2" cx="234" r="8.525">
					<stop stop-color="#32302C" offset="0"/>
					<stop stop-color="#3C3B37" stop-opacity="0" offset="1"/>
				</radialGradient>
				<path fill="url(#SVGID_57_)" d="m233.5 408h0.1 0.1c0.1 0 0.1 0.1 0.1 0.1 0.1 0.4 0.2 1.1 0.3 2.1 0.2 1.7 0.4 3.8 0.4 6.2s-0.1 4.5-0.4 6.2c-0.1 1-0.2 1.8-0.4 2.2l-0.1 0.1h-0.1v-0.1-0.1c0.1-0.4 0.3-1.1 0.4-2.1 0.2-1.7 0.3-3.7 0.3-6.2 0-2.4-0.1-4.4-0.3-6.1-0.1-1-0.3-1.7-0.4-2.1v-0.2z"/>
				<radialGradient id="SVGID_58_" gradientUnits="userSpaceOnUse" cy="415.2" cx="237.7" r="8.525">
					<stop stop-color="#32302C" offset="0"/>
					<stop stop-color="#3C3B37" stop-opacity="0" offset="1"/>
				</radialGradient>
				<path fill="url(#SVGID_58_)" d="m237.3 407.9c0.1 0 0.1 0.1 0.2 0.1 0.1 0.4 0.3 1.1 0.4 2.1 0.2 1.7 0.4 3.8 0.4 6.2s-0.1 4.5-0.4 6.2c-0.1 1-0.3 1.8-0.5 2.2 0 0.1-0.1 0.1-0.1 0.1h-0.1v-0.1-0.1c0.1-0.4 0.3-1.1 0.4-2.1 0.2-1.7 0.3-3.7 0.3-6.2 0-2.4-0.1-4.4-0.3-6.1-0.2-1-0.3-1.7-0.4-2.1v-0.1c0-0.1 0.1-0.1 0.1-0.1z"/>
				<radialGradient id="SVGID_59_" gradientUnits="userSpaceOnUse" cy="415.2" cx="230.35" r="8.525">
					<stop stop-color="#32302C" offset="0"/>
					<stop stop-color="#3C3B37" stop-opacity="0" offset="1"/>
				</radialGradient>
				<path fill="url(#SVGID_59_)" d="m230 407.9c0.1 0 0.2 0.1 0.2 0.1 0.1 0.4 0.3 1.1 0.4 2.1 0.2 1.7 0.3 3.8 0.3 6.2s-0.1 4.5-0.3 6.2c-0.1 1-0.3 1.8-0.4 2.2l-0.1 0.1h-0.1c-0.1 0-0.1-0.1-0.1-0.1v-0.1c0.1-0.4 0.3-1.1 0.5-2.1 0.2-1.7 0.3-3.7 0.3-6.2-0.1-2.4-0.2-4.4-0.3-6.1-0.2-1-0.3-1.7-0.4-2.1-0.1-0.1-0.1-0.1 0-0.1-0.1-0.1-0.1-0.1 0-0.1z"/>
				<radialGradient id="SVGID_60_" gradientUnits="userSpaceOnUse" cy="415.2" cx="228.5" r="8.525">
					<stop stop-color="#32302C" offset="0"/>
					<stop stop-color="#3C3B37" stop-opacity="0" offset="1"/>
				</radialGradient>
				<path fill="url(#SVGID_60_)" d="m228.1 407.9c0.1 0 0.2 0.1 0.2 0.1 0.1 0.4 0.3 1.1 0.4 2.1 0.2 1.7 0.3 3.8 0.3 6.2s-0.1 4.5-0.3 6.2c-0.1 1-0.3 1.8-0.5 2.2l-0.1 0.1h-0.1c-0.1 0-0.1-0.1-0.1-0.1v-0.1c0.1-0.4 0.3-1.1 0.5-2.1 0.2-1.7 0.3-3.7 0.4-6.2-0.1-2.4-0.2-4.4-0.4-6.1-0.2-1-0.3-1.7-0.4-2.1-0.1-0.1-0.1-0.1 0-0.1 0-0.1 0.1-0.1 0.1-0.1z"/>
				<radialGradient id="SVGID_61_" gradientUnits="userSpaceOnUse" cy="415.2" cx="232.2" r="8.525">
					<stop stop-color="#32302C" offset="0"/>
					<stop stop-color="#3C3B37" stop-opacity="0" offset="1"/>
				</radialGradient>
				<path fill="url(#SVGID_61_)" d="m231.7 408c0-0.1 0.1-0.1 0 0 0.1-0.1 0.1-0.1 0.1 0 0.1 0 0.1 0.1 0.1 0.1 0.1 0.4 0.2 1.1 0.3 2.1 0.2 1.7 0.4 3.8 0.4 6.2s-0.1 4.5-0.4 6.2c-0.1 1-0.2 1.8-0.3 2.2-0.1 0.1-0.1 0.1-0.2 0.1h-0.1c-0.1 0-0.1-0.1-0.1-0.1v-0.1c0.1-0.4 0.3-1.1 0.4-2.1 0.1-1.7 0.2-3.7 0.3-6.2 0-2.4-0.1-4.4-0.3-6.1-0.2-1-0.3-1.7-0.3-2.1 0-0.2 0-0.2 0.1-0.2z"/>
			</g>
				<radialGradient id="SVGID_62_" gradientUnits="userSpaceOnUse" cy="413.2" cx="233.9" gradientTransform="matrix(1 0 0 .6741 0 134.65)" r="12.275">
				<stop stop-color="#fff" offset="0"/>
				<stop stop-color="#F8F8F8" stop-opacity="0" offset="1"/>
			</radialGradient>
			<path fill="url(#SVGID_62_)" clip-rule="evenodd" d="m232 408.1c-0.1-0.1-0.1-0.1 0-0.1h0.1 0.1c0.1 0 0.1 0.1 0.1 0.1 0.1 0.4 0.3 1.1 0.4 2.1 0.2 1.7 0.3 3.8 0.3 6.2s-0.1 4.5-0.3 6.2c-0.1 1-0.3 1.8-0.4 2.2-0.1 0.1-0.1 0.1-0.2 0.1h-0.1c-0.1 0-0.1-0.1-0.1-0.1v-0.1c0.1-0.4 0.3-1.1 0.4-2.1 0.2-1.7 0.3-3.7 0.4-6.2-0.1-2.4-0.2-4.4-0.4-6.1-0.2-1.1-0.3-1.8-0.3-2.2zm-1.9 0c-0.1-0.1-0.1-0.1 0-0.1h0.1c0.1 0 0.1 0.1 0.1 0.1 0.1 0.4 0.3 1.1 0.4 2.1 0.2 1.7 0.3 3.8 0.3 6.2s-0.1 4.5-0.3 6.2c-0.1 1-0.2 1.8-0.4 2.2l-0.1 0.1h-0.1c-0.1 0-0.1-0.1-0.1-0.1v-0.1c0.1-0.4 0.3-1.1 0.5-2.1 0.1-1.7 0.2-3.7 0.3-6.2-0.1-2.4-0.2-4.4-0.3-6.1-0.2-1.1-0.3-1.8-0.4-2.2zm-1.7-0.2c0.1 0 0.2 0.1 0.2 0.1 0.1 0.4 0.3 1.1 0.4 2.1 0.2 1.7 0.3 3.8 0.3 6.2s-0.1 4.5-0.3 6.2c-0.1 1-0.3 1.8-0.5 2.2l-0.1 0.1h-0.1c-0.1 0-0.1-0.1-0.1-0.1v-0.1c0.1-0.4 0.3-1.1 0.5-2.1 0.2-1.7 0.3-3.7 0.4-6.2-0.1-2.4-0.2-4.4-0.4-6.1-0.2-1-0.3-1.7-0.4-2.1-0.1-0.1-0.1-0.1 0-0.1 0-0.1 0-0.1 0.1-0.1zm7.2 0.1h0.1c0.1 0 0.1 0.1 0.1 0.1 0.1 0.4 0.3 1.1 0.4 2.1 0.2 1.7 0.4 3.8 0.4 6.2s-0.1 4.5-0.4 6.2c-0.1 1-0.2 1.8-0.4 2.2l-0.1 0.1h-0.1c-0.1 0-0.1-0.1-0.1-0.1v-0.1c0.1-0.4 0.3-1.1 0.5-2.1 0.2-1.7 0.3-3.7 0.3-6.2 0-2.4-0.1-4.4-0.3-6.1-0.2-1-0.3-1.7-0.4-2.1-0.1-0.2-0.1-0.2 0-0.2zm1.9-0.1s0.1 0 0 0c0.1 0 0.2 0.1 0.2 0.1 0.1 0.4 0.3 1.1 0.4 2.1 0.2 1.7 0.4 3.8 0.4 6.2s-0.1 4.5-0.4 6.2c-0.1 1-0.2 1.8-0.4 2.2-0.1 0.1-0.1 0.1-0.2 0.1h-0.1v-0.1-0.1c0.1-0.4 0.3-1.1 0.4-2.1 0.2-1.7 0.3-3.7 0.3-6.2 0-2.4-0.1-4.4-0.3-6.1-0.2-1-0.3-1.7-0.4-2.1v-0.1l0.1-0.1zm-3.7 0.2c-0.1-0.1-0.1-0.1 0-0.1h0.1c0.1 0 0.1 0.1 0.1 0.1 0.1 0.4 0.3 1.1 0.4 2.1 0.2 1.7 0.4 3.8 0.4 6.2s-0.1 4.5-0.4 6.2c-0.1 1-0.2 1.8-0.4 2.2l-0.1 0.1h-0.1c-0.1 0-0.1-0.1-0.1-0.1v-0.1c0.1-0.4 0.2-1.1 0.4-2.1 0.2-1.7 0.3-3.7 0.3-6.2 0-2.4-0.1-4.4-0.3-6.1-0.2-1.1-0.3-1.8-0.3-2.2z" fill-rule="evenodd"/>
			<linearGradient id="SVGID_63_" y2="409.84" gradientUnits="userSpaceOnUse" x2="222.48" y1="416.16" x1="217.2">
				<stop stop-color="#ddd" stop-opacity="0" offset="0"/>
				<stop stop-color="#fff" offset=".3373"/>
				<stop stop-color="#ddd" stop-opacity="0" offset="1"/>
			</linearGradient>
			<path fill="url(#SVGID_63_)" clip-rule="evenodd" d="m219.9 416.3c-0.9 0-1.7-0.3-2.4-1-0.7-0.6-1-1.4-1-2.3s0.3-1.7 1-2.4c0.7-0.6 1.5-0.9 2.4-0.9s1.6 0.3 2.3 0.9c0.7 0.7 1.1 1.5 1.1 2.4s-0.4 1.7-1.1 2.3c-0.7 0.7-1.4 1-2.3 1z" fill-rule="evenodd"/>
			<radialGradient id="SVGID_64_" gradientUnits="userSpaceOnUse" cy="413.05" cx="219.7" r="2.3871">
				<stop stop-color="#010101" offset="0"/>
				<stop stop-color="#010101" offset=".9294"/>
				<stop stop-color="#ddd" offset="1"/>
			</radialGradient>
			<path fill="url(#SVGID_64_)" clip-rule="evenodd" d="m221.6 411.3c0.5 0.5 0.8 1.1 0.8 1.7s-0.3 1.2-0.8 1.7c-0.4 0.5-1 0.8-1.6 0.8s-1.2-0.3-1.8-0.8c-0.4-0.5-0.6-1-0.6-1.7 0-0.6 0.2-1.2 0.6-1.7 0.5-0.5 1.1-0.7 1.8-0.7 0.6 0.1 1.2 0.3 1.6 0.7z" fill-rule="evenodd"/>
			<radialGradient id="SVGID_65_" gradientUnits="userSpaceOnUse" cy="411.8" cx="217.35" r="2.4375">
				<stop stop-color="#FEFEFE" offset="0"/>
				<stop stop-color="#FEFEFE" offset=".2078"/>
				<stop stop-color="#fff" stop-opacity=".3137" offset=".4902"/>
				<stop stop-color="#fff" stop-opacity=".082353" offset=".6784"/>
				<stop stop-color="#FCFCFC" stop-opacity="0" offset=".8392"/>
				<stop stop-color="#FBFBFB" stop-opacity="0" offset="1"/>
			</radialGradient>
			<path fill="url(#SVGID_65_)" clip-rule="evenodd" d="m217.4 409.3c0.6 0 1.2 0.3 1.7 0.8 0.5 0.4 0.7 1 0.7 1.8 0 0.7-0.2 1.2-0.7 1.7s-1.1 0.7-1.7 0.7c-0.7 0-1.3-0.2-1.8-0.7s-0.8-1-0.8-1.7 0.3-1.3 0.8-1.8c0.4-0.6 1-0.8 1.8-0.8z" fill-rule="evenodd"/>
				<radialGradient id="SVGID_66_" gradientUnits="userSpaceOnUse" cy="412.2" cx="233.8" gradientTransform="matrix(1 0 0 .2453 0 311.09)" r="5.9625">
				<stop stop-color="#FEFEFE" offset="0"/>
				<stop stop-color="#FEFEFE" offset=".2078"/>
				<stop stop-color="#fff" stop-opacity=".3137" offset=".4902"/>
				<stop stop-color="#fff" stop-opacity=".082353" offset=".6784"/>
				<stop stop-color="#FCFCFC" stop-opacity="0" offset=".8392"/>
				<stop stop-color="#FBFBFB" stop-opacity="0" offset="1"/>
			</radialGradient>
			<path fill="url(#SVGID_66_)" clip-rule="evenodd" d="m239.8 412.2c0 0.4-0.6 0.8-1.8 1s-2.6 0.5-4.2 0.5c-1.7 0-3.1-0.2-4.3-0.5-1.1-0.3-1.7-0.7-1.7-1 0-0.4 0.6-0.8 1.7-1 1.2-0.3 2.6-0.5 4.3-0.5 1.6 0 3 0.1 4.2 0.5 1.2 0.3 1.8 0.6 1.8 1z" fill-rule="evenodd"/>
			<g clip-rule="evenodd" fill-rule="evenodd">
				<linearGradient id="SVGID_67_" y2="407.5" gradientUnits="userSpaceOnUse" x2="231.01" y1="425.22" x1="230.92">
					<stop stop-color="#2B2422" offset="0"/>
					<stop stop-color="#665950" offset=".1765"/>
					<stop stop-color="#5D594A" offset=".3333"/>
					<stop stop-color="#D2D1CE" offset=".7529"/>
					<stop stop-color="#7C7969" offset="1"/>
				</linearGradient>
				<path fill="url(#SVGID_67_)" d="m230 420.6l2-2.1-0.8 1.3c-0.4 0.2-0.8 0.5-1.2 0.8z"/>
				<linearGradient id="SVGID_68_" y2="416.15" gradientUnits="userSpaceOnUse" x2="214.54" y1="416.15" x1="185.49">
					<stop stop-color="#2B2422" offset="0"/>
					<stop stop-color="#3C3631" stop-opacity="0" offset="1"/>
				</linearGradient>
				<path fill="url(#SVGID_68_)" d="m213 407.7h1v0.3c-0.5 0-1 0-1.5 0.1l0.3-0.3c-2.2 1.2-3.1 1.9-2.8 2.1l0.1 0.1c4.4-0.1 5.3 0 2.9 0.3 2.8 0.6 2.3 1.2-1.5 1.9-6.7-0.5-6.6 0.8 0.3 4.1 6.2 0.6 10.7 2.8 13.5 6.4-1.9 0.4-4 0.5-6.1 0.3-0.5 0.3-1.1 0.6-1.7 0.8l7.6 0.1 1.1 0.5c0 0.1 0.1 0.2 0.1 0.3l0.2-0.2 1.3 0.5v0.1h-29v-17.3l14.6-0.3c-0.1 0-0.3 0-0.4 0.2z"/>
			</g>
		<linearGradient id="SVGID_69_" y2="433.76" gradientUnits="userSpaceOnUse" x2="209.75" y1="447.74" x1="209.67">
			<stop stop-color="#2B2422" offset="0"/>
			<stop stop-color="#665950" offset=".1765"/>
			<stop stop-color="#5D594A" offset=".3333"/>
			<stop stop-color="#D2D1CE" offset=".7529"/>
			<stop stop-color="#7C7969" offset="1"/>
		</linearGradient>
		<path fill="url(#SVGID_69_)" clip-rule="evenodd" d="m225.4 435.8c0.2 1.3 0.3 3 0.3 4.9s-0.1 3.5-0.3 4.8c-0.1 1.2-0.3 1.8-0.5 2h-31v-13.6h31c0.1 0.2 0.3 0.8 0.5 1.9z" fill-rule="evenodd"/>
		<linearGradient id="SVGID_70_" y2="455.81" gradientUnits="userSpaceOnUse" x2="208.52" y1="469.79" x1="208.44">
			<stop stop-color="#2B2422" offset="0"/>
			<stop stop-color="#665950" offset=".1765"/>
			<stop stop-color="#5D594A" offset=".3333"/>
			<stop stop-color="#D2D1CE" offset=".7529"/>
			<stop stop-color="#7C7969" offset="1"/>
		</linearGradient>
		<path fill="url(#SVGID_70_)" clip-rule="evenodd" d="m192.6 469.5v-13.5h31c0.2 0.2 0.4 0.8 0.5 1.9 0.1 1.4 0.2 3 0.2 4.9s-0.1 3.5-0.2 4.8c-0.1 1.1-0.3 1.8-0.5 2h-31z" fill-rule="evenodd"/>
			<g clip-rule="evenodd" fill-rule="evenodd">
				<linearGradient id="SVGID_71_" y2="464.86" gradientUnits="userSpaceOnUse" x2="192.77" y1="460.14" x1="192.77">
					<stop stop-color="#443641" offset="0"/>
					<stop stop-color="#ACA8A8" offset=".2235"/>
					<stop stop-color="#BBB8B7" offset=".3294"/>
					<stop stop-color="#564444" offset=".5412"/>
					<stop stop-color="#5D4E4F" offset=".8"/>
					<stop offset="1"/>
				</linearGradient>
				<path fill="url(#SVGID_71_)" d="m193.6 460v4.7h-0.7c-0.3 0-0.5-0.3-0.8-0.8-0.1-0.4-0.2-1-0.2-1.7s0.1-1.2 0.2-1.7c0.1-0.2 0.2-0.3 0.3-0.4s0.3-0.2 0.4-0.2h0.8z"/>
				<linearGradient id="SVGID_72_" y2="464.86" gradientUnits="userSpaceOnUse" x2="201.05" y1="460.14" x1="201.05">
					<stop stop-color="#443641" offset="0"/>
					<stop stop-color="#ACA8A8" offset=".2235"/>
					<stop stop-color="#BBB8B7" offset=".3294"/>
					<stop stop-color="#564444" offset=".5412"/>
					<stop stop-color="#5D4E4F" offset=".8"/>
					<stop offset="1"/>
				</linearGradient>
				<rect height="4.7" width="14.9" y="460" x="193.6" fill="url(#SVGID_72_)"/>
				<linearGradient id="SVGID_73_" y2="450.5" gradientUnits="userSpaceOnUse" x2="210.54" y1="463.7" x1="210.69">
					<stop stop-color="#443641" offset="0"/>
					<stop stop-color="#ACA8A8" offset=".2235"/>
					<stop stop-color="#BBB8B7" offset=".3294"/>
					<stop stop-color="#564444" offset=".5412"/>
					<stop stop-color="#5D4E4F" offset=".8"/>
					<stop offset="1"/>
				</linearGradient>
				<path fill="url(#SVGID_73_)" d="m210.7 464.7c-0.3 0-0.5-0.3-0.7-0.8-0.2-0.4-0.3-1-0.3-1.7s0.1-1.2 0.3-1.7c0.1-0.2 0.2-0.3 0.3-0.4s0.3-0.1 0.4-0.2h0.1c0.1 0 0.3 0 0.4 0.2 0.1 0.1 0.1 0.3 0.2 0.4 0.2 0.5 0.3 1 0.3 1.7s-0.1 1.3-0.3 1.7c-0.2 0.6-0.4 0.8-0.7 0.8z"/>
				<linearGradient id="SVGID_74_" y2="464.86" gradientUnits="userSpaceOnUse" x2="209.59" y1="460.14" x1="209.59">
					<stop stop-color="#443641" offset="0"/>
					<stop stop-color="#ACA8A8" offset=".2235"/>
					<stop stop-color="#BBB8B7" offset=".3294"/>
					<stop stop-color="#564444" offset=".5412"/>
					<stop stop-color="#5D4E4F" offset=".8"/>
					<stop offset="1"/>
				</linearGradient>
				<path fill="url(#SVGID_74_)" d="m208.5 464.7v-4.7h2.2c-0.2 0-0.3 0.1-0.4 0.2s-0.2 0.3-0.3 0.4c-0.2 0.5-0.3 1-0.3 1.7s0.1 1.3 0.3 1.7c0.2 0.5 0.4 0.7 0.7 0.8h-2.2z"/>
			</g>
			<g clip-rule="evenodd" fill-rule="evenodd">
				<linearGradient id="SVGID_75_" y2="471.47" gradientUnits="userSpaceOnUse" x2="222.14" y1="457.34" x1="219.62">
					<stop stop-color="#B7B7B9" offset="0"/>
					<stop stop-color="#8D8F94" offset="1"/>
				</linearGradient>
				<path fill="url(#SVGID_75_)" d="m220.5 473.9c-1.1 0-2.1-0.4-3-1.1-0.7-0.6-1.3-1.4-1.9-2.3-1.3-2.2-1.9-5-1.9-8.2s0.6-5.9 1.9-8.1c0.6-0.9 1.2-1.7 1.9-2.2 0.9-0.7 1.9-1.1 3-1.2h0.1c1.8 0 3.4 1.2 4.8 3.4s2.1 5 2.1 8.1c0 3.2-0.7 5.9-2.1 8.2-1.2 2-2.5 3.1-4.1 3.3-0.2 0-0.4 0.1-0.6 0.1h-0.2z"/>
				<linearGradient id="SVGID_76_" y2="450.85" gradientUnits="userSpaceOnUse" x2="213.98" y1="474.35" x1="214.27">
					<stop stop-color="#666685" offset="0"/>
					<stop stop-color="#8A8C98" offset=".1922"/>
					<stop stop-color="#636382" offset=".349"/>
					<stop stop-color="#D2D6E0" offset=".4471"/>
					<stop stop-color="#FEFFFF" offset=".5569"/>
					<stop stop-color="#FDFEFF" offset=".6471"/>
					<stop stop-color="#B4B6B5" offset=".7216"/>
					<stop stop-color="#A7A7A7" offset=".8549"/>
					<stop stop-color="#8D8F94" offset="1"/>
				</linearGradient>
				<path fill="url(#SVGID_76_)" d="m220.5 473.9h-6c-2 0-3.6-1.1-4.9-3.4-1.3-2.2-1.9-5-1.9-8.2s0.6-5.9 1.9-8.1 2.9-3.4 4.9-3.4h0.3 5.8c-1.1 0-2.1 0.4-3 1.2-0.7 0.5-1.3 1.3-1.9 2.2-1.3 2.2-1.9 5-1.9 8.1 0 3.2 0.6 5.9 1.9 8.2 0.6 0.9 1.2 1.7 1.9 2.3 0.8 0.7 1.8 1.1 2.9 1.1z"/>
			</g>
			<path fill="none" clip-rule="evenodd" d="m220.4 450.8c-1.1 0-2.1 0.4-3 1.2-0.7 0.5-1.3 1.3-1.9 2.2-1.3 2.2-1.9 5-1.9 8.1 0 3.2 0.6 5.9 1.9 8.2 0.5 0.9 1.2 1.7 1.9 2.3 0.9 0.7 1.9 1.1 3 1.1" fill-rule="evenodd"/>
			<g clip-rule="evenodd" fill-rule="evenodd">
				<linearGradient id="SVGID_77_" y2="450.55" gradientUnits="userSpaceOnUse" x2="225.32" y1="463.75" x1="225.47">
					<stop stop-color="#443641" offset="0"/>
					<stop stop-color="#ACA8A8" offset=".2235"/>
					<stop stop-color="#BBB8B7" offset=".3294"/>
					<stop stop-color="#564444" offset=".5412"/>
					<stop stop-color="#5D4E4F" offset=".8"/>
					<stop offset="1"/>
				</linearGradient>
				<path fill="url(#SVGID_77_)" d="m225.5 464.8c-0.3 0-0.5-0.3-0.8-0.8-0.2-0.4-0.3-0.9-0.3-1.7 0-0.6 0.1-1.2 0.3-1.7 0.1-0.2 0.2-0.3 0.3-0.4s0.3-0.2 0.4-0.2h0.1c0.1 0 0.3 0.1 0.4 0.2s0.1 0.2 0.3 0.4c0.2 0.5 0.3 1.1 0.3 1.7 0 0.7-0.1 1.3-0.3 1.7-0.2 0.5-0.4 0.8-0.7 0.8z"/>
				<linearGradient id="SVGID_78_" y2="464.91" gradientUnits="userSpaceOnUse" x2="222.84" y1="460.19" x1="222.84">
					<stop stop-color="#443641" offset="0"/>
					<stop stop-color="#ACA8A8" offset=".2235"/>
					<stop stop-color="#BBB8B7" offset=".3294"/>
					<stop stop-color="#564444" offset=".5412"/>
					<stop stop-color="#5D4E4F" offset=".8"/>
					<stop offset="1"/>
				</linearGradient>
				<path fill="url(#SVGID_78_)" d="m225.5 464.8h-4.3c-0.3 0-0.5-0.3-0.7-0.8-0.2-0.4-0.3-0.9-0.3-1.7 0-0.6 0.1-1.2 0.3-1.7 0.1-0.2 0.2-0.3 0.3-0.4s0.3-0.2 0.4-0.2h4.3c-0.2 0-0.3 0.1-0.4 0.2s-0.3 0.2-0.3 0.4c-0.2 0.5-0.3 1.1-0.3 1.7 0 0.7 0.1 1.3 0.3 1.7 0.1 0.5 0.4 0.7 0.7 0.8z"/>
			</g>
				<radialGradient id="SVGID_79_" gradientUnits="userSpaceOnUse" cy="455.9" cx="214.7" gradientTransform="matrix(.9325 .3613 -1.0296 2.6576 483.9 -833.24)" r="1.4368">
				<stop stop-color="#FEFEFE" offset="0"/>
				<stop stop-color="#FEFEFE" offset=".2078"/>
				<stop stop-color="#fff" stop-opacity=".3137" offset=".4902"/>
				<stop stop-color="#fff" stop-opacity=".082353" offset=".6784"/>
				<stop stop-color="#FCFCFC" stop-opacity="0" offset=".8392"/>
				<stop stop-color="#FBFBFB" stop-opacity="0" offset="1"/>
			</radialGradient>
			<path fill="url(#SVGID_79_)" clip-rule="evenodd" d="m216.7 453.6c0 0.8-0.2 1.7-0.6 2.8s-0.9 1.9-1.5 2.5c-0.5 0.7-1 1-1.4 0.8-0.3-0.2-0.5-0.7-0.5-1.5s0.2-1.7 0.6-2.8 0.9-1.9 1.5-2.6c0.5-0.7 1-1 1.4-0.8s0.5 0.7 0.5 1.6z" fill-rule="evenodd"/>
				<radialGradient id="SVGID_80_" gradientUnits="userSpaceOnUse" cy="462.1" cx="224.4" gradientTransform="matrix(.9968 .079570 -.2288 2.8667 106.45 -880.44)" r=".8024">
				<stop stop-color="#FEFEFE" offset="0"/>
				<stop stop-color="#FEFEFE" offset=".2078"/>
				<stop stop-color="#fff" stop-opacity=".3137" offset=".4902"/>
				<stop stop-color="#fff" stop-opacity=".082353" offset=".6784"/>
				<stop stop-color="#FCFCFC" stop-opacity="0" offset=".8392"/>
				<stop stop-color="#FBFBFB" stop-opacity="0" offset="1"/>
			</radialGradient>
			<path fill="url(#SVGID_80_)" clip-rule="evenodd" d="m224.6 459.8c0.2 0 0.4 0.3 0.5 0.8 0.1 0.4 0.2 1 0.1 1.7-0.1 0.6-0.2 1.2-0.4 1.6s-0.4 0.6-0.6 0.6-0.3-0.2-0.5-0.7-0.2-1-0.1-1.7c0-0.7 0.1-1.2 0.4-1.7 0.2-0.4 0.4-0.6 0.6-0.6z" fill-rule="evenodd"/>
						<linearGradient id="SVGID_81_" y2="436.41" gradientUnits="userSpaceOnUse" x2="212.23" y1="445.19" x1="212.23">
							<stop stop-color="#2B2422" offset="0"/>
							<stop stop-color="#665950" offset=".1765"/>
							<stop stop-color="#5D594A" offset=".3333"/>
							<stop stop-color="#D2D1CE" offset=".7529"/>
							<stop stop-color="#7C7969" offset="1"/>
						</linearGradient>
						<path fill="url(#SVGID_81_)" clip-rule="evenodd" d="m207.5 435.3c1.5 0.4 3.3 0.4 5.5 0 0.4-0.1 0.8-0.2 1.1-0.3h0.3c0.3-0.2 0.6-0.3 0.9-0.4h0.3c0.7-0.3 1.5-0.4 2.4-0.4h0.4c1.4 0 2.6 0.3 3.7 0.9 0.5 0.2 1 0.6 1.5 1 1.5 1.3 2.3 2.9 2.3 4.6 0 1.8-0.8 3.3-2.3 4.6-1.4 1.3-3.2 1.9-5.2 1.9h-0.4c-1.3 0-2.4-0.3-3.5-0.8-0.2-0.1-0.4-0.2-0.6-0.2-0.3-0.1-0.5-0.2-0.8-0.2-2.2-0.4-4-0.4-5.5 0-0.2 0-0.3 0.1-0.5 0.1-0.3 0.1-0.5 0.2-0.8 0.3-1.4 0.5-2.6 0.8-3.5 0.8h-4.1v-13h4.1c0.9 0 2.1 0.3 3.5 0.7 0.1 0.1 0.3 0.1 0.4 0.2 0.1 0 0.2 0.1 0.3 0.1 0.2-0.1 0.4 0 0.5 0.1z" fill-rule="evenodd"/>
				<g clip-rule="evenodd" fill-rule="evenodd">
					<linearGradient id="SVGID_82_" y2="436.41" gradientUnits="userSpaceOnUse" x2="202.52" y1="445.19" x1="202.52">
						<stop stop-color="#2B2422" offset="0"/>
						<stop stop-color="#665950" offset=".1765"/>
						<stop stop-color="#5D594A" offset=".3333"/>
						<stop stop-color="#D2D1CE" offset=".7529"/>
						<stop stop-color="#7C7969" offset="1"/>
					</linearGradient>
					<path fill="url(#SVGID_82_)" d="m206.4 439.5v0.5h-7.8v-5.9h4.1c0.2 0 0.5 0 0.8 0.1 0.5 0.1 1 0.2 1.6 0.4-3-0.8-2.6 0.8 1.3 4.9z"/>
						<radialGradient id="SVGID_83_" gradientUnits="userSpaceOnUse" cy="434.35" cx="211" gradientTransform="matrix(1 0 0 .4329 0 246.32)" r="12.388">
						<stop stop-color="#2B2422" offset="0"/>
						<stop stop-color="#393331" stop-opacity="0" offset=".6118"/>
					</radialGradient>
					<path fill="url(#SVGID_83_)" d="m203.5 434.2c0.5-0.2 1.6 0 3.3 0.8h0.2c0.2 0.1 0.3 0.1 0.5 0.2 1.5 0.4 3.3 0.4 5.5 0 0.4-0.1 0.8-0.2 1.1-0.3 0.1 0 0.6-0.3 1.7-0.7 0.6-0.3 1.1-0.3 1.5-0.1 0.2 0 0.4-0.1 0.6-0.1h0.3v0.1h2.2c0.7 0.7 1 1.3 0.8 1.8s-1.3 1.1-3.1 1.7c-1.9 0.5-2.8 0.8-2.8 0.8h-0.3v0.6c-0.2 0.3-0.3 0.6-0.5 0.9h-7.8c-0.2-0.2-0.3-0.4-0.5-0.5-3.9-4-4.3-5.7-1.3-4.9-0.3-0.1-0.9-0.2-1.4-0.3z"/>
				</g>
					<radialGradient id="SVGID_84_" gradientUnits="userSpaceOnUse" cy="441.95" cx="206.45" gradientTransform="matrix(1 0 0 .8048 0 86.27)" r="18.762">
					<stop stop-color="#696366" stop-opacity="0" offset=".7529"/>
					<stop stop-color="#41444A" offset="1"/>
				</radialGradient>
				<path fill="url(#SVGID_84_)" clip-rule="evenodd" d="m215.3 434.5h0.3c0.7-0.3 1.5-0.4 2.4-0.4h0.4c2 0 3.7 0.7 5.1 1.9 1.5 1.3 2.3 2.9 2.3 4.6 0 1.8-0.8 3.3-2.3 4.6-1.4 1.3-3.2 1.9-5.2 1.9h-0.4c-1.3 0-2.4-0.3-3.5-0.8-0.2-0.1-0.4-0.2-0.6-0.2-2.8-0.7-5-0.7-6.8-0.1-1.7 0.6-3.1 1-4.3 1.1h-4.1v-13h4.1c1.1 0 2.5 0.4 4.3 1 1.8 0.7 4.3 0.7 7.4-0.1 0.3-0.3 0.6-0.4 0.9-0.5z" fill-rule="evenodd"/>
				<radialGradient id="SVGID_85_" gradientUnits="userSpaceOnUse" cy="437.85" cx="211.4" r="9.2625">
					<stop stop-color="#fff" offset="0"/>
					<stop stop-color="#FBFBFB" stop-opacity="0" offset="1"/>
				</radialGradient>
				<path fill="url(#SVGID_85_)" clip-rule="evenodd" d="m203.2 438v-0.3c0-0.1 0-0.1 0.1-0.1 1.6-0.7 3.4-0.8 5.3-0.3 1.8 0.4 3.1 0.4 4.1 0.1 2.8-0.8 5.1-0.8 6.8 0.2 0.1 0 0.1 0.1 0.2 0.2v0.3h-0.2c-0.1 0.1-0.2 0.1-0.2 0-1.6-0.8-3.7-0.8-6.4 0-1 0.3-2.5 0.2-4.4-0.2-1.7-0.5-3.4-0.4-4.9 0.2-0.1-0.1-0.2-0.1-0.4-0.1z" fill-rule="evenodd"/>
					<radialGradient id="SVGID_86_" gradientUnits="userSpaceOnUse" cy="437.25" cx="219.25" gradientTransform="matrix(1 0 0 .6657 0 146.18)" r="4.225">
					<stop stop-color="#FEFEFE" offset="0"/>
					<stop stop-color="#FEFEFE" offset=".2078"/>
					<stop stop-color="#fff" stop-opacity=".3137" offset=".4902"/>
					<stop stop-color="#fff" stop-opacity=".082353" offset=".6784"/>
					<stop stop-color="#FCFCFC" stop-opacity="0" offset=".8392"/>
					<stop stop-color="#FBFBFB" stop-opacity="0" offset="1"/>
				</radialGradient>
				<path fill="url(#SVGID_86_)" clip-rule="evenodd" d="m216.2 439.2c-0.8-0.5-1.3-1.2-1.3-2s0.4-1.4 1.3-2c0.8-0.6 1.8-0.8 3-0.8 1.1 0 2.1 0.3 3 0.8 0.8 0.6 1.2 1.2 1.2 2s-0.4 1.4-1.2 2c-0.9 0.6-1.9 0.8-3 0.8-1.2 0-2.2-0.2-3-0.8z" fill-rule="evenodd"/>
					<radialGradient id="SVGID_87_" gradientUnits="userSpaceOnUse" cy="437.25" cx="202.17" gradientTransform="matrix(1 0 0 .136 0 377.77)" r="13.851">
					<stop stop-color="#FEFEFE" offset="0"/>
					<stop stop-color="#FEFEFE" offset=".2078"/>
					<stop stop-color="#fff" stop-opacity=".3137" offset=".4902"/>
					<stop stop-color="#fff" stop-opacity=".082353" offset=".6784"/>
					<stop stop-color="#FCFCFC" stop-opacity="0" offset=".8392"/>
					<stop stop-color="#FBFBFB" stop-opacity="0" offset="1"/>
				</radialGradient>
				<path fill="url(#SVGID_87_)" clip-rule="evenodd" d="m216.1 437.3c0 0.5-1.4 0.9-4.1 1.3s-6 0.6-9.8 0.6-7.1-0.2-9.8-0.6-4.1-0.8-4.1-1.3c0-0.6 1.4-1 4.1-1.3 2.7-0.4 6-0.6 9.8-0.6s7.1 0.2 9.8 0.6c2.7 0.2 4.1 0.7 4.1 1.3z" fill-rule="evenodd"/>
					<radialGradient id="SVGID_88_" gradientUnits="userSpaceOnUse" cy="444.45" cx="218.75" gradientTransform="matrix(1 0 0 .6342 0 162.57)" r="3.725">
					<stop stop-color="#FEFEFE" offset="0"/>
					<stop stop-color="#FEFEFE" offset=".2078"/>
					<stop stop-color="#fff" stop-opacity=".3137" offset=".4902"/>
					<stop stop-color="#fff" stop-opacity=".082353" offset=".6784"/>
					<stop stop-color="#FCFCFC" stop-opacity="0" offset=".8392"/>
					<stop stop-color="#FBFBFB" stop-opacity="0" offset="1"/>
				</radialGradient>
				<path fill="url(#SVGID_88_)" clip-rule="evenodd" d="m222.5 444.5c0 0.7-0.4 1.2-1.1 1.6-0.7 0.5-1.6 0.8-2.6 0.8s-1.9-0.3-2.6-0.8c-0.8-0.4-1.1-1-1.1-1.6s0.4-1.2 1.1-1.6c0.7-0.5 1.6-0.8 2.6-0.8s1.9 0.3 2.6 0.8c0.7 0.4 1.1 0.9 1.1 1.6z" fill-rule="evenodd"/>
					<radialGradient id="SVGID_89_" gradientUnits="userSpaceOnUse" cy="434.8" cx="201.6" gradientTransform="matrix(1 0 0 .1393 0 374.22)" r="4.038">
					<stop stop-color="#FEFEFE" offset="0"/>
					<stop stop-color="#FEFEFE" offset=".2078"/>
					<stop stop-color="#fff" stop-opacity=".3137" offset=".4902"/>
					<stop stop-color="#fff" stop-opacity=".082353" offset=".6784"/>
					<stop stop-color="#FCFCFC" stop-opacity="0" offset=".8392"/>
					<stop stop-color="#FBFBFB" stop-opacity="0" offset="1"/>
				</radialGradient>
				<path fill="url(#SVGID_89_)" clip-rule="evenodd" d="m205.6 434.8c0 0.2-0.4 0.3-1.2 0.4s-1.8 0.2-2.9 0.2-2.1-0.1-2.9-0.2c-0.8-0.1-1.2-0.2-1.2-0.4 0-0.1 0.4-0.2 1.2-0.3s1.8-0.2 2.9-0.2 2 0.1 2.9 0.2c0.9 0.1 1.2 0.2 1.2 0.3z" fill-rule="evenodd"/>
				<g clip-rule="evenodd" fill-rule="evenodd">
					<linearGradient id="SVGID_90_" y2="429.45" gradientUnits="userSpaceOnUse" x2="144.55" y1="475.4" x1="144.55">
						<stop stop-color="#4E535C" offset="0"/>
						<stop stop-color="#131419" offset="1"/>
					</linearGradient>
					<polygon points="143.1 475.4 143.1 429.5 146 429.5 146 471" fill="url(#SVGID_90_)"/>
					<polygon points="143.1 429.5 143.1 475.4 143 475.5 99.4 475.5 99.4 429.5" fill="#201B22"/>
				</g>
				<g clip-rule="evenodd" fill-rule="evenodd">
					<linearGradient id="SVGID_91_" y2="410.88" gradientUnits="userSpaceOnUse" x2="200.52" y1="467.33" x1="200.52">
						<stop stop-color="#4E535C" offset="0"/>
						<stop stop-color="#131419" offset="1"/>
					</linearGradient>
					<polygon points="199.1 467.2 199.1 410.8 201.9 410.8 201.9 462.8" fill="url(#SVGID_91_)"/>
					<polygon points="199.1 410.8 199.1 467.2 199 467.5 144.3 467.5 144.3 410.8" fill="#201B22"/>
				</g>
				<g clip-rule="evenodd" fill-rule="evenodd">
					<path fill="#362C27" d="m168.6 471.8h-2.6v-7.9h2.6v7.9zm25 0v-7.9h3v7.9h-3z"/>
					<linearGradient id="SVGID_92_" y2="463.99" gradientUnits="userSpaceOnUse" x2="181.09" y1="471.71" x1="181.11">
						<stop stop-color="#604A42" offset="0"/>
						<stop stop-color="#C1B4AC" offset=".2118"/>
						<stop stop-color="#D8D1CD" offset=".2824"/>
						<stop stop-color="#ECE9E8" offset=".6275"/>
						<stop stop-color="#CDC7C1" offset=".9176"/>
						<stop stop-color="#D7D8D3" offset="1"/>
					</linearGradient>
					<rect height="7.9" width="25" y="463.9" x="168.6" fill="url(#SVGID_92_)"/>
				</g>
					<g clip-rule="evenodd" fill-rule="evenodd">
						<linearGradient id="SVGID_93_" y2="478.96" gradientUnits="userSpaceOnUse" x2="169.31" y1="371.16" x1="198.22">
							<stop stop-color="#7C6D63" offset="0"/>
							<stop stop-color="#D1BEA9" offset=".2902"/>
							<stop stop-color="#736663" offset=".6824"/>
							<stop stop-color="#B9A7A3" offset="1"/>
						</linearGradient>
						<polygon points="158.3 401 203.2 401 203.2 471.8 194.1 471.8 194.1 457.4 168.1 457.4 168.1 471.8 158.3 471.8" fill="url(#SVGID_93_)"/>
						<polygon points="203.2 401 158.3 401 159 400 202.1 400" fill="#443936"/>
					</g>
						<radialGradient id="SVGID_94_" fx="164.87" gradientUnits="userSpaceOnUse" cy="407.1" cx="164.65" r="27.6">
						<stop stop-color="#C7B385" offset=".023529"/>
						<stop stop-color="#C7B385" stop-opacity=".4314" offset=".6745"/>
						<stop stop-color="#C7B385" stop-opacity="0" offset="1"/>
					</radialGradient>
					<path fill="url(#SVGID_94_)" clip-rule="evenodd" d="m158.5 433.8v-32.8h43c-2.4 20.8-16.7 31.8-43 32.8z" fill-rule="evenodd"/>
					<g clip-rule="evenodd" fill-rule="evenodd">
						<linearGradient id="SVGID_95_" y2="494.33" gradientUnits="userSpaceOnUse" x2="208.1" y1="494.33" x1="153.15">
							<stop stop-color="#373737" offset="0"/>
							<stop stop-color="#737373" offset=".086275"/>
							<stop stop-color="#aaa" offset=".4627"/>
							<stop stop-color="#707070" offset=".6"/>
							<stop stop-color="#7B7B7B" offset="1"/>
							<stop stop-color="#484848" offset="1"/>
						</linearGradient>
						<path fill="url(#SVGID_95_)" d="m208 497.3c-0.3-0.7-0.9-1.2-1.8-1.5-1-0.5-2.3-0.7-4-0.7h-0.1-42.8c-3.3 0-5.3 0.8-5.9 2.4l-0.1-3v-0.2c0.2-2 2.3-3 6.1-3h42.6c3.3 0 5.3 0.7 6 2.2 0.1 0.3 0.1 0.5 0.1 0.8v0.2l-0.1 2.8z"/>
						<linearGradient id="SVGID_96_" y2="496.4" gradientUnits="userSpaceOnUse" x2="213.23" y1="496.4" x1="148.08">
							<stop stop-color="#1B1B20" offset="0"/>
							<stop stop-color="#4A4B56" offset=".2745"/>
							<stop stop-color="#858794" offset=".4431"/>
							<stop stop-color="#5A5A67" offset=".7373"/>
							<stop stop-color="#28282D" offset="1"/>
						</linearGradient>
						<path fill="url(#SVGID_96_)" d="m153.3 497.5c0.6-1.5 2.6-2.3 5.9-2.4h42.8 0.1c1.7 0 3.1 0.2 4 0.7 0.9 0.3 1.5 0.9 1.8 1.5v0.1 0.2c-0.3-0.7-0.9-1.2-1.8-1.6-1-0.4-2.4-0.6-4.2-0.6h-42.7c-3.3 0-5.3 0.8-5.9 2.3h-0.1c0.1-0.1 0.1-0.2 0.1-0.2z"/>
						<linearGradient id="SVGID_97_" y2="538.33" gradientUnits="userSpaceOnUse" x2="180.65" y1="491.38" x1="180.65">
							<stop stop-color="#4E4E5C" offset="0"/>
							<stop stop-color="#303036" offset=".3608"/>
							<stop offset="1"/>
						</linearGradient>
						<path fill="url(#SVGID_97_)" d="m153.4 497.7c0.6-1.5 2.6-2.3 5.9-2.3h42.7c1.8 0 3.2 0.2 4.2 0.6 0.9 0.4 1.5 0.9 1.8 1.6l-0.2 2.8-2.4 35.3c0 2.3-2 3.4-6.1 3.4h-37.3c-4.1 0-6.1-1.1-6.1-3.4l-2.5-38z"/>
					</g>
				<radialGradient id="SVGID_98_" gradientUnits="userSpaceOnUse" cy="496.3" cx="180.65" r="27.55">
					<stop stop-color="#fff" offset="0"/>
					<stop stop-color="#F5F5F5" stop-opacity="0" offset="1"/>
				</radialGradient>
				<path fill="url(#SVGID_98_)" clip-rule="evenodd" d="m207 496.2c0 0.1 0 0.1-0.1 0.1h-0.1-0.1c-1-0.6-2.6-0.9-4.8-0.9h-42.7c-2 0-3.5 0.2-4.5 0.8v0.1c0-0.1-0.1-0.1-0.1-0.2-0.1 0-0.1 0 0 0l0.1-0.1c1-0.6 2.5-0.9 4.6-0.9h42.7c2.2 0 3.9 0.3 4.9 1l0.1 0.1z" fill-rule="evenodd"/>
				<path fill-opacity=".251" clip-rule="evenodd" d="m194.3 517.9c2.7 2.6 2.7 5.1 0 7.6h-38.6v-7.6h38.6z" fill-rule="evenodd"/>
					<linearGradient id="SVGID_99_" y2="523.32" gradientUnits="userSpaceOnUse" x2="166.31" y1="515.67" x1="166.31">
						<stop stop-color="#7A7A7A" offset="0"/>
						<stop stop-color="#8B8B8B" offset=".1255"/>
						<stop stop-color="#fff" offset=".1961"/>
						<stop stop-color="#D8D8D8" offset=".2706"/>
						<stop stop-color="#aaa" offset=".3804"/>
						<stop stop-color="#A8A8A8" offset=".4549"/>
						<stop stop-color="#646464" offset=".698"/>
						<stop offset="1"/>
					</linearGradient>
					<path fill="url(#SVGID_99_)" clip-rule="evenodd" d="m191.8 523.4h-52.4c-0.2 0-0.3-0.4-0.4-1.2-0.1-0.7-0.2-1.6-0.2-2.7s0.1-2 0.2-2.8c0.1-0.6 0.2-1 0.3-1h52.5c2.7 2.6 2.7 5.1 0 7.7z" fill-rule="evenodd"/>
					<g clip-rule="evenodd" fill-rule="evenodd">
						<path fill="#fff" d="m161.9 518.1c-0.2 0.3-0.4 0.7-0.4 1.1s0.1 0.8 0.4 1.1 0.7 0.5 1.1 0.5c0.3 0 0.6-0.1 0.8-0.3-0.3 0.3-0.6 0.5-1 0.5-0.5 0-0.9-0.2-1.2-0.5-0.2-0.3-0.3-0.6-0.3-1.1 0-0.4 0.2-0.8 0.5-1.2 0 0 0-0.1 0.1-0.1z"/>
							<radialGradient id="SVGID_100_" gradientUnits="userSpaceOnUse" cy="519.8" cx="202.27" gradientTransform="matrix(1 0 -.077348 1.011 .4395 -5.7436)" r="2.2625">
							<stop stop-color="#7A7A7A" offset="0"/>
							<stop stop-color="#6F6F6F" offset=".6314"/>
							<stop stop-color="#151515" offset=".7216"/>
							<stop offset="1"/>
						</radialGradient>
						<path fill="url(#SVGID_100_)" d="m163.8 520.5c-0.2 0.2-0.5 0.3-0.8 0.3-0.4 0-0.8-0.2-1.1-0.5s-0.4-0.7-0.4-1.1c0.1-0.4 0.2-0.7 0.4-1.1 0.3-0.2 0.7-0.3 1.1-0.3 0.5 0 0.8 0.2 1 0.5 0.4 0.3 0.5 0.7 0.5 1.2 0 0.3-0.1 0.6-0.4 0.9-0.1 0-0.2 0.1-0.3 0.1z"/>
					</g>
					<g clip-rule="evenodd" fill-rule="evenodd">
							<radialGradient id="SVGID_101_" gradientUnits="userSpaceOnUse" cy="519.8" cx="227.07" gradientTransform="matrix(1 0 -.077348 1.011 .4395 -5.7436)" r="2.2625">
							<stop stop-color="#7A7A7A" offset="0"/>
							<stop stop-color="#6F6F6F" offset=".6314"/>
							<stop stop-color="#151515" offset=".7216"/>
							<stop offset="1"/>
						</radialGradient>
						<path fill="url(#SVGID_101_)" d="m188.7 520.5c-0.3 0.2-0.6 0.3-0.9 0.3-0.5 0-0.8-0.2-1.1-0.5s-0.4-0.7-0.4-1.1 0.2-0.7 0.4-1.1c0.3-0.2 0.7-0.3 1-0.3 0.5 0 0.8 0.2 1 0.5 0.4 0.3 0.6 0.7 0.6 1.2-0.1 0.3-0.2 0.6-0.4 0.9 0 0-0.1 0.1-0.2 0.1z"/>
						<path fill="#fff" d="m186.8 518.1c-0.2 0.3-0.4 0.7-0.4 1.1-0.1 0.4 0 0.8 0.4 1.1 0.3 0.3 0.6 0.5 1.1 0.5 0.3 0 0.6-0.1 0.9-0.3-0.3 0.3-0.7 0.5-1.2 0.5-0.4 0-0.8-0.2-1.1-0.5s-0.4-0.6-0.3-1.1c0-0.4 0.2-0.8 0.5-1.2-0.1 0 0-0.1 0.1-0.1z"/>
					</g>
					<radialGradient id="SVGID_102_" gradientUnits="userSpaceOnUse" cy="515.29" cx="142.93" gradientTransform="matrix(.9999 .015383 .0072390 .1158 28.511 456.17)" r="13.813">
					<stop stop-color="#FEFEFE" offset="0"/>
					<stop stop-color="#FEFEFE" offset=".2078"/>
					<stop stop-color="#fff" stop-opacity=".3137" offset=".4902"/>
					<stop stop-color="#fff" stop-opacity=".082353" offset=".6784"/>
					<stop stop-color="#FCFCFC" stop-opacity="0" offset=".8392"/>
					<stop stop-color="#FBFBFB" stop-opacity="0" offset="1"/>
				</radialGradient>
				<path fill="url(#SVGID_102_)" clip-rule="evenodd" d="m175 516.5c3.8 0 7.1 0.2 9.8 0.6s4.1 0.8 4.1 1.3c0.1 0.4-1.3 0.8-4 1.1-2.7 0.2-5.9 0.3-9.7 0.3-3.9-0.1-7.2-0.3-9.9-0.7-2.7-0.3-4.1-0.7-4.1-1.2s1.3-0.8 4-1.1c2.8-0.4 6-0.5 9.8-0.3z" fill-rule="evenodd"/>
				<radialGradient id="SVGID_103_" fx="171.81" gradientUnits="userSpaceOnUse" cy="442.25" cx="156.35" gradientTransform="matrix(1 0 0 .675 0 143.73)" r="41.5">
				<stop stop-opacity=".2471" offset="0"/>
				<stop stop-color="#040404" stop-opacity=".149" offset=".6471"/>
				<stop stop-color="#0E0E0E" stop-opacity="0" offset=".949"/>
			</radialGradient>
			<path fill="url(#SVGID_103_)" clip-rule="evenodd" d="m197.5 442.3c0 7.7-4 14.3-12.1 19.7-8 5.4-17.7 8.1-29.1 8.1s-21.1-2.7-29.1-8.1-12.1-12-12.1-19.7 4-14.2 12.1-19.7c8-5.4 17.8-8.1 29.1-8.1 11.4 0 21.1 2.7 29.1 8.1 8.1 5.4 12.1 12 12.1 19.7z" fill-rule="evenodd"/>
</g>
</svg>
