<?xml version="1.0" encoding="utf-8"?>
<!-- Generator: Adobe Illustrator 16.0.0, SVG Export Plug-In . SVG Version: 6.00 Build 0)  -->
<!DOCTYPE svg PUBLIC "-//W3C//DTD SVG 1.1//EN" "http://www.w3.org/Graphics/SVG/1.1/DTD/svg11.dtd">
<svg version="1.1" id="Layer_1" xmlns="http://www.w3.org/2000/svg" xmlns:xlink="http://www.w3.org/1999/xlink" x="0px" y="0px"
	 width="91px" height="91px" viewBox="0 0 91 91" enable-background="new 0 0 91 91" xml:space="preserve">
<g>
	<g>
		<linearGradient id="SVGID_1_" gradientUnits="userSpaceOnUse" x1="15.4131" y1="72.4785" x2="75.4381" y2="18.6785">
			<stop  offset="0" style="stop-color:#222325"/>
			<stop  offset="0.4863" style="stop-color:#B8B7BB"/>
			<stop  offset="1" style="stop-color:#0C0C0E"/>
		</linearGradient>
		<path fill-rule="evenodd" clip-rule="evenodd" fill="url(#SVGID_1_)" d="M31.2,7.8c0.4,0.5,0.8,0.8,1.3,1c0.5,0.2,1.1,0.2,1.7,0
			c0.5-0.3,0.8-0.7,1-1.2c0.1-0.4,0.1-0.7,0.1-1.1c1.1-0.3,2.2-0.5,3.4-0.7c0,0.5,0.2,0.9,0.5,1.3c0.4,0.4,0.9,0.6,1.5,0.6
			c0.6,0,1.1-0.2,1.5-0.6c0.4-0.4,0.6-0.9,0.6-1.5c0,0,0-0.1,0-0.2c0.9,0,1.8,0,2.7,0c0.1,0,0.2,0,0.2,0c0,0.5,0.3,1,0.6,1.4
			c0.4,0.4,0.9,0.5,1.5,0.5c0.6,0,1.1-0.2,1.5-0.5c0.3-0.4,0.6-0.8,0.7-1.2c1,0.1,2.1,0.2,3.2,0.4c0,0.1-0.1,0.2-0.1,0.4
			c0,0.6,0.2,1.1,0.7,1.5c0.4,0.4,0.9,0.6,1.5,0.6c0.6,0,1.1-0.2,1.5-0.6c0.2-0.3,0.4-0.6,0.5-0.9c0.9,0.2,1.8,0.5,2.7,0.9
			c-0.1,0.2-0.2,0.5-0.2,0.8c0,0.6,0.2,1.1,0.7,1.6c0.4,0.4,0.9,0.5,1.5,0.5c0.6,0,1.1-0.2,1.5-0.5c0.2-0.2,0.3-0.4,0.4-0.6
			c0.9,0.4,1.7,0.9,2.6,1.4c-0.4,0.5-0.5,1-0.5,1.5c0,0.6,0.2,1,0.5,1.3c0.5,0.4,1,0.6,1.6,0.6c0.6,0,1.1-0.3,1.5-0.8
			c0.1-0.1,0.1-0.1,0.3-0.2c0.6,0.4,1.3,1,1.9,1.6h0c-0.4,0.4-0.6,1-0.5,1.6c0,0.5,0.2,1,0.5,1.4c0.5,0.3,1,0.5,1.6,0.5
			c0.6,0,1.1-0.2,1.5-0.6c0.7,0.8,1.4,1.5,2,2.3c-0.2,0.1-0.3,0.2-0.5,0.3c-0.4,0.5-0.5,1-0.5,1.6c0,0.6,0.2,1,0.5,1.4
			c0.5,0.4,1,0.6,1.6,0.6c0.5,0,1-0.2,1.3-0.5c0.5,0.8,1,1.7,1.5,2.5c-0.2,0.1-0.5,0.2-0.7,0.4c-0.4,0.5-0.5,1-0.5,1.6
			c0,0.6,0.2,1.1,0.6,1.5c0.5,0.3,1,0.5,1.6,0.5c0.3,0,0.6-0.1,1-0.2c0.3,0.9,0.6,1.8,0.9,2.7c-0.5,0.1-0.8,0.3-1.1,0.7
			c-0.3,0.5-0.5,1-0.5,1.5c0.1,0.6,0.4,1.1,0.9,1.5c0.5,0.4,1,0.5,1.6,0.4c0.1,0,0.2,0,0.3,0c0.2,0.8,0.3,1.7,0.5,2.6h0
			c-0.6,0.1-1.1,0.4-1.5,0.9c-0.3,0.4-0.5,1-0.5,1.5c0.1,0.6,0.4,1.1,0.9,1.5c0.4,0.3,0.9,0.5,1.5,0.5c0,0.6,0,1.2,0,1.8
			c0,0.4,0,0.9,0,1.4c-0.2,0-0.3,0-0.5,0c-0.6,0.1-1.1,0.3-1.5,0.8c-0.3,0.5-0.5,1-0.4,1.5c0.1,0.6,0.4,1.1,0.9,1.5
			c0.3,0.3,0.7,0.4,1.2,0.4c-0.2,1-0.3,2-0.5,3.1c-0.3,0-0.5-0.1-0.8-0.1c-0.6,0.1-1,0.4-1.5,0.9c-0.3,0.4-0.5,0.9-0.5,1.5
			c0.1,0.6,0.4,1.1,0.9,1.5c0.2,0.2,0.4,0.3,0.7,0.3c-0.3,0.9-0.6,1.8-1,2.5c-0.5-0.3-1-0.3-1.5-0.2c-0.6,0.1-1,0.4-1.3,0.9
			c-0.3,0.5-0.5,1-0.4,1.6c0.1,0.6,0.4,1,0.9,1.4c0.1,0.1,0.3,0.1,0.4,0.2c-0.5,0.8-1,1.7-1.5,2.5c-0.5-0.4-1-0.5-1.6-0.3
			c-0.5,0.1-1,0.4-1.4,0.9c-0.3,0.5-0.4,1-0.3,1.6c0.1,0.5,0.4,0.9,0.8,1.3c-0.7,0.8-1.5,1.7-2.3,2.5c-0.1-0.1-0.2-0.2-0.3-0.3
			c-0.5-0.3-1.1-0.4-1.7-0.3c-0.5,0.1-1,0.4-1.3,0.8c-0.4,0.5-0.5,1-0.3,1.5c0.1,0.5,0.3,1,0.6,1.3c-0.8,0.7-1.5,1.3-2.3,1.8
			c-0.2-0.1-0.3-0.3-0.5-0.3c-0.5-0.3-1-0.5-1.7-0.4c-0.5,0.1-1,0.4-1.3,0.7c-0.4,0.6-0.5,1.1-0.3,1.6c0,0.3,0.1,0.6,0.3,0.8
			c-0.9,0.5-1.9,1-2.8,1.5c-0.2-0.5-0.6-0.9-1-1.2c-0.5-0.2-1.1-0.3-1.6-0.1c-0.6,0.2-1,0.5-1.3,1c-0.3,0.6-0.4,1.1-0.2,1.6
			c0,0.1,0.1,0.3,0.1,0.4c-0.9,0.3-1.7,0.5-2.6,0.8c0,0,0-0.1,0-0.2c-0.2-0.6-0.5-1-1-1.3c-0.5-0.2-1-0.2-1.5-0.1
			c-0.6,0.1-1,0.5-1.3,1c-0.3,0.5-0.4,1-0.2,1.6c-1.1,0.1-2.2,0.3-3.3,0.4c0-0.2,0-0.3,0-0.5c-0.2-0.6-0.5-1-1-1.3
			c-0.6-0.2-1.1-0.3-1.6-0.2c-0.6,0.2-1,0.5-1.3,1c-0.2,0.4-0.3,0.7-0.3,1.1c-1,0-2,0-3-0.1c0-0.3,0-0.5,0-0.8
			c-0.2-0.5-0.5-0.9-1-1.2c-0.6-0.3-1.1-0.4-1.6-0.2c-0.6,0.2-1,0.5-1.3,1c-0.1,0.2-0.2,0.4-0.2,0.7c-1-0.2-1.9-0.5-2.9-0.7
			c0.1-0.4,0.1-0.8,0-1.3c-0.2-0.6-0.5-1-1-1.1c-0.6-0.3-1.1-0.4-1.7-0.2c-0.5,0.2-0.9,0.6-1.2,1c0,0.1-0.1,0.2-0.1,0.3
			c-0.8-0.3-1.6-0.7-2.5-1v0c0.3-0.6,0.3-1.1,0.2-1.6c-0.2-0.6-0.5-1-1-1.3c-0.5-0.2-1.1-0.3-1.7-0.1c-0.6,0.2-1,0.5-1.1,1
			c-0.9-0.5-1.8-1.1-2.6-1.7c0-0.1,0.1-0.2,0.2-0.3c0.2-0.4,0.3-1,0.1-1.6c-0.2-0.6-0.5-0.9-1-1.1c-0.6-0.3-1.1-0.3-1.7-0.1
			c-0.3,0.1-0.6,0.3-0.8,0.6c-0.8-0.7-1.5-1.3-2.3-2l0-0.1c0.1-0.2,0.2-0.4,0.3-0.5c0.3-0.5,0.3-1,0.2-1.6c-0.2-0.6-0.5-1-1-1.2
			c-0.6-0.3-1.1-0.4-1.7-0.2c-0.2,0.1-0.4,0.3-0.6,0.4c-0.6-0.8-1.3-1.6-1.8-2.5c0.3-0.2,0.6-0.5,0.8-0.9c0.2-0.6,0.2-1.1,0-1.5
			c-0.2-0.6-0.6-1-1.2-1.2c-0.6-0.2-1.1-0.2-1.6,0c0,0-0.1,0-0.1,0c-0.5-0.8-0.9-1.6-1.3-2.4c0.5-0.3,0.8-0.7,1.1-1.3
			c0.2-0.6,0.2-1.1,0-1.5c-0.3-0.6-0.7-1-1.2-1.2c-0.5-0.1-1-0.1-1.4,0c-0.4-1-0.7-2.1-0.9-3.1c0.1,0,0.3-0.1,0.4-0.1
			c0.5-0.2,0.9-0.6,1.1-1.2c0.2-0.5,0.2-1,0-1.5s-0.6-0.9-1.2-1.1c-0.4-0.1-0.8-0.2-1.1-0.1c-0.2-1-0.3-2.1-0.3-3.1
			c0.2,0,0.3-0.1,0.5-0.2c0.5-0.3,0.9-0.7,1.2-1.2c0.2-0.6,0.2-1.1,0-1.5c-0.2-0.6-0.6-1-1.2-1.2c-0.2-0.1-0.4-0.1-0.5-0.1
			c0-0.9,0-1.9,0.1-2.8c0.4,0,0.8-0.1,1.2-0.2c0.5-0.3,0.9-0.7,1-1.2c0.2-0.6,0.2-1.1-0.1-1.7c-0.3-0.5-0.7-0.9-1.3-1
			c-0.1,0-0.2,0-0.2,0c0.2-1,0.4-1.9,0.6-2.9c0.5,0.1,1,0,1.5-0.1c0.5-0.3,0.8-0.7,1-1.3c0.2-0.5,0.2-1.1,0-1.7
			c-0.2-0.4-0.6-0.7-1-0.9c0.4-1.2,0.9-2.3,1.5-3.3c0.1,0,0.3,0.1,0.3,0.2c0.5,0.2,1.1,0.1,1.6-0.1c0.5-0.3,0.8-0.7,1-1.2
			c0.2-0.6,0.2-1.2,0-1.7c-0.2-0.4-0.5-0.7-0.8-0.9c0.6-1,1.3-1.9,2.1-2.8c0.2,0.1,0.4,0.3,0.7,0.3c0.6,0.2,1.1,0.1,1.7-0.1
			c0.5-0.3,0.9-0.7,1-1.2c0.2-0.6,0.2-1.2-0.1-1.7c-0.1-0.2-0.2-0.4-0.4-0.5c0.2-0.2,0.3-0.4,0.4-0.5c0.6-0.5,1.2-1,1.8-1.5
			c0.2,0.2,0.5,0.3,0.8,0.4c0.6,0.2,1.1,0.1,1.7-0.1c0.5-0.3,0.9-0.7,1-1.2c0.2-0.6,0.2-1.1-0.1-1.6c0,0,0-0.1,0-0.2
			c0.8-0.6,1.5-1.1,2.3-1.6c0.3,0.4,0.7,0.6,1.1,0.8c0.6,0.1,1.1,0.1,1.7-0.1c0.5-0.3,0.9-0.7,1-1.3c0.2-0.5,0.2-1,0-1.5
			c1-0.5,2-0.9,3.1-1.4C31.2,7.7,31.2,7.8,31.2,7.8z"/>
	</g>
	<g>
		
			<radialGradient id="SVGID_2_" cx="26.8809" cy="-10.29" r="3.2646" gradientTransform="matrix(0.5467 0.8373 -3.2651 2.3552 -25.2435 18.209)" gradientUnits="userSpaceOnUse">
			<stop  offset="0" style="stop-color:#FEFEFE"/>
			<stop  offset="0.2078" style="stop-color:#FEFEFE"/>
			<stop  offset="0.4902" style="stop-color:#FFFFFF;stop-opacity:0.3137"/>
			<stop  offset="0.6784" style="stop-color:#FFFFFF;stop-opacity:8.235294e-002"/>
			<stop  offset="0.8392" style="stop-color:#FCFCFC;stop-opacity:0"/>
			<stop  offset="1" style="stop-color:#FBFBFB;stop-opacity:0"/>
		</radialGradient>
		<path fill-rule="evenodd" clip-rule="evenodd" fill="url(#SVGID_2_)" d="M33.8,8.7c0.5,0.8-0.1,2.2-1.8,4.3
			c-1.8,2-4.2,4.1-7.2,6.2c-2.9,2.1-5.6,3.7-8.1,4.7c-2.4,0.9-3.9,1-4.4,0.3c-0.5-0.8,0.2-2.3,1.9-4.3c1.8-2.1,4.1-4.2,7-6.3
			c3-2.1,5.7-3.6,8.2-4.7C31.9,8,33.3,8,33.8,8.7z"/>
	</g>
	<g>
		<path fill-rule="evenodd" clip-rule="evenodd" fill="#19191D" d="M44.9,10.9c9.7,0,18,3.4,24.8,10.2c4.3,4.3,7.3,9.2,8.9,14.6
			c0.9,3.2,1.4,6.6,1.4,10.3c0,3.7-0.5,7.3-1.5,10.5c-1,3.2-2.5,6.3-4.5,9.2c-1.2,1.8-2.7,3.5-4.3,5.1c-2.6,2.6-5.5,4.8-8.5,6.3
			c-0.7,0.4-1.4,0.8-2.2,1.1c-2.3,1-4.8,1.8-7.3,2.3c-2.3,0.4-4.6,0.6-6.9,0.6c-3.7,0-7.2-0.5-10.4-1.5C29.1,77.9,24.3,75,20,70.7
			c-1.7-1.7-3.2-3.5-4.5-5.3c-3.9-5.6-5.9-12.1-5.9-19.5c0-9.7,3.4-18,10.3-24.9C26.9,14.3,35.2,10.9,44.9,10.9z"/>
	</g>
	<g>
		<path fill-rule="evenodd" clip-rule="evenodd" fill="#2F313F" d="M44.6,11.6c9.2,0,17,3.2,23.5,9.6c4.1,4.1,7,8.8,8.5,13.9
			c0.9,3.1,1.4,6.3,1.4,9.8c0,3.6-0.5,6.9-1.5,10.1c-1,3.1-2.4,6-4.3,8.7c-1.2,1.7-2.6,3.3-4.1,4.8c-2.5,2.5-5.2,4.5-8.1,6.1
			c-0.6,0.4-1.3,0.7-2.1,1.1c-2.2,0.9-4.5,1.6-6.8,2c-2.1,0.3-4.3,0.5-6.5,0.5c-3.6,0-6.9-0.5-10-1.3c-5.1-1.5-9.7-4.3-13.8-8.4
			c-1.6-1.6-3.1-3.3-4.3-5C12.9,58.1,11,51.9,11,44.9c0-9.2,3.3-17.1,9.8-23.6C27.4,14.8,35.3,11.6,44.6,11.6z"/>
	</g>
	<g>
		<radialGradient id="SVGID_3_" cx="60.3179" cy="71.4688" r="62.825" gradientUnits="userSpaceOnUse">
			<stop  offset="0" style="stop-color:#BBC9CC"/>
			<stop  offset="0.4471" style="stop-color:#282B2D"/>
			<stop  offset="0.651" style="stop-color:#26272C"/>
			<stop  offset="1" style="stop-color:#0C0C0E"/>
		</radialGradient>
		<path fill-rule="evenodd" clip-rule="evenodd" fill="url(#SVGID_3_)" d="M44.6,13.2c8.7,0,16.2,3.1,22.4,9.2
			c3.9,3.9,6.6,8.3,8,13.2c0.9,3,1.4,6.1,1.4,9.3c0,3.4-0.5,6.6-1.4,9.5c-1,3-2.3,5.8-4.1,8.3c-1.2,1.6-2.5,3.1-4,4.6
			c-2.4,2.4-5,4.3-7.7,5.8c-0.6,0.3-1.3,0.7-2,1.1c-2.1,0.8-4.2,1.5-6.5,2c-2,0.3-4.1,0.5-6.2,0.5c-3.4,0-6.6-0.5-9.5-1.4
			c-4.9-1.5-9.3-4.2-13.1-8c-1.6-1.5-3-3.2-4.1-4.9c-3.5-5-5.3-10.9-5.3-17.6c0-8.8,3.1-16.3,9.4-22.5
			C28.3,16.2,35.8,13.2,44.6,13.2z"/>
	</g>
	<g>
		<linearGradient id="SVGID_4_" gradientUnits="userSpaceOnUse" x1="44.543" y1="17.4189" x2="44.543" y2="35.3189">
			<stop  offset="0" style="stop-color:#1D1B16"/>
			<stop  offset="0.6431" style="stop-color:#19191D"/>
			<stop  offset="1" style="stop-color:#202025"/>
		</linearGradient>
		<path fill-rule="evenodd" clip-rule="evenodd" fill="url(#SVGID_4_)" d="M44.6,16.1c7.9,0,14.7,2.8,20.4,8.3c3.6,3.6,6,7.6,7.2,12
			c0.8,2.8,1.3,5.6,1.3,8.5c0,3.1-0.4,6-1.3,8.7c-0.9,2.7-2.1,5.2-3.6,7.6c-1.1,1.4-2.3,2.8-3.6,4.2c-2.2,2.1-4.6,3.8-7,5.2
			c-0.5,0.3-1.2,0.6-1.8,1c-1.9,0.8-3.8,1.4-5.9,1.8c-1.8,0.4-3.7,0.6-5.6,0.6c-3.1,0-5.9-0.4-8.6-1.3c-4.5-1.4-8.5-3.8-12-7.3
			c-1.4-1.4-2.6-2.9-3.6-4.4c-3.2-4.6-4.8-10-4.8-16c0-8,2.8-14.8,8.4-20.5C29.8,18.9,36.6,16.1,44.6,16.1z"/>
	</g>
	<g>
		<radialGradient id="SVGID_5_" cx="36.8179" cy="32.5186" r="34.5" gradientUnits="userSpaceOnUse">
			<stop  offset="0" style="stop-color:#F3F5F7"/>
			<stop  offset="0.302" style="stop-color:#4D5056"/>
			<stop  offset="0.651" style="stop-color:#26272C"/>
			<stop  offset="1" style="stop-color:#0C0C0E"/>
		</radialGradient>
		<path fill-rule="evenodd" clip-rule="evenodd" fill="url(#SVGID_5_)" d="M58.7,31.4c2.3,2.3,3.9,4.9,4.8,7.8
			c0.5,1.8,0.8,3.6,0.8,5.5c0,2-0.3,3.9-0.8,5.7c-0.6,1.7-1.4,3.4-2.4,4.9c-0.7,0.9-1.5,1.8-2.3,2.7c-1.4,1.4-2.9,2.5-4.5,3.4
			c-0.4,0.2-0.8,0.4-1.2,0.6c-1.2,0.5-2.5,0.9-3.8,1.2c-1.2,0.2-2.4,0.3-3.7,0.3c-2,0-3.8-0.3-5.5-0.8c-2.9-0.9-5.5-2.5-7.9-4.7
			c-0.9-0.9-1.7-1.9-2.3-2.9c-2.1-3-3.1-6.5-3.1-10.5c0-5.2,1.8-9.6,5.4-13.3c3.7-3.6,8.2-5.5,13.4-5.5
			C50.7,25.9,55.1,27.7,58.7,31.4z"/>
	</g>
	<g>
		<path fill-rule="evenodd" clip-rule="evenodd" fill="#202025" d="M56,34.1c1.8,1.8,3,3.9,3.7,6.2c0.5,1.4,0.7,2.9,0.7,4.4
			c0,1.6-0.2,3.1-0.7,4.5c-0.4,1.4-1.1,2.7-2,4c-0.5,0.7-1.1,1.4-1.8,2.1c-1.1,1.1-2.3,2-3.6,2.7c-0.3,0.2-0.6,0.3-1,0.5
			c-1,0.3-2,0.6-3,0.9c-0.9,0.2-1.9,0.3-3,0.3c-1.6,0-3-0.2-4.4-0.7c-2.3-0.7-4.4-1.9-6.2-3.7c-0.8-0.8-1.4-1.5-1.9-2.3
			c-1.7-2.4-2.5-5.2-2.5-8.3c0-4.1,1.5-7.7,4.4-10.6c2.9-2.9,6.5-4.3,10.6-4.3C49.6,29.7,53.1,31.2,56,34.1z"/>
	</g>
	<g>
		<radialGradient id="SVGID_6_" cx="39.918" cy="37.2686" r="22.6753" gradientUnits="userSpaceOnUse">
			<stop  offset="0" style="stop-color:#F3F5F7"/>
			<stop  offset="0.302" style="stop-color:#4D5056"/>
			<stop  offset="0.651" style="stop-color:#26272C"/>
			<stop  offset="1" style="stop-color:#0C0C0E"/>
		</radialGradient>
		<path fill-rule="evenodd" clip-rule="evenodd" fill="url(#SVGID_6_)" d="M57.9,45.3c0,1.3-0.2,2.5-0.5,3.7
			c-0.4,1.2-0.9,2.3-1.6,3.3c-0.5,0.6-1,1.2-1.5,1.8c-0.9,0.9-1.9,1.7-3,2.2c-0.2,0.2-0.5,0.3-0.8,0.5c-0.9,0.3-1.7,0.5-2.5,0.7
			c-0.8,0.1-1.6,0.2-2.5,0.2c-1.3,0-2.5-0.2-3.6-0.5c-1.9-0.6-3.6-1.6-5.1-3.1c-0.6-0.6-1.1-1.2-1.6-1.8c-1.3-2-2-4.3-2-6.9
			c0-3.4,1.2-6.3,3.6-8.8c2.4-2.4,5.3-3.6,8.8-3.6c3.4,0,6.3,1.2,8.8,3.6c1.5,1.5,2.5,3.2,3.2,5.1C57.8,42.9,57.9,44.1,57.9,45.3z"
			/>
	</g>
	<g>
		<path fill-rule="evenodd" clip-rule="evenodd" fill="#202025" d="M48.9,55.1c-0.6,0.2-1.3,0.4-2.1,0.6c-0.6,0.1-1.3,0.2-2,0.2
			c-1.1,0-2.1-0.2-3.1-0.5c-1.6-0.5-3-1.3-4.4-2.6c-0.5-0.5-0.9-1-1.3-1.6c-1.2-1.7-1.8-3.6-1.8-5.8c0-2.9,1-5.4,3-7.5
			c2.1-2,4.6-3,7.5-3c2.9,0,5.4,1,7.4,3c1.3,1.3,2.1,2.8,2.5,4.4c0.3,1,0.5,2,0.5,3c0,1.1-0.2,2.2-0.5,3.1c-0.3,1-0.7,1.9-1.3,2.7
			c-0.4,0.5-0.8,1-1.3,1.5c-0.8,0.8-1.7,1.4-2.5,1.9C49.4,54.8,49.2,54.9,48.9,55.1z"/>
	</g>
	<g>
		<g>
			<g>
				<linearGradient id="SVGID_7_" gradientUnits="userSpaceOnUse" x1="39.6025" y1="36.9092" x2="55.8236" y2="43.3192">
					<stop  offset="0" style="stop-color:#DEDBDA"/>
					<stop  offset="0.251" style="stop-color:#CFCCC5"/>
					<stop  offset="0.4471" style="stop-color:#664741"/>
					<stop  offset="0.651" style="stop-color:#9D9693"/>
					<stop  offset="1" style="stop-color:#A39A93"/>
				</linearGradient>
				<path fill-rule="evenodd" clip-rule="evenodd" fill="url(#SVGID_7_)" d="M55.4,44.6H44.9h-0.1l-6.9-7.8c1.9-1.8,4.3-2.6,6.9-2.6
					c2.9,0,5.4,1,7.5,3c2,2,3,4.4,3.1,7.2C55.4,44.4,55.4,44.5,55.4,44.6z"/>
				<linearGradient id="SVGID_8_" gradientUnits="userSpaceOnUse" x1="46.436" y1="52.4517" x2="51.6324" y2="43.3996">
					<stop  offset="0" style="stop-color:#9E9FA6"/>
					<stop  offset="0.4431" style="stop-color:#9D9FA6"/>
					<stop  offset="0.6667" style="stop-color:#595959"/>
				</linearGradient>
				<path fill-rule="evenodd" clip-rule="evenodd" fill="url(#SVGID_8_)" d="M51.9,52.4l-7-7.8v0h10.5c0,2.9-1,5.3-3.1,7.4
					C52.2,52.2,52,52.3,51.9,52.4z"/>
				<linearGradient id="SVGID_9_" gradientUnits="userSpaceOnUse" x1="37.5571" y1="36.9009" x2="39.9105" y2="45.825">
					<stop  offset="0" style="stop-color:#DEDBDA"/>
					<stop  offset="0.4431" style="stop-color:#CCC4C2"/>
					<stop  offset="1" style="stop-color:#AEABAD"/>
				</linearGradient>
				<path fill-rule="evenodd" clip-rule="evenodd" fill="url(#SVGID_9_)" d="M44.8,44.6H34.4c0-0.1,0-0.2,0-0.3c0-2.8,1-5.2,3-7.2
					c0.1-0.1,0.3-0.3,0.5-0.4L44.8,44.6z"/>
				<polygon fill-rule="evenodd" clip-rule="evenodd" fill="#202025" points="44.9,44.6 44.9,44.7 44.8,44.6 				"/>
				<linearGradient id="SVGID_10_" gradientUnits="userSpaceOnUse" x1="36.5176" y1="42.9336" x2="43.6796" y2="51.3484">
					<stop  offset="0" style="stop-color:#AEABAD"/>
					<stop  offset="0.4431" style="stop-color:#9D9FA6"/>
					<stop  offset="0.6667" style="stop-color:#595959"/>
				</linearGradient>
				<path fill-rule="evenodd" clip-rule="evenodd" fill="url(#SVGID_10_)" d="M34.4,44.6h10.4l0.1,0l-3.6,9.9
					c-1.4-0.5-2.7-1.4-3.9-2.5C35.4,50,34.4,47.5,34.4,44.6z"/>
				<linearGradient id="SVGID_11_" gradientUnits="userSpaceOnUse" x1="53.7983" y1="47.667" x2="40.9513" y2="51.1574">
					<stop  offset="0" style="stop-color:#AEABAD"/>
					<stop  offset="0.4431" style="stop-color:#9D9FA6"/>
					<stop  offset="0.6667" style="stop-color:#595959"/>
				</linearGradient>
				<path fill-rule="evenodd" clip-rule="evenodd" fill="url(#SVGID_11_)" d="M44.9,44.7l7,7.8c-2,1.8-4.3,2.7-7.1,2.7
					c-1.2,0-2.4-0.2-3.5-0.6L44.9,44.7z"/>
				<line fill-rule="evenodd" clip-rule="evenodd" fill="none" x1="57" y1="44.6" x2="56.1" y2="44.6"/>
			</g>
		</g>
	</g>
	<g>
		
			<radialGradient id="SVGID_12_" cx="31.3682" cy="37.2188" r="3.6062" gradientTransform="matrix(0.7071 0.7071 -0.9879 0.9879 45.9548 -21.7292)" gradientUnits="userSpaceOnUse">
			<stop  offset="0" style="stop-color:#FEFEFE"/>
			<stop  offset="0.2078" style="stop-color:#FEFEFE"/>
			<stop  offset="0.4902" style="stop-color:#FFFFFF;stop-opacity:0.3137"/>
			<stop  offset="0.6784" style="stop-color:#FFFFFF;stop-opacity:8.235294e-002"/>
			<stop  offset="0.8392" style="stop-color:#FCFCFC;stop-opacity:0"/>
			<stop  offset="1" style="stop-color:#FBFBFB;stop-opacity:0"/>
		</radialGradient>
		<path fill-rule="evenodd" clip-rule="evenodd" fill="url(#SVGID_12_)" d="M35,33.7c0.7,0.7,0.9,1.6,0.7,2.8
			c-0.2,1.2-0.8,2.3-1.8,3.3c-1,1-2.1,1.5-3.3,1.7c-1.2,0.2-2.1,0-2.8-0.7c-0.7-0.7-0.9-1.6-0.7-2.8c0.1-1.2,0.7-2.3,1.6-3.3
			c1-1,2.1-1.6,3.3-1.8C33.3,32.7,34.2,33,35,33.7z"/>
	</g>
	<g>
		
			<radialGradient id="SVGID_13_" cx="59.5742" cy="-4.7974" r="3.9699" gradientTransform="matrix(0.6549 0.7557 -0.3117 0.3117 1.9055 -1.9057)" gradientUnits="userSpaceOnUse">
			<stop  offset="0" style="stop-color:#FEFEFE"/>
			<stop  offset="0.2078" style="stop-color:#FEFEFE"/>
			<stop  offset="0.4902" style="stop-color:#FFFFFF;stop-opacity:0.3137"/>
			<stop  offset="0.6784" style="stop-color:#FFFFFF;stop-opacity:8.235294e-002"/>
			<stop  offset="0.8392" style="stop-color:#FCFCFC;stop-opacity:0"/>
			<stop  offset="1" style="stop-color:#FBFBFB;stop-opacity:0"/>
		</radialGradient>
		<path fill-rule="evenodd" clip-rule="evenodd" fill="url(#SVGID_13_)" d="M39.9,38.6c0.3-0.3,0.8-0.3,1.6,0c0.7,0.4,1.4,1,2.2,1.8
			c0.7,0.8,1.2,1.6,1.5,2.4c0.3,0.9,0.2,1.5-0.1,1.8c-0.3,0.3-0.8,0.3-1.6-0.1c-0.8-0.3-1.5-0.9-2.2-1.8c-0.8-0.8-1.3-1.6-1.5-2.5
			C39.5,39.5,39.5,39,39.9,38.6z"/>
	</g>
	<g>
		
			<radialGradient id="SVGID_14_" cx="62.2676" cy="69.7305" r="3.4627" gradientTransform="matrix(0.7071 0.7071 -2.4352 2.4352 188.0446 -144.1062)" gradientUnits="userSpaceOnUse">
			<stop  offset="0" style="stop-color:#FEFEFE"/>
			<stop  offset="0.2078" style="stop-color:#FEFEFE"/>
			<stop  offset="0.4902" style="stop-color:#FFFFFF;stop-opacity:0.3137"/>
			<stop  offset="0.6784" style="stop-color:#FFFFFF;stop-opacity:8.235294e-002"/>
			<stop  offset="0.8392" style="stop-color:#FCFCFC;stop-opacity:0"/>
			<stop  offset="1" style="stop-color:#FBFBFB;stop-opacity:0"/>
		</radialGradient>
		<path fill-rule="evenodd" clip-rule="evenodd" fill="url(#SVGID_14_)" d="M64.7,72.2c-2.3,2.3-4.6,4.1-6.8,5.3
			c-2.1,1.2-3.5,1.4-4.2,0.7c-0.7-0.6-0.4-2,0.8-4.2c1.2-2.2,2.9-4.4,5.3-6.8c2.3-2.3,4.6-4.1,6.8-5.3c2.1-1.2,3.5-1.4,4.2-0.7
			c0.7,0.7,0.5,2-0.7,4.2C68.8,67.6,67,69.8,64.7,72.2z"/>
	</g>
</g>
</svg>
