<?xml version="1.0" encoding="utf-8"?>
<!-- Generator: Adobe Illustrator 16.0.0, SVG Export Plug-In . SVG Version: 6.00 Build 0)  -->
<!DOCTYPE svg PUBLIC "-//W3C//DTD SVG 1.1//EN" "http://www.w3.org/Graphics/SVG/1.1/DTD/svg11.dtd">
<svg version="1.1" xmlns="http://www.w3.org/2000/svg" xmlns:xlink="http://www.w3.org/1999/xlink" x="0px" y="0px" width="77.2px"
	 height="1713px" viewBox="0 0 77.2 1713" enable-background="new 0 0 77.2 1713" xml:space="preserve">
<g id="Layer_1">
	<text transform="matrix(1 0 0 1 37.791 1677.3809)" font-family="'ArialMT'" font-size="14.3386">1.30</text>
	<text transform="matrix(1 0 0 1 37.791 1643.6816)" font-family="'ArialMT'" font-size="14.3386">1.31</text>
	<text transform="matrix(1 0 0 1 37.791 1610.9316)" font-family="'ArialMT'" font-size="14.3386">1.32</text>
	<text transform="matrix(1 0 0 1 37.791 1577.4829)" font-family="'ArialMT'" font-size="14.3386">1.33</text>
	<text transform="matrix(1 0 0 1 37.791 1544.7329)" font-family="'ArialMT'" font-size="14.3386">1.34</text>
	<text transform="matrix(1 0 0 1 37.791 1510.083)" font-family="'ArialMT'" font-size="14.3386">1.35</text>
	<text transform="matrix(1 0 0 1 37.791 1476.3809)" font-family="'ArialMT'" font-size="14.3386">1.36</text>
	<text transform="matrix(1 0 0 1 37.791 1443.3804)" font-family="'ArialMT'" font-size="14.3386">1.37</text>
	<text transform="matrix(1 0 0 1 37.791 1408.9829)" font-family="'ArialMT'" font-size="14.3386">1.38</text>
	<text transform="matrix(1 0 0 1 37.791 1376.0327)" font-family="'ArialMT'" font-size="14.3386">1.39</text>
	<text transform="matrix(1 0 0 1 37.791 1342.5337)" font-family="'ArialMT'" font-size="14.3386">1.40</text>
	<text transform="matrix(1 0 0 1 37.791 1309.5835)" font-family="'ArialMT'" font-size="14.3386">1.41</text>
	<text transform="matrix(1 0 0 1 37.791 1275.6309)" font-family="'ArialMT'" font-size="14.3386">1.42</text>
	<text transform="matrix(1 0 0 1 37.791 1242.1821)" font-family="'ArialMT'" font-size="14.3386">1.43</text>
	<text transform="matrix(1 0 0 1 37.791 1208.7314)" font-family="'ArialMT'" font-size="14.3386">1.44</text>
	<text transform="matrix(1 0 0 1 37.791 1175.2827)" font-family="'ArialMT'" font-size="14.3386">1.45</text>
	<text transform="matrix(1 0 0 1 37.791 1141.8306)" font-family="'ArialMT'" font-size="14.3386">1.46</text>
	<text transform="matrix(1 0 0 1 37.791 1108.8301)" font-family="'ArialMT'" font-size="14.3386">1.47</text>
	<text transform="matrix(1 0 0 1 37.791 1074.8843)" font-family="'ArialMT'" font-size="14.3386">1.48</text>
	<text transform="matrix(1 0 0 1 37.791 1041.4321)" font-family="'ArialMT'" font-size="14.3386">1.49</text>
	<text transform="matrix(1 0 0 1 37.791 1007.9814)" font-family="'ArialMT'" font-size="14.3386">1.50</text>
	<text transform="matrix(1 0 0 1 37.791 974.9829)" font-family="'ArialMT'" font-size="14.3386">1.51</text>
	<text transform="matrix(1 0 0 1 37.791 941.0806)" font-family="'ArialMT'" font-size="14.3386">1.52</text>
	<text transform="matrix(1 0 0 1 37.791 907.6353)" font-family="'ArialMT'" font-size="14.3386">1.53</text>
	<text transform="matrix(1 0 0 1 37.791 874.6348)" font-family="'ArialMT'" font-size="14.3386">1.54</text>
	<text transform="matrix(1 0 0 1 37.791 840.2324)" font-family="'ArialMT'" font-size="14.3386">1.55</text>
	<text transform="matrix(1 0 0 1 37.791 806.7832)" font-family="'ArialMT'" font-size="14.3386">1.56</text>
	<text transform="matrix(1 0 0 1 37.791 773.7832)" font-family="'ArialMT'" font-size="14.3386">1.57</text>
	<text transform="matrix(1 0 0 1 37.791 740.3311)" font-family="'ArialMT'" font-size="14.3386">1.58</text>
	<text transform="matrix(1 0 0 1 37.791 706.8853)" font-family="'ArialMT'" font-size="14.3386">1.59</text>
	<text transform="matrix(1 0 0 1 37.791 673.4316)" font-family="'ArialMT'" font-size="14.3386">1.60</text>
	<text transform="matrix(1 0 0 1 37.791 639.9824)" font-family="'ArialMT'" font-size="14.3386">1.61</text>
	<text transform="matrix(1 0 0 1 37.791 606.4819)" font-family="'ArialMT'" font-size="14.3386">1.62</text>
	<text transform="matrix(1 0 0 1 37.791 573.0332)" font-family="'ArialMT'" font-size="14.3386">1.63</text>
	<text transform="matrix(1 0 0 1 37.791 540.0796)" font-family="'ArialMT'" font-size="14.3386">1.64</text>
	<text transform="matrix(1 0 0 1 37.791 506.1353)" font-family="'ArialMT'" font-size="14.3386">1.65</text>
	<text transform="matrix(1 0 0 1 37.791 473.1348)" font-family="'ArialMT'" font-size="14.3386">1.66</text>
	<text transform="matrix(1 0 0 1 37.791 438.7319)" font-family="'ArialMT'" font-size="14.3386">1.67</text>
	<text transform="matrix(1 0 0 1 37.791 405.7842)" font-family="'ArialMT'" font-size="14.3386">1.68</text>
	<text transform="matrix(1 0 0 1 37.791 371.8296)" font-family="'ArialMT'" font-size="14.3386">1.69</text>
	<text transform="matrix(1 0 0 1 37.791 338.8311)" font-family="'ArialMT'" font-size="14.3386">1.70</text>
	<text transform="matrix(1 0 0 1 37.791 305.8843)" font-family="'ArialMT'" font-size="14.3386">1.71</text>
	<text transform="matrix(1 0 0 1 37.791 271.9312)" font-family="'ArialMT'" font-size="14.3386">1.72</text>
	<text transform="matrix(1 0 0 1 37.791 238.4824)" font-family="'ArialMT'" font-size="14.3386">1.73</text>
	<text transform="matrix(1 0 0 1 37.791 205.4819)" font-family="'ArialMT'" font-size="14.3386">1.74</text>
	<text transform="matrix(1 0 0 1 37.791 171.5801)" font-family="'ArialMT'" font-size="14.3386">1.75</text>
	<text transform="matrix(1 0 0 1 37.791 138.0811)" font-family="'ArialMT'" font-size="14.3386">1.76</text>
	<text transform="matrix(1 0 0 1 37.791 104.6353)" font-family="'ArialMT'" font-size="14.3386">1.77</text>
	<text transform="matrix(1 0 0 1 37.791 70.7334)" font-family="'ArialMT'" font-size="14.3386">1.78</text>
	<text transform="matrix(1 0 0 1 37.791 38.2334)" font-family="'ArialMT'" font-size="14.3386">1.79</text>
</g>
<g id="Layer_2">
	<path fill="none" stroke="#000000" stroke-width="0.75" stroke-miterlimit="10" d="M0,17h24.1 M0,33.8h34.2 M0,30.4h18.9 M0,23.7
		h18.9 M0,27h18.9 M0,37.1h18.9 M0,20.4h18.9 M0,7h18.9 M0,10.3h18.9 M0,13.6h18.9 M0,3.6h18.9 M0,117.4h24.1 M0,134.1h34.2
		 M0,137.5h18.9 M0,130.8h18.9 M0,127.4h18.9 M0,110.7h18.9 M0,107.4h18.9 M0,120.8h18.9 M0,124h18.9 M0,114h18.9 M0,100.6h34.2
		 M0,83.9h24.1 M0,50.5h24.1 M0,67.2h34.2 M0,90.6h18.9 M0,77.3h18.9 M0,94h18.9 M0,97.3h18.9 M0,80.6h18.9 M0,87.3h18.9 M0,104
		h18.9 M0,57.1h18.9 M0,63.9h18.9 M0,60.5h18.9 M0,53.8h18.9 M0,47.1h18.9 M0,70.5h18.9 M0,73.9h18.9 M0,43.8h18.9 M0,40.5h18.9
		 M0,234.5h34.2 M0,231.1h18.9 M0,227.8h18.9 M0,224.5h18.9 M0,167.5h34.2 M0,217.8h24.1 M0,184.3h24.1 M0,201h34.2 M0,207.7h18.9
		 M0,197.7h18.9 M0,204.4h18.9 M0,221.1h18.9 M0,211h18.9 M0,214.4h18.9 M0,191h18.9 M0,194.4h18.9 M0,187.6h18.9 M0,181h18.9
		 M0,170.9h18.9 M0,177.6h18.9 M0,174.3h18.9 M0,150.9h24.1 M0,144.1h18.9 M0,140.8h18.9 M0,147.5h18.9 M0,160.9h18.9 M0,157.5h18.9
		 M0,164.2h18.9 M0,154.2h18.9 M0,284.6h24.1 M0,334.9h34.2 M0,301.4h34.2 M0,318.1h24.1 M0,314.8h18.9 M0,331.5h18.9 M0,328.1h18.9
		 M0,321.5h18.9 M0,324.8h18.9 M0,288h18.9 M0,291.4h18.9 M0,294.7h18.9 M0,298h18.9 M0,311.5h18.9 M0,308.1h18.9 M0,304.8h18.9
		 M0,251.2h24.1 M0,268h34.2 M0,254.5h18.9 M0,257.9h18.9 M0,261.3h18.9 M0,281.3h18.9 M0,274.6h18.9 M0,278h18.9 M0,264.6h18.9
		 M0,271.3h18.9 M0,244.5h18.9 M0,247.9h18.9 M0,237.9h18.9 M0,241.1h18.9 M0,435.2h34.2 M0,418.5h24.1 M0,401.8h34.2 M0,431.9h18.9
		 M0,428.5h18.9 M0,425.2h18.9 M0,421.9h18.9 M0,411.8h18.9 M0,415.1h18.9 M0,405.1h18.9 M0,408.5h18.9 M0,368.3h34.2 M0,351.6h24.1
		 M0,385h24.1 M0,388.4h18.9 M0,391.8h18.9 M0,395h18.9 M0,398.4h18.9 M0,381.7h18.9 M0,375h18.9 M0,378.4h18.9 M0,361.6h18.9
		 M0,371.6h18.9 M0,365h18.9 M0,358.3h18.9 M0,354.9h18.9 M0,348.3h18.9 M0,344.9h18.9 M0,341.5h18.9 M0,338.2h18.9 M0,522.2h18.9
		 M0,528.9h18.9 M0,525.5h18.9 M0,532.3h18.9 M0,502.1h34.2 M0,485.4h24.1 M0,468.7h34.2 M0,518.9h24.1 M0,508.9h18.9 M0,495.5h18.9
		 M0,505.5h18.9 M0,492.1h18.9 M0,498.8h18.9 M0,515.5h18.9 M0,512.1h18.9 M0,472h18.9 M0,465.4h18.9 M0,462h18.9 M0,478.7h18.9
		 M0,475.4h18.9 M0,482h18.9 M0,488.8h18.9 M0,452h24.1 M0,445.3h18.9 M0,448.6h18.9 M0,455.3h18.9 M0,438.5h18.9 M0,441.9h18.9
		 M0,458.6h18.9 M0,619.3h24.1 M0,602.5h34.2 M0,585.8h24.1 M0,615.9h18.9 M0,612.5h18.9 M0,609.2h18.9 M0,625.9h18.9 M0,622.6h18.9
		 M0,629.3h18.9 M0,632.6h18.9 M0,595.8h18.9 M0,605.9h18.9 M0,599.1h18.9 M0,589.1h18.9 M0,592.5h18.9 M0,579.1h18.9 M0,582.5h18.9
		 M0,552.3h24.1 M0,535.6h34.2 M0,569h34.2 M0,565.7h18.9 M0,559h18.9 M0,562.4h18.9 M0,555.6h18.9 M0,572.4h18.9 M0,575.8h18.9
		 M0,539h18.9 M0,545.6h18.9 M0,542.3h18.9 M0,549h18.9 M0,719.6h24.1 M0,702.9h34.2 M0,729.6h18.9 M0,706.2h18.9 M0,712.9h18.9
		 M0,709.5h18.9 M0,716.3h18.9 M0,723h18.9 M0,726.3h18.9 M0,699.5h18.9 M0,652.7h24.1 M0,669.4h34.2 M0,686.1h24.1 M0,676.1h18.9
		 M0,672.8h18.9 M0,682.8h18.9 M0,679.5h18.9 M0,692.9h18.9 M0,689.5h18.9 M0,696.2h18.9 M0,659.4h18.9 M0,662.8h18.9 M0,666h18.9
		 M0,649.4h18.9 M0,642.6h18.9 M0,639.3h18.9 M0,646h18.9 M0,656h18.9 M0,636h34.2 M0,820h24.1 M0,816.6h18.9 M0,823.3h18.9 M0,830
		h18.9 M0,826.6h18.9 M0,786.5h24.1 M0,769.8h34.2 M0,803.3h34.2 M0,789.9h18.9 M0,793.2h18.9 M0,796.5h18.9 M0,799.9h18.9 M0,813.3
		h18.9 M0,806.6h18.9 M0,810h18.9 M0,759.8h18.9 M0,756.4h18.9 M0,766.5h18.9 M0,763.1h18.9 M0,783.1h18.9 M0,776.5h18.9 M0,779.9
		h18.9 M0,773.1h18.9 M0,736.4h34.2 M0,753h24.1 M0,749.7h18.9 M0,746.4h18.9 M0,739.7h18.9 M0,733h18.9 M0,743h18.9 M0,886.9h24.1
		 M0,920.4h24.1 M0,903.6h34.2 M0,917h18.9 M0,913.6h18.9 M0,907h18.9 M0,923.7h18.9 M0,910.3h18.9 M0,930.4h18.9 M0,927h18.9
		 M0,880.2h18.9 M0,883.5h18.9 M0,890.3h18.9 M0,876.9h18.9 M0,896.9h18.9 M0,893.6h18.9 M0,900.3h18.9 M0,836.7h34.2 M0,853.5h24.1
		 M0,870.1h34.2 M0,856.8h18.9 M0,846.8h18.9 M0,866.8h18.9 M0,863.5h18.9 M0,850.1h18.9 M0,873.5h18.9 M0,860.1h18.9 M0,843.4h18.9
		 M0,840h18.9 M0,833.4h18.9 M0,1004h34.2 M0,1020.7h24.1 M0,1024h18.9 M0,1027.4h18.9 M0,997.3h18.9 M0,994h18.9 M0,1007.4h18.9
		 M0,1000.6h18.9 M0,1010.7h18.9 M0,1014h18.9 M0,1017.4h18.9 M0,937h34.2 M0,987.3h24.1 M0,970.5h34.2 M0,953.8h24.1 M0,973.9h18.9
		 M0,963.9h18.9 M0,980.5h18.9 M0,977.2h18.9 M0,983.9h18.9 M0,990.6h18.9 M0,967.2h18.9 M0,957.1h18.9 M0,950.5h18.9 M0,947.1h18.9
		 M0,940.4h18.9 M0,943.8h18.9 M0,960.5h18.9 M0,933.8h18.9 M0,1121.1h24.1 M0,1124.5h18.9 M0,1127.8h18.9 M0,1117.8h18.9 M0,1114.4
		h18.9 M0,1104.4h34.2 M0,1054.1h24.1 M0,1087.6h24.1 M0,1070.9h34.2 M0,1084.3h18.9 M0,1091h18.9 M0,1111h18.9 M0,1101h18.9
		 M0,1097.6h18.9 M0,1107.7h18.9 M0,1094.3h18.9 M0,1074.3h18.9 M0,1067.5h18.9 M0,1064.2h18.9 M0,1081h18.9 M0,1060.9h18.9
		 M0,1057.5h18.9 M0,1077.6h18.9 M0,1037.5h34.2 M0,1030.8h18.9 M0,1034.1h18.9 M0,1044.1h18.9 M0,1047.5h18.9 M0,1050.9h18.9
		 M0,1040.8h18.9 M0,1171.3h34.2 M0,1188h24.1 M0,1204.8h34.2 M0,1221.5h24.1 M0,1218.1h18.9 M0,1201.4h18.9 M0,1214.8h18.9
		 M0,1224.8h18.9 M0,1208h18.9 M0,1211.4h18.9 M0,1191.4h18.9 M0,1198h18.9 M0,1194.7h18.9 M0,1181.3h18.9 M0,1184.6h18.9 M0,1174.6
		h18.9 M0,1178h18.9 M0,1154.5h24.1 M0,1137.8h34.2 M0,1144.5h18.9 M0,1141.1h18.9 M0,1157.9h18.9 M0,1161.3h18.9 M0,1164.6h18.9
		 M0,1147.9h18.9 M0,1151.2h18.9 M0,1167.9h18.9 M0,1134.5h18.9 M0,1131.1h18.9 M0,1321.9h24.1 M0,1305.1h34.2 M0,1325.1h18.9
		 M0,1318.5h18.9 M0,1311.8h18.9 M0,1308.5h18.9 M0,1301.8h18.9 M0,1298.4h18.9 M0,1295h18.9 M0,1291.7h18.9 M0,1315.1h18.9
		 M0,1271.6h34.2 M0,1254.9h24.1 M0,1238.2h34.2 M0,1288.4h24.1 M0,1281.7h18.9 M0,1275h18.9 M0,1278.4h18.9 M0,1268.3h18.9
		 M0,1261.6h18.9 M0,1265h18.9 M0,1285h18.9 M0,1234.9h18.9 M0,1241.5h18.9 M0,1231.5h18.9 M0,1248.2h18.9 M0,1244.9h18.9 M0,1251.5
		h18.9 M0,1258.3h18.9 M0,1228.1h18.9 M0,1422.2h24.1 M0,1412.1h18.9 M0,1408.8h18.9 M0,1415.5h18.9 M0,1418.9h18.9 M0,1388.8h24.1
		 M0,1372h34.2 M0,1355.3h24.1 M0,1405.5h34.2 M0,1392.1h18.9 M0,1378.7h18.9 M0,1385.4h18.9 M0,1382h18.9 M0,1395.5h18.9 M0,1402.1
		h18.9 M0,1398.8h18.9 M0,1368.6h18.9 M0,1352h18.9 M0,1348.6h18.9 M0,1362h18.9 M0,1365.3h18.9 M0,1358.6h18.9 M0,1375.4h18.9
		 M0,1338.5h34.2 M0,1328.5h18.9 M0,1335.2h18.9 M0,1331.9h18.9 M0,1345.3h18.9 M0,1341.9h18.9 M0,1472.4h34.2 M0,1489.1h24.1
		 M0,1505.9h34.2 M0,1522.5h24.1 M0,1495.8h18.9 M0,1499.1h18.9 M0,1502.5h18.9 M0,1509.2h18.9 M0,1515.9h18.9 M0,1519.2h18.9
		 M0,1512.5h18.9 M0,1469h18.9 M0,1475.8h18.9 M0,1492.5h18.9 M0,1485.8h18.9 M0,1482.4h18.9 M0,1479h18.9 M0,1438.9h34.2 M0,1455.6
		h24.1 M0,1442.3h18.9 M0,1449h18.9 M0,1445.6h18.9 M0,1462.4h18.9 M0,1452.3h18.9 M0,1465.7h18.9 M0,1459h18.9 M0,1428.9h18.9
		 M0,1425.5h18.9 M0,1432.3h18.9 M0,1435.6h18.9 M0,1606.2h34.2 M0,1589.5h24.1 M0,1623h24.1 M0,1619.6h18.9 M0,1616.3h18.9
		 M0,1596.1h18.9 M0,1609.5h18.9 M0,1592.9h18.9 M0,1612.9h18.9 M0,1599.5h18.9 M0,1602.9h18.9 M0,1586.1h18.9 M0,1572.8h34.2
		 M0,1539.3h34.2 M0,1556h24.1 M0,1559.4h18.9 M0,1579.5h18.9 M0,1576.1h18.9 M0,1566h18.9 M0,1569.4h18.9 M0,1562.7h18.9 M0,1582.8
		h18.9 M0,1542.6h18.9 M0,1536h18.9 M0,1546h18.9 M0,1549.4h18.9 M0,1552.7h18.9 M0,1532.6h18.9 M0,1529.3h18.9 M0,1525.9h18.9
		 M0,1703.5h18.9 M0,1656.4h24.1 M0,1673.1h34.2 M0,1689.8h24.1 M0,1679.8h18.9 M0,1699.9h18.9 M0,1676.5h18.9 M0,1683.2h18.9
		 M0,1686.5h18.9 M0,1696.5h18.9 M0,1693.2h18.9 M0,1663.1h18.9 M0,1659.8h18.9 M0,1666.5h18.9 M0,1669.8h18.9 M0,1653h18.9
		 M0,1646.3h18.9 M0,1649.7h18.9 M0,1639.7h34.2 M0,1626.3h18.9 M0,1643h18.9 M0,1629.7h18.9 M0,1633h18.9 M0,1636.3h18.9"/>
</g>
</svg>
