<?xml version="1.0" encoding="utf-8"?>
<!-- Generator: Adobe Illustrator 16.0.0, SVG Export Plug-In . SVG Version: 6.00 Build 0)  -->
<!DOCTYPE svg PUBLIC "-//W3C//DTD SVG 1.1//EN" "http://www.w3.org/Graphics/SVG/1.1/DTD/svg11.dtd">
<svg version="1.1" id="Layer_1" xmlns="http://www.w3.org/2000/svg" xmlns:xlink="http://www.w3.org/1999/xlink" x="0px" y="0px"
	 width="700px" height="700px" viewBox="0 0 700 700" enable-background="new 0 0 700 700" xml:space="preserve">
<g>
	<g>
		<path fill-rule="evenodd" clip-rule="evenodd" fill="#FFFFFF" fill-opacity="0.7412" d="M683.5,247.9c-0.1,0.1-0.3,0.1-0.5,0.1
			H453.6c-0.2,0-0.3,0-0.5-0.1c-0.1-0.1-0.1-0.3-0.1-0.5c0-0.2,0-0.3,0.1-0.5c0.1-0.1,0.3-0.1,0.5-0.1H683c0.2,0,0.3,0,0.5,0.1
			c0.1,0.1,0.1,0.3,0.1,0.5C683.6,247.6,683.6,247.7,683.5,247.9z"/>
	</g>
	<g>
		<g>
			<path fill-rule="evenodd" clip-rule="evenodd" fill="#CCCCCC" d="M450.5,242.6c0-0.2,0-0.3,0-0.5s0-0.3,0-0.5
				c0.3-32,11.7-59.2,34.4-81.7c22.8-22.8,50.2-34.2,82.4-34.2c0.3,0,0.6,0,0.7,0c32,0.2,59.4,11.6,82,34.2
				c22.8,22.6,34.2,50,34.4,82.2c0,0.2,0,0.3,0,0.5c0,32.4-11.5,59.9-34.4,82.7c-22.6,22.6-49.9,34-82,34.2c-0.2,0-0.4,0-0.7,0
				c-32.2,0-59.7-11.4-82.4-34.2C462,302.5,450.5,275,450.5,242.6z M568.1,130.5c-0.2,0-0.4,0-0.7,0c-30.9,0-57.3,10.9-79.1,32.7
				c-21.8,21.7-32.8,48-33,78.9c0,0.2,0,0.3,0,0.5c0,31,11,57.5,33,79.3c21.8,21.8,48.2,32.7,79.1,32.7c0.3,0,0.6,0,0.7,0
				c30.7-0.1,56.9-11.1,78.6-32.7c22-21.8,33-48.3,33-79.3c0-0.2,0-0.3,0-0.5c-0.2-30.9-11.1-57.2-33-78.9
				C625,141.6,598.8,130.7,568.1,130.5z"/>
			<path fill-rule="evenodd" clip-rule="evenodd" fill="#999999" d="M450.5,242.6c-0.1-0.1-0.1-0.3-0.1-0.5c0-0.2,0-0.3,0.1-0.5
				c0,0.2,0,0.3,0,0.5S450.5,242.5,450.5,242.6z"/>
		</g>
	</g>
</g>
<g>
	<path fill-rule="evenodd" clip-rule="evenodd" fill="#FFFFFF" fill-opacity="0.5882" d="M450.4,508.6c-0.1-0.1-0.1-0.3-0.1-0.5
		c0-0.2,0-0.3,0.1-0.5c0,0.2,0,0.3,0,0.5C450.4,508.3,450.4,508.4,450.4,508.6z"/>
	<g>
		<polygon fill-rule="evenodd" clip-rule="evenodd" fill="#FFFFFF" fill-opacity="0.7412" points="626.1,608.4 626.1,610.7 
			509.5,408.5 510,408.5 510,407.2 		"/>
	</g>
	<g>
		<polygon fill-rule="evenodd" clip-rule="evenodd" fill="#FFFFFF" fill-opacity="0.7412" points="626.9,409 628.2,409 512.7,609.2 
			511.4,609.2 		"/>
	</g>
	<g>
		<path fill-rule="evenodd" clip-rule="evenodd" fill="#CCCCCC" d="M569.2,389.8c0.3,0,0.6,0,0.7,0c32.6,0.2,60.3,11.8,83.3,34.7
			c23.1,23,34.8,50.8,35,83.6c0,0.2,0,0.3,0,0.5c0,32.9-11.7,60.9-35,84c-23,23-50.7,34.6-83.3,34.7c-0.2,0-0.4,0-0.7,0
			c-32.7,0-60.7-11.6-83.8-34.7c-23.3-23.1-35-51.1-35-84c0-0.2,0-0.3,0-0.5c0-0.2,0-0.3,0-0.5c0.3-32.5,11.9-60.2,35-83.1
			c7.1-7.1,14.7-13.1,22.8-18.1h-0.1c0.6-0.4,1.3-0.7,1.9-1C527.6,395.1,547.4,389.8,569.2,389.8z M569.9,394.7c-0.2,0-0.4,0-0.7,0
			c-21.1,0-40.1,5-57.1,15.2c-0.2,0.1-0.3,0.2-0.5,0.2c-0.3,0.1-0.6,0.3-0.8,0.5h-0.1c-7.8,4.8-15,10.5-21.9,17.4
			c-22.2,22-33.4,48.8-33.5,80.2c0,0.2,0,0.3,0,0.5c0,31.6,11.2,58.4,33.5,80.6c22.2,22.2,49,33.3,80.4,33.3c0.3,0,0.6,0,0.7,0
			c31.2-0.2,57.9-11.2,79.9-33.3c22.3-22.2,33.5-49.1,33.5-80.6c0-0.2,0-0.3,0-0.5c-0.2-31.4-11.3-58.1-33.5-80.2
			C627.8,405.9,601.2,394.8,569.9,394.7z"/>
	</g>
</g>
</svg>
